M48
; DRILL file {KiCad 7.0.9} date Sat Jun  7 20:59:03 2025
; FORMAT={-:-/ absolute / metric / decimal}
; #@! TF.CreationDate,2025-06-07T20:59:03+05:30
; #@! TF.GenerationSoftware,Kicad,Pcbnew,7.0.9
; #@! TF.FileFunction,Plated,1,2,PTH
FMAT,2
METRIC
; #@! TA.AperFunction,Plated,PTH,ViaDrill
T1C0.400
; #@! TA.AperFunction,Plated,PTH,ComponentDrill
T2C0.400
; #@! TA.AperFunction,Plated,PTH,ComponentDrill
T3C0.900
; #@! TA.AperFunction,Plated,PTH,ComponentDrill
T4C0.950
; #@! TA.AperFunction,Plated,PTH,ComponentDrill
T5C1.000
; #@! TA.AperFunction,Plated,PTH,ComponentDrill
T6C1.500
; #@! TA.AperFunction,Plated,PTH,ComponentDrill
T7C2.200
%
G90
G05
T1
X100.203Y-75.565
X100.457Y-69.723
X100.711Y-71.374
X100.838Y-66.548
X100.838Y-68.326
X103.251Y-70.358
X103.505Y-81.407
X104.521Y-77.597
X105.664Y-72.517
X106.299Y-74.93
X106.807Y-79.275
X106.807Y-81.28
X107.188Y-66.802
X107.442Y-72.517
X109.499Y-78.486
X109.678Y-67.945
X110.363Y-73.533
X112.141Y-73.533
X113.665Y-66.956
X114.935Y-65.913
X115.443Y-78.359
X116.686Y-70.485
X116.776Y-74.105
X117.274Y-75.692
X117.602Y-81.534
X118.491Y-80.391
X118.872Y-72.771
X118.872Y-89.281
X119.018Y-66.675
X119.634Y-65.786
X119.634Y-70.866
X120.269Y-69.977
X120.396Y-75.946
X121.412Y-77.724
X122.047Y-67.056
X122.428Y-78.105
X122.682Y-76.454
X122.682Y-82.677
X123.952Y-70.231
X123.952Y-71.628
X123.952Y-72.898
X124.46Y-62.357
X124.587Y-63.373
X124.587Y-76.073
X125.222Y-70.231
X125.222Y-71.501
X125.349Y-73.025
X126.238Y-66.421
X126.746Y-70.231
X126.746Y-71.501
X126.746Y-73.025
X127.762Y-75.946
X127.889Y-87.249
X128.004Y-85.643
X128.397Y-78.486
X128.651Y-66.802
X130.302Y-88.265
X131.064Y-85.852
X131.445Y-67.818
X132.461Y-87.376
X133.096Y-75.819
X133.985Y-82.677
X134.366Y-66.929
X134.874Y-75.819
X139.319Y-75.438
X143.256Y-91.313
X146.939Y-63.119
X147.066Y-72.771
T2
X94.235Y-59.563
X94.49Y-93.345
X94.718Y-58.396
X94.718Y-60.73
X94.973Y-92.178
X94.973Y-94.512
X95.885Y-57.913
X95.885Y-61.213
X96.14Y-91.695
X96.14Y-94.995
X97.052Y-58.396
X97.052Y-60.73
X97.307Y-92.178
X97.307Y-94.512
X97.535Y-59.563
X97.79Y-93.345
X147.575Y-59.817
X148.058Y-58.65
X148.058Y-60.984
X148.21Y-93.472
X148.693Y-92.305
X148.693Y-94.639
X149.225Y-58.167
X149.225Y-61.467
X149.86Y-91.822
X149.86Y-95.122
X150.392Y-58.65
X150.392Y-60.984
X150.875Y-59.817
X151.027Y-92.305
X151.027Y-94.639
X151.51Y-93.472
T3
X107.628Y-59.69
X109.628Y-59.69
X111.628Y-59.69
T4
X102.823Y-93.599
X105.323Y-93.599
X107.823Y-93.599
X126.024Y-58.793
X126.572Y-93.853
X128.524Y-58.793
X129.072Y-93.853
X131.024Y-58.793
X131.572Y-93.853
X137.835Y-58.666
X138.343Y-93.853
X140.335Y-58.666
X140.843Y-93.853
X142.835Y-58.666
X143.343Y-93.853
X150.114Y-66.755
X150.114Y-69.255
X150.114Y-71.755
T5
X96.139Y-67.35
X96.139Y-69.85
T6
X105.528Y-59.69
X113.728Y-59.69
T7
X95.885Y-59.563
X96.14Y-93.345
X149.225Y-59.817
X149.86Y-93.472
T0
M30
