%TF.GenerationSoftware,KiCad,Pcbnew,7.0.9*%
%TF.CreationDate,2025-06-07T20:58:59+05:30*%
%TF.ProjectId,flight_computer_rocketry,666c6967-6874-45f6-936f-6d7075746572,rev?*%
%TF.SameCoordinates,Original*%
%TF.FileFunction,Paste,Top*%
%TF.FilePolarity,Positive*%
%FSLAX46Y46*%
G04 Gerber Fmt 4.6, Leading zero omitted, Abs format (unit mm)*
G04 Created by KiCad (PCBNEW 7.0.9) date 2025-06-07 20:58:59*
%MOMM*%
%LPD*%
G01*
G04 APERTURE LIST*
G04 Aperture macros list*
%AMRoundRect*
0 Rectangle with rounded corners*
0 $1 Rounding radius*
0 $2 $3 $4 $5 $6 $7 $8 $9 X,Y pos of 4 corners*
0 Add a 4 corners polygon primitive as box body*
4,1,4,$2,$3,$4,$5,$6,$7,$8,$9,$2,$3,0*
0 Add four circle primitives for the rounded corners*
1,1,$1+$1,$2,$3*
1,1,$1+$1,$4,$5*
1,1,$1+$1,$6,$7*
1,1,$1+$1,$8,$9*
0 Add four rect primitives between the rounded corners*
20,1,$1+$1,$2,$3,$4,$5,0*
20,1,$1+$1,$4,$5,$6,$7,0*
20,1,$1+$1,$6,$7,$8,$9,0*
20,1,$1+$1,$8,$9,$2,$3,0*%
G04 Aperture macros list end*
%ADD10RoundRect,0.237500X-0.300000X-0.237500X0.300000X-0.237500X0.300000X0.237500X-0.300000X0.237500X0*%
%ADD11RoundRect,0.237500X0.237500X-0.287500X0.237500X0.287500X-0.237500X0.287500X-0.237500X-0.287500X0*%
%ADD12R,2.000000X1.500000*%
%ADD13R,2.000000X3.800000*%
%ADD14RoundRect,0.237500X-0.237500X0.300000X-0.237500X-0.300000X0.237500X-0.300000X0.237500X0.300000X0*%
%ADD15RoundRect,0.250000X-0.350000X-0.450000X0.350000X-0.450000X0.350000X0.450000X-0.350000X0.450000X0*%
%ADD16R,1.380000X0.450000*%
%ADD17R,1.300000X1.650000*%
%ADD18R,1.550000X1.425000*%
%ADD19R,1.900000X1.800000*%
%ADD20R,1.900000X1.000000*%
%ADD21RoundRect,0.150000X-0.150000X-0.700000X0.150000X-0.700000X0.150000X0.700000X-0.150000X0.700000X0*%
%ADD22RoundRect,0.250000X-0.250000X-1.100000X0.250000X-1.100000X0.250000X1.100000X-0.250000X1.100000X0*%
%ADD23RoundRect,0.250000X-0.450000X0.350000X-0.450000X-0.350000X0.450000X-0.350000X0.450000X0.350000X0*%
%ADD24R,1.800000X1.400000*%
%ADD25RoundRect,0.250000X0.315000X0.315000X-0.315000X0.315000X-0.315000X-0.315000X0.315000X-0.315000X0*%
%ADD26RoundRect,0.062500X0.375000X0.062500X-0.375000X0.062500X-0.375000X-0.062500X0.375000X-0.062500X0*%
%ADD27RoundRect,0.062500X0.062500X0.375000X-0.062500X0.375000X-0.062500X-0.375000X0.062500X-0.375000X0*%
%ADD28RoundRect,0.250000X-0.250000X-1.150000X0.250000X-1.150000X0.250000X1.150000X-0.250000X1.150000X0*%
%ADD29R,1.000000X1.700000*%
%ADD30RoundRect,0.237500X-0.237500X0.287500X-0.237500X-0.287500X0.237500X-0.287500X0.237500X0.287500X0*%
%ADD31RoundRect,0.075000X-0.350000X-0.075000X0.350000X-0.075000X0.350000X0.075000X-0.350000X0.075000X0*%
%ADD32RoundRect,0.075000X0.075000X-0.350000X0.075000X0.350000X-0.075000X0.350000X-0.075000X-0.350000X0*%
%ADD33RoundRect,0.250000X0.350000X0.450000X-0.350000X0.450000X-0.350000X-0.450000X0.350000X-0.450000X0*%
%ADD34RoundRect,0.237500X0.287500X0.237500X-0.287500X0.237500X-0.287500X-0.237500X0.287500X-0.237500X0*%
G04 APERTURE END LIST*
D10*
%TO.C,C14*%
X117247500Y-77343000D03*
X118972500Y-77343000D03*
%TD*%
D11*
%TO.C,D2*%
X142113000Y-67536000D03*
X142113000Y-65786000D03*
%TD*%
D12*
%TO.C,U1*%
X103378000Y-65645000D03*
X103378000Y-67945000D03*
D13*
X109678000Y-67945000D03*
D12*
X103378000Y-70245000D03*
%TD*%
D14*
%TO.C,C12*%
X123444000Y-64087500D03*
X123444000Y-65812500D03*
%TD*%
D15*
%TO.C,R2*%
X137811000Y-65786000D03*
X139811000Y-65786000D03*
%TD*%
D10*
%TO.C,C3*%
X128004000Y-87294000D03*
X129729000Y-87294000D03*
%TD*%
D16*
%TO.C,J1*%
X97472000Y-80742000D03*
X97472000Y-81392000D03*
X97472000Y-82042000D03*
X97472000Y-82692000D03*
X97472000Y-83342000D03*
D17*
X94812000Y-78667000D03*
D18*
X97387000Y-79554500D03*
D19*
X94812000Y-80892000D03*
D20*
X94812000Y-83592000D03*
D18*
X97387000Y-84529500D03*
D17*
X94812000Y-85417000D03*
%TD*%
D21*
%TO.C,J10*%
X115304000Y-91415000D03*
X116554000Y-91415000D03*
X117804000Y-91415000D03*
X119054000Y-91415000D03*
D22*
X113454000Y-94615000D03*
X120904000Y-94615000D03*
%TD*%
D23*
%TO.C,R3*%
X104521000Y-77486000D03*
X104521000Y-79486000D03*
%TD*%
D24*
%TO.C,Y1*%
X136468000Y-73082000D03*
X140868000Y-73082000D03*
X140868000Y-70682000D03*
X136468000Y-70682000D03*
%TD*%
D25*
%TO.C,U4*%
X127638000Y-73536000D03*
X127638000Y-72136000D03*
X127638000Y-70736000D03*
X127638000Y-69336000D03*
X126238000Y-73536000D03*
X126238000Y-72136000D03*
X126238000Y-70736000D03*
X126238000Y-69336000D03*
X124838000Y-73536000D03*
X124838000Y-72136000D03*
X124838000Y-70736000D03*
X124838000Y-69336000D03*
X123438000Y-73536000D03*
X123438000Y-72136000D03*
X123438000Y-70736000D03*
X123438000Y-69336000D03*
D26*
X128975500Y-74186000D03*
X128975500Y-73686000D03*
X128975500Y-73186000D03*
X128975500Y-72686000D03*
X128975500Y-72186000D03*
X128975500Y-71686000D03*
X128975500Y-71186000D03*
X128975500Y-70686000D03*
X128975500Y-70186000D03*
X128975500Y-69686000D03*
X128975500Y-69186000D03*
X128975500Y-68686000D03*
D27*
X128288000Y-67998500D03*
X127788000Y-67998500D03*
X127288000Y-67998500D03*
X126788000Y-67998500D03*
X126288000Y-67998500D03*
X125788000Y-67998500D03*
X125288000Y-67998500D03*
X124788000Y-67998500D03*
X124288000Y-67998500D03*
X123788000Y-67998500D03*
X123288000Y-67998500D03*
X122788000Y-67998500D03*
D26*
X122100500Y-68686000D03*
X122100500Y-69186000D03*
X122100500Y-69686000D03*
X122100500Y-70186000D03*
X122100500Y-70686000D03*
X122100500Y-71186000D03*
X122100500Y-71686000D03*
X122100500Y-72186000D03*
X122100500Y-72686000D03*
X122100500Y-73186000D03*
X122100500Y-73686000D03*
X122100500Y-74186000D03*
D27*
X122788000Y-74873500D03*
X123288000Y-74873500D03*
X123788000Y-74873500D03*
X124288000Y-74873500D03*
X124788000Y-74873500D03*
X125288000Y-74873500D03*
X125788000Y-74873500D03*
X126288000Y-74873500D03*
X126788000Y-74873500D03*
X127288000Y-74873500D03*
X127788000Y-74873500D03*
X128288000Y-74873500D03*
%TD*%
D14*
%TO.C,C5*%
X132453000Y-85624500D03*
X132453000Y-87349500D03*
%TD*%
D10*
%TO.C,C10*%
X137551500Y-68453000D03*
X139276500Y-68453000D03*
%TD*%
%TO.C,C4*%
X128004000Y-85643000D03*
X129729000Y-85643000D03*
%TD*%
D21*
%TO.C,J6*%
X115219000Y-62148000D03*
X116469000Y-62148000D03*
X117719000Y-62148000D03*
X118969000Y-62148000D03*
D28*
X113369000Y-58798000D03*
X120819000Y-58798000D03*
%TD*%
D10*
%TO.C,C17*%
X117274000Y-75692000D03*
X118999000Y-75692000D03*
%TD*%
%TO.C,C9*%
X137551500Y-75438000D03*
X139276500Y-75438000D03*
%TD*%
D29*
%TO.C,SW1*%
X119766000Y-85700000D03*
X119766000Y-79400000D03*
X123566000Y-85700000D03*
X123566000Y-79400000D03*
%TD*%
D30*
%TO.C,D1*%
X100711000Y-71388000D03*
X100711000Y-73138000D03*
%TD*%
D31*
%TO.C,U2*%
X128213000Y-80329000D03*
X128213000Y-80829000D03*
X128213000Y-81329000D03*
X128213000Y-81829000D03*
X128213000Y-82329000D03*
X128213000Y-82829000D03*
D32*
X128913000Y-83529000D03*
X129413000Y-83529000D03*
X129913000Y-83529000D03*
X130413000Y-83529000D03*
X130913000Y-83529000D03*
X131413000Y-83529000D03*
D31*
X132113000Y-82829000D03*
X132113000Y-82329000D03*
X132113000Y-81829000D03*
X132113000Y-81329000D03*
X132113000Y-80829000D03*
X132113000Y-80329000D03*
D32*
X131413000Y-79629000D03*
X130913000Y-79629000D03*
X130413000Y-79629000D03*
X129913000Y-79629000D03*
X129413000Y-79629000D03*
X128913000Y-79629000D03*
%TD*%
D10*
%TO.C,C16*%
X110389500Y-73533000D03*
X112114500Y-73533000D03*
%TD*%
%TO.C,C7*%
X131217500Y-77642000D03*
X132942500Y-77642000D03*
%TD*%
D33*
%TO.C,R1*%
X104886000Y-74676000D03*
X102886000Y-74676000D03*
%TD*%
D14*
%TO.C,C13*%
X121793000Y-64061000D03*
X121793000Y-65786000D03*
%TD*%
D34*
%TO.C,D3*%
X106793000Y-81407000D03*
X105043000Y-81407000D03*
%TD*%
M02*
