%TF.GenerationSoftware,KiCad,Pcbnew,7.0.9*%
%TF.CreationDate,2025-06-07T20:59:00+05:30*%
%TF.ProjectId,flight_computer_rocketry,666c6967-6874-45f6-936f-6d7075746572,rev?*%
%TF.SameCoordinates,Original*%
%TF.FileFunction,Legend,Bot*%
%TF.FilePolarity,Positive*%
%FSLAX46Y46*%
G04 Gerber Fmt 4.6, Leading zero omitted, Abs format (unit mm)*
G04 Created by KiCad (PCBNEW 7.0.9) date 2025-06-07 20:59:00*
%MOMM*%
%LPD*%
G01*
G04 APERTURE LIST*
%ADD10C,0.200000*%
%ADD11C,0.125000*%
%ADD12C,0.300000*%
%ADD13C,0.250000*%
%ADD14C,0.150000*%
%ADD15C,0.120000*%
%ADD16C,0.100000*%
G04 APERTURE END LIST*
D10*
X138156695Y-89603006D02*
X138156695Y-89222054D01*
X138156695Y-89222054D02*
X138537647Y-89183958D01*
X138537647Y-89183958D02*
X138499552Y-89222054D01*
X138499552Y-89222054D02*
X138461457Y-89298244D01*
X138461457Y-89298244D02*
X138461457Y-89488720D01*
X138461457Y-89488720D02*
X138499552Y-89564911D01*
X138499552Y-89564911D02*
X138537647Y-89603006D01*
X138537647Y-89603006D02*
X138613838Y-89641101D01*
X138613838Y-89641101D02*
X138804314Y-89641101D01*
X138804314Y-89641101D02*
X138880504Y-89603006D01*
X138880504Y-89603006D02*
X138918600Y-89564911D01*
X138918600Y-89564911D02*
X138956695Y-89488720D01*
X138956695Y-89488720D02*
X138956695Y-89298244D01*
X138956695Y-89298244D02*
X138918600Y-89222054D01*
X138918600Y-89222054D02*
X138880504Y-89183958D01*
X138156695Y-89869673D02*
X138956695Y-90136340D01*
X138956695Y-90136340D02*
X138156695Y-90403006D01*
D11*
X119364500Y-61321616D02*
X119402595Y-61435902D01*
X119402595Y-61435902D02*
X119402595Y-61626378D01*
X119402595Y-61626378D02*
X119364500Y-61702569D01*
X119364500Y-61702569D02*
X119326404Y-61740664D01*
X119326404Y-61740664D02*
X119250214Y-61778759D01*
X119250214Y-61778759D02*
X119174023Y-61778759D01*
X119174023Y-61778759D02*
X119097833Y-61740664D01*
X119097833Y-61740664D02*
X119059738Y-61702569D01*
X119059738Y-61702569D02*
X119021642Y-61626378D01*
X119021642Y-61626378D02*
X118983547Y-61473997D01*
X118983547Y-61473997D02*
X118945452Y-61397807D01*
X118945452Y-61397807D02*
X118907357Y-61359712D01*
X118907357Y-61359712D02*
X118831166Y-61321616D01*
X118831166Y-61321616D02*
X118754976Y-61321616D01*
X118754976Y-61321616D02*
X118678785Y-61359712D01*
X118678785Y-61359712D02*
X118640690Y-61397807D01*
X118640690Y-61397807D02*
X118602595Y-61473997D01*
X118602595Y-61473997D02*
X118602595Y-61664474D01*
X118602595Y-61664474D02*
X118640690Y-61778759D01*
X118602595Y-62045426D02*
X119402595Y-62235902D01*
X119402595Y-62235902D02*
X118831166Y-62388283D01*
X118831166Y-62388283D02*
X119402595Y-62540664D01*
X119402595Y-62540664D02*
X118602595Y-62731141D01*
X119402595Y-63035903D02*
X118602595Y-63035903D01*
X118602595Y-63035903D02*
X118602595Y-63226379D01*
X118602595Y-63226379D02*
X118640690Y-63340665D01*
X118640690Y-63340665D02*
X118716880Y-63416855D01*
X118716880Y-63416855D02*
X118793071Y-63454950D01*
X118793071Y-63454950D02*
X118945452Y-63493046D01*
X118945452Y-63493046D02*
X119059738Y-63493046D01*
X119059738Y-63493046D02*
X119212119Y-63454950D01*
X119212119Y-63454950D02*
X119288309Y-63416855D01*
X119288309Y-63416855D02*
X119364500Y-63340665D01*
X119364500Y-63340665D02*
X119402595Y-63226379D01*
X119402595Y-63226379D02*
X119402595Y-63035903D01*
X119402595Y-63835903D02*
X118602595Y-63835903D01*
X118602595Y-64369236D02*
X118602595Y-64521617D01*
X118602595Y-64521617D02*
X118640690Y-64597807D01*
X118640690Y-64597807D02*
X118716880Y-64673998D01*
X118716880Y-64673998D02*
X118869261Y-64712093D01*
X118869261Y-64712093D02*
X119135928Y-64712093D01*
X119135928Y-64712093D02*
X119288309Y-64673998D01*
X119288309Y-64673998D02*
X119364500Y-64597807D01*
X119364500Y-64597807D02*
X119402595Y-64521617D01*
X119402595Y-64521617D02*
X119402595Y-64369236D01*
X119402595Y-64369236D02*
X119364500Y-64293045D01*
X119364500Y-64293045D02*
X119288309Y-64216855D01*
X119288309Y-64216855D02*
X119135928Y-64178759D01*
X119135928Y-64178759D02*
X118869261Y-64178759D01*
X118869261Y-64178759D02*
X118716880Y-64216855D01*
X118716880Y-64216855D02*
X118640690Y-64293045D01*
X118640690Y-64293045D02*
X118602595Y-64369236D01*
D12*
X108434742Y-90226774D02*
X108506171Y-90369632D01*
X108506171Y-90369632D02*
X108506171Y-90583917D01*
X108506171Y-90583917D02*
X108434742Y-90798203D01*
X108434742Y-90798203D02*
X108291885Y-90941060D01*
X108291885Y-90941060D02*
X108149028Y-91012489D01*
X108149028Y-91012489D02*
X107863314Y-91083917D01*
X107863314Y-91083917D02*
X107649028Y-91083917D01*
X107649028Y-91083917D02*
X107363314Y-91012489D01*
X107363314Y-91012489D02*
X107220457Y-90941060D01*
X107220457Y-90941060D02*
X107077600Y-90798203D01*
X107077600Y-90798203D02*
X107006171Y-90583917D01*
X107006171Y-90583917D02*
X107006171Y-90441060D01*
X107006171Y-90441060D02*
X107077600Y-90226774D01*
X107077600Y-90226774D02*
X107149028Y-90155346D01*
X107149028Y-90155346D02*
X107649028Y-90155346D01*
X107649028Y-90155346D02*
X107649028Y-90441060D01*
X107006171Y-89512489D02*
X108506171Y-89512489D01*
X108506171Y-89512489D02*
X107006171Y-88655346D01*
X107006171Y-88655346D02*
X108506171Y-88655346D01*
X107006171Y-87941060D02*
X108506171Y-87941060D01*
X108506171Y-87941060D02*
X108506171Y-87583917D01*
X108506171Y-87583917D02*
X108434742Y-87369631D01*
X108434742Y-87369631D02*
X108291885Y-87226774D01*
X108291885Y-87226774D02*
X108149028Y-87155345D01*
X108149028Y-87155345D02*
X107863314Y-87083917D01*
X107863314Y-87083917D02*
X107649028Y-87083917D01*
X107649028Y-87083917D02*
X107363314Y-87155345D01*
X107363314Y-87155345D02*
X107220457Y-87226774D01*
X107220457Y-87226774D02*
X107077600Y-87369631D01*
X107077600Y-87369631D02*
X107006171Y-87583917D01*
X107006171Y-87583917D02*
X107006171Y-87941060D01*
D10*
X114788695Y-61586863D02*
X114788695Y-62082101D01*
X114788695Y-62082101D02*
X115093457Y-61815435D01*
X115093457Y-61815435D02*
X115093457Y-61929720D01*
X115093457Y-61929720D02*
X115131552Y-62005911D01*
X115131552Y-62005911D02*
X115169647Y-62044006D01*
X115169647Y-62044006D02*
X115245838Y-62082101D01*
X115245838Y-62082101D02*
X115436314Y-62082101D01*
X115436314Y-62082101D02*
X115512504Y-62044006D01*
X115512504Y-62044006D02*
X115550600Y-62005911D01*
X115550600Y-62005911D02*
X115588695Y-61929720D01*
X115588695Y-61929720D02*
X115588695Y-61701149D01*
X115588695Y-61701149D02*
X115550600Y-61624958D01*
X115550600Y-61624958D02*
X115512504Y-61586863D01*
X115512504Y-62424959D02*
X115550600Y-62463054D01*
X115550600Y-62463054D02*
X115588695Y-62424959D01*
X115588695Y-62424959D02*
X115550600Y-62386863D01*
X115550600Y-62386863D02*
X115512504Y-62424959D01*
X115512504Y-62424959D02*
X115588695Y-62424959D01*
X114788695Y-62729720D02*
X114788695Y-63224958D01*
X114788695Y-63224958D02*
X115093457Y-62958292D01*
X115093457Y-62958292D02*
X115093457Y-63072577D01*
X115093457Y-63072577D02*
X115131552Y-63148768D01*
X115131552Y-63148768D02*
X115169647Y-63186863D01*
X115169647Y-63186863D02*
X115245838Y-63224958D01*
X115245838Y-63224958D02*
X115436314Y-63224958D01*
X115436314Y-63224958D02*
X115512504Y-63186863D01*
X115512504Y-63186863D02*
X115550600Y-63148768D01*
X115550600Y-63148768D02*
X115588695Y-63072577D01*
X115588695Y-63072577D02*
X115588695Y-62844006D01*
X115588695Y-62844006D02*
X115550600Y-62767815D01*
X115550600Y-62767815D02*
X115512504Y-62729720D01*
X114788695Y-63453530D02*
X115588695Y-63720197D01*
X115588695Y-63720197D02*
X114788695Y-63986863D01*
X125838304Y-63431945D02*
X126638304Y-63431945D01*
X126638304Y-63431945D02*
X126638304Y-63127183D01*
X126638304Y-63127183D02*
X126600209Y-63050993D01*
X126600209Y-63050993D02*
X126562114Y-63012898D01*
X126562114Y-63012898D02*
X126485923Y-62974802D01*
X126485923Y-62974802D02*
X126371638Y-62974802D01*
X126371638Y-62974802D02*
X126295447Y-63012898D01*
X126295447Y-63012898D02*
X126257352Y-63050993D01*
X126257352Y-63050993D02*
X126219257Y-63127183D01*
X126219257Y-63127183D02*
X126219257Y-63431945D01*
X126638304Y-62708136D02*
X125838304Y-62517660D01*
X125838304Y-62517660D02*
X126409733Y-62365279D01*
X126409733Y-62365279D02*
X125838304Y-62212898D01*
X125838304Y-62212898D02*
X126638304Y-62022422D01*
X125838304Y-61717659D02*
X126638304Y-61717659D01*
X126638304Y-61717659D02*
X126066876Y-61450993D01*
X126066876Y-61450993D02*
X126638304Y-61184326D01*
X126638304Y-61184326D02*
X125838304Y-61184326D01*
X119996209Y-89301898D02*
X120034304Y-89378088D01*
X120034304Y-89378088D02*
X120034304Y-89492374D01*
X120034304Y-89492374D02*
X119996209Y-89606660D01*
X119996209Y-89606660D02*
X119920019Y-89682850D01*
X119920019Y-89682850D02*
X119843828Y-89720945D01*
X119843828Y-89720945D02*
X119691447Y-89759041D01*
X119691447Y-89759041D02*
X119577161Y-89759041D01*
X119577161Y-89759041D02*
X119424780Y-89720945D01*
X119424780Y-89720945D02*
X119348590Y-89682850D01*
X119348590Y-89682850D02*
X119272400Y-89606660D01*
X119272400Y-89606660D02*
X119234304Y-89492374D01*
X119234304Y-89492374D02*
X119234304Y-89416183D01*
X119234304Y-89416183D02*
X119272400Y-89301898D01*
X119272400Y-89301898D02*
X119310495Y-89263802D01*
X119310495Y-89263802D02*
X119577161Y-89263802D01*
X119577161Y-89263802D02*
X119577161Y-89416183D01*
X119234304Y-88920945D02*
X120034304Y-88920945D01*
X120034304Y-88920945D02*
X119234304Y-88463802D01*
X119234304Y-88463802D02*
X120034304Y-88463802D01*
X119234304Y-88082850D02*
X120034304Y-88082850D01*
X120034304Y-88082850D02*
X120034304Y-87892374D01*
X120034304Y-87892374D02*
X119996209Y-87778088D01*
X119996209Y-87778088D02*
X119920019Y-87701898D01*
X119920019Y-87701898D02*
X119843828Y-87663803D01*
X119843828Y-87663803D02*
X119691447Y-87625707D01*
X119691447Y-87625707D02*
X119577161Y-87625707D01*
X119577161Y-87625707D02*
X119424780Y-87663803D01*
X119424780Y-87663803D02*
X119348590Y-87701898D01*
X119348590Y-87701898D02*
X119272400Y-87778088D01*
X119272400Y-87778088D02*
X119234304Y-87892374D01*
X119234304Y-87892374D02*
X119234304Y-88082850D01*
X116186304Y-89136802D02*
X116567257Y-89403469D01*
X116186304Y-89593945D02*
X116986304Y-89593945D01*
X116986304Y-89593945D02*
X116986304Y-89289183D01*
X116986304Y-89289183D02*
X116948209Y-89212993D01*
X116948209Y-89212993D02*
X116910114Y-89174898D01*
X116910114Y-89174898D02*
X116833923Y-89136802D01*
X116833923Y-89136802D02*
X116719638Y-89136802D01*
X116719638Y-89136802D02*
X116643447Y-89174898D01*
X116643447Y-89174898D02*
X116605352Y-89212993D01*
X116605352Y-89212993D02*
X116567257Y-89289183D01*
X116567257Y-89289183D02*
X116567257Y-89593945D01*
X116986304Y-88870136D02*
X116186304Y-88336802D01*
X116986304Y-88336802D02*
X116186304Y-88870136D01*
X143021304Y-61780993D02*
X143021304Y-62161945D01*
X143021304Y-62161945D02*
X142640352Y-62200041D01*
X142640352Y-62200041D02*
X142678447Y-62161945D01*
X142678447Y-62161945D02*
X142716542Y-62085755D01*
X142716542Y-62085755D02*
X142716542Y-61895279D01*
X142716542Y-61895279D02*
X142678447Y-61819088D01*
X142678447Y-61819088D02*
X142640352Y-61780993D01*
X142640352Y-61780993D02*
X142564161Y-61742898D01*
X142564161Y-61742898D02*
X142373685Y-61742898D01*
X142373685Y-61742898D02*
X142297495Y-61780993D01*
X142297495Y-61780993D02*
X142259400Y-61819088D01*
X142259400Y-61819088D02*
X142221304Y-61895279D01*
X142221304Y-61895279D02*
X142221304Y-62085755D01*
X142221304Y-62085755D02*
X142259400Y-62161945D01*
X142259400Y-62161945D02*
X142297495Y-62200041D01*
X143021304Y-61514326D02*
X142221304Y-61247659D01*
X142221304Y-61247659D02*
X143021304Y-60980993D01*
X137649304Y-63177945D02*
X138449304Y-63177945D01*
X138449304Y-63177945D02*
X138449304Y-62873183D01*
X138449304Y-62873183D02*
X138411209Y-62796993D01*
X138411209Y-62796993D02*
X138373114Y-62758898D01*
X138373114Y-62758898D02*
X138296923Y-62720802D01*
X138296923Y-62720802D02*
X138182638Y-62720802D01*
X138182638Y-62720802D02*
X138106447Y-62758898D01*
X138106447Y-62758898D02*
X138068352Y-62796993D01*
X138068352Y-62796993D02*
X138030257Y-62873183D01*
X138030257Y-62873183D02*
X138030257Y-63177945D01*
X138449304Y-62454136D02*
X137649304Y-62263660D01*
X137649304Y-62263660D02*
X138220733Y-62111279D01*
X138220733Y-62111279D02*
X137649304Y-61958898D01*
X137649304Y-61958898D02*
X138449304Y-61768422D01*
X137649304Y-61463659D02*
X138449304Y-61463659D01*
X138449304Y-61463659D02*
X137877876Y-61196993D01*
X137877876Y-61196993D02*
X138449304Y-60930326D01*
X138449304Y-60930326D02*
X137649304Y-60930326D01*
D12*
X105966171Y-91028346D02*
X105966171Y-90099774D01*
X105966171Y-90099774D02*
X105394742Y-90599774D01*
X105394742Y-90599774D02*
X105394742Y-90385489D01*
X105394742Y-90385489D02*
X105323314Y-90242632D01*
X105323314Y-90242632D02*
X105251885Y-90171203D01*
X105251885Y-90171203D02*
X105109028Y-90099774D01*
X105109028Y-90099774D02*
X104751885Y-90099774D01*
X104751885Y-90099774D02*
X104609028Y-90171203D01*
X104609028Y-90171203D02*
X104537600Y-90242632D01*
X104537600Y-90242632D02*
X104466171Y-90385489D01*
X104466171Y-90385489D02*
X104466171Y-90814060D01*
X104466171Y-90814060D02*
X104537600Y-90956917D01*
X104537600Y-90956917D02*
X104609028Y-91028346D01*
X104609028Y-89456918D02*
X104537600Y-89385489D01*
X104537600Y-89385489D02*
X104466171Y-89456918D01*
X104466171Y-89456918D02*
X104537600Y-89528346D01*
X104537600Y-89528346D02*
X104609028Y-89456918D01*
X104609028Y-89456918D02*
X104466171Y-89456918D01*
X105966171Y-88885489D02*
X105966171Y-87956917D01*
X105966171Y-87956917D02*
X105394742Y-88456917D01*
X105394742Y-88456917D02*
X105394742Y-88242632D01*
X105394742Y-88242632D02*
X105323314Y-88099775D01*
X105323314Y-88099775D02*
X105251885Y-88028346D01*
X105251885Y-88028346D02*
X105109028Y-87956917D01*
X105109028Y-87956917D02*
X104751885Y-87956917D01*
X104751885Y-87956917D02*
X104609028Y-88028346D01*
X104609028Y-88028346D02*
X104537600Y-88099775D01*
X104537600Y-88099775D02*
X104466171Y-88242632D01*
X104466171Y-88242632D02*
X104466171Y-88671203D01*
X104466171Y-88671203D02*
X104537600Y-88814060D01*
X104537600Y-88814060D02*
X104609028Y-88885489D01*
X105966171Y-87528346D02*
X104466171Y-87028346D01*
X104466171Y-87028346D02*
X105966171Y-86528346D01*
D10*
X139972790Y-61447101D02*
X139934695Y-61370911D01*
X139934695Y-61370911D02*
X139934695Y-61256625D01*
X139934695Y-61256625D02*
X139972790Y-61142339D01*
X139972790Y-61142339D02*
X140048980Y-61066149D01*
X140048980Y-61066149D02*
X140125171Y-61028054D01*
X140125171Y-61028054D02*
X140277552Y-60989958D01*
X140277552Y-60989958D02*
X140391838Y-60989958D01*
X140391838Y-60989958D02*
X140544219Y-61028054D01*
X140544219Y-61028054D02*
X140620409Y-61066149D01*
X140620409Y-61066149D02*
X140696600Y-61142339D01*
X140696600Y-61142339D02*
X140734695Y-61256625D01*
X140734695Y-61256625D02*
X140734695Y-61332816D01*
X140734695Y-61332816D02*
X140696600Y-61447101D01*
X140696600Y-61447101D02*
X140658504Y-61485197D01*
X140658504Y-61485197D02*
X140391838Y-61485197D01*
X140391838Y-61485197D02*
X140391838Y-61332816D01*
X140734695Y-61828054D02*
X139934695Y-61828054D01*
X139934695Y-61828054D02*
X140734695Y-62285197D01*
X140734695Y-62285197D02*
X139934695Y-62285197D01*
X140734695Y-62666149D02*
X139934695Y-62666149D01*
X139934695Y-62666149D02*
X139934695Y-62856625D01*
X139934695Y-62856625D02*
X139972790Y-62970911D01*
X139972790Y-62970911D02*
X140048980Y-63047101D01*
X140048980Y-63047101D02*
X140125171Y-63085196D01*
X140125171Y-63085196D02*
X140277552Y-63123292D01*
X140277552Y-63123292D02*
X140391838Y-63123292D01*
X140391838Y-63123292D02*
X140544219Y-63085196D01*
X140544219Y-63085196D02*
X140620409Y-63047101D01*
X140620409Y-63047101D02*
X140696600Y-62970911D01*
X140696600Y-62970911D02*
X140734695Y-62856625D01*
X140734695Y-62856625D02*
X140734695Y-62666149D01*
X131210304Y-62034993D02*
X131210304Y-62415945D01*
X131210304Y-62415945D02*
X130829352Y-62454041D01*
X130829352Y-62454041D02*
X130867447Y-62415945D01*
X130867447Y-62415945D02*
X130905542Y-62339755D01*
X130905542Y-62339755D02*
X130905542Y-62149279D01*
X130905542Y-62149279D02*
X130867447Y-62073088D01*
X130867447Y-62073088D02*
X130829352Y-62034993D01*
X130829352Y-62034993D02*
X130753161Y-61996898D01*
X130753161Y-61996898D02*
X130562685Y-61996898D01*
X130562685Y-61996898D02*
X130486495Y-62034993D01*
X130486495Y-62034993D02*
X130448400Y-62073088D01*
X130448400Y-62073088D02*
X130410304Y-62149279D01*
X130410304Y-62149279D02*
X130410304Y-62339755D01*
X130410304Y-62339755D02*
X130448400Y-62415945D01*
X130448400Y-62415945D02*
X130486495Y-62454041D01*
X131210304Y-61768326D02*
X130410304Y-61501659D01*
X130410304Y-61501659D02*
X131210304Y-61234993D01*
X116096790Y-61955101D02*
X116058695Y-61878911D01*
X116058695Y-61878911D02*
X116058695Y-61764625D01*
X116058695Y-61764625D02*
X116096790Y-61650339D01*
X116096790Y-61650339D02*
X116172980Y-61574149D01*
X116172980Y-61574149D02*
X116249171Y-61536054D01*
X116249171Y-61536054D02*
X116401552Y-61497958D01*
X116401552Y-61497958D02*
X116515838Y-61497958D01*
X116515838Y-61497958D02*
X116668219Y-61536054D01*
X116668219Y-61536054D02*
X116744409Y-61574149D01*
X116744409Y-61574149D02*
X116820600Y-61650339D01*
X116820600Y-61650339D02*
X116858695Y-61764625D01*
X116858695Y-61764625D02*
X116858695Y-61840816D01*
X116858695Y-61840816D02*
X116820600Y-61955101D01*
X116820600Y-61955101D02*
X116782504Y-61993197D01*
X116782504Y-61993197D02*
X116515838Y-61993197D01*
X116515838Y-61993197D02*
X116515838Y-61840816D01*
X116858695Y-62336054D02*
X116058695Y-62336054D01*
X116058695Y-62336054D02*
X116858695Y-62793197D01*
X116858695Y-62793197D02*
X116058695Y-62793197D01*
X116858695Y-63174149D02*
X116058695Y-63174149D01*
X116058695Y-63174149D02*
X116058695Y-63364625D01*
X116058695Y-63364625D02*
X116096790Y-63478911D01*
X116096790Y-63478911D02*
X116172980Y-63555101D01*
X116172980Y-63555101D02*
X116249171Y-63593196D01*
X116249171Y-63593196D02*
X116401552Y-63631292D01*
X116401552Y-63631292D02*
X116515838Y-63631292D01*
X116515838Y-63631292D02*
X116668219Y-63593196D01*
X116668219Y-63593196D02*
X116744409Y-63555101D01*
X116744409Y-63555101D02*
X116820600Y-63478911D01*
X116820600Y-63478911D02*
X116858695Y-63364625D01*
X116858695Y-63364625D02*
X116858695Y-63174149D01*
D12*
X103680171Y-90298203D02*
X103680171Y-91012489D01*
X103680171Y-91012489D02*
X102965885Y-91083917D01*
X102965885Y-91083917D02*
X103037314Y-91012489D01*
X103037314Y-91012489D02*
X103108742Y-90869632D01*
X103108742Y-90869632D02*
X103108742Y-90512489D01*
X103108742Y-90512489D02*
X103037314Y-90369632D01*
X103037314Y-90369632D02*
X102965885Y-90298203D01*
X102965885Y-90298203D02*
X102823028Y-90226774D01*
X102823028Y-90226774D02*
X102465885Y-90226774D01*
X102465885Y-90226774D02*
X102323028Y-90298203D01*
X102323028Y-90298203D02*
X102251600Y-90369632D01*
X102251600Y-90369632D02*
X102180171Y-90512489D01*
X102180171Y-90512489D02*
X102180171Y-90869632D01*
X102180171Y-90869632D02*
X102251600Y-91012489D01*
X102251600Y-91012489D02*
X102323028Y-91083917D01*
X103680171Y-89798203D02*
X102180171Y-89298203D01*
X102180171Y-89298203D02*
X103680171Y-88798203D01*
X148298457Y-87019917D02*
X149498457Y-87019917D01*
X149498457Y-87019917D02*
X149498457Y-86734203D01*
X149498457Y-86734203D02*
X149441314Y-86562774D01*
X149441314Y-86562774D02*
X149327028Y-86448489D01*
X149327028Y-86448489D02*
X149212742Y-86391346D01*
X149212742Y-86391346D02*
X148984171Y-86334203D01*
X148984171Y-86334203D02*
X148812742Y-86334203D01*
X148812742Y-86334203D02*
X148584171Y-86391346D01*
X148584171Y-86391346D02*
X148469885Y-86448489D01*
X148469885Y-86448489D02*
X148355600Y-86562774D01*
X148355600Y-86562774D02*
X148298457Y-86734203D01*
X148298457Y-86734203D02*
X148298457Y-87019917D01*
X148355600Y-85362774D02*
X148298457Y-85477060D01*
X148298457Y-85477060D02*
X148298457Y-85705632D01*
X148298457Y-85705632D02*
X148355600Y-85819917D01*
X148355600Y-85819917D02*
X148469885Y-85877060D01*
X148469885Y-85877060D02*
X148927028Y-85877060D01*
X148927028Y-85877060D02*
X149041314Y-85819917D01*
X149041314Y-85819917D02*
X149098457Y-85705632D01*
X149098457Y-85705632D02*
X149098457Y-85477060D01*
X149098457Y-85477060D02*
X149041314Y-85362774D01*
X149041314Y-85362774D02*
X148927028Y-85305632D01*
X148927028Y-85305632D02*
X148812742Y-85305632D01*
X148812742Y-85305632D02*
X148698457Y-85877060D01*
X148355600Y-84848489D02*
X148298457Y-84734203D01*
X148298457Y-84734203D02*
X148298457Y-84505632D01*
X148298457Y-84505632D02*
X148355600Y-84391346D01*
X148355600Y-84391346D02*
X148469885Y-84334203D01*
X148469885Y-84334203D02*
X148527028Y-84334203D01*
X148527028Y-84334203D02*
X148641314Y-84391346D01*
X148641314Y-84391346D02*
X148698457Y-84505632D01*
X148698457Y-84505632D02*
X148698457Y-84677061D01*
X148698457Y-84677061D02*
X148755600Y-84791346D01*
X148755600Y-84791346D02*
X148869885Y-84848489D01*
X148869885Y-84848489D02*
X148927028Y-84848489D01*
X148927028Y-84848489D02*
X149041314Y-84791346D01*
X149041314Y-84791346D02*
X149098457Y-84677061D01*
X149098457Y-84677061D02*
X149098457Y-84505632D01*
X149098457Y-84505632D02*
X149041314Y-84391346D01*
X148298457Y-83819917D02*
X149098457Y-83819917D01*
X149498457Y-83819917D02*
X149441314Y-83877060D01*
X149441314Y-83877060D02*
X149384171Y-83819917D01*
X149384171Y-83819917D02*
X149441314Y-83762774D01*
X149441314Y-83762774D02*
X149498457Y-83819917D01*
X149498457Y-83819917D02*
X149384171Y-83819917D01*
X149098457Y-82734203D02*
X148127028Y-82734203D01*
X148127028Y-82734203D02*
X148012742Y-82791345D01*
X148012742Y-82791345D02*
X147955600Y-82848488D01*
X147955600Y-82848488D02*
X147898457Y-82962774D01*
X147898457Y-82962774D02*
X147898457Y-83134203D01*
X147898457Y-83134203D02*
X147955600Y-83248488D01*
X148355600Y-82734203D02*
X148298457Y-82848488D01*
X148298457Y-82848488D02*
X148298457Y-83077060D01*
X148298457Y-83077060D02*
X148355600Y-83191345D01*
X148355600Y-83191345D02*
X148412742Y-83248488D01*
X148412742Y-83248488D02*
X148527028Y-83305631D01*
X148527028Y-83305631D02*
X148869885Y-83305631D01*
X148869885Y-83305631D02*
X148984171Y-83248488D01*
X148984171Y-83248488D02*
X149041314Y-83191345D01*
X149041314Y-83191345D02*
X149098457Y-83077060D01*
X149098457Y-83077060D02*
X149098457Y-82848488D01*
X149098457Y-82848488D02*
X149041314Y-82734203D01*
X149098457Y-82162774D02*
X148298457Y-82162774D01*
X148984171Y-82162774D02*
X149041314Y-82105631D01*
X149041314Y-82105631D02*
X149098457Y-81991346D01*
X149098457Y-81991346D02*
X149098457Y-81819917D01*
X149098457Y-81819917D02*
X149041314Y-81705631D01*
X149041314Y-81705631D02*
X148927028Y-81648489D01*
X148927028Y-81648489D02*
X148298457Y-81648489D01*
X148298457Y-80162774D02*
X149498457Y-80162774D01*
X149041314Y-80162774D02*
X149098457Y-80048489D01*
X149098457Y-80048489D02*
X149098457Y-79819917D01*
X149098457Y-79819917D02*
X149041314Y-79705631D01*
X149041314Y-79705631D02*
X148984171Y-79648489D01*
X148984171Y-79648489D02*
X148869885Y-79591346D01*
X148869885Y-79591346D02*
X148527028Y-79591346D01*
X148527028Y-79591346D02*
X148412742Y-79648489D01*
X148412742Y-79648489D02*
X148355600Y-79705631D01*
X148355600Y-79705631D02*
X148298457Y-79819917D01*
X148298457Y-79819917D02*
X148298457Y-80048489D01*
X148298457Y-80048489D02*
X148355600Y-80162774D01*
X149098457Y-79191346D02*
X148298457Y-78905632D01*
X149098457Y-78619917D02*
X148298457Y-78905632D01*
X148298457Y-78905632D02*
X148012742Y-79019917D01*
X148012742Y-79019917D02*
X147955600Y-79077060D01*
X147955600Y-79077060D02*
X147898457Y-79191346D01*
X148412742Y-78162774D02*
X148355600Y-78105631D01*
X148355600Y-78105631D02*
X148298457Y-78162774D01*
X148298457Y-78162774D02*
X148355600Y-78219917D01*
X148355600Y-78219917D02*
X148412742Y-78162774D01*
X148412742Y-78162774D02*
X148298457Y-78162774D01*
X149041314Y-78162774D02*
X148984171Y-78105631D01*
X148984171Y-78105631D02*
X148927028Y-78162774D01*
X148927028Y-78162774D02*
X148984171Y-78219917D01*
X148984171Y-78219917D02*
X149041314Y-78162774D01*
X149041314Y-78162774D02*
X148927028Y-78162774D01*
X146366457Y-87019917D02*
X147566457Y-87019917D01*
X146995028Y-87019917D02*
X146995028Y-86334203D01*
X146366457Y-86334203D02*
X147566457Y-86334203D01*
X146366457Y-85762774D02*
X147166457Y-85762774D01*
X147566457Y-85762774D02*
X147509314Y-85819917D01*
X147509314Y-85819917D02*
X147452171Y-85762774D01*
X147452171Y-85762774D02*
X147509314Y-85705631D01*
X147509314Y-85705631D02*
X147566457Y-85762774D01*
X147566457Y-85762774D02*
X147452171Y-85762774D01*
X146366457Y-85191345D02*
X147166457Y-85191345D01*
X147052171Y-85191345D02*
X147109314Y-85134202D01*
X147109314Y-85134202D02*
X147166457Y-85019917D01*
X147166457Y-85019917D02*
X147166457Y-84848488D01*
X147166457Y-84848488D02*
X147109314Y-84734202D01*
X147109314Y-84734202D02*
X146995028Y-84677060D01*
X146995028Y-84677060D02*
X146366457Y-84677060D01*
X146995028Y-84677060D02*
X147109314Y-84619917D01*
X147109314Y-84619917D02*
X147166457Y-84505631D01*
X147166457Y-84505631D02*
X147166457Y-84334202D01*
X147166457Y-84334202D02*
X147109314Y-84219917D01*
X147109314Y-84219917D02*
X146995028Y-84162774D01*
X146995028Y-84162774D02*
X146366457Y-84162774D01*
X146366457Y-83077060D02*
X146995028Y-83077060D01*
X146995028Y-83077060D02*
X147109314Y-83134202D01*
X147109314Y-83134202D02*
X147166457Y-83248488D01*
X147166457Y-83248488D02*
X147166457Y-83477060D01*
X147166457Y-83477060D02*
X147109314Y-83591345D01*
X146423600Y-83077060D02*
X146366457Y-83191345D01*
X146366457Y-83191345D02*
X146366457Y-83477060D01*
X146366457Y-83477060D02*
X146423600Y-83591345D01*
X146423600Y-83591345D02*
X146537885Y-83648488D01*
X146537885Y-83648488D02*
X146652171Y-83648488D01*
X146652171Y-83648488D02*
X146766457Y-83591345D01*
X146766457Y-83591345D02*
X146823600Y-83477060D01*
X146823600Y-83477060D02*
X146823600Y-83191345D01*
X146823600Y-83191345D02*
X146880742Y-83077060D01*
X147166457Y-82505631D02*
X146366457Y-82505631D01*
X147052171Y-82505631D02*
X147109314Y-82448488D01*
X147109314Y-82448488D02*
X147166457Y-82334203D01*
X147166457Y-82334203D02*
X147166457Y-82162774D01*
X147166457Y-82162774D02*
X147109314Y-82048488D01*
X147109314Y-82048488D02*
X146995028Y-81991346D01*
X146995028Y-81991346D02*
X146366457Y-81991346D01*
X146423600Y-81477060D02*
X146366457Y-81362774D01*
X146366457Y-81362774D02*
X146366457Y-81134203D01*
X146366457Y-81134203D02*
X146423600Y-81019917D01*
X146423600Y-81019917D02*
X146537885Y-80962774D01*
X146537885Y-80962774D02*
X146595028Y-80962774D01*
X146595028Y-80962774D02*
X146709314Y-81019917D01*
X146709314Y-81019917D02*
X146766457Y-81134203D01*
X146766457Y-81134203D02*
X146766457Y-81305632D01*
X146766457Y-81305632D02*
X146823600Y-81419917D01*
X146823600Y-81419917D02*
X146937885Y-81477060D01*
X146937885Y-81477060D02*
X146995028Y-81477060D01*
X146995028Y-81477060D02*
X147109314Y-81419917D01*
X147109314Y-81419917D02*
X147166457Y-81305632D01*
X147166457Y-81305632D02*
X147166457Y-81134203D01*
X147166457Y-81134203D02*
X147109314Y-81019917D01*
X146366457Y-80448488D02*
X147566457Y-80448488D01*
X146366457Y-79934203D02*
X146995028Y-79934203D01*
X146995028Y-79934203D02*
X147109314Y-79991345D01*
X147109314Y-79991345D02*
X147166457Y-80105631D01*
X147166457Y-80105631D02*
X147166457Y-80277060D01*
X147166457Y-80277060D02*
X147109314Y-80391345D01*
X147109314Y-80391345D02*
X147052171Y-80448488D01*
X147166457Y-78848489D02*
X146366457Y-78848489D01*
X147166457Y-79362774D02*
X146537885Y-79362774D01*
X146537885Y-79362774D02*
X146423600Y-79305631D01*
X146423600Y-79305631D02*
X146366457Y-79191346D01*
X146366457Y-79191346D02*
X146366457Y-79019917D01*
X146366457Y-79019917D02*
X146423600Y-78905631D01*
X146423600Y-78905631D02*
X146480742Y-78848489D01*
X144434457Y-87019917D02*
X145634457Y-87019917D01*
X144434457Y-86334203D02*
X145120171Y-86848489D01*
X145634457Y-86334203D02*
X144948742Y-87019917D01*
X144434457Y-85648489D02*
X144491600Y-85762774D01*
X144491600Y-85762774D02*
X144548742Y-85819917D01*
X144548742Y-85819917D02*
X144663028Y-85877060D01*
X144663028Y-85877060D02*
X145005885Y-85877060D01*
X145005885Y-85877060D02*
X145120171Y-85819917D01*
X145120171Y-85819917D02*
X145177314Y-85762774D01*
X145177314Y-85762774D02*
X145234457Y-85648489D01*
X145234457Y-85648489D02*
X145234457Y-85477060D01*
X145234457Y-85477060D02*
X145177314Y-85362774D01*
X145177314Y-85362774D02*
X145120171Y-85305632D01*
X145120171Y-85305632D02*
X145005885Y-85248489D01*
X145005885Y-85248489D02*
X144663028Y-85248489D01*
X144663028Y-85248489D02*
X144548742Y-85305632D01*
X144548742Y-85305632D02*
X144491600Y-85362774D01*
X144491600Y-85362774D02*
X144434457Y-85477060D01*
X144434457Y-85477060D02*
X144434457Y-85648489D01*
X144434457Y-84734203D02*
X145634457Y-84734203D01*
X144434457Y-84219918D02*
X145063028Y-84219918D01*
X145063028Y-84219918D02*
X145177314Y-84277060D01*
X145177314Y-84277060D02*
X145234457Y-84391346D01*
X145234457Y-84391346D02*
X145234457Y-84562775D01*
X145234457Y-84562775D02*
X145177314Y-84677060D01*
X145177314Y-84677060D02*
X145120171Y-84734203D01*
X144434457Y-83134204D02*
X145063028Y-83134204D01*
X145063028Y-83134204D02*
X145177314Y-83191346D01*
X145177314Y-83191346D02*
X145234457Y-83305632D01*
X145234457Y-83305632D02*
X145234457Y-83534204D01*
X145234457Y-83534204D02*
X145177314Y-83648489D01*
X144491600Y-83134204D02*
X144434457Y-83248489D01*
X144434457Y-83248489D02*
X144434457Y-83534204D01*
X144434457Y-83534204D02*
X144491600Y-83648489D01*
X144491600Y-83648489D02*
X144605885Y-83705632D01*
X144605885Y-83705632D02*
X144720171Y-83705632D01*
X144720171Y-83705632D02*
X144834457Y-83648489D01*
X144834457Y-83648489D02*
X144891600Y-83534204D01*
X144891600Y-83534204D02*
X144891600Y-83248489D01*
X144891600Y-83248489D02*
X144948742Y-83134204D01*
X144434457Y-82391347D02*
X144491600Y-82505632D01*
X144491600Y-82505632D02*
X144605885Y-82562775D01*
X144605885Y-82562775D02*
X145634457Y-82562775D01*
X144491600Y-81477061D02*
X144434457Y-81591347D01*
X144434457Y-81591347D02*
X144434457Y-81819919D01*
X144434457Y-81819919D02*
X144491600Y-81934204D01*
X144491600Y-81934204D02*
X144605885Y-81991347D01*
X144605885Y-81991347D02*
X145063028Y-81991347D01*
X145063028Y-81991347D02*
X145177314Y-81934204D01*
X145177314Y-81934204D02*
X145234457Y-81819919D01*
X145234457Y-81819919D02*
X145234457Y-81591347D01*
X145234457Y-81591347D02*
X145177314Y-81477061D01*
X145177314Y-81477061D02*
X145063028Y-81419919D01*
X145063028Y-81419919D02*
X144948742Y-81419919D01*
X144948742Y-81419919D02*
X144834457Y-81991347D01*
D10*
X128161790Y-61701101D02*
X128123695Y-61624911D01*
X128123695Y-61624911D02*
X128123695Y-61510625D01*
X128123695Y-61510625D02*
X128161790Y-61396339D01*
X128161790Y-61396339D02*
X128237980Y-61320149D01*
X128237980Y-61320149D02*
X128314171Y-61282054D01*
X128314171Y-61282054D02*
X128466552Y-61243958D01*
X128466552Y-61243958D02*
X128580838Y-61243958D01*
X128580838Y-61243958D02*
X128733219Y-61282054D01*
X128733219Y-61282054D02*
X128809409Y-61320149D01*
X128809409Y-61320149D02*
X128885600Y-61396339D01*
X128885600Y-61396339D02*
X128923695Y-61510625D01*
X128923695Y-61510625D02*
X128923695Y-61586816D01*
X128923695Y-61586816D02*
X128885600Y-61701101D01*
X128885600Y-61701101D02*
X128847504Y-61739197D01*
X128847504Y-61739197D02*
X128580838Y-61739197D01*
X128580838Y-61739197D02*
X128580838Y-61586816D01*
X128923695Y-62082054D02*
X128123695Y-62082054D01*
X128123695Y-62082054D02*
X128923695Y-62539197D01*
X128923695Y-62539197D02*
X128123695Y-62539197D01*
X128923695Y-62920149D02*
X128123695Y-62920149D01*
X128123695Y-62920149D02*
X128123695Y-63110625D01*
X128123695Y-63110625D02*
X128161790Y-63224911D01*
X128161790Y-63224911D02*
X128237980Y-63301101D01*
X128237980Y-63301101D02*
X128314171Y-63339196D01*
X128314171Y-63339196D02*
X128466552Y-63377292D01*
X128466552Y-63377292D02*
X128580838Y-63377292D01*
X128580838Y-63377292D02*
X128733219Y-63339196D01*
X128733219Y-63339196D02*
X128809409Y-63301101D01*
X128809409Y-63301101D02*
X128885600Y-63224911D01*
X128885600Y-63224911D02*
X128923695Y-63110625D01*
X128923695Y-63110625D02*
X128923695Y-62920149D01*
X143528695Y-88968054D02*
X142728695Y-88968054D01*
X142728695Y-88968054D02*
X142728695Y-89272816D01*
X142728695Y-89272816D02*
X142766790Y-89349006D01*
X142766790Y-89349006D02*
X142804885Y-89387101D01*
X142804885Y-89387101D02*
X142881076Y-89425197D01*
X142881076Y-89425197D02*
X142995361Y-89425197D01*
X142995361Y-89425197D02*
X143071552Y-89387101D01*
X143071552Y-89387101D02*
X143109647Y-89349006D01*
X143109647Y-89349006D02*
X143147742Y-89272816D01*
X143147742Y-89272816D02*
X143147742Y-88968054D01*
X142728695Y-89691863D02*
X143528695Y-89882339D01*
X143528695Y-89882339D02*
X142957266Y-90034720D01*
X142957266Y-90034720D02*
X143528695Y-90187101D01*
X143528695Y-90187101D02*
X142728695Y-90377578D01*
X143528695Y-90682340D02*
X142728695Y-90682340D01*
X142728695Y-90682340D02*
X143300123Y-90949006D01*
X143300123Y-90949006D02*
X142728695Y-91215673D01*
X142728695Y-91215673D02*
X143528695Y-91215673D01*
X131590695Y-89222054D02*
X130790695Y-89222054D01*
X130790695Y-89222054D02*
X130790695Y-89526816D01*
X130790695Y-89526816D02*
X130828790Y-89603006D01*
X130828790Y-89603006D02*
X130866885Y-89641101D01*
X130866885Y-89641101D02*
X130943076Y-89679197D01*
X130943076Y-89679197D02*
X131057361Y-89679197D01*
X131057361Y-89679197D02*
X131133552Y-89641101D01*
X131133552Y-89641101D02*
X131171647Y-89603006D01*
X131171647Y-89603006D02*
X131209742Y-89526816D01*
X131209742Y-89526816D02*
X131209742Y-89222054D01*
X130790695Y-89945863D02*
X131590695Y-90136339D01*
X131590695Y-90136339D02*
X131019266Y-90288720D01*
X131019266Y-90288720D02*
X131590695Y-90441101D01*
X131590695Y-90441101D02*
X130790695Y-90631578D01*
X131590695Y-90936340D02*
X130790695Y-90936340D01*
X130790695Y-90936340D02*
X131362123Y-91203006D01*
X131362123Y-91203006D02*
X130790695Y-91469673D01*
X130790695Y-91469673D02*
X131590695Y-91469673D01*
X126218695Y-89857006D02*
X126218695Y-89476054D01*
X126218695Y-89476054D02*
X126599647Y-89437958D01*
X126599647Y-89437958D02*
X126561552Y-89476054D01*
X126561552Y-89476054D02*
X126523457Y-89552244D01*
X126523457Y-89552244D02*
X126523457Y-89742720D01*
X126523457Y-89742720D02*
X126561552Y-89818911D01*
X126561552Y-89818911D02*
X126599647Y-89857006D01*
X126599647Y-89857006D02*
X126675838Y-89895101D01*
X126675838Y-89895101D02*
X126866314Y-89895101D01*
X126866314Y-89895101D02*
X126942504Y-89857006D01*
X126942504Y-89857006D02*
X126980600Y-89818911D01*
X126980600Y-89818911D02*
X127018695Y-89742720D01*
X127018695Y-89742720D02*
X127018695Y-89552244D01*
X127018695Y-89552244D02*
X126980600Y-89476054D01*
X126980600Y-89476054D02*
X126942504Y-89437958D01*
X126218695Y-90123673D02*
X127018695Y-90390340D01*
X127018695Y-90390340D02*
X126218695Y-90657006D01*
D13*
X151154190Y-87402098D02*
X151154190Y-87735431D01*
X150630380Y-87735431D02*
X151630380Y-87735431D01*
X151630380Y-87735431D02*
X151630380Y-87259241D01*
X150630380Y-86735431D02*
X150678000Y-86830669D01*
X150678000Y-86830669D02*
X150773238Y-86878288D01*
X150773238Y-86878288D02*
X151630380Y-86878288D01*
X150630380Y-86354478D02*
X151297047Y-86354478D01*
X151630380Y-86354478D02*
X151582761Y-86402097D01*
X151582761Y-86402097D02*
X151535142Y-86354478D01*
X151535142Y-86354478D02*
X151582761Y-86306859D01*
X151582761Y-86306859D02*
X151630380Y-86354478D01*
X151630380Y-86354478D02*
X151535142Y-86354478D01*
X151297047Y-85449717D02*
X150487523Y-85449717D01*
X150487523Y-85449717D02*
X150392285Y-85497336D01*
X150392285Y-85497336D02*
X150344666Y-85544955D01*
X150344666Y-85544955D02*
X150297047Y-85640193D01*
X150297047Y-85640193D02*
X150297047Y-85783050D01*
X150297047Y-85783050D02*
X150344666Y-85878288D01*
X150678000Y-85449717D02*
X150630380Y-85544955D01*
X150630380Y-85544955D02*
X150630380Y-85735431D01*
X150630380Y-85735431D02*
X150678000Y-85830669D01*
X150678000Y-85830669D02*
X150725619Y-85878288D01*
X150725619Y-85878288D02*
X150820857Y-85925907D01*
X150820857Y-85925907D02*
X151106571Y-85925907D01*
X151106571Y-85925907D02*
X151201809Y-85878288D01*
X151201809Y-85878288D02*
X151249428Y-85830669D01*
X151249428Y-85830669D02*
X151297047Y-85735431D01*
X151297047Y-85735431D02*
X151297047Y-85544955D01*
X151297047Y-85544955D02*
X151249428Y-85449717D01*
X150630380Y-84973526D02*
X151630380Y-84973526D01*
X150630380Y-84544955D02*
X151154190Y-84544955D01*
X151154190Y-84544955D02*
X151249428Y-84592574D01*
X151249428Y-84592574D02*
X151297047Y-84687812D01*
X151297047Y-84687812D02*
X151297047Y-84830669D01*
X151297047Y-84830669D02*
X151249428Y-84925907D01*
X151249428Y-84925907D02*
X151201809Y-84973526D01*
X151297047Y-84211621D02*
X151297047Y-83830669D01*
X151630380Y-84068764D02*
X150773238Y-84068764D01*
X150773238Y-84068764D02*
X150678000Y-84021145D01*
X150678000Y-84021145D02*
X150630380Y-83925907D01*
X150630380Y-83925907D02*
X150630380Y-83830669D01*
X150725619Y-82925907D02*
X150678000Y-82973526D01*
X150678000Y-82973526D02*
X150630380Y-83116383D01*
X150630380Y-83116383D02*
X150630380Y-83211621D01*
X150630380Y-83211621D02*
X150678000Y-83354478D01*
X150678000Y-83354478D02*
X150773238Y-83449716D01*
X150773238Y-83449716D02*
X150868476Y-83497335D01*
X150868476Y-83497335D02*
X151058952Y-83544954D01*
X151058952Y-83544954D02*
X151201809Y-83544954D01*
X151201809Y-83544954D02*
X151392285Y-83497335D01*
X151392285Y-83497335D02*
X151487523Y-83449716D01*
X151487523Y-83449716D02*
X151582761Y-83354478D01*
X151582761Y-83354478D02*
X151630380Y-83211621D01*
X151630380Y-83211621D02*
X151630380Y-83116383D01*
X151630380Y-83116383D02*
X151582761Y-82973526D01*
X151582761Y-82973526D02*
X151535142Y-82925907D01*
X150630380Y-82354478D02*
X150678000Y-82449716D01*
X150678000Y-82449716D02*
X150725619Y-82497335D01*
X150725619Y-82497335D02*
X150820857Y-82544954D01*
X150820857Y-82544954D02*
X151106571Y-82544954D01*
X151106571Y-82544954D02*
X151201809Y-82497335D01*
X151201809Y-82497335D02*
X151249428Y-82449716D01*
X151249428Y-82449716D02*
X151297047Y-82354478D01*
X151297047Y-82354478D02*
X151297047Y-82211621D01*
X151297047Y-82211621D02*
X151249428Y-82116383D01*
X151249428Y-82116383D02*
X151201809Y-82068764D01*
X151201809Y-82068764D02*
X151106571Y-82021145D01*
X151106571Y-82021145D02*
X150820857Y-82021145D01*
X150820857Y-82021145D02*
X150725619Y-82068764D01*
X150725619Y-82068764D02*
X150678000Y-82116383D01*
X150678000Y-82116383D02*
X150630380Y-82211621D01*
X150630380Y-82211621D02*
X150630380Y-82354478D01*
X151297047Y-81592573D02*
X150630380Y-81592573D01*
X151201809Y-81592573D02*
X151249428Y-81544954D01*
X151249428Y-81544954D02*
X151297047Y-81449716D01*
X151297047Y-81449716D02*
X151297047Y-81306859D01*
X151297047Y-81306859D02*
X151249428Y-81211621D01*
X151249428Y-81211621D02*
X151154190Y-81164002D01*
X151154190Y-81164002D02*
X150630380Y-81164002D01*
X151297047Y-80830668D02*
X151297047Y-80449716D01*
X151630380Y-80687811D02*
X150773238Y-80687811D01*
X150773238Y-80687811D02*
X150678000Y-80640192D01*
X150678000Y-80640192D02*
X150630380Y-80544954D01*
X150630380Y-80544954D02*
X150630380Y-80449716D01*
X150630380Y-80116382D02*
X151297047Y-80116382D01*
X151106571Y-80116382D02*
X151201809Y-80068763D01*
X151201809Y-80068763D02*
X151249428Y-80021144D01*
X151249428Y-80021144D02*
X151297047Y-79925906D01*
X151297047Y-79925906D02*
X151297047Y-79830668D01*
X150630380Y-79354477D02*
X150678000Y-79449715D01*
X150678000Y-79449715D02*
X150725619Y-79497334D01*
X150725619Y-79497334D02*
X150820857Y-79544953D01*
X150820857Y-79544953D02*
X151106571Y-79544953D01*
X151106571Y-79544953D02*
X151201809Y-79497334D01*
X151201809Y-79497334D02*
X151249428Y-79449715D01*
X151249428Y-79449715D02*
X151297047Y-79354477D01*
X151297047Y-79354477D02*
X151297047Y-79211620D01*
X151297047Y-79211620D02*
X151249428Y-79116382D01*
X151249428Y-79116382D02*
X151201809Y-79068763D01*
X151201809Y-79068763D02*
X151106571Y-79021144D01*
X151106571Y-79021144D02*
X150820857Y-79021144D01*
X150820857Y-79021144D02*
X150725619Y-79068763D01*
X150725619Y-79068763D02*
X150678000Y-79116382D01*
X150678000Y-79116382D02*
X150630380Y-79211620D01*
X150630380Y-79211620D02*
X150630380Y-79354477D01*
X150630380Y-78449715D02*
X150678000Y-78544953D01*
X150678000Y-78544953D02*
X150773238Y-78592572D01*
X150773238Y-78592572D02*
X151630380Y-78592572D01*
X150630380Y-77925905D02*
X150678000Y-78021143D01*
X150678000Y-78021143D02*
X150773238Y-78068762D01*
X150773238Y-78068762D02*
X151630380Y-78068762D01*
X150678000Y-77164000D02*
X150630380Y-77259238D01*
X150630380Y-77259238D02*
X150630380Y-77449714D01*
X150630380Y-77449714D02*
X150678000Y-77544952D01*
X150678000Y-77544952D02*
X150773238Y-77592571D01*
X150773238Y-77592571D02*
X151154190Y-77592571D01*
X151154190Y-77592571D02*
X151249428Y-77544952D01*
X151249428Y-77544952D02*
X151297047Y-77449714D01*
X151297047Y-77449714D02*
X151297047Y-77259238D01*
X151297047Y-77259238D02*
X151249428Y-77164000D01*
X151249428Y-77164000D02*
X151154190Y-77116381D01*
X151154190Y-77116381D02*
X151058952Y-77116381D01*
X151058952Y-77116381D02*
X150963714Y-77592571D01*
X150630380Y-76687809D02*
X151297047Y-76687809D01*
X151106571Y-76687809D02*
X151201809Y-76640190D01*
X151201809Y-76640190D02*
X151249428Y-76592571D01*
X151249428Y-76592571D02*
X151297047Y-76497333D01*
X151297047Y-76497333D02*
X151297047Y-76402095D01*
D10*
X118510304Y-89212993D02*
X118510304Y-89593945D01*
X118510304Y-89593945D02*
X118129352Y-89632041D01*
X118129352Y-89632041D02*
X118167447Y-89593945D01*
X118167447Y-89593945D02*
X118205542Y-89517755D01*
X118205542Y-89517755D02*
X118205542Y-89327279D01*
X118205542Y-89327279D02*
X118167447Y-89251088D01*
X118167447Y-89251088D02*
X118129352Y-89212993D01*
X118129352Y-89212993D02*
X118053161Y-89174898D01*
X118053161Y-89174898D02*
X117862685Y-89174898D01*
X117862685Y-89174898D02*
X117786495Y-89212993D01*
X117786495Y-89212993D02*
X117748400Y-89251088D01*
X117748400Y-89251088D02*
X117710304Y-89327279D01*
X117710304Y-89327279D02*
X117710304Y-89517755D01*
X117710304Y-89517755D02*
X117748400Y-89593945D01*
X117748400Y-89593945D02*
X117786495Y-89632041D01*
X118510304Y-88946326D02*
X117710304Y-88679659D01*
X117710304Y-88679659D02*
X118510304Y-88412993D01*
X141332209Y-90444898D02*
X141370304Y-90521088D01*
X141370304Y-90521088D02*
X141370304Y-90635374D01*
X141370304Y-90635374D02*
X141332209Y-90749660D01*
X141332209Y-90749660D02*
X141256019Y-90825850D01*
X141256019Y-90825850D02*
X141179828Y-90863945D01*
X141179828Y-90863945D02*
X141027447Y-90902041D01*
X141027447Y-90902041D02*
X140913161Y-90902041D01*
X140913161Y-90902041D02*
X140760780Y-90863945D01*
X140760780Y-90863945D02*
X140684590Y-90825850D01*
X140684590Y-90825850D02*
X140608400Y-90749660D01*
X140608400Y-90749660D02*
X140570304Y-90635374D01*
X140570304Y-90635374D02*
X140570304Y-90559183D01*
X140570304Y-90559183D02*
X140608400Y-90444898D01*
X140608400Y-90444898D02*
X140646495Y-90406802D01*
X140646495Y-90406802D02*
X140913161Y-90406802D01*
X140913161Y-90406802D02*
X140913161Y-90559183D01*
X140570304Y-90063945D02*
X141370304Y-90063945D01*
X141370304Y-90063945D02*
X140570304Y-89606802D01*
X140570304Y-89606802D02*
X141370304Y-89606802D01*
X140570304Y-89225850D02*
X141370304Y-89225850D01*
X141370304Y-89225850D02*
X141370304Y-89035374D01*
X141370304Y-89035374D02*
X141332209Y-88921088D01*
X141332209Y-88921088D02*
X141256019Y-88844898D01*
X141256019Y-88844898D02*
X141179828Y-88806803D01*
X141179828Y-88806803D02*
X141027447Y-88768707D01*
X141027447Y-88768707D02*
X140913161Y-88768707D01*
X140913161Y-88768707D02*
X140760780Y-88806803D01*
X140760780Y-88806803D02*
X140684590Y-88844898D01*
X140684590Y-88844898D02*
X140608400Y-88921088D01*
X140608400Y-88921088D02*
X140570304Y-89035374D01*
X140570304Y-89035374D02*
X140570304Y-89225850D01*
X118090600Y-61370958D02*
X118128695Y-61485244D01*
X118128695Y-61485244D02*
X118128695Y-61675720D01*
X118128695Y-61675720D02*
X118090600Y-61751911D01*
X118090600Y-61751911D02*
X118052504Y-61790006D01*
X118052504Y-61790006D02*
X117976314Y-61828101D01*
X117976314Y-61828101D02*
X117900123Y-61828101D01*
X117900123Y-61828101D02*
X117823933Y-61790006D01*
X117823933Y-61790006D02*
X117785838Y-61751911D01*
X117785838Y-61751911D02*
X117747742Y-61675720D01*
X117747742Y-61675720D02*
X117709647Y-61523339D01*
X117709647Y-61523339D02*
X117671552Y-61447149D01*
X117671552Y-61447149D02*
X117633457Y-61409054D01*
X117633457Y-61409054D02*
X117557266Y-61370958D01*
X117557266Y-61370958D02*
X117481076Y-61370958D01*
X117481076Y-61370958D02*
X117404885Y-61409054D01*
X117404885Y-61409054D02*
X117366790Y-61447149D01*
X117366790Y-61447149D02*
X117328695Y-61523339D01*
X117328695Y-61523339D02*
X117328695Y-61713816D01*
X117328695Y-61713816D02*
X117366790Y-61828101D01*
X117328695Y-62094768D02*
X118128695Y-62285244D01*
X118128695Y-62285244D02*
X117557266Y-62437625D01*
X117557266Y-62437625D02*
X118128695Y-62590006D01*
X118128695Y-62590006D02*
X117328695Y-62780483D01*
X118052504Y-63542388D02*
X118090600Y-63504292D01*
X118090600Y-63504292D02*
X118128695Y-63390007D01*
X118128695Y-63390007D02*
X118128695Y-63313816D01*
X118128695Y-63313816D02*
X118090600Y-63199530D01*
X118090600Y-63199530D02*
X118014409Y-63123340D01*
X118014409Y-63123340D02*
X117938219Y-63085245D01*
X117938219Y-63085245D02*
X117785838Y-63047149D01*
X117785838Y-63047149D02*
X117671552Y-63047149D01*
X117671552Y-63047149D02*
X117519171Y-63085245D01*
X117519171Y-63085245D02*
X117442980Y-63123340D01*
X117442980Y-63123340D02*
X117366790Y-63199530D01*
X117366790Y-63199530D02*
X117328695Y-63313816D01*
X117328695Y-63313816D02*
X117328695Y-63390007D01*
X117328695Y-63390007D02*
X117366790Y-63504292D01*
X117366790Y-63504292D02*
X117404885Y-63542388D01*
X118128695Y-64266197D02*
X118128695Y-63885245D01*
X118128695Y-63885245D02*
X117328695Y-63885245D01*
X118128695Y-64532864D02*
X117328695Y-64532864D01*
X118128695Y-64990007D02*
X117671552Y-64647149D01*
X117328695Y-64990007D02*
X117785838Y-64532864D01*
X129394209Y-90698898D02*
X129432304Y-90775088D01*
X129432304Y-90775088D02*
X129432304Y-90889374D01*
X129432304Y-90889374D02*
X129394209Y-91003660D01*
X129394209Y-91003660D02*
X129318019Y-91079850D01*
X129318019Y-91079850D02*
X129241828Y-91117945D01*
X129241828Y-91117945D02*
X129089447Y-91156041D01*
X129089447Y-91156041D02*
X128975161Y-91156041D01*
X128975161Y-91156041D02*
X128822780Y-91117945D01*
X128822780Y-91117945D02*
X128746590Y-91079850D01*
X128746590Y-91079850D02*
X128670400Y-91003660D01*
X128670400Y-91003660D02*
X128632304Y-90889374D01*
X128632304Y-90889374D02*
X128632304Y-90813183D01*
X128632304Y-90813183D02*
X128670400Y-90698898D01*
X128670400Y-90698898D02*
X128708495Y-90660802D01*
X128708495Y-90660802D02*
X128975161Y-90660802D01*
X128975161Y-90660802D02*
X128975161Y-90813183D01*
X128632304Y-90317945D02*
X129432304Y-90317945D01*
X129432304Y-90317945D02*
X128632304Y-89860802D01*
X128632304Y-89860802D02*
X129432304Y-89860802D01*
X128632304Y-89479850D02*
X129432304Y-89479850D01*
X129432304Y-89479850D02*
X129432304Y-89289374D01*
X129432304Y-89289374D02*
X129394209Y-89175088D01*
X129394209Y-89175088D02*
X129318019Y-89098898D01*
X129318019Y-89098898D02*
X129241828Y-89060803D01*
X129241828Y-89060803D02*
X129089447Y-89022707D01*
X129089447Y-89022707D02*
X128975161Y-89022707D01*
X128975161Y-89022707D02*
X128822780Y-89060803D01*
X128822780Y-89060803D02*
X128746590Y-89098898D01*
X128746590Y-89098898D02*
X128670400Y-89175088D01*
X128670400Y-89175088D02*
X128632304Y-89289374D01*
X128632304Y-89289374D02*
X128632304Y-89479850D01*
X115589304Y-89708231D02*
X115589304Y-89251088D01*
X114789304Y-89479660D02*
X115589304Y-89479660D01*
X115589304Y-89060612D02*
X114789304Y-88527278D01*
X115589304Y-88527278D02*
X114789304Y-89060612D01*
D14*
X109259666Y-72876580D02*
X109307285Y-72924200D01*
X109307285Y-72924200D02*
X109450142Y-72971819D01*
X109450142Y-72971819D02*
X109545380Y-72971819D01*
X109545380Y-72971819D02*
X109688237Y-72924200D01*
X109688237Y-72924200D02*
X109783475Y-72828961D01*
X109783475Y-72828961D02*
X109831094Y-72733723D01*
X109831094Y-72733723D02*
X109878713Y-72543247D01*
X109878713Y-72543247D02*
X109878713Y-72400390D01*
X109878713Y-72400390D02*
X109831094Y-72209914D01*
X109831094Y-72209914D02*
X109783475Y-72114676D01*
X109783475Y-72114676D02*
X109688237Y-72019438D01*
X109688237Y-72019438D02*
X109545380Y-71971819D01*
X109545380Y-71971819D02*
X109450142Y-71971819D01*
X109450142Y-71971819D02*
X109307285Y-72019438D01*
X109307285Y-72019438D02*
X109259666Y-72067057D01*
X108878713Y-72067057D02*
X108831094Y-72019438D01*
X108831094Y-72019438D02*
X108735856Y-71971819D01*
X108735856Y-71971819D02*
X108497761Y-71971819D01*
X108497761Y-71971819D02*
X108402523Y-72019438D01*
X108402523Y-72019438D02*
X108354904Y-72067057D01*
X108354904Y-72067057D02*
X108307285Y-72162295D01*
X108307285Y-72162295D02*
X108307285Y-72257533D01*
X108307285Y-72257533D02*
X108354904Y-72400390D01*
X108354904Y-72400390D02*
X108926332Y-72971819D01*
X108926332Y-72971819D02*
X108307285Y-72971819D01*
X110361332Y-63697200D02*
X110218475Y-63744819D01*
X110218475Y-63744819D02*
X109980380Y-63744819D01*
X109980380Y-63744819D02*
X109885142Y-63697200D01*
X109885142Y-63697200D02*
X109837523Y-63649580D01*
X109837523Y-63649580D02*
X109789904Y-63554342D01*
X109789904Y-63554342D02*
X109789904Y-63459104D01*
X109789904Y-63459104D02*
X109837523Y-63363866D01*
X109837523Y-63363866D02*
X109885142Y-63316247D01*
X109885142Y-63316247D02*
X109980380Y-63268628D01*
X109980380Y-63268628D02*
X110170856Y-63221009D01*
X110170856Y-63221009D02*
X110266094Y-63173390D01*
X110266094Y-63173390D02*
X110313713Y-63125771D01*
X110313713Y-63125771D02*
X110361332Y-63030533D01*
X110361332Y-63030533D02*
X110361332Y-62935295D01*
X110361332Y-62935295D02*
X110313713Y-62840057D01*
X110313713Y-62840057D02*
X110266094Y-62792438D01*
X110266094Y-62792438D02*
X110170856Y-62744819D01*
X110170856Y-62744819D02*
X109932761Y-62744819D01*
X109932761Y-62744819D02*
X109789904Y-62792438D01*
X109456570Y-62744819D02*
X109218475Y-63744819D01*
X109218475Y-63744819D02*
X109027999Y-63030533D01*
X109027999Y-63030533D02*
X108837523Y-63744819D01*
X108837523Y-63744819D02*
X108599428Y-62744819D01*
X108313713Y-62744819D02*
X107694666Y-62744819D01*
X107694666Y-62744819D02*
X108027999Y-63125771D01*
X108027999Y-63125771D02*
X107885142Y-63125771D01*
X107885142Y-63125771D02*
X107789904Y-63173390D01*
X107789904Y-63173390D02*
X107742285Y-63221009D01*
X107742285Y-63221009D02*
X107694666Y-63316247D01*
X107694666Y-63316247D02*
X107694666Y-63554342D01*
X107694666Y-63554342D02*
X107742285Y-63649580D01*
X107742285Y-63649580D02*
X107789904Y-63697200D01*
X107789904Y-63697200D02*
X107885142Y-63744819D01*
X107885142Y-63744819D02*
X108170856Y-63744819D01*
X108170856Y-63744819D02*
X108266094Y-63697200D01*
X108266094Y-63697200D02*
X108313713Y-63649580D01*
X122086666Y-84909819D02*
X122419999Y-84433628D01*
X122658094Y-84909819D02*
X122658094Y-83909819D01*
X122658094Y-83909819D02*
X122277142Y-83909819D01*
X122277142Y-83909819D02*
X122181904Y-83957438D01*
X122181904Y-83957438D02*
X122134285Y-84005057D01*
X122134285Y-84005057D02*
X122086666Y-84100295D01*
X122086666Y-84100295D02*
X122086666Y-84243152D01*
X122086666Y-84243152D02*
X122134285Y-84338390D01*
X122134285Y-84338390D02*
X122181904Y-84386009D01*
X122181904Y-84386009D02*
X122277142Y-84433628D01*
X122277142Y-84433628D02*
X122658094Y-84433628D01*
X121181904Y-83909819D02*
X121658094Y-83909819D01*
X121658094Y-83909819D02*
X121705713Y-84386009D01*
X121705713Y-84386009D02*
X121658094Y-84338390D01*
X121658094Y-84338390D02*
X121562856Y-84290771D01*
X121562856Y-84290771D02*
X121324761Y-84290771D01*
X121324761Y-84290771D02*
X121229523Y-84338390D01*
X121229523Y-84338390D02*
X121181904Y-84386009D01*
X121181904Y-84386009D02*
X121134285Y-84481247D01*
X121134285Y-84481247D02*
X121134285Y-84719342D01*
X121134285Y-84719342D02*
X121181904Y-84814580D01*
X121181904Y-84814580D02*
X121229523Y-84862200D01*
X121229523Y-84862200D02*
X121324761Y-84909819D01*
X121324761Y-84909819D02*
X121562856Y-84909819D01*
X121562856Y-84909819D02*
X121658094Y-84862200D01*
X121658094Y-84862200D02*
X121705713Y-84814580D01*
X116458904Y-64859819D02*
X116458904Y-65669342D01*
X116458904Y-65669342D02*
X116411285Y-65764580D01*
X116411285Y-65764580D02*
X116363666Y-65812200D01*
X116363666Y-65812200D02*
X116268428Y-65859819D01*
X116268428Y-65859819D02*
X116077952Y-65859819D01*
X116077952Y-65859819D02*
X115982714Y-65812200D01*
X115982714Y-65812200D02*
X115935095Y-65764580D01*
X115935095Y-65764580D02*
X115887476Y-65669342D01*
X115887476Y-65669342D02*
X115887476Y-64859819D01*
X115506523Y-64859819D02*
X114887476Y-64859819D01*
X114887476Y-64859819D02*
X115220809Y-65240771D01*
X115220809Y-65240771D02*
X115077952Y-65240771D01*
X115077952Y-65240771D02*
X114982714Y-65288390D01*
X114982714Y-65288390D02*
X114935095Y-65336009D01*
X114935095Y-65336009D02*
X114887476Y-65431247D01*
X114887476Y-65431247D02*
X114887476Y-65669342D01*
X114887476Y-65669342D02*
X114935095Y-65764580D01*
X114935095Y-65764580D02*
X114982714Y-65812200D01*
X114982714Y-65812200D02*
X115077952Y-65859819D01*
X115077952Y-65859819D02*
X115363666Y-65859819D01*
X115363666Y-65859819D02*
X115458904Y-65812200D01*
X115458904Y-65812200D02*
X115506523Y-65764580D01*
X113323666Y-70971580D02*
X113371285Y-71019200D01*
X113371285Y-71019200D02*
X113514142Y-71066819D01*
X113514142Y-71066819D02*
X113609380Y-71066819D01*
X113609380Y-71066819D02*
X113752237Y-71019200D01*
X113752237Y-71019200D02*
X113847475Y-70923961D01*
X113847475Y-70923961D02*
X113895094Y-70828723D01*
X113895094Y-70828723D02*
X113942713Y-70638247D01*
X113942713Y-70638247D02*
X113942713Y-70495390D01*
X113942713Y-70495390D02*
X113895094Y-70304914D01*
X113895094Y-70304914D02*
X113847475Y-70209676D01*
X113847475Y-70209676D02*
X113752237Y-70114438D01*
X113752237Y-70114438D02*
X113609380Y-70066819D01*
X113609380Y-70066819D02*
X113514142Y-70066819D01*
X113514142Y-70066819D02*
X113371285Y-70114438D01*
X113371285Y-70114438D02*
X113323666Y-70162057D01*
X112752237Y-70495390D02*
X112847475Y-70447771D01*
X112847475Y-70447771D02*
X112895094Y-70400152D01*
X112895094Y-70400152D02*
X112942713Y-70304914D01*
X112942713Y-70304914D02*
X112942713Y-70257295D01*
X112942713Y-70257295D02*
X112895094Y-70162057D01*
X112895094Y-70162057D02*
X112847475Y-70114438D01*
X112847475Y-70114438D02*
X112752237Y-70066819D01*
X112752237Y-70066819D02*
X112561761Y-70066819D01*
X112561761Y-70066819D02*
X112466523Y-70114438D01*
X112466523Y-70114438D02*
X112418904Y-70162057D01*
X112418904Y-70162057D02*
X112371285Y-70257295D01*
X112371285Y-70257295D02*
X112371285Y-70304914D01*
X112371285Y-70304914D02*
X112418904Y-70400152D01*
X112418904Y-70400152D02*
X112466523Y-70447771D01*
X112466523Y-70447771D02*
X112561761Y-70495390D01*
X112561761Y-70495390D02*
X112752237Y-70495390D01*
X112752237Y-70495390D02*
X112847475Y-70543009D01*
X112847475Y-70543009D02*
X112895094Y-70590628D01*
X112895094Y-70590628D02*
X112942713Y-70685866D01*
X112942713Y-70685866D02*
X112942713Y-70876342D01*
X112942713Y-70876342D02*
X112895094Y-70971580D01*
X112895094Y-70971580D02*
X112847475Y-71019200D01*
X112847475Y-71019200D02*
X112752237Y-71066819D01*
X112752237Y-71066819D02*
X112561761Y-71066819D01*
X112561761Y-71066819D02*
X112466523Y-71019200D01*
X112466523Y-71019200D02*
X112418904Y-70971580D01*
X112418904Y-70971580D02*
X112371285Y-70876342D01*
X112371285Y-70876342D02*
X112371285Y-70685866D01*
X112371285Y-70685866D02*
X112418904Y-70590628D01*
X112418904Y-70590628D02*
X112466523Y-70543009D01*
X112466523Y-70543009D02*
X112561761Y-70495390D01*
X134627857Y-74654580D02*
X134675476Y-74702200D01*
X134675476Y-74702200D02*
X134818333Y-74749819D01*
X134818333Y-74749819D02*
X134913571Y-74749819D01*
X134913571Y-74749819D02*
X135056428Y-74702200D01*
X135056428Y-74702200D02*
X135151666Y-74606961D01*
X135151666Y-74606961D02*
X135199285Y-74511723D01*
X135199285Y-74511723D02*
X135246904Y-74321247D01*
X135246904Y-74321247D02*
X135246904Y-74178390D01*
X135246904Y-74178390D02*
X135199285Y-73987914D01*
X135199285Y-73987914D02*
X135151666Y-73892676D01*
X135151666Y-73892676D02*
X135056428Y-73797438D01*
X135056428Y-73797438D02*
X134913571Y-73749819D01*
X134913571Y-73749819D02*
X134818333Y-73749819D01*
X134818333Y-73749819D02*
X134675476Y-73797438D01*
X134675476Y-73797438D02*
X134627857Y-73845057D01*
X133675476Y-74749819D02*
X134246904Y-74749819D01*
X133961190Y-74749819D02*
X133961190Y-73749819D01*
X133961190Y-73749819D02*
X134056428Y-73892676D01*
X134056428Y-73892676D02*
X134151666Y-73987914D01*
X134151666Y-73987914D02*
X134246904Y-74035533D01*
X132723095Y-74749819D02*
X133294523Y-74749819D01*
X133008809Y-74749819D02*
X133008809Y-73749819D01*
X133008809Y-73749819D02*
X133104047Y-73892676D01*
X133104047Y-73892676D02*
X133199285Y-73987914D01*
X133199285Y-73987914D02*
X133294523Y-74035533D01*
X101197580Y-64476333D02*
X101245200Y-64428714D01*
X101245200Y-64428714D02*
X101292819Y-64285857D01*
X101292819Y-64285857D02*
X101292819Y-64190619D01*
X101292819Y-64190619D02*
X101245200Y-64047762D01*
X101245200Y-64047762D02*
X101149961Y-63952524D01*
X101149961Y-63952524D02*
X101054723Y-63904905D01*
X101054723Y-63904905D02*
X100864247Y-63857286D01*
X100864247Y-63857286D02*
X100721390Y-63857286D01*
X100721390Y-63857286D02*
X100530914Y-63904905D01*
X100530914Y-63904905D02*
X100435676Y-63952524D01*
X100435676Y-63952524D02*
X100340438Y-64047762D01*
X100340438Y-64047762D02*
X100292819Y-64190619D01*
X100292819Y-64190619D02*
X100292819Y-64285857D01*
X100292819Y-64285857D02*
X100340438Y-64428714D01*
X100340438Y-64428714D02*
X100388057Y-64476333D01*
X101292819Y-65428714D02*
X101292819Y-64857286D01*
X101292819Y-65143000D02*
X100292819Y-65143000D01*
X100292819Y-65143000D02*
X100435676Y-65047762D01*
X100435676Y-65047762D02*
X100530914Y-64952524D01*
X100530914Y-64952524D02*
X100578533Y-64857286D01*
X107166580Y-76319142D02*
X107214200Y-76271523D01*
X107214200Y-76271523D02*
X107261819Y-76128666D01*
X107261819Y-76128666D02*
X107261819Y-76033428D01*
X107261819Y-76033428D02*
X107214200Y-75890571D01*
X107214200Y-75890571D02*
X107118961Y-75795333D01*
X107118961Y-75795333D02*
X107023723Y-75747714D01*
X107023723Y-75747714D02*
X106833247Y-75700095D01*
X106833247Y-75700095D02*
X106690390Y-75700095D01*
X106690390Y-75700095D02*
X106499914Y-75747714D01*
X106499914Y-75747714D02*
X106404676Y-75795333D01*
X106404676Y-75795333D02*
X106309438Y-75890571D01*
X106309438Y-75890571D02*
X106261819Y-76033428D01*
X106261819Y-76033428D02*
X106261819Y-76128666D01*
X106261819Y-76128666D02*
X106309438Y-76271523D01*
X106309438Y-76271523D02*
X106357057Y-76319142D01*
X107261819Y-77271523D02*
X107261819Y-76700095D01*
X107261819Y-76985809D02*
X106261819Y-76985809D01*
X106261819Y-76985809D02*
X106404676Y-76890571D01*
X106404676Y-76890571D02*
X106499914Y-76795333D01*
X106499914Y-76795333D02*
X106547533Y-76700095D01*
X106261819Y-78176285D02*
X106261819Y-77700095D01*
X106261819Y-77700095D02*
X106738009Y-77652476D01*
X106738009Y-77652476D02*
X106690390Y-77700095D01*
X106690390Y-77700095D02*
X106642771Y-77795333D01*
X106642771Y-77795333D02*
X106642771Y-78033428D01*
X106642771Y-78033428D02*
X106690390Y-78128666D01*
X106690390Y-78128666D02*
X106738009Y-78176285D01*
X106738009Y-78176285D02*
X106833247Y-78223904D01*
X106833247Y-78223904D02*
X107071342Y-78223904D01*
X107071342Y-78223904D02*
X107166580Y-78176285D01*
X107166580Y-78176285D02*
X107214200Y-78128666D01*
X107214200Y-78128666D02*
X107261819Y-78033428D01*
X107261819Y-78033428D02*
X107261819Y-77795333D01*
X107261819Y-77795333D02*
X107214200Y-77700095D01*
X107214200Y-77700095D02*
X107166580Y-77652476D01*
X134881857Y-79099580D02*
X134929476Y-79147200D01*
X134929476Y-79147200D02*
X135072333Y-79194819D01*
X135072333Y-79194819D02*
X135167571Y-79194819D01*
X135167571Y-79194819D02*
X135310428Y-79147200D01*
X135310428Y-79147200D02*
X135405666Y-79051961D01*
X135405666Y-79051961D02*
X135453285Y-78956723D01*
X135453285Y-78956723D02*
X135500904Y-78766247D01*
X135500904Y-78766247D02*
X135500904Y-78623390D01*
X135500904Y-78623390D02*
X135453285Y-78432914D01*
X135453285Y-78432914D02*
X135405666Y-78337676D01*
X135405666Y-78337676D02*
X135310428Y-78242438D01*
X135310428Y-78242438D02*
X135167571Y-78194819D01*
X135167571Y-78194819D02*
X135072333Y-78194819D01*
X135072333Y-78194819D02*
X134929476Y-78242438D01*
X134929476Y-78242438D02*
X134881857Y-78290057D01*
X133929476Y-79194819D02*
X134500904Y-79194819D01*
X134215190Y-79194819D02*
X134215190Y-78194819D01*
X134215190Y-78194819D02*
X134310428Y-78337676D01*
X134310428Y-78337676D02*
X134405666Y-78432914D01*
X134405666Y-78432914D02*
X134500904Y-78480533D01*
X133358047Y-78623390D02*
X133453285Y-78575771D01*
X133453285Y-78575771D02*
X133500904Y-78528152D01*
X133500904Y-78528152D02*
X133548523Y-78432914D01*
X133548523Y-78432914D02*
X133548523Y-78385295D01*
X133548523Y-78385295D02*
X133500904Y-78290057D01*
X133500904Y-78290057D02*
X133453285Y-78242438D01*
X133453285Y-78242438D02*
X133358047Y-78194819D01*
X133358047Y-78194819D02*
X133167571Y-78194819D01*
X133167571Y-78194819D02*
X133072333Y-78242438D01*
X133072333Y-78242438D02*
X133024714Y-78290057D01*
X133024714Y-78290057D02*
X132977095Y-78385295D01*
X132977095Y-78385295D02*
X132977095Y-78432914D01*
X132977095Y-78432914D02*
X133024714Y-78528152D01*
X133024714Y-78528152D02*
X133072333Y-78575771D01*
X133072333Y-78575771D02*
X133167571Y-78623390D01*
X133167571Y-78623390D02*
X133358047Y-78623390D01*
X133358047Y-78623390D02*
X133453285Y-78671009D01*
X133453285Y-78671009D02*
X133500904Y-78718628D01*
X133500904Y-78718628D02*
X133548523Y-78813866D01*
X133548523Y-78813866D02*
X133548523Y-79004342D01*
X133548523Y-79004342D02*
X133500904Y-79099580D01*
X133500904Y-79099580D02*
X133453285Y-79147200D01*
X133453285Y-79147200D02*
X133358047Y-79194819D01*
X133358047Y-79194819D02*
X133167571Y-79194819D01*
X133167571Y-79194819D02*
X133072333Y-79147200D01*
X133072333Y-79147200D02*
X133024714Y-79099580D01*
X133024714Y-79099580D02*
X132977095Y-79004342D01*
X132977095Y-79004342D02*
X132977095Y-78813866D01*
X132977095Y-78813866D02*
X133024714Y-78718628D01*
X133024714Y-78718628D02*
X133072333Y-78671009D01*
X133072333Y-78671009D02*
X133167571Y-78623390D01*
X117601904Y-73622819D02*
X117601904Y-74432342D01*
X117601904Y-74432342D02*
X117554285Y-74527580D01*
X117554285Y-74527580D02*
X117506666Y-74575200D01*
X117506666Y-74575200D02*
X117411428Y-74622819D01*
X117411428Y-74622819D02*
X117220952Y-74622819D01*
X117220952Y-74622819D02*
X117125714Y-74575200D01*
X117125714Y-74575200D02*
X117078095Y-74527580D01*
X117078095Y-74527580D02*
X117030476Y-74432342D01*
X117030476Y-74432342D02*
X117030476Y-73622819D01*
X116078095Y-73622819D02*
X116554285Y-73622819D01*
X116554285Y-73622819D02*
X116601904Y-74099009D01*
X116601904Y-74099009D02*
X116554285Y-74051390D01*
X116554285Y-74051390D02*
X116459047Y-74003771D01*
X116459047Y-74003771D02*
X116220952Y-74003771D01*
X116220952Y-74003771D02*
X116125714Y-74051390D01*
X116125714Y-74051390D02*
X116078095Y-74099009D01*
X116078095Y-74099009D02*
X116030476Y-74194247D01*
X116030476Y-74194247D02*
X116030476Y-74432342D01*
X116030476Y-74432342D02*
X116078095Y-74527580D01*
X116078095Y-74527580D02*
X116125714Y-74575200D01*
X116125714Y-74575200D02*
X116220952Y-74622819D01*
X116220952Y-74622819D02*
X116459047Y-74622819D01*
X116459047Y-74622819D02*
X116554285Y-74575200D01*
X116554285Y-74575200D02*
X116601904Y-74527580D01*
X112500580Y-67905333D02*
X112548200Y-67857714D01*
X112548200Y-67857714D02*
X112595819Y-67714857D01*
X112595819Y-67714857D02*
X112595819Y-67619619D01*
X112595819Y-67619619D02*
X112548200Y-67476762D01*
X112548200Y-67476762D02*
X112452961Y-67381524D01*
X112452961Y-67381524D02*
X112357723Y-67333905D01*
X112357723Y-67333905D02*
X112167247Y-67286286D01*
X112167247Y-67286286D02*
X112024390Y-67286286D01*
X112024390Y-67286286D02*
X111833914Y-67333905D01*
X111833914Y-67333905D02*
X111738676Y-67381524D01*
X111738676Y-67381524D02*
X111643438Y-67476762D01*
X111643438Y-67476762D02*
X111595819Y-67619619D01*
X111595819Y-67619619D02*
X111595819Y-67714857D01*
X111595819Y-67714857D02*
X111643438Y-67857714D01*
X111643438Y-67857714D02*
X111691057Y-67905333D01*
X111595819Y-68762476D02*
X111595819Y-68572000D01*
X111595819Y-68572000D02*
X111643438Y-68476762D01*
X111643438Y-68476762D02*
X111691057Y-68429143D01*
X111691057Y-68429143D02*
X111833914Y-68333905D01*
X111833914Y-68333905D02*
X112024390Y-68286286D01*
X112024390Y-68286286D02*
X112405342Y-68286286D01*
X112405342Y-68286286D02*
X112500580Y-68333905D01*
X112500580Y-68333905D02*
X112548200Y-68381524D01*
X112548200Y-68381524D02*
X112595819Y-68476762D01*
X112595819Y-68476762D02*
X112595819Y-68667238D01*
X112595819Y-68667238D02*
X112548200Y-68762476D01*
X112548200Y-68762476D02*
X112500580Y-68810095D01*
X112500580Y-68810095D02*
X112405342Y-68857714D01*
X112405342Y-68857714D02*
X112167247Y-68857714D01*
X112167247Y-68857714D02*
X112072009Y-68810095D01*
X112072009Y-68810095D02*
X112024390Y-68762476D01*
X112024390Y-68762476D02*
X111976771Y-68667238D01*
X111976771Y-68667238D02*
X111976771Y-68476762D01*
X111976771Y-68476762D02*
X112024390Y-68381524D01*
X112024390Y-68381524D02*
X112072009Y-68333905D01*
X112072009Y-68333905D02*
X112167247Y-68286286D01*
D15*
%TO.C,C2*%
X106699267Y-73027000D02*
X106406733Y-73027000D01*
X106699267Y-72007000D02*
X106406733Y-72007000D01*
D14*
%TO.C,SW3*%
X105328000Y-57390000D02*
X107528000Y-57390000D01*
X105328000Y-61990000D02*
X113928000Y-61990000D01*
X111628000Y-57390000D02*
X113928000Y-57390000D01*
D15*
%TO.C,R5*%
X121909064Y-83285000D02*
X121454936Y-83285000D01*
X121909064Y-81815000D02*
X121454936Y-81815000D01*
D16*
%TO.C,U3*%
X115651000Y-68985000D02*
X116291000Y-68985000D01*
X115651000Y-68985000D02*
X115651000Y-68505000D01*
X117211000Y-68985000D02*
X117851000Y-68985000D01*
X115651000Y-66765000D02*
X115651000Y-66285000D01*
X117851000Y-66765000D02*
X117851000Y-66285000D01*
X115651000Y-66285000D02*
X116291000Y-66285000D01*
X117211000Y-66285000D02*
X117851000Y-66285000D01*
D15*
%TO.C,C8*%
X115677733Y-69975000D02*
X115970267Y-69975000D01*
X115677733Y-70995000D02*
X115970267Y-70995000D01*
%TO.C,C11*%
X134131267Y-76329000D02*
X133838733Y-76329000D01*
X134131267Y-75309000D02*
X133838733Y-75309000D01*
%TO.C,C1*%
X100328000Y-67583267D02*
X100328000Y-67290733D01*
X101348000Y-67583267D02*
X101348000Y-67290733D01*
%TO.C,C15*%
X107317000Y-79990733D02*
X107317000Y-80283267D01*
X106297000Y-79990733D02*
X106297000Y-80283267D01*
%TO.C,C18*%
X134181767Y-77850500D02*
X133889233Y-77850500D01*
X134181767Y-76830500D02*
X133889233Y-76830500D01*
%TO.C,U5*%
X108549000Y-81896000D02*
X114559000Y-81896000D01*
X110799000Y-75076000D02*
X114559000Y-75076000D01*
X114559000Y-75076000D02*
X114559000Y-76336000D01*
X114559000Y-81896000D02*
X114559000Y-80636000D01*
%TO.C,C6*%
X113155000Y-67964267D02*
X113155000Y-67671733D01*
X114175000Y-67964267D02*
X114175000Y-67671733D01*
%TD*%
M02*
