%TF.GenerationSoftware,KiCad,Pcbnew,7.0.9*%
%TF.CreationDate,2025-06-07T20:58:59+05:30*%
%TF.ProjectId,flight_computer_rocketry,666c6967-6874-45f6-936f-6d7075746572,rev?*%
%TF.SameCoordinates,Original*%
%TF.FileFunction,Copper,L1,Top*%
%TF.FilePolarity,Positive*%
%FSLAX46Y46*%
G04 Gerber Fmt 4.6, Leading zero omitted, Abs format (unit mm)*
G04 Created by KiCad (PCBNEW 7.0.9) date 2025-06-07 20:58:59*
%MOMM*%
%LPD*%
G01*
G04 APERTURE LIST*
G04 Aperture macros list*
%AMRoundRect*
0 Rectangle with rounded corners*
0 $1 Rounding radius*
0 $2 $3 $4 $5 $6 $7 $8 $9 X,Y pos of 4 corners*
0 Add a 4 corners polygon primitive as box body*
4,1,4,$2,$3,$4,$5,$6,$7,$8,$9,$2,$3,0*
0 Add four circle primitives for the rounded corners*
1,1,$1+$1,$2,$3*
1,1,$1+$1,$4,$5*
1,1,$1+$1,$6,$7*
1,1,$1+$1,$8,$9*
0 Add four rect primitives between the rounded corners*
20,1,$1+$1,$2,$3,$4,$5,0*
20,1,$1+$1,$4,$5,$6,$7,0*
20,1,$1+$1,$6,$7,$8,$9,0*
20,1,$1+$1,$8,$9,$2,$3,0*%
G04 Aperture macros list end*
%TA.AperFunction,SMDPad,CuDef*%
%ADD10RoundRect,0.237500X-0.300000X-0.237500X0.300000X-0.237500X0.300000X0.237500X-0.300000X0.237500X0*%
%TD*%
%TA.AperFunction,SMDPad,CuDef*%
%ADD11RoundRect,0.237500X0.237500X-0.287500X0.237500X0.287500X-0.237500X0.287500X-0.237500X-0.287500X0*%
%TD*%
%TA.AperFunction,SMDPad,CuDef*%
%ADD12R,2.000000X1.500000*%
%TD*%
%TA.AperFunction,SMDPad,CuDef*%
%ADD13R,2.000000X3.800000*%
%TD*%
%TA.AperFunction,SMDPad,CuDef*%
%ADD14RoundRect,0.237500X-0.237500X0.300000X-0.237500X-0.300000X0.237500X-0.300000X0.237500X0.300000X0*%
%TD*%
%TA.AperFunction,SMDPad,CuDef*%
%ADD15RoundRect,0.250000X-0.350000X-0.450000X0.350000X-0.450000X0.350000X0.450000X-0.350000X0.450000X0*%
%TD*%
%TA.AperFunction,ComponentPad*%
%ADD16C,0.700000*%
%TD*%
%TA.AperFunction,ComponentPad*%
%ADD17C,4.400000*%
%TD*%
%TA.AperFunction,SMDPad,CuDef*%
%ADD18R,1.380000X0.450000*%
%TD*%
%TA.AperFunction,SMDPad,CuDef*%
%ADD19R,1.300000X1.650000*%
%TD*%
%TA.AperFunction,SMDPad,CuDef*%
%ADD20R,1.550000X1.425000*%
%TD*%
%TA.AperFunction,SMDPad,CuDef*%
%ADD21R,1.900000X1.800000*%
%TD*%
%TA.AperFunction,SMDPad,CuDef*%
%ADD22R,1.900000X1.000000*%
%TD*%
%TA.AperFunction,SMDPad,CuDef*%
%ADD23RoundRect,0.150000X-0.150000X-0.700000X0.150000X-0.700000X0.150000X0.700000X-0.150000X0.700000X0*%
%TD*%
%TA.AperFunction,SMDPad,CuDef*%
%ADD24RoundRect,0.250000X-0.250000X-1.100000X0.250000X-1.100000X0.250000X1.100000X-0.250000X1.100000X0*%
%TD*%
%TA.AperFunction,SMDPad,CuDef*%
%ADD25RoundRect,0.250000X-0.450000X0.350000X-0.450000X-0.350000X0.450000X-0.350000X0.450000X0.350000X0*%
%TD*%
%TA.AperFunction,SMDPad,CuDef*%
%ADD26R,1.800000X1.400000*%
%TD*%
%TA.AperFunction,SMDPad,CuDef*%
%ADD27RoundRect,0.062500X0.375000X0.062500X-0.375000X0.062500X-0.375000X-0.062500X0.375000X-0.062500X0*%
%TD*%
%TA.AperFunction,SMDPad,CuDef*%
%ADD28RoundRect,0.062500X0.062500X0.375000X-0.062500X0.375000X-0.062500X-0.375000X0.062500X-0.375000X0*%
%TD*%
%TA.AperFunction,SMDPad,CuDef*%
%ADD29R,5.600000X5.600000*%
%TD*%
%TA.AperFunction,SMDPad,CuDef*%
%ADD30RoundRect,0.250000X-0.250000X-1.150000X0.250000X-1.150000X0.250000X1.150000X-0.250000X1.150000X0*%
%TD*%
%TA.AperFunction,SMDPad,CuDef*%
%ADD31R,1.000000X1.700000*%
%TD*%
%TA.AperFunction,ComponentPad*%
%ADD32RoundRect,0.250000X-0.600000X-0.725000X0.600000X-0.725000X0.600000X0.725000X-0.600000X0.725000X0*%
%TD*%
%TA.AperFunction,ComponentPad*%
%ADD33O,1.700000X1.950000*%
%TD*%
%TA.AperFunction,ComponentPad*%
%ADD34RoundRect,0.250000X-0.725000X0.600000X-0.725000X-0.600000X0.725000X-0.600000X0.725000X0.600000X0*%
%TD*%
%TA.AperFunction,ComponentPad*%
%ADD35O,1.950000X1.700000*%
%TD*%
%TA.AperFunction,ComponentPad*%
%ADD36RoundRect,0.250000X0.750000X-0.600000X0.750000X0.600000X-0.750000X0.600000X-0.750000X-0.600000X0*%
%TD*%
%TA.AperFunction,ComponentPad*%
%ADD37O,2.000000X1.700000*%
%TD*%
%TA.AperFunction,SMDPad,CuDef*%
%ADD38RoundRect,0.237500X-0.237500X0.287500X-0.237500X-0.287500X0.237500X-0.287500X0.237500X0.287500X0*%
%TD*%
%TA.AperFunction,SMDPad,CuDef*%
%ADD39RoundRect,0.075000X-0.350000X-0.075000X0.350000X-0.075000X0.350000X0.075000X-0.350000X0.075000X0*%
%TD*%
%TA.AperFunction,SMDPad,CuDef*%
%ADD40RoundRect,0.075000X0.075000X-0.350000X0.075000X0.350000X-0.075000X0.350000X-0.075000X-0.350000X0*%
%TD*%
%TA.AperFunction,ComponentPad*%
%ADD41RoundRect,0.250000X0.600000X0.725000X-0.600000X0.725000X-0.600000X-0.725000X0.600000X-0.725000X0*%
%TD*%
%TA.AperFunction,SMDPad,CuDef*%
%ADD42RoundRect,0.250000X0.350000X0.450000X-0.350000X0.450000X-0.350000X-0.450000X0.350000X-0.450000X0*%
%TD*%
%TA.AperFunction,SMDPad,CuDef*%
%ADD43RoundRect,0.237500X0.287500X0.237500X-0.287500X0.237500X-0.287500X-0.237500X0.287500X-0.237500X0*%
%TD*%
%TA.AperFunction,ComponentPad*%
%ADD44O,2.200000X3.500000*%
%TD*%
%TA.AperFunction,ComponentPad*%
%ADD45R,1.500000X2.500000*%
%TD*%
%TA.AperFunction,ComponentPad*%
%ADD46O,1.500000X2.500000*%
%TD*%
%TA.AperFunction,ViaPad*%
%ADD47C,0.800000*%
%TD*%
%TA.AperFunction,Conductor*%
%ADD48C,0.500000*%
%TD*%
%TA.AperFunction,Conductor*%
%ADD49C,0.200000*%
%TD*%
%TA.AperFunction,Conductor*%
%ADD50C,0.400000*%
%TD*%
%TA.AperFunction,Conductor*%
%ADD51C,1.000000*%
%TD*%
%TA.AperFunction,Conductor*%
%ADD52C,0.600000*%
%TD*%
G04 APERTURE END LIST*
D10*
%TO.P,C14,1*%
%TO.N,3.3V*%
X117247500Y-77343000D03*
%TO.P,C14,2*%
X118972500Y-77343000D03*
%TD*%
D11*
%TO.P,D2,1,K*%
%TO.N,GND*%
X142113000Y-67536000D03*
%TO.P,D2,2,A*%
%TO.N,Net-(D2-A)*%
X142113000Y-65786000D03*
%TD*%
D12*
%TO.P,U1,1,GND*%
%TO.N,GND*%
X103378000Y-65645000D03*
%TO.P,U1,2,VO*%
%TO.N,3.3V*%
X103378000Y-67945000D03*
D13*
X109678000Y-67945000D03*
D12*
%TO.P,U1,3,VI*%
%TO.N,POWER*%
X103378000Y-70245000D03*
%TD*%
D14*
%TO.P,C12,1*%
%TO.N,3.3V*%
X123444000Y-64087500D03*
%TO.P,C12,2*%
X123444000Y-65812500D03*
%TD*%
D15*
%TO.P,R2,1*%
%TO.N,Net-(U4-PA0)*%
X137811000Y-65786000D03*
%TO.P,R2,2*%
%TO.N,Net-(D2-A)*%
X139811000Y-65786000D03*
%TD*%
D16*
%TO.P,H3,1,1*%
%TO.N,GND*%
X94235000Y-59563000D03*
X94718274Y-58396274D03*
X94718274Y-60729726D03*
X95885000Y-57913000D03*
D17*
X95885000Y-59563000D03*
D16*
X95885000Y-61213000D03*
X97051726Y-58396274D03*
X97051726Y-60729726D03*
X97535000Y-59563000D03*
%TD*%
D10*
%TO.P,C3,1*%
%TO.N,3.3V*%
X128004000Y-87294000D03*
%TO.P,C3,2*%
%TO.N,GND*%
X129729000Y-87294000D03*
%TD*%
D18*
%TO.P,J1,1,VBUS*%
%TO.N,USB_POWER*%
X97472000Y-80742000D03*
%TO.P,J1,2,D-*%
%TO.N,USB_N*%
X97472000Y-81392000D03*
%TO.P,J1,3,D+*%
%TO.N,USB_P*%
X97472000Y-82042000D03*
%TO.P,J1,4,ID*%
%TO.N,unconnected-(J1-ID-Pad4)*%
X97472000Y-82692000D03*
%TO.P,J1,5,GND*%
%TO.N,GND*%
X97472000Y-83342000D03*
D19*
%TO.P,J1,6,Shield*%
X94812000Y-78667000D03*
D20*
X97387000Y-79554500D03*
D21*
X94812000Y-80892000D03*
D22*
X94812000Y-83592000D03*
D20*
X97387000Y-84529500D03*
D19*
X94812000Y-85417000D03*
%TD*%
D23*
%TO.P,J10,1,Pin_1*%
%TO.N,UART_N*%
X115304000Y-91415000D03*
%TO.P,J10,2,Pin_2*%
%TO.N,UART_P*%
X116554000Y-91415000D03*
%TO.P,J10,3,Pin_3*%
%TO.N,5V*%
X117804000Y-91415000D03*
%TO.P,J10,4,Pin_4*%
%TO.N,GND*%
X119054000Y-91415000D03*
D24*
%TO.P,J10,MP*%
%TO.N,N/C*%
X113454000Y-94615000D03*
X120904000Y-94615000D03*
%TD*%
D25*
%TO.P,R3,1*%
%TO.N,5V*%
X104521000Y-77486000D03*
%TO.P,R3,2*%
%TO.N,Net-(D3-A)*%
X104521000Y-79486000D03*
%TD*%
D16*
%TO.P,H4,1,1*%
%TO.N,GND*%
X147575000Y-59817000D03*
X148058274Y-58650274D03*
X148058274Y-60983726D03*
X149225000Y-58167000D03*
D17*
X149225000Y-59817000D03*
D16*
X149225000Y-61467000D03*
X150391726Y-58650274D03*
X150391726Y-60983726D03*
X150875000Y-59817000D03*
%TD*%
D26*
%TO.P,Y1,1,1*%
%TO.N,CKL_P*%
X136468000Y-73082000D03*
%TO.P,Y1,2,2*%
%TO.N,GND*%
X140868000Y-73082000D03*
%TO.P,Y1,3,3*%
X140868000Y-70682000D03*
%TO.P,Y1,4,4*%
%TO.N,CLK_N*%
X136468000Y-70682000D03*
%TD*%
D27*
%TO.P,U4,1,VBAT*%
%TO.N,3.3V*%
X128975500Y-74186000D03*
%TO.P,U4,2,PC13*%
%TO.N,unconnected-(U4-PC13-Pad2)*%
X128975500Y-73686000D03*
%TO.P,U4,3,PC14*%
%TO.N,unconnected-(U4-PC14-Pad3)*%
X128975500Y-73186000D03*
%TO.P,U4,4,PC15*%
%TO.N,unconnected-(U4-PC15-Pad4)*%
X128975500Y-72686000D03*
%TO.P,U4,5,PH0*%
%TO.N,CKL_P*%
X128975500Y-72186000D03*
%TO.P,U4,6,PH1*%
%TO.N,CLK_N*%
X128975500Y-71686000D03*
%TO.P,U4,7,NRST*%
%TO.N,unconnected-(U4-NRST-Pad7)*%
X128975500Y-71186000D03*
%TO.P,U4,8,VSSA*%
%TO.N,GND*%
X128975500Y-70686000D03*
%TO.P,U4,9,VREF+*%
%TO.N,unconnected-(U4-VREF+-Pad9)*%
X128975500Y-70186000D03*
%TO.P,U4,10,PA0*%
%TO.N,Net-(U4-PA0)*%
X128975500Y-69686000D03*
%TO.P,U4,11,PA1*%
%TO.N,PWM_E1*%
X128975500Y-69186000D03*
%TO.P,U4,12,PA2*%
%TO.N,PWM_E2*%
X128975500Y-68686000D03*
D28*
%TO.P,U4,13,PA3*%
%TO.N,PWM_E3*%
X128288000Y-67998500D03*
%TO.P,U4,14,PA4*%
%TO.N,SCK*%
X127788000Y-67998500D03*
%TO.P,U4,15,PA5*%
%TO.N,MISO*%
X127288000Y-67998500D03*
%TO.P,U4,16,PA6*%
%TO.N,MOSI*%
X126788000Y-67998500D03*
%TO.P,U4,17,PA7*%
%TO.N,unconnected-(U4-PA7-Pad17)*%
X126288000Y-67998500D03*
%TO.P,U4,18,PB0*%
%TO.N,PB0*%
X125788000Y-67998500D03*
%TO.P,U4,19,PB1*%
%TO.N,PB1*%
X125288000Y-67998500D03*
%TO.P,U4,20,PB2*%
%TO.N,PB2*%
X124788000Y-67998500D03*
%TO.P,U4,21,PB10*%
%TO.N,SCL_I2C2*%
X124288000Y-67998500D03*
%TO.P,U4,22,VCAP1*%
%TO.N,unconnected-(U4-VCAP1-Pad22)*%
X123788000Y-67998500D03*
%TO.P,U4,23,VSS*%
%TO.N,GND*%
X123288000Y-67998500D03*
%TO.P,U4,24,VDD*%
%TO.N,3.3V*%
X122788000Y-67998500D03*
D27*
%TO.P,U4,25,PB12*%
%TO.N,unconnected-(U4-PB12-Pad25)*%
X122100500Y-68686000D03*
%TO.P,U4,26,PB13*%
%TO.N,unconnected-(U4-PB13-Pad26)*%
X122100500Y-69186000D03*
%TO.P,U4,27,PB14*%
%TO.N,unconnected-(U4-PB14-Pad27)*%
X122100500Y-69686000D03*
%TO.P,U4,28,PB15*%
%TO.N,unconnected-(U4-PB15-Pad28)*%
X122100500Y-70186000D03*
%TO.P,U4,29,PA8*%
%TO.N,PWM1*%
X122100500Y-70686000D03*
%TO.P,U4,30,PA9*%
%TO.N,PWM2*%
X122100500Y-71186000D03*
%TO.P,U4,31,PA10*%
%TO.N,PWM3*%
X122100500Y-71686000D03*
%TO.P,U4,32,PA11*%
%TO.N,USB_N*%
X122100500Y-72186000D03*
%TO.P,U4,33,PA12*%
%TO.N,USB_P*%
X122100500Y-72686000D03*
%TO.P,U4,34,PA13*%
%TO.N,SYS_JTMS_SWDIO*%
X122100500Y-73186000D03*
%TO.P,U4,35,VSS*%
%TO.N,GND*%
X122100500Y-73686000D03*
%TO.P,U4,36,VDD*%
%TO.N,3.3V*%
X122100500Y-74186000D03*
D28*
%TO.P,U4,37,PA14*%
%TO.N,SYS_JTCK_SWCLK*%
X122788000Y-74873500D03*
%TO.P,U4,38,PA15*%
%TO.N,unconnected-(U4-PA15-Pad38)*%
X123288000Y-74873500D03*
%TO.P,U4,39,PB3*%
%TO.N,SDA_I2C2*%
X123788000Y-74873500D03*
%TO.P,U4,40,PB4*%
%TO.N,PWM4*%
X124288000Y-74873500D03*
%TO.P,U4,41,PB5*%
%TO.N,unconnected-(U4-PB5-Pad41)*%
X124788000Y-74873500D03*
%TO.P,U4,42,PB6*%
%TO.N,UART_P*%
X125288000Y-74873500D03*
%TO.P,U4,43,PB7*%
%TO.N,UART_N*%
X125788000Y-74873500D03*
%TO.P,U4,44,BOOT0*%
%TO.N,Net-(U4-BOOT0)*%
X126288000Y-74873500D03*
%TO.P,U4,45,PB8*%
%TO.N,I2C_N*%
X126788000Y-74873500D03*
%TO.P,U4,46,PB9*%
%TO.N,I2C_P*%
X127288000Y-74873500D03*
%TO.P,U4,47,VSS*%
%TO.N,GND*%
X127788000Y-74873500D03*
%TO.P,U4,48,VDD*%
%TO.N,3.3V*%
X128288000Y-74873500D03*
D29*
%TO.P,U4,49,VSS*%
%TO.N,GND*%
X125538000Y-71436000D03*
%TD*%
D14*
%TO.P,C5,1*%
%TO.N,Net-(U2-REGOUT)*%
X132453000Y-85624500D03*
%TO.P,C5,2*%
%TO.N,GND*%
X132453000Y-87349500D03*
%TD*%
D10*
%TO.P,C10,1*%
%TO.N,CLK_N*%
X137551500Y-68453000D03*
%TO.P,C10,2*%
%TO.N,GND*%
X139276500Y-68453000D03*
%TD*%
%TO.P,C4,1*%
%TO.N,3.3V*%
X128004000Y-85643000D03*
%TO.P,C4,2*%
%TO.N,GND*%
X129729000Y-85643000D03*
%TD*%
D23*
%TO.P,J6,1,Pin_1*%
%TO.N,3.3V*%
X115219000Y-62148000D03*
%TO.P,J6,2,Pin_2*%
%TO.N,GND*%
X116469000Y-62148000D03*
%TO.P,J6,3,Pin_3*%
%TO.N,SYS_JTCK_SWCLK*%
X117719000Y-62148000D03*
%TO.P,J6,4,Pin_4*%
%TO.N,SYS_JTMS_SWDIO*%
X118969000Y-62148000D03*
D30*
%TO.P,J6,MP*%
%TO.N,N/C*%
X113369000Y-58798000D03*
X120819000Y-58798000D03*
%TD*%
D10*
%TO.P,C17,1*%
%TO.N,3.3V*%
X117274000Y-75692000D03*
%TO.P,C17,2*%
X118999000Y-75692000D03*
%TD*%
%TO.P,C9,1*%
%TO.N,CKL_P*%
X137551500Y-75438000D03*
%TO.P,C9,2*%
%TO.N,GND*%
X139276500Y-75438000D03*
%TD*%
D31*
%TO.P,SW1,1,1*%
%TO.N,Net-(R5-Pad1)*%
X119766000Y-85700000D03*
X119766000Y-79400000D03*
%TO.P,SW1,2,2*%
%TO.N,Net-(U4-BOOT0)*%
X123566000Y-85700000D03*
X123566000Y-79400000D03*
%TD*%
D32*
%TO.P,J3,1,Pin_1*%
%TO.N,PWM2*%
X126024000Y-58793500D03*
D33*
%TO.P,J3,2,Pin_2*%
%TO.N,5V*%
X128524000Y-58793500D03*
%TO.P,J3,3,Pin_3*%
%TO.N,GND*%
X131024000Y-58793500D03*
%TD*%
D34*
%TO.P,J8,1,Pin_1*%
%TO.N,PWM_E1*%
X150114000Y-66755000D03*
D35*
%TO.P,J8,2,Pin_2*%
%TO.N,PWM_E2*%
X150114000Y-69255000D03*
%TO.P,J8,3,Pin_3*%
%TO.N,PWM_E3*%
X150114000Y-71755000D03*
%TD*%
D16*
%TO.P,H2,1,1*%
%TO.N,GND*%
X148210000Y-93472000D03*
X148693274Y-92305274D03*
X148693274Y-94638726D03*
X149860000Y-91822000D03*
D17*
X149860000Y-93472000D03*
D16*
X149860000Y-95122000D03*
X151026726Y-92305274D03*
X151026726Y-94638726D03*
X151510000Y-93472000D03*
%TD*%
D32*
%TO.P,J9,1,Pin_1*%
%TO.N,5V*%
X102823000Y-93599000D03*
D33*
%TO.P,J9,2,Pin_2*%
%TO.N,3.3V*%
X105323000Y-93599000D03*
%TO.P,J9,3,Pin_3*%
%TO.N,GND*%
X107823000Y-93599000D03*
%TD*%
D36*
%TO.P,J7,1,Pin_1*%
%TO.N,12V_DC*%
X96139000Y-69850000D03*
D37*
%TO.P,J7,2,Pin_2*%
%TO.N,GND*%
X96139000Y-67350000D03*
%TD*%
D38*
%TO.P,D1,1,K*%
%TO.N,GND*%
X100711000Y-71388000D03*
%TO.P,D1,2,A*%
%TO.N,Net-(D1-A)*%
X100711000Y-73138000D03*
%TD*%
D39*
%TO.P,U2,1,CLKIN*%
%TO.N,unconnected-(U2-CLKIN-Pad1)*%
X128213000Y-80329000D03*
%TO.P,U2,2,NC*%
%TO.N,unconnected-(U2-NC-Pad2)*%
X128213000Y-80829000D03*
%TO.P,U2,3,NC*%
%TO.N,unconnected-(U2-NC-Pad3)*%
X128213000Y-81329000D03*
%TO.P,U2,4,NC*%
%TO.N,unconnected-(U2-NC-Pad4)*%
X128213000Y-81829000D03*
%TO.P,U2,5,NC*%
%TO.N,unconnected-(U2-NC-Pad5)*%
X128213000Y-82329000D03*
%TO.P,U2,6,AUX_SDA*%
%TO.N,unconnected-(U2-AUX_SDA-Pad6)*%
X128213000Y-82829000D03*
D40*
%TO.P,U2,7,AUX_SCL*%
%TO.N,unconnected-(U2-AUX_SCL-Pad7)*%
X128913000Y-83529000D03*
%TO.P,U2,8,VDDIO*%
%TO.N,3.3V*%
X129413000Y-83529000D03*
%TO.P,U2,9,AD0*%
%TO.N,PB1*%
X129913000Y-83529000D03*
%TO.P,U2,10,REGOUT*%
%TO.N,Net-(U2-REGOUT)*%
X130413000Y-83529000D03*
%TO.P,U2,11,FSYNC*%
%TO.N,unconnected-(U2-FSYNC-Pad11)*%
X130913000Y-83529000D03*
%TO.P,U2,12,INT*%
%TO.N,unconnected-(U2-INT-Pad12)*%
X131413000Y-83529000D03*
D39*
%TO.P,U2,13,VDD*%
%TO.N,3.3V*%
X132113000Y-82829000D03*
%TO.P,U2,14,NC*%
%TO.N,unconnected-(U2-NC-Pad14)*%
X132113000Y-82329000D03*
%TO.P,U2,15,NC*%
%TO.N,unconnected-(U2-NC-Pad15)*%
X132113000Y-81829000D03*
%TO.P,U2,16,NC*%
%TO.N,unconnected-(U2-NC-Pad16)*%
X132113000Y-81329000D03*
%TO.P,U2,17,NC*%
%TO.N,unconnected-(U2-NC-Pad17)*%
X132113000Y-80829000D03*
%TO.P,U2,18,GND*%
%TO.N,GND*%
X132113000Y-80329000D03*
D40*
%TO.P,U2,19,NC*%
%TO.N,unconnected-(U2-NC-Pad19)*%
X131413000Y-79629000D03*
%TO.P,U2,20,CPOUT*%
%TO.N,Net-(U2-CPOUT)*%
X130913000Y-79629000D03*
%TO.P,U2,21,NC*%
%TO.N,unconnected-(U2-NC-Pad21)*%
X130413000Y-79629000D03*
%TO.P,U2,22,NC*%
%TO.N,unconnected-(U2-NC-Pad22)*%
X129913000Y-79629000D03*
%TO.P,U2,23,SCL*%
%TO.N,I2C_N*%
X129413000Y-79629000D03*
%TO.P,U2,24,SDA*%
%TO.N,I2C_P*%
X128913000Y-79629000D03*
%TD*%
D16*
%TO.P,H1,1,1*%
%TO.N,GND*%
X94490000Y-93345000D03*
X94973274Y-92178274D03*
X94973274Y-94511726D03*
X96140000Y-91695000D03*
D17*
X96140000Y-93345000D03*
D16*
X96140000Y-94995000D03*
X97306726Y-92178274D03*
X97306726Y-94511726D03*
X97790000Y-93345000D03*
%TD*%
D41*
%TO.P,J4,1,Pin_1*%
%TO.N,PWM3*%
X131572000Y-93853000D03*
D33*
%TO.P,J4,2,Pin_2*%
%TO.N,5V*%
X129072000Y-93853000D03*
%TO.P,J4,3,Pin_3*%
%TO.N,GND*%
X126572000Y-93853000D03*
%TD*%
D41*
%TO.P,J5,1,Pin_1*%
%TO.N,PWM4*%
X143343000Y-93853000D03*
D33*
%TO.P,J5,2,Pin_2*%
%TO.N,5V*%
X140843000Y-93853000D03*
%TO.P,J5,3,Pin_3*%
%TO.N,GND*%
X138343000Y-93853000D03*
%TD*%
D10*
%TO.P,C16,1*%
%TO.N,5V*%
X110389500Y-73533000D03*
%TO.P,C16,2*%
%TO.N,GND*%
X112114500Y-73533000D03*
%TD*%
%TO.P,C7,1*%
%TO.N,Net-(U2-CPOUT)*%
X131217500Y-77642000D03*
%TO.P,C7,2*%
%TO.N,GND*%
X132942500Y-77642000D03*
%TD*%
D32*
%TO.P,J2,1,Pin_1*%
%TO.N,PWM1*%
X137835000Y-58666500D03*
D33*
%TO.P,J2,2,Pin_2*%
%TO.N,5V*%
X140335000Y-58666500D03*
%TO.P,J2,3,Pin_3*%
%TO.N,GND*%
X142835000Y-58666500D03*
%TD*%
D42*
%TO.P,R1,1*%
%TO.N,3.3V*%
X104886000Y-74676000D03*
%TO.P,R1,2*%
%TO.N,Net-(D1-A)*%
X102886000Y-74676000D03*
%TD*%
D14*
%TO.P,C13,1*%
%TO.N,3.3V*%
X121793000Y-64061000D03*
%TO.P,C13,2*%
X121793000Y-65786000D03*
%TD*%
D43*
%TO.P,D3,1,K*%
%TO.N,GND*%
X106793000Y-81407000D03*
%TO.P,D3,2,A*%
%TO.N,Net-(D3-A)*%
X105043000Y-81407000D03*
%TD*%
D44*
%TO.P,SW3,*%
%TO.N,*%
X105528000Y-59690000D03*
X113728000Y-59690000D03*
D45*
%TO.P,SW3,1,A*%
%TO.N,USB_POWER*%
X107628000Y-59690000D03*
D46*
%TO.P,SW3,2,B*%
%TO.N,POWER*%
X109628000Y-59690000D03*
%TO.P,SW3,3,C*%
%TO.N,12V_DC*%
X111628000Y-59690000D03*
%TD*%
D47*
%TO.N,GND*%
X123952000Y-70231000D03*
X130302000Y-88265000D03*
X113665000Y-66955500D03*
X109499000Y-78486000D03*
X112141000Y-73533000D03*
X139319000Y-75438000D03*
X126746000Y-71501000D03*
X100711000Y-71374000D03*
X132461000Y-87376000D03*
X123952000Y-71628000D03*
X126746000Y-70231000D03*
X125222000Y-71501000D03*
X105664000Y-72517000D03*
X115443000Y-78359000D03*
X106807000Y-81280000D03*
X125222000Y-70231000D03*
X100838000Y-66548000D03*
X123952000Y-72898000D03*
X126746000Y-73025000D03*
X116776500Y-74104500D03*
X116686500Y-70485000D03*
X125349000Y-73025000D03*
%TO.N,PWM1*%
X122047000Y-67056000D03*
%TO.N,PWM2*%
X120269000Y-69977000D03*
%TO.N,PWM3*%
X119634000Y-70866000D03*
%TO.N,PWM4*%
X124587000Y-76073000D03*
%TO.N,SYS_JTMS_SWDIO*%
X118872000Y-72771000D03*
X119634000Y-65786000D03*
%TO.N,SYS_JTCK_SWCLK*%
X120396000Y-75946000D03*
X119018000Y-66675000D03*
%TO.N,PB1*%
X126238000Y-66421000D03*
X131064000Y-85852000D03*
%TO.N,PB2*%
X124460000Y-62357000D03*
%TO.N,POWER*%
X106299000Y-74930000D03*
X107188000Y-66802000D03*
X106807000Y-79274500D03*
X100838000Y-68326000D03*
X103251000Y-70358000D03*
%TO.N,3.3V*%
X133096000Y-75819000D03*
X109678000Y-67945000D03*
X127889000Y-87249000D03*
X133985000Y-82677000D03*
X107442000Y-72517000D03*
X117274000Y-75692000D03*
X103505000Y-81407000D03*
X134874000Y-75819000D03*
X114935000Y-65913000D03*
X128004000Y-85643000D03*
%TO.N,5V*%
X118872000Y-89281000D03*
X110363000Y-73533000D03*
X146939000Y-63119000D03*
X143256000Y-91313000D03*
X104521000Y-77597000D03*
X147066000Y-72771000D03*
%TO.N,USB_POWER*%
X100203000Y-75565000D03*
%TO.N,12V_DC*%
X100457000Y-69723000D03*
%TO.N,PWM_E1*%
X134366000Y-66929000D03*
%TO.N,PWM_E2*%
X131445000Y-67818000D03*
%TO.N,PWM_E3*%
X128651000Y-66802000D03*
%TO.N,Net-(R5-Pad1)*%
X122682000Y-82677000D03*
%TO.N,SCL_I2C2*%
X124587000Y-63373000D03*
%TO.N,SDA_I2C2*%
X122682000Y-76454000D03*
%TO.N,I2C_P*%
X128397000Y-78486000D03*
X127762000Y-75946000D03*
%TO.N,UART_N*%
X122428000Y-78105000D03*
X117602000Y-81534000D03*
%TO.N,UART_P*%
X118491000Y-80391000D03*
X121412000Y-77724000D03*
%TD*%
D48*
%TO.N,GND*%
X126572000Y-91995000D02*
X127762000Y-90805000D01*
X142113000Y-67536000D02*
X144046000Y-67536000D01*
X138343000Y-91607000D02*
X137922000Y-91186000D01*
D49*
X104027000Y-71388000D02*
X100711000Y-71388000D01*
X127788000Y-74873500D02*
X127788000Y-73686000D01*
D48*
X129729000Y-87294000D02*
X130302000Y-87867000D01*
X137541000Y-90805000D02*
X137922000Y-91186000D01*
D49*
X116776500Y-74104500D02*
X117195000Y-73686000D01*
D48*
X139276500Y-75438000D02*
X139319000Y-75438000D01*
D50*
X97387000Y-83427000D02*
X97387000Y-84529500D01*
D48*
X127762000Y-90805000D02*
X137541000Y-90805000D01*
X109499000Y-79604000D02*
X109499000Y-78486000D01*
X140081000Y-62103000D02*
X140716000Y-61468000D01*
D49*
X126288000Y-70686000D02*
X125538000Y-71436000D01*
D48*
X147574000Y-61468000D02*
X149225000Y-59817000D01*
D49*
X115062000Y-67056000D02*
X113765500Y-67056000D01*
D48*
X126572000Y-93853000D02*
X126572000Y-91995000D01*
X145923000Y-65659000D02*
X145923000Y-61849000D01*
D49*
X122100500Y-73686000D02*
X123288000Y-73686000D01*
D48*
X99568000Y-66548000D02*
X98766000Y-67350000D01*
X134620000Y-76962000D02*
X137752500Y-76962000D01*
D49*
X105664000Y-72517000D02*
X105156000Y-72517000D01*
D48*
X101868000Y-65645000D02*
X100965000Y-66548000D01*
X119054000Y-90623000D02*
X120015000Y-89662000D01*
X100838000Y-66548000D02*
X99568000Y-66548000D01*
X132461000Y-87376000D02*
X129784500Y-87349500D01*
X120015000Y-89662000D02*
X126619000Y-89662000D01*
D49*
X116469000Y-62148000D02*
X116469000Y-65649000D01*
D48*
X126619000Y-89662000D02*
X127762000Y-90805000D01*
D49*
X128975500Y-70686000D02*
X126288000Y-70686000D01*
D48*
X140868000Y-74397000D02*
X140868000Y-73082000D01*
D49*
X123288000Y-73686000D02*
X125538000Y-71436000D01*
D48*
X146431000Y-90043000D02*
X149860000Y-93472000D01*
X140716000Y-61468000D02*
X142835000Y-59349000D01*
X138343000Y-93853000D02*
X138343000Y-91607000D01*
X112114500Y-73533000D02*
X112141000Y-73533000D01*
X140716000Y-61468000D02*
X147193000Y-61468000D01*
X129784500Y-87349500D02*
X129729000Y-87294000D01*
X142113000Y-67536000D02*
X140998000Y-67536000D01*
X140868000Y-70682000D02*
X140868000Y-73082000D01*
D49*
X105156000Y-72517000D02*
X104027000Y-71388000D01*
D51*
X95699500Y-79554500D02*
X94812000Y-78667000D01*
D48*
X119054000Y-91415000D02*
X119054000Y-90623000D01*
X145923000Y-61849000D02*
X146304000Y-61468000D01*
D49*
X113765500Y-67056000D02*
X113665000Y-66955500D01*
D48*
X130302000Y-87867000D02*
X130302000Y-88265000D01*
D51*
X97387000Y-79554500D02*
X95699500Y-79554500D01*
D48*
X140081000Y-68453000D02*
X140868000Y-69240000D01*
X140998000Y-67536000D02*
X140081000Y-68453000D01*
X111379000Y-74268500D02*
X112114500Y-73533000D01*
D51*
X94812000Y-92017000D02*
X96140000Y-93345000D01*
D49*
X127788000Y-73686000D02*
X125538000Y-71436000D01*
D48*
X132453000Y-87349500D02*
X132461000Y-87376000D01*
D51*
X94812000Y-85417000D02*
X94812000Y-78667000D01*
D48*
X146304000Y-61468000D02*
X147193000Y-61468000D01*
D51*
X94812000Y-85417000D02*
X94812000Y-92017000D01*
D49*
X123288000Y-67998500D02*
X123288000Y-69186000D01*
D48*
X107823000Y-81280000D02*
X109499000Y-79604000D01*
X98766000Y-67350000D02*
X96139000Y-67350000D01*
X131024000Y-58793500D02*
X134333500Y-62103000D01*
D50*
X97472000Y-83342000D02*
X97387000Y-83427000D01*
D48*
X144046000Y-67536000D02*
X145923000Y-65659000D01*
X103378000Y-65645000D02*
X101868000Y-65645000D01*
D49*
X123288000Y-69186000D02*
X125538000Y-71436000D01*
D48*
X133940000Y-77642000D02*
X134620000Y-76962000D01*
D51*
X95699500Y-84529500D02*
X94812000Y-85417000D01*
D48*
X139276500Y-68453000D02*
X140081000Y-68453000D01*
X142835000Y-59349000D02*
X142835000Y-58666500D01*
D49*
X116469000Y-65649000D02*
X115062000Y-67056000D01*
D48*
X106807000Y-81280000D02*
X107823000Y-81280000D01*
X112141000Y-73533000D02*
X115189000Y-70485000D01*
X129729000Y-85643000D02*
X129729000Y-87294000D01*
X140868000Y-69240000D02*
X140868000Y-70682000D01*
X134333500Y-62103000D02*
X140081000Y-62103000D01*
D49*
X132113000Y-80329000D02*
X132523000Y-80329000D01*
D48*
X137752500Y-76962000D02*
X139276500Y-75438000D01*
D49*
X117195000Y-73686000D02*
X122100500Y-73686000D01*
X115443000Y-75438000D02*
X116776500Y-74104500D01*
D48*
X147193000Y-61468000D02*
X147574000Y-61468000D01*
D49*
X132523000Y-80329000D02*
X132942500Y-79909500D01*
X115443000Y-78359000D02*
X115443000Y-75438000D01*
D48*
X139319000Y-75438000D02*
X139827000Y-75438000D01*
X137541000Y-90805000D02*
X138303000Y-90043000D01*
D51*
X97387000Y-84529500D02*
X95699500Y-84529500D01*
D48*
X139827000Y-75438000D02*
X140868000Y-74397000D01*
X110236000Y-78486000D02*
X111379000Y-77343000D01*
X132942500Y-77642000D02*
X133940000Y-77642000D01*
X138303000Y-90043000D02*
X146431000Y-90043000D01*
X109499000Y-78486000D02*
X110236000Y-78486000D01*
X111379000Y-77343000D02*
X111379000Y-74268500D01*
D49*
X132942500Y-79909500D02*
X132942500Y-77642000D01*
D48*
X115189000Y-70485000D02*
X116686500Y-70485000D01*
X100965000Y-66548000D02*
X100838000Y-66548000D01*
D49*
%TO.N,Net-(U2-REGOUT)*%
X130413000Y-83529000D02*
X130413000Y-84058000D01*
X131979500Y-85624500D02*
X132453000Y-85624500D01*
X130413000Y-84058000D02*
X131979500Y-85624500D01*
%TO.N,Net-(U2-CPOUT)*%
X130913000Y-77946500D02*
X131217500Y-77642000D01*
X130913000Y-79629000D02*
X130913000Y-77946500D01*
%TO.N,USB_N*%
X108894000Y-82768000D02*
X108894000Y-83168000D01*
X120700000Y-72186000D02*
X122100500Y-72186000D01*
X107694000Y-82768000D02*
X107694000Y-83168000D01*
X120142000Y-71628000D02*
X120700000Y-72186000D01*
X110269800Y-83468000D02*
X112170000Y-81567800D01*
X107094000Y-83168000D02*
X107094000Y-82768000D01*
X103852200Y-83468000D02*
X104394000Y-83468000D01*
X106494000Y-82768000D02*
X106494000Y-83168000D01*
X112170000Y-75598800D02*
X116140800Y-71628000D01*
X104694000Y-83168000D02*
X104694000Y-82768000D01*
X101876200Y-81492000D02*
X103852200Y-83468000D01*
X112170000Y-81567800D02*
X112170000Y-75598800D01*
X109194000Y-83468000D02*
X109713615Y-83468000D01*
X105294000Y-82768000D02*
X105294000Y-83168000D01*
X97472000Y-81392000D02*
X98507001Y-81392000D01*
X116140800Y-71628000D02*
X120142000Y-71628000D01*
X108294000Y-83168000D02*
X108294000Y-82768000D01*
X98507001Y-81392000D02*
X98607001Y-81492000D01*
X105894000Y-83168000D02*
X105894000Y-82768000D01*
X98607001Y-81492000D02*
X101876200Y-81492000D01*
X109713615Y-83468000D02*
X110269800Y-83468000D01*
X104994000Y-82468000D02*
G75*
G03*
X104694000Y-82768000I0J-300000D01*
G01*
X106494000Y-83168000D02*
G75*
G03*
X106794000Y-83468000I300000J0D01*
G01*
X107694000Y-83168000D02*
G75*
G03*
X107994000Y-83468000I300000J0D01*
G01*
X107994000Y-83468000D02*
G75*
G03*
X108294000Y-83168000I0J300000D01*
G01*
X105294000Y-82768000D02*
G75*
G03*
X104994000Y-82468000I-300000J0D01*
G01*
X107694000Y-82768000D02*
G75*
G03*
X107394000Y-82468000I-300000J0D01*
G01*
X107394000Y-82468000D02*
G75*
G03*
X107094000Y-82768000I0J-300000D01*
G01*
X105294000Y-83168000D02*
G75*
G03*
X105594000Y-83468000I300000J0D01*
G01*
X108894000Y-82768000D02*
G75*
G03*
X108594000Y-82468000I-300000J0D01*
G01*
X104394000Y-83468000D02*
G75*
G03*
X104694000Y-83168000I0J300000D01*
G01*
X108894000Y-83168000D02*
G75*
G03*
X109194000Y-83468000I300000J0D01*
G01*
X108594000Y-82468000D02*
G75*
G03*
X108294000Y-82768000I0J-300000D01*
G01*
X106494000Y-82768000D02*
G75*
G03*
X106194000Y-82468000I-300000J0D01*
G01*
X106794000Y-83468000D02*
G75*
G03*
X107094000Y-83168000I0J300000D01*
G01*
X105594000Y-83468000D02*
G75*
G03*
X105894000Y-83168000I0J300000D01*
G01*
X106194000Y-82468000D02*
G75*
G03*
X105894000Y-82768000I0J-300000D01*
G01*
%TO.N,USB_P*%
X110456200Y-83918000D02*
X103665800Y-83918000D01*
X119907000Y-72028000D02*
X116377200Y-72028000D01*
X120565000Y-72686000D02*
X119907000Y-72028000D01*
X122100500Y-72686000D02*
X120565000Y-72686000D01*
X112620000Y-75785200D02*
X112620000Y-81754200D01*
X116377200Y-72028000D02*
X112620000Y-75785200D01*
X112620000Y-81754200D02*
X110456200Y-83918000D01*
X98607001Y-81942000D02*
X98507001Y-82042000D01*
X98507001Y-82042000D02*
X97472000Y-82042000D01*
X103665800Y-83918000D02*
X101689800Y-81942000D01*
X101689800Y-81942000D02*
X98607001Y-81942000D01*
%TO.N,PWM1*%
X121613000Y-70686000D02*
X121031000Y-70104000D01*
X121031000Y-68072000D02*
X122047000Y-67056000D01*
X122100500Y-70686000D02*
X121613000Y-70686000D01*
X121031000Y-70104000D02*
X121031000Y-68072000D01*
%TO.N,PWM2*%
X120777000Y-70866000D02*
X120269000Y-70358000D01*
X120269000Y-70358000D02*
X120269000Y-69977000D01*
X122100500Y-71186000D02*
X121097000Y-71186000D01*
X121097000Y-71186000D02*
X120777000Y-70866000D01*
%TO.N,PWM3*%
X120835000Y-71686000D02*
X122100500Y-71686000D01*
X119634000Y-70866000D02*
X119888000Y-71120000D01*
X119888000Y-71120000D02*
X120269000Y-71120000D01*
X120269000Y-71120000D02*
X120835000Y-71686000D01*
%TO.N,PWM4*%
X124288000Y-75774000D02*
X124587000Y-76073000D01*
X124288000Y-74873500D02*
X124288000Y-75774000D01*
%TO.N,SYS_JTMS_SWDIO*%
X119634000Y-65786000D02*
X119634000Y-64770000D01*
X119287000Y-73186000D02*
X122100500Y-73186000D01*
X118999000Y-62178000D02*
X118969000Y-62148000D01*
X118872000Y-72771000D02*
X119287000Y-73186000D01*
X119634000Y-64770000D02*
X118999000Y-64135000D01*
X118999000Y-64135000D02*
X118999000Y-62178000D01*
%TO.N,SYS_JTCK_SWCLK*%
X122788000Y-74873500D02*
X122788000Y-75078000D01*
X117719000Y-65395000D02*
X117719000Y-62148000D01*
X119018000Y-66675000D02*
X118999000Y-66675000D01*
X122788000Y-75078000D02*
X121666000Y-76200000D01*
X121666000Y-76200000D02*
X120650000Y-76200000D01*
X118999000Y-66675000D02*
X117719000Y-65395000D01*
X120650000Y-76200000D02*
X120396000Y-75946000D01*
D50*
%TO.N,Net-(D1-A)*%
X101219000Y-74676000D02*
X100711000Y-74168000D01*
X100711000Y-74168000D02*
X100711000Y-73138000D01*
X102886000Y-74676000D02*
X101219000Y-74676000D01*
D48*
%TO.N,Net-(D2-A)*%
X142113000Y-65786000D02*
X139811000Y-65786000D01*
D49*
%TO.N,PB1*%
X131064000Y-85655686D02*
X129913000Y-84504686D01*
X129913000Y-84504686D02*
X129913000Y-83529000D01*
X131064000Y-85852000D02*
X131064000Y-85655686D01*
X125288000Y-67371000D02*
X125288000Y-67998500D01*
X126238000Y-66421000D02*
X125288000Y-67371000D01*
%TO.N,Net-(U4-PA0)*%
X133006000Y-69686000D02*
X136906000Y-65786000D01*
X128975500Y-69686000D02*
X133006000Y-69686000D01*
X136906000Y-65786000D02*
X137811000Y-65786000D01*
%TO.N,PB2*%
X124788000Y-66601000D02*
X124788000Y-67998500D01*
X124460000Y-62357000D02*
X124587000Y-62357000D01*
X125603000Y-65786000D02*
X124788000Y-66601000D01*
X125603000Y-63373000D02*
X125603000Y-65786000D01*
X124587000Y-62357000D02*
X125603000Y-63373000D01*
D50*
%TO.N,POWER*%
X103138000Y-70245000D02*
X102122000Y-70245000D01*
X101600000Y-69723000D02*
X101600000Y-69342000D01*
X103378000Y-70245000D02*
X103364000Y-70245000D01*
X103251000Y-70358000D02*
X103138000Y-70245000D01*
D52*
X106934000Y-79147500D02*
X106807000Y-79274500D01*
D50*
X103364000Y-70245000D02*
X103251000Y-70358000D01*
D52*
X106934000Y-75565000D02*
X106934000Y-79147500D01*
D50*
X109628000Y-59690000D02*
X109601000Y-59690000D01*
D52*
X109628000Y-62711000D02*
X109628000Y-59690000D01*
D50*
X102122000Y-70245000D02*
X101600000Y-69723000D01*
X100838000Y-68580000D02*
X100838000Y-68326000D01*
X109601000Y-59690000D02*
X109474000Y-59817000D01*
D52*
X107315000Y-66675000D02*
X107315000Y-65024000D01*
X107315000Y-65024000D02*
X109628000Y-62711000D01*
D50*
X107188000Y-66802000D02*
X107315000Y-66675000D01*
X101600000Y-69342000D02*
X100838000Y-68580000D01*
D52*
X106299000Y-74930000D02*
X106934000Y-75565000D01*
D48*
%TO.N,3.3V*%
X128004000Y-85643000D02*
X127889000Y-87249000D01*
D49*
X123444000Y-65812500D02*
X122788000Y-66468500D01*
X132098000Y-74186000D02*
X133096000Y-75184000D01*
X129413000Y-83529000D02*
X129413000Y-84201000D01*
D50*
X104886000Y-74676000D02*
X105648000Y-73914000D01*
D49*
X122788000Y-66468500D02*
X122788000Y-67998500D01*
X126873000Y-84512000D02*
X126873000Y-84074000D01*
D48*
X133985000Y-87884000D02*
X133985000Y-82677000D01*
D50*
X109220000Y-72390000D02*
X109093000Y-72517000D01*
X104267000Y-76200000D02*
X104013000Y-76200000D01*
X107696000Y-73914000D02*
X108585000Y-73025000D01*
X102870000Y-80137000D02*
X103505000Y-80772000D01*
X104886000Y-74676000D02*
X104886000Y-75581000D01*
D49*
X120505000Y-74186000D02*
X122100500Y-74186000D01*
D48*
X118972500Y-75718500D02*
X118999000Y-75692000D01*
X132588000Y-89281000D02*
X133985000Y-87884000D01*
D50*
X123417500Y-64061000D02*
X123444000Y-64087500D01*
D49*
X129413000Y-84201000D02*
X128004000Y-85610000D01*
D50*
X103505000Y-80772000D02*
X103505000Y-81407000D01*
X123417500Y-65786000D02*
X123444000Y-65812500D01*
D49*
X128004000Y-85643000D02*
X126873000Y-84512000D01*
X118999000Y-75692000D02*
X120505000Y-74186000D01*
X133985000Y-82677000D02*
X133833000Y-82829000D01*
D48*
X127889000Y-87249000D02*
X128004000Y-87294000D01*
X127889000Y-87249000D02*
X127889000Y-88011000D01*
X129159000Y-89281000D02*
X132588000Y-89281000D01*
X117247500Y-77343000D02*
X117247500Y-75718500D01*
D49*
X114935000Y-62432000D02*
X114935000Y-65913000D01*
D50*
X109093000Y-72517000D02*
X107442000Y-72517000D01*
X119126000Y-60452000D02*
X116078000Y-60452000D01*
D48*
X103378000Y-67945000D02*
X109678000Y-67945000D01*
D50*
X121793000Y-63119000D02*
X119126000Y-60452000D01*
D49*
X115219000Y-62148000D02*
X114935000Y-62432000D01*
D50*
X121793000Y-65786000D02*
X123417500Y-65786000D01*
X121793000Y-64061000D02*
X121793000Y-63119000D01*
X105648000Y-73914000D02*
X107696000Y-73914000D01*
D49*
X133833000Y-82829000D02*
X132113000Y-82829000D01*
D50*
X108585000Y-73025000D02*
X109678000Y-71932000D01*
X116078000Y-60452000D02*
X115219000Y-61311000D01*
X121793000Y-64061000D02*
X123417500Y-64061000D01*
D49*
X133096000Y-75184000D02*
X133096000Y-75819000D01*
D50*
X115219000Y-61311000D02*
X115219000Y-62148000D01*
X109678000Y-71932000D02*
X109678000Y-67945000D01*
D48*
X127889000Y-88011000D02*
X129159000Y-89281000D01*
D50*
X104886000Y-75581000D02*
X104267000Y-76200000D01*
D49*
X128975500Y-74186000D02*
X132098000Y-74186000D01*
X128004000Y-85610000D02*
X128004000Y-85643000D01*
D50*
X102870000Y-77343000D02*
X102870000Y-80137000D01*
D48*
X118972500Y-77343000D02*
X118972500Y-75718500D01*
X117247500Y-75718500D02*
X117274000Y-75692000D01*
D50*
X104013000Y-76200000D02*
X102870000Y-77343000D01*
D48*
%TO.N,5V*%
X128524000Y-58674000D02*
X129921000Y-57277000D01*
X139065000Y-95631000D02*
X140843000Y-93853000D01*
X129072000Y-94528000D02*
X130175000Y-95631000D01*
X140843000Y-93853000D02*
X140843000Y-93726000D01*
X146939000Y-63500000D02*
X146939000Y-63119000D01*
X116967000Y-93472000D02*
X117804000Y-92635000D01*
X102823000Y-93599000D02*
X102823000Y-92376000D01*
X138938000Y-60706000D02*
X140335000Y-59309000D01*
X117804000Y-92635000D02*
X117804000Y-91415000D01*
X104013000Y-91186000D02*
X112522000Y-91186000D01*
X129921000Y-57277000D02*
X132334000Y-57277000D01*
X147066000Y-72771000D02*
X147320000Y-72517000D01*
X112522000Y-91186000D02*
X114808000Y-93472000D01*
X132334000Y-57277000D02*
X135763000Y-60706000D01*
X140843000Y-93726000D02*
X143256000Y-91313000D01*
X117804000Y-90349000D02*
X117804000Y-91415000D01*
X135763000Y-60706000D02*
X138938000Y-60706000D01*
X130175000Y-95631000D02*
X139065000Y-95631000D01*
X102823000Y-92376000D02*
X104013000Y-91186000D01*
X129072000Y-93853000D02*
X129072000Y-94528000D01*
X128524000Y-58793500D02*
X128524000Y-58674000D01*
X118872000Y-89281000D02*
X117804000Y-90349000D01*
X114808000Y-93472000D02*
X116967000Y-93472000D01*
X140335000Y-59309000D02*
X140335000Y-58666500D01*
X147320000Y-63881000D02*
X146939000Y-63500000D01*
X147320000Y-72517000D02*
X147320000Y-63881000D01*
D50*
%TO.N,Net-(D3-A)*%
X104521000Y-79486000D02*
X104521000Y-80885000D01*
X104521000Y-80885000D02*
X105043000Y-81407000D01*
D48*
%TO.N,USB_POWER*%
X100203000Y-75565000D02*
X100838000Y-76200000D01*
X100838000Y-76200000D02*
X100838000Y-79121000D01*
X99242000Y-80717000D02*
X97472000Y-80717000D01*
X100838000Y-79121000D02*
X99242000Y-80717000D01*
D52*
%TO.N,12V_DC*%
X100330000Y-69850000D02*
X96139000Y-69850000D01*
D50*
X100457000Y-69723000D02*
X100330000Y-69850000D01*
D49*
%TO.N,PWM_E1*%
X132842000Y-67818000D02*
X133731000Y-66929000D01*
X133731000Y-66929000D02*
X134366000Y-66929000D01*
X128975500Y-69186000D02*
X131474000Y-69186000D01*
X131474000Y-69186000D02*
X132842000Y-67818000D01*
%TO.N,PWM_E2*%
X130577000Y-68686000D02*
X131445000Y-67818000D01*
X128975500Y-68686000D02*
X130577000Y-68686000D01*
%TO.N,PWM_E3*%
X128651000Y-66802000D02*
X128288000Y-67165000D01*
X128288000Y-67165000D02*
X128288000Y-67998500D01*
D50*
%TO.N,Net-(R5-Pad1)*%
X121310000Y-85700000D02*
X122301000Y-84709000D01*
X122301000Y-84709000D02*
X122301000Y-83058000D01*
X120675000Y-79400000D02*
X122682000Y-81407000D01*
X122301000Y-83058000D02*
X122682000Y-82677000D01*
X122682000Y-81407000D02*
X122682000Y-82677000D01*
X119766000Y-79400000D02*
X120675000Y-79400000D01*
X119766000Y-85700000D02*
X121310000Y-85700000D01*
D49*
%TO.N,Net-(U4-BOOT0)*%
X126288000Y-77293000D02*
X125349000Y-78232000D01*
X125349000Y-78232000D02*
X123825000Y-78232000D01*
D50*
X123566000Y-84714000D02*
X124714000Y-83566000D01*
D49*
X123566000Y-78491000D02*
X123566000Y-79400000D01*
D50*
X123566000Y-85700000D02*
X123566000Y-84714000D01*
X124714000Y-81534000D02*
X123566000Y-80386000D01*
X124714000Y-83566000D02*
X124714000Y-81534000D01*
X123566000Y-80386000D02*
X123566000Y-79400000D01*
D49*
X126288000Y-74873500D02*
X126288000Y-77293000D01*
X123825000Y-78232000D02*
X123566000Y-78491000D01*
%TO.N,SCL_I2C2*%
X124288000Y-66339000D02*
X124841000Y-65786000D01*
X124841000Y-63627000D02*
X124587000Y-63373000D01*
X124288000Y-67998500D02*
X124288000Y-66339000D01*
X124587000Y-63373000D02*
X124460000Y-63246000D01*
X124841000Y-65786000D02*
X124841000Y-63627000D01*
%TO.N,SDA_I2C2*%
X123788000Y-75348000D02*
X123788000Y-74873500D01*
X122682000Y-76454000D02*
X123788000Y-75348000D01*
%TO.N,I2C_N*%
X128651000Y-77470000D02*
X127570801Y-77470000D01*
X126788000Y-75529751D02*
X126788000Y-74873500D01*
X126813000Y-75554751D02*
X126788000Y-75529751D01*
X126813000Y-76712199D02*
X126813000Y-75554751D01*
X126788000Y-74845000D02*
X126746000Y-74803000D01*
X126788000Y-74873500D02*
X126788000Y-74845000D01*
X129413000Y-78232000D02*
X128651000Y-77470000D01*
X127570801Y-77470000D02*
X126813000Y-76712199D01*
X129413000Y-79629000D02*
X129413000Y-78232000D01*
%TO.N,I2C_P*%
X128913000Y-78875000D02*
X128913000Y-79629000D01*
X127704249Y-75946000D02*
X127288000Y-75529751D01*
X128524000Y-78486000D02*
X128913000Y-78875000D01*
X127288000Y-75529751D02*
X127288000Y-74873500D01*
X127762000Y-75946000D02*
X127704249Y-75946000D01*
X128397000Y-78486000D02*
X128524000Y-78486000D01*
%TO.N,CKL_P*%
X128975500Y-72186000D02*
X132384000Y-72186000D01*
X133280000Y-73082000D02*
X136468000Y-73082000D01*
D48*
X136271000Y-74168000D02*
X136281500Y-74168000D01*
X136281500Y-74168000D02*
X137551500Y-75438000D01*
X136468000Y-73082000D02*
X136271000Y-73279000D01*
X136271000Y-73279000D02*
X136271000Y-74168000D01*
D49*
X132384000Y-72186000D02*
X133280000Y-73082000D01*
%TO.N,CLK_N*%
X133407000Y-70682000D02*
X136468000Y-70682000D01*
D48*
X136468000Y-69536500D02*
X137551500Y-68453000D01*
D49*
X128975500Y-71686000D02*
X132403000Y-71686000D01*
D48*
X136468000Y-70682000D02*
X136468000Y-69536500D01*
D49*
X132403000Y-71686000D02*
X133407000Y-70682000D01*
%TO.N,UART_N*%
X115304000Y-90139999D02*
X115304000Y-91415000D01*
X123092000Y-77695000D02*
X125124000Y-77695000D01*
X117602000Y-81534000D02*
X117602000Y-82550000D01*
X125124000Y-77695000D02*
X125763000Y-77056000D01*
X115704000Y-89739999D02*
X115304000Y-90139999D01*
X115704000Y-84448000D02*
X115704000Y-89739999D01*
X125763000Y-75554751D02*
X125788000Y-75529751D01*
X122682000Y-78105000D02*
X123092000Y-77695000D01*
X125763000Y-77056000D02*
X125763000Y-75554751D01*
X125788000Y-75529751D02*
X125788000Y-74873500D01*
X117602000Y-82550000D02*
X115704000Y-84448000D01*
X122428000Y-78105000D02*
X122682000Y-78105000D01*
%TO.N,UART_P*%
X125288000Y-75529751D02*
X125288000Y-74873500D01*
X121412000Y-77724000D02*
X121506900Y-77818900D01*
X125313000Y-75554751D02*
X125288000Y-75529751D01*
X121666000Y-77724000D02*
X122145000Y-77245000D01*
X116554000Y-90139999D02*
X116554000Y-91415000D01*
X125313000Y-76744000D02*
X125313000Y-75554751D01*
X122145000Y-77245000D02*
X124812000Y-77245000D01*
X124812000Y-77245000D02*
X125313000Y-76744000D01*
X116154000Y-85014000D02*
X116154000Y-89739999D01*
X118491000Y-80391000D02*
X118491000Y-82677000D01*
X118491000Y-82677000D02*
X116154000Y-85014000D01*
X116154000Y-89739999D02*
X116554000Y-90139999D01*
X121412000Y-77724000D02*
X121666000Y-77724000D01*
%TD*%
%TA.AperFunction,Conductor*%
%TO.N,3.3V*%
G36*
X112728241Y-56789185D02*
G01*
X112773996Y-56841989D01*
X112783940Y-56911147D01*
X112754915Y-56974703D01*
X112726299Y-56999038D01*
X112645351Y-57048967D01*
X112645347Y-57048970D01*
X112519971Y-57174346D01*
X112426886Y-57325259D01*
X112426884Y-57325264D01*
X112371113Y-57493572D01*
X112360500Y-57597447D01*
X112360500Y-57946595D01*
X112340815Y-58013634D01*
X112288011Y-58059389D01*
X112218853Y-58069333D01*
X112187765Y-58060617D01*
X112058870Y-58005525D01*
X112018470Y-57988257D01*
X112018468Y-57988256D01*
X112018467Y-57988256D01*
X112018464Y-57988255D01*
X111797620Y-57937850D01*
X111797616Y-57937849D01*
X111797615Y-57937849D01*
X111797614Y-57937848D01*
X111797609Y-57937848D01*
X111571312Y-57927685D01*
X111571311Y-57927685D01*
X111571309Y-57927685D01*
X111402946Y-57950491D01*
X111346824Y-57958094D01*
X111346819Y-57958095D01*
X111131377Y-58028097D01*
X110931892Y-58135445D01*
X110754781Y-58276686D01*
X110721355Y-58314945D01*
X110662423Y-58352479D01*
X110592554Y-58352193D01*
X110542283Y-58322986D01*
X110415835Y-58202089D01*
X110415834Y-58202088D01*
X110346569Y-58156367D01*
X110226772Y-58077289D01*
X110018477Y-57988259D01*
X110018464Y-57988255D01*
X109797620Y-57937850D01*
X109797616Y-57937849D01*
X109797615Y-57937849D01*
X109797614Y-57937848D01*
X109797609Y-57937848D01*
X109571312Y-57927685D01*
X109571311Y-57927685D01*
X109571309Y-57927685D01*
X109402946Y-57950491D01*
X109346824Y-57958094D01*
X109346819Y-57958095D01*
X109131377Y-58028097D01*
X108931874Y-58135455D01*
X108931235Y-58135877D01*
X108930898Y-58135980D01*
X108926991Y-58138083D01*
X108926573Y-58137306D01*
X108864438Y-58156367D01*
X108797166Y-58137490D01*
X108763679Y-58106686D01*
X108741262Y-58076740D01*
X108731367Y-58069333D01*
X108624204Y-57989111D01*
X108599533Y-57979909D01*
X108487203Y-57938011D01*
X108426654Y-57931500D01*
X108426638Y-57931500D01*
X106829362Y-57931500D01*
X106829359Y-57931500D01*
X106772712Y-57937590D01*
X106703953Y-57925184D01*
X106671777Y-57901981D01*
X106668901Y-57899105D01*
X106668899Y-57899103D01*
X106668898Y-57899102D01*
X106476376Y-57734672D01*
X106476374Y-57734670D01*
X106476372Y-57734669D01*
X106476370Y-57734668D01*
X106260502Y-57602383D01*
X106026593Y-57505495D01*
X105780406Y-57446391D01*
X105528000Y-57426526D01*
X105275593Y-57446391D01*
X105029406Y-57505495D01*
X104795497Y-57602383D01*
X104579629Y-57734668D01*
X104579627Y-57734669D01*
X104387102Y-57899102D01*
X104222669Y-58091627D01*
X104222668Y-58091629D01*
X104090383Y-58307497D01*
X103993495Y-58541406D01*
X103972105Y-58630504D01*
X103934391Y-58787597D01*
X103919500Y-58976801D01*
X103919500Y-60403199D01*
X103934391Y-60592403D01*
X103934392Y-60592406D01*
X103993495Y-60838593D01*
X104090383Y-61072502D01*
X104222668Y-61288370D01*
X104222669Y-61288372D01*
X104222670Y-61288374D01*
X104222672Y-61288376D01*
X104387102Y-61480898D01*
X104579624Y-61645328D01*
X104579626Y-61645329D01*
X104579627Y-61645330D01*
X104579629Y-61645331D01*
X104795497Y-61777616D01*
X105029406Y-61874504D01*
X105029407Y-61874504D01*
X105029409Y-61874505D01*
X105275597Y-61933609D01*
X105528000Y-61953474D01*
X105780403Y-61933609D01*
X106026591Y-61874505D01*
X106260502Y-61777616D01*
X106476376Y-61645328D01*
X106668898Y-61480898D01*
X106668903Y-61480891D01*
X106671778Y-61478018D01*
X106733101Y-61444533D01*
X106772715Y-61442410D01*
X106829345Y-61448499D01*
X106829362Y-61448500D01*
X108426638Y-61448500D01*
X108426654Y-61448499D01*
X108453692Y-61445591D01*
X108487201Y-61441989D01*
X108624204Y-61390889D01*
X108624204Y-61390888D01*
X108624206Y-61390888D01*
X108631992Y-61386637D01*
X108633118Y-61388699D01*
X108686634Y-61368729D01*
X108754910Y-61383570D01*
X108804323Y-61432968D01*
X108819500Y-61492412D01*
X108819500Y-62324746D01*
X108799815Y-62391785D01*
X108783181Y-62412427D01*
X106678891Y-64516716D01*
X106678888Y-64516720D01*
X106656436Y-64552451D01*
X106652411Y-64558123D01*
X106626092Y-64591128D01*
X106607775Y-64629159D01*
X106604412Y-64635245D01*
X106581959Y-64670981D01*
X106581953Y-64670993D01*
X106568019Y-64710816D01*
X106565357Y-64717242D01*
X106547041Y-64755278D01*
X106537645Y-64796438D01*
X106535720Y-64803119D01*
X106521783Y-64842952D01*
X106521781Y-64842958D01*
X106517057Y-64884894D01*
X106515891Y-64891753D01*
X106506501Y-64932895D01*
X106506500Y-64932904D01*
X106506500Y-66153552D01*
X106486815Y-66220591D01*
X106474650Y-66236524D01*
X106448959Y-66265056D01*
X106353473Y-66430443D01*
X106353470Y-66430450D01*
X106294459Y-66612068D01*
X106294458Y-66612072D01*
X106274496Y-66802000D01*
X106294458Y-66991928D01*
X106294459Y-66991931D01*
X106353470Y-67173549D01*
X106353473Y-67173556D01*
X106448960Y-67338944D01*
X106576747Y-67480866D01*
X106731248Y-67593118D01*
X106905712Y-67670794D01*
X107092513Y-67710500D01*
X107283487Y-67710500D01*
X107470288Y-67670794D01*
X107644752Y-67593118D01*
X107799253Y-67480866D01*
X107927040Y-67338944D01*
X107946613Y-67305041D01*
X107997179Y-67256827D01*
X108065785Y-67243603D01*
X108130651Y-67269570D01*
X108171180Y-67326484D01*
X108178000Y-67367042D01*
X108178000Y-67695000D01*
X109428000Y-67695000D01*
X109428000Y-65545000D01*
X109928000Y-65545000D01*
X109928000Y-67695000D01*
X111178000Y-67695000D01*
X111178000Y-65997172D01*
X111177999Y-65997155D01*
X111171598Y-65937627D01*
X111171596Y-65937620D01*
X111121354Y-65802913D01*
X111121350Y-65802906D01*
X111035190Y-65687812D01*
X111035187Y-65687809D01*
X110920093Y-65601649D01*
X110920086Y-65601645D01*
X110785379Y-65551403D01*
X110785372Y-65551401D01*
X110725844Y-65545000D01*
X109928000Y-65545000D01*
X109428000Y-65545000D01*
X108630155Y-65545000D01*
X108570627Y-65551401D01*
X108570620Y-65551403D01*
X108435913Y-65601645D01*
X108435906Y-65601649D01*
X108321811Y-65687062D01*
X108256347Y-65711480D01*
X108188074Y-65696629D01*
X108138668Y-65647224D01*
X108123500Y-65587796D01*
X108123500Y-65410254D01*
X108143185Y-65343215D01*
X108159819Y-65322573D01*
X109188541Y-64293851D01*
X110231803Y-63250589D01*
X110264111Y-63218281D01*
X110286570Y-63182535D01*
X110290579Y-63176885D01*
X110316909Y-63143870D01*
X110335226Y-63105830D01*
X110338587Y-63099752D01*
X110361043Y-63064015D01*
X110374983Y-63024173D01*
X110377639Y-63017758D01*
X110395959Y-62979720D01*
X110405357Y-62938542D01*
X110407269Y-62931906D01*
X110421217Y-62892047D01*
X110425942Y-62850106D01*
X110427108Y-62843244D01*
X110430609Y-62827903D01*
X110436500Y-62802097D01*
X110436500Y-62619903D01*
X110436500Y-62398000D01*
X114419000Y-62398000D01*
X114419000Y-62913644D01*
X114421899Y-62950489D01*
X114421900Y-62950495D01*
X114467716Y-63108193D01*
X114467717Y-63108196D01*
X114551314Y-63249552D01*
X114551321Y-63249561D01*
X114667438Y-63365678D01*
X114667447Y-63365685D01*
X114808801Y-63449281D01*
X114966514Y-63495100D01*
X114966511Y-63495100D01*
X114968998Y-63495295D01*
X114969000Y-63495295D01*
X114969000Y-62398000D01*
X114419000Y-62398000D01*
X110436500Y-62398000D01*
X110436500Y-61214639D01*
X110456185Y-61147600D01*
X110483187Y-61117692D01*
X110501218Y-61103314D01*
X110534643Y-61065055D01*
X110593573Y-61027521D01*
X110663442Y-61027805D01*
X110713715Y-61057012D01*
X110840166Y-61177912D01*
X110941128Y-61244556D01*
X111029227Y-61302710D01*
X111237522Y-61391740D01*
X111237525Y-61391741D01*
X111237530Y-61391743D01*
X111458385Y-61442151D01*
X111684691Y-61452315D01*
X111909175Y-61421906D01*
X112124621Y-61351903D01*
X112277911Y-61269414D01*
X112346270Y-61254981D01*
X112411584Y-61279798D01*
X112430955Y-61298074D01*
X112587102Y-61480898D01*
X112779624Y-61645328D01*
X112779626Y-61645329D01*
X112779627Y-61645330D01*
X112779629Y-61645331D01*
X112995497Y-61777616D01*
X113229406Y-61874504D01*
X113229407Y-61874504D01*
X113229409Y-61874505D01*
X113475597Y-61933609D01*
X113728000Y-61953474D01*
X113980403Y-61933609D01*
X114226591Y-61874505D01*
X114269485Y-61856737D01*
X114338950Y-61849268D01*
X114401430Y-61880541D01*
X114404617Y-61883617D01*
X114419000Y-61898000D01*
X115345000Y-61898000D01*
X115412039Y-61917685D01*
X115457794Y-61970489D01*
X115469000Y-62022000D01*
X115469000Y-63495295D01*
X115469001Y-63495295D01*
X115471486Y-63495100D01*
X115629198Y-63449281D01*
X115673379Y-63423153D01*
X115741102Y-63405970D01*
X115807365Y-63428130D01*
X115851129Y-63482596D01*
X115860500Y-63529885D01*
X115860500Y-65345589D01*
X115840815Y-65412628D01*
X115824181Y-65433270D01*
X114846270Y-66411181D01*
X114784947Y-66444666D01*
X114758589Y-66447500D01*
X114485309Y-66447500D01*
X114418270Y-66427815D01*
X114393161Y-66406473D01*
X114276253Y-66276634D01*
X114121752Y-66164382D01*
X113947288Y-66086706D01*
X113947286Y-66086705D01*
X113760487Y-66047000D01*
X113569513Y-66047000D01*
X113382714Y-66086705D01*
X113382712Y-66086706D01*
X113208882Y-66164100D01*
X113208246Y-66164383D01*
X113053745Y-66276635D01*
X112925959Y-66418557D01*
X112830473Y-66583943D01*
X112830470Y-66583950D01*
X112771459Y-66765568D01*
X112771458Y-66765572D01*
X112751496Y-66955500D01*
X112771458Y-67145428D01*
X112771459Y-67145431D01*
X112830470Y-67327049D01*
X112830473Y-67327056D01*
X112925960Y-67492444D01*
X113053747Y-67634366D01*
X113208248Y-67746618D01*
X113382712Y-67824294D01*
X113569513Y-67864000D01*
X113760487Y-67864000D01*
X113947288Y-67824294D01*
X114121752Y-67746618D01*
X114158226Y-67720118D01*
X114202183Y-67688182D01*
X114267989Y-67664702D01*
X114275068Y-67664500D01*
X115018054Y-67664500D01*
X115026151Y-67665030D01*
X115051527Y-67668371D01*
X115061999Y-67669750D01*
X115062000Y-67669750D01*
X115062001Y-67669750D01*
X115097846Y-67665031D01*
X115099961Y-67664752D01*
X115099974Y-67664751D01*
X115101881Y-67664500D01*
X115101885Y-67664500D01*
X115183002Y-67653820D01*
X115201457Y-67651391D01*
X115220851Y-67648838D01*
X115255794Y-67634364D01*
X115368876Y-67587524D01*
X115464072Y-67514477D01*
X115464073Y-67514475D01*
X115472164Y-67508267D01*
X115472166Y-67508264D01*
X115495987Y-67489987D01*
X115518010Y-67461286D01*
X115523340Y-67455208D01*
X116868202Y-66110345D01*
X116874293Y-66105003D01*
X116902987Y-66082987D01*
X116921264Y-66059166D01*
X116921268Y-66059163D01*
X116928722Y-66049450D01*
X116961911Y-66006197D01*
X116992370Y-65966502D01*
X117000522Y-65955877D01*
X117000524Y-65955875D01*
X117052200Y-65831117D01*
X117096040Y-65776714D01*
X117162335Y-65754649D01*
X117230034Y-65771928D01*
X117265136Y-65803083D01*
X117268794Y-65807850D01*
X117285013Y-65828987D01*
X117313698Y-65850998D01*
X117319794Y-65856343D01*
X117697865Y-66234414D01*
X118069458Y-66606007D01*
X118102943Y-66667330D01*
X118105097Y-66680722D01*
X118124458Y-66864928D01*
X118124459Y-66864931D01*
X118183470Y-67046549D01*
X118183473Y-67046556D01*
X118278960Y-67211944D01*
X118406747Y-67353866D01*
X118561248Y-67466118D01*
X118735712Y-67543794D01*
X118922513Y-67583500D01*
X119113487Y-67583500D01*
X119300288Y-67543794D01*
X119474752Y-67466118D01*
X119629253Y-67353866D01*
X119757040Y-67211944D01*
X119852527Y-67046556D01*
X119911542Y-66864928D01*
X119926995Y-66717891D01*
X119953579Y-66653279D01*
X119999880Y-66617576D01*
X120059810Y-66590893D01*
X120090748Y-66577120D01*
X120090748Y-66577119D01*
X120090752Y-66577118D01*
X120245253Y-66464866D01*
X120373040Y-66322944D01*
X120468527Y-66157556D01*
X120527542Y-65975928D01*
X120547504Y-65786000D01*
X120527542Y-65596072D01*
X120508023Y-65536000D01*
X120818000Y-65536000D01*
X121543000Y-65536000D01*
X121543000Y-64311000D01*
X122043000Y-64311000D01*
X122043000Y-65536000D01*
X122730138Y-65536000D01*
X122797177Y-65555685D01*
X122805634Y-65562500D01*
X123194000Y-65562500D01*
X123194000Y-64337500D01*
X122506862Y-64337500D01*
X122439823Y-64317815D01*
X122431366Y-64311000D01*
X122043000Y-64311000D01*
X121543000Y-64311000D01*
X120818001Y-64311000D01*
X120818001Y-64410154D01*
X120828319Y-64511152D01*
X120882546Y-64674800D01*
X120882551Y-64674811D01*
X120973052Y-64821534D01*
X120973055Y-64821538D01*
X120987336Y-64835819D01*
X121020821Y-64897142D01*
X121015837Y-64966834D01*
X120987336Y-65011181D01*
X120973055Y-65025461D01*
X120973052Y-65025465D01*
X120882551Y-65172188D01*
X120882546Y-65172199D01*
X120828319Y-65335847D01*
X120818000Y-65436845D01*
X120818000Y-65536000D01*
X120508023Y-65536000D01*
X120468527Y-65414444D01*
X120373040Y-65249056D01*
X120290600Y-65157497D01*
X120274350Y-65139449D01*
X120244120Y-65076457D01*
X120242500Y-65056477D01*
X120242500Y-64813951D01*
X120243031Y-64805850D01*
X120245672Y-64785795D01*
X120247751Y-64770000D01*
X120246821Y-64762938D01*
X120226838Y-64611150D01*
X120226836Y-64611145D01*
X120212900Y-64577501D01*
X120165524Y-64463124D01*
X120124879Y-64410154D01*
X120091235Y-64366308D01*
X120091215Y-64366284D01*
X120086311Y-64359894D01*
X120067987Y-64336013D01*
X120067985Y-64336011D01*
X120067984Y-64336010D01*
X120044271Y-64317815D01*
X120039293Y-64313995D01*
X120033203Y-64308654D01*
X119643819Y-63919270D01*
X119610334Y-63857947D01*
X119607500Y-63831589D01*
X119607500Y-63811000D01*
X120818000Y-63811000D01*
X121543000Y-63811000D01*
X121543000Y-63023500D01*
X122043000Y-63023500D01*
X122043000Y-63811000D01*
X122730138Y-63811000D01*
X122797177Y-63830685D01*
X122805634Y-63837500D01*
X123194000Y-63837500D01*
X123194000Y-63050000D01*
X123157361Y-63050000D01*
X123157343Y-63050001D01*
X123056347Y-63060319D01*
X122892699Y-63114546D01*
X122892688Y-63114551D01*
X122745965Y-63205052D01*
X122745960Y-63205056D01*
X122719427Y-63231588D01*
X122658103Y-63265071D01*
X122588412Y-63260084D01*
X122544068Y-63231585D01*
X122491038Y-63178555D01*
X122491034Y-63178552D01*
X122344311Y-63088051D01*
X122344300Y-63088046D01*
X122180652Y-63033819D01*
X122079654Y-63023500D01*
X122043000Y-63023500D01*
X121543000Y-63023500D01*
X121506361Y-63023500D01*
X121506343Y-63023501D01*
X121405347Y-63033819D01*
X121241699Y-63088046D01*
X121241688Y-63088051D01*
X121094965Y-63178552D01*
X121094961Y-63178555D01*
X120973055Y-63300461D01*
X120973052Y-63300465D01*
X120882551Y-63447188D01*
X120882546Y-63447199D01*
X120828319Y-63610847D01*
X120818000Y-63711845D01*
X120818000Y-63811000D01*
X119607500Y-63811000D01*
X119607500Y-63342122D01*
X119627185Y-63275083D01*
X119641601Y-63257194D01*
X119643448Y-63254811D01*
X119643453Y-63254807D01*
X119728145Y-63111601D01*
X119771815Y-62961286D01*
X119774561Y-62951835D01*
X119774562Y-62951829D01*
X119774668Y-62950489D01*
X119776354Y-62929068D01*
X119777500Y-62914505D01*
X119777500Y-61381495D01*
X119774562Y-61344170D01*
X119774561Y-61344164D01*
X119732313Y-61198746D01*
X119728145Y-61184399D01*
X119643453Y-61041193D01*
X119643451Y-61041191D01*
X119643448Y-61041187D01*
X119525812Y-60923551D01*
X119525803Y-60923544D01*
X119382601Y-60838855D01*
X119382596Y-60838853D01*
X119222835Y-60792438D01*
X119222829Y-60792437D01*
X119185505Y-60789500D01*
X119185502Y-60789500D01*
X118752498Y-60789500D01*
X118752495Y-60789500D01*
X118715170Y-60792437D01*
X118715164Y-60792438D01*
X118555403Y-60838853D01*
X118555398Y-60838855D01*
X118407121Y-60926546D01*
X118339397Y-60943729D01*
X118280879Y-60926546D01*
X118132601Y-60838855D01*
X118132596Y-60838853D01*
X117972835Y-60792438D01*
X117972829Y-60792437D01*
X117935505Y-60789500D01*
X117935502Y-60789500D01*
X117502498Y-60789500D01*
X117502495Y-60789500D01*
X117465170Y-60792437D01*
X117465164Y-60792438D01*
X117305403Y-60838853D01*
X117305398Y-60838855D01*
X117157121Y-60926546D01*
X117089397Y-60943729D01*
X117030879Y-60926546D01*
X116882601Y-60838855D01*
X116882596Y-60838853D01*
X116722835Y-60792438D01*
X116722829Y-60792437D01*
X116685505Y-60789500D01*
X116685502Y-60789500D01*
X116252498Y-60789500D01*
X116252495Y-60789500D01*
X116215170Y-60792437D01*
X116215164Y-60792438D01*
X116055403Y-60838853D01*
X116055398Y-60838855D01*
X115905478Y-60927518D01*
X115904772Y-60926324D01*
X115847501Y-60948802D01*
X115778986Y-60935113D01*
X115773433Y-60932018D01*
X115629196Y-60846717D01*
X115629193Y-60846716D01*
X115471495Y-60800900D01*
X115471489Y-60800899D01*
X115434644Y-60798000D01*
X115429543Y-60798000D01*
X115362504Y-60778315D01*
X115316749Y-60725511D01*
X115306805Y-60656353D01*
X115308969Y-60645054D01*
X115315351Y-60618470D01*
X115321609Y-60592403D01*
X115336500Y-60403199D01*
X115336500Y-58976801D01*
X115321609Y-58787597D01*
X115262505Y-58541409D01*
X115219706Y-58438082D01*
X115165616Y-58307497D01*
X115033331Y-58091629D01*
X115033330Y-58091627D01*
X115033329Y-58091626D01*
X115033328Y-58091624D01*
X114868898Y-57899102D01*
X114676376Y-57734672D01*
X114676374Y-57734670D01*
X114676372Y-57734669D01*
X114676370Y-57734668D01*
X114460505Y-57602385D01*
X114460502Y-57602384D01*
X114442739Y-57595026D01*
X114388336Y-57551185D01*
X114369385Y-57499958D01*
X114368303Y-57500190D01*
X114366886Y-57493571D01*
X114352804Y-57451074D01*
X114311115Y-57325262D01*
X114218030Y-57174348D01*
X114092652Y-57048970D01*
X114092648Y-57048967D01*
X114011701Y-56999038D01*
X113964976Y-56947090D01*
X113953755Y-56878128D01*
X113981598Y-56814046D01*
X114039667Y-56775190D01*
X114076798Y-56769500D01*
X120111202Y-56769500D01*
X120178241Y-56789185D01*
X120223996Y-56841989D01*
X120233940Y-56911147D01*
X120204915Y-56974703D01*
X120176299Y-56999038D01*
X120095351Y-57048967D01*
X120095347Y-57048970D01*
X119969971Y-57174346D01*
X119876886Y-57325259D01*
X119876884Y-57325264D01*
X119821113Y-57493572D01*
X119810500Y-57597447D01*
X119810500Y-59998537D01*
X119810501Y-59998553D01*
X119821113Y-60102427D01*
X119876884Y-60270735D01*
X119876886Y-60270740D01*
X119912142Y-60327898D01*
X119969970Y-60421652D01*
X120095348Y-60547030D01*
X120246262Y-60640115D01*
X120414574Y-60695887D01*
X120518455Y-60706500D01*
X121119544Y-60706499D01*
X121223426Y-60695887D01*
X121391738Y-60640115D01*
X121542652Y-60547030D01*
X121668030Y-60421652D01*
X121761115Y-60270738D01*
X121816887Y-60102426D01*
X121827500Y-59998545D01*
X121827499Y-57597456D01*
X121816887Y-57493574D01*
X121761115Y-57325262D01*
X121668030Y-57174348D01*
X121542652Y-57048970D01*
X121542648Y-57048967D01*
X121461701Y-56999038D01*
X121414976Y-56947090D01*
X121403755Y-56878128D01*
X121431598Y-56814046D01*
X121489667Y-56775190D01*
X121526798Y-56769500D01*
X129056457Y-56769500D01*
X129123496Y-56789185D01*
X129169251Y-56841989D01*
X129179195Y-56911147D01*
X129150170Y-56974703D01*
X129144156Y-56981162D01*
X128905637Y-57219681D01*
X128835130Y-57290188D01*
X128773807Y-57323672D01*
X128731700Y-57325502D01*
X128581860Y-57306315D01*
X128350827Y-57316130D01*
X128350821Y-57316130D01*
X128124759Y-57364851D01*
X127910190Y-57451072D01*
X127713270Y-57572320D01*
X127539679Y-57725099D01*
X127539674Y-57725104D01*
X127515757Y-57754724D01*
X127458326Y-57794515D01*
X127388498Y-57796940D01*
X127328444Y-57761228D01*
X127313747Y-57741923D01*
X127223030Y-57594848D01*
X127097652Y-57469470D01*
X126946738Y-57376385D01*
X126896141Y-57359619D01*
X126778427Y-57320613D01*
X126674545Y-57310000D01*
X125373462Y-57310000D01*
X125373446Y-57310001D01*
X125269572Y-57320613D01*
X125101264Y-57376384D01*
X125101259Y-57376386D01*
X124950346Y-57469471D01*
X124824971Y-57594846D01*
X124731886Y-57745759D01*
X124731884Y-57745764D01*
X124676113Y-57914072D01*
X124665500Y-58017947D01*
X124665500Y-59569037D01*
X124665501Y-59569053D01*
X124676113Y-59672927D01*
X124731884Y-59841235D01*
X124731886Y-59841240D01*
X124744626Y-59861894D01*
X124824970Y-59992152D01*
X124950348Y-60117530D01*
X125101262Y-60210615D01*
X125269574Y-60266387D01*
X125373455Y-60277000D01*
X126674544Y-60276999D01*
X126778426Y-60266387D01*
X126946738Y-60210615D01*
X127097652Y-60117530D01*
X127223030Y-59992152D01*
X127314417Y-59843989D01*
X127366363Y-59797268D01*
X127435326Y-59786045D01*
X127499408Y-59813889D01*
X127509468Y-59823280D01*
X127623228Y-59941976D01*
X127809153Y-60079485D01*
X128015643Y-60183595D01*
X128236757Y-60251311D01*
X128466135Y-60280684D01*
X128697178Y-60270869D01*
X128923238Y-60222149D01*
X129137813Y-60135926D01*
X129334730Y-60014679D01*
X129508324Y-59861898D01*
X129653600Y-59681976D01*
X129667030Y-59657934D01*
X129716906Y-59609009D01*
X129785318Y-59594814D01*
X129850545Y-59619859D01*
X129878019Y-59648970D01*
X129963209Y-59775012D01*
X129963212Y-59775016D01*
X129963217Y-59775023D01*
X130123228Y-59941976D01*
X130309153Y-60079485D01*
X130515643Y-60183595D01*
X130736757Y-60251311D01*
X130966135Y-60280684D01*
X131197178Y-60270869D01*
X131321603Y-60244053D01*
X131391284Y-60249172D01*
X131435408Y-60277589D01*
X133751696Y-62593877D01*
X133763477Y-62607509D01*
X133778031Y-62627058D01*
X133818512Y-62661025D01*
X133822486Y-62664667D01*
X133828400Y-62670581D01*
X133854395Y-62691135D01*
X133913860Y-62741032D01*
X133913861Y-62741032D01*
X133913863Y-62741034D01*
X133919896Y-62745002D01*
X133919870Y-62745041D01*
X133926427Y-62749218D01*
X133926453Y-62749178D01*
X133932591Y-62752964D01*
X133932595Y-62752967D01*
X134002952Y-62785775D01*
X134072312Y-62820609D01*
X134072318Y-62820610D01*
X134079106Y-62823082D01*
X134079089Y-62823128D01*
X134086424Y-62825677D01*
X134086440Y-62825632D01*
X134093289Y-62827902D01*
X134093294Y-62827903D01*
X134169350Y-62843607D01*
X134228609Y-62857652D01*
X134244839Y-62861499D01*
X134244840Y-62861499D01*
X134244844Y-62861500D01*
X134244848Y-62861500D01*
X134252017Y-62862338D01*
X134252011Y-62862386D01*
X134259742Y-62863177D01*
X134259747Y-62863130D01*
X134266937Y-62863759D01*
X134266941Y-62863758D01*
X134266942Y-62863759D01*
X134344580Y-62861500D01*
X140016706Y-62861500D01*
X140034676Y-62862809D01*
X140037174Y-62863174D01*
X140058789Y-62866341D01*
X140111426Y-62861735D01*
X140116828Y-62861500D01*
X140125175Y-62861500D01*
X140125180Y-62861500D01*
X140148835Y-62858734D01*
X140158096Y-62857652D01*
X140235419Y-62850888D01*
X140235422Y-62850887D01*
X140235426Y-62850887D01*
X140235429Y-62850885D01*
X140242493Y-62849427D01*
X140242502Y-62849474D01*
X140250097Y-62847790D01*
X140250087Y-62847744D01*
X140257107Y-62846079D01*
X140257113Y-62846079D01*
X140330065Y-62819526D01*
X140403738Y-62795114D01*
X140403746Y-62795108D01*
X140410284Y-62792061D01*
X140410305Y-62792106D01*
X140417302Y-62788719D01*
X140417280Y-62788675D01*
X140423729Y-62785436D01*
X140423728Y-62785436D01*
X140423732Y-62785435D01*
X140488605Y-62742766D01*
X140554651Y-62702030D01*
X140554655Y-62702025D01*
X140560319Y-62697548D01*
X140560350Y-62697587D01*
X140566374Y-62692680D01*
X140566342Y-62692642D01*
X140571864Y-62688007D01*
X140571874Y-62688001D01*
X140597330Y-62661019D01*
X140625163Y-62631518D01*
X140993862Y-62262819D01*
X141055185Y-62229334D01*
X141081543Y-62226500D01*
X145040500Y-62226500D01*
X145107539Y-62246185D01*
X145153294Y-62298989D01*
X145164500Y-62350500D01*
X145164500Y-65293457D01*
X145144815Y-65360496D01*
X145128181Y-65381138D01*
X143768138Y-66741181D01*
X143706815Y-66774666D01*
X143680457Y-66777500D01*
X143000866Y-66777500D01*
X142933827Y-66757815D01*
X142888072Y-66705011D01*
X142878128Y-66635853D01*
X142907153Y-66572297D01*
X142913185Y-66565819D01*
X142923823Y-66555181D01*
X142939658Y-66539346D01*
X143031209Y-66390920D01*
X143086062Y-66225381D01*
X143096500Y-66123213D01*
X143096499Y-65448788D01*
X143086062Y-65346619D01*
X143031209Y-65181080D01*
X143031205Y-65181074D01*
X143031204Y-65181071D01*
X142939660Y-65032657D01*
X142939657Y-65032653D01*
X142816346Y-64909342D01*
X142816342Y-64909339D01*
X142667928Y-64817795D01*
X142667922Y-64817792D01*
X142667920Y-64817791D01*
X142603480Y-64796438D01*
X142502382Y-64762938D01*
X142400214Y-64752500D01*
X141825794Y-64752500D01*
X141825778Y-64752501D01*
X141723617Y-64762938D01*
X141558082Y-64817790D01*
X141558071Y-64817795D01*
X141409657Y-64909339D01*
X141409653Y-64909342D01*
X141327815Y-64991181D01*
X141266492Y-65024666D01*
X141240134Y-65027500D01*
X140931104Y-65027500D01*
X140864065Y-65007815D01*
X140825566Y-64968597D01*
X140760032Y-64862351D01*
X140760029Y-64862347D01*
X140634653Y-64736971D01*
X140634652Y-64736970D01*
X140491700Y-64648796D01*
X140483740Y-64643886D01*
X140483735Y-64643884D01*
X140315427Y-64588113D01*
X140211546Y-64577500D01*
X139410462Y-64577500D01*
X139410446Y-64577501D01*
X139306572Y-64588113D01*
X139138264Y-64643884D01*
X139138259Y-64643886D01*
X138987346Y-64736971D01*
X138898681Y-64825637D01*
X138837358Y-64859122D01*
X138767666Y-64854138D01*
X138723319Y-64825637D01*
X138634653Y-64736971D01*
X138634652Y-64736970D01*
X138491700Y-64648796D01*
X138483740Y-64643886D01*
X138483735Y-64643884D01*
X138315427Y-64588113D01*
X138211546Y-64577500D01*
X137410462Y-64577500D01*
X137410446Y-64577501D01*
X137306572Y-64588113D01*
X137138264Y-64643884D01*
X137138259Y-64643886D01*
X136987346Y-64736971D01*
X136861971Y-64862346D01*
X136768886Y-65013259D01*
X136768884Y-65013264D01*
X136721091Y-65157497D01*
X136681319Y-65214942D01*
X136650839Y-65233053D01*
X136599130Y-65254472D01*
X136599123Y-65254476D01*
X136505465Y-65326343D01*
X136503929Y-65327522D01*
X136503925Y-65327525D01*
X136493080Y-65335847D01*
X136472010Y-65352015D01*
X136449996Y-65380703D01*
X136444645Y-65386805D01*
X135341690Y-66489759D01*
X135280367Y-66523244D01*
X135210675Y-66518260D01*
X135154742Y-66476388D01*
X135146622Y-66464078D01*
X135127203Y-66430443D01*
X135105040Y-66392056D01*
X134977253Y-66250134D01*
X134822752Y-66137882D01*
X134648288Y-66060206D01*
X134648286Y-66060205D01*
X134461487Y-66020500D01*
X134270513Y-66020500D01*
X134083714Y-66060205D01*
X134024194Y-66086705D01*
X133942371Y-66123135D01*
X133909246Y-66137883D01*
X133754747Y-66250134D01*
X133722035Y-66286464D01*
X133662547Y-66323111D01*
X133646071Y-66326429D01*
X133591543Y-66333608D01*
X133572148Y-66336162D01*
X133424126Y-66397474D01*
X133424123Y-66397476D01*
X133330465Y-66469343D01*
X133328929Y-66470522D01*
X133328925Y-66470525D01*
X133321285Y-66476388D01*
X133297010Y-66495015D01*
X133274996Y-66523703D01*
X133269645Y-66529805D01*
X132439927Y-67359524D01*
X132420688Y-67378763D01*
X132359364Y-67412246D01*
X132289672Y-67407260D01*
X132233740Y-67365387D01*
X132225629Y-67353090D01*
X132184040Y-67281056D01*
X132087240Y-67173549D01*
X132056254Y-67139135D01*
X132007783Y-67103918D01*
X131901752Y-67026882D01*
X131727288Y-66949206D01*
X131727286Y-66949205D01*
X131540487Y-66909500D01*
X131349513Y-66909500D01*
X131162714Y-66949205D01*
X130988246Y-67026883D01*
X130833745Y-67139135D01*
X130705959Y-67281057D01*
X130610473Y-67446443D01*
X130610470Y-67446450D01*
X130555380Y-67616001D01*
X130551458Y-67628072D01*
X130537053Y-67765128D01*
X130531496Y-67818002D01*
X130531496Y-67819592D01*
X130531235Y-67820477D01*
X130530817Y-67824463D01*
X130530088Y-67824386D01*
X130511811Y-67886631D01*
X130495181Y-67907268D01*
X130361268Y-68041182D01*
X130299948Y-68074666D01*
X130273589Y-68077500D01*
X129549100Y-68077500D01*
X129507438Y-68069213D01*
X129507415Y-68069301D01*
X129506072Y-68068941D01*
X129501647Y-68068061D01*
X129499561Y-68067197D01*
X129387934Y-68052501D01*
X129387931Y-68052500D01*
X129387925Y-68052500D01*
X129387918Y-68052500D01*
X129045499Y-68052500D01*
X128978460Y-68032815D01*
X128932705Y-67980011D01*
X128921499Y-67928500D01*
X128921499Y-67756569D01*
X128941184Y-67689530D01*
X128993988Y-67643775D01*
X128994957Y-67643337D01*
X129107752Y-67593118D01*
X129262253Y-67480866D01*
X129390040Y-67338944D01*
X129485527Y-67173556D01*
X129544542Y-66991928D01*
X129564504Y-66802000D01*
X129544542Y-66612072D01*
X129485527Y-66430444D01*
X129390040Y-66265056D01*
X129273076Y-66135154D01*
X129262254Y-66123135D01*
X129244662Y-66110353D01*
X129107752Y-66010882D01*
X128933288Y-65933206D01*
X128933286Y-65933205D01*
X128746487Y-65893500D01*
X128555513Y-65893500D01*
X128368714Y-65933205D01*
X128293932Y-65966500D01*
X128225080Y-65997155D01*
X128194246Y-66010883D01*
X128039745Y-66123135D01*
X127911959Y-66265057D01*
X127816473Y-66430443D01*
X127816470Y-66430450D01*
X127757459Y-66612068D01*
X127757458Y-66612072D01*
X127737496Y-66802000D01*
X127737496Y-66802001D01*
X127742750Y-66851997D01*
X127733990Y-66912409D01*
X127702661Y-66988044D01*
X127658820Y-67042447D01*
X127604286Y-67063530D01*
X127576443Y-67067195D01*
X127570090Y-67068898D01*
X127505910Y-67068898D01*
X127499561Y-67067197D01*
X127387925Y-67052500D01*
X127188080Y-67052500D01*
X127161496Y-67056000D01*
X127149889Y-67057527D01*
X127080855Y-67046760D01*
X127028600Y-67000379D01*
X127009716Y-66933110D01*
X127026320Y-66872588D01*
X127030741Y-66864931D01*
X127072527Y-66792556D01*
X127131542Y-66610928D01*
X127151504Y-66421000D01*
X127131542Y-66231072D01*
X127072527Y-66049444D01*
X126977040Y-65884056D01*
X126849253Y-65742134D01*
X126694752Y-65629882D01*
X126520288Y-65552206D01*
X126520286Y-65552205D01*
X126333486Y-65512499D01*
X126327020Y-65511820D01*
X126327204Y-65510064D01*
X126268461Y-65492815D01*
X126222706Y-65440011D01*
X126211500Y-65388500D01*
X126211500Y-63416945D01*
X126212031Y-63408843D01*
X126212410Y-63405970D01*
X126216750Y-63373000D01*
X126211766Y-63335148D01*
X126211765Y-63335129D01*
X126209873Y-63320760D01*
X126195838Y-63214150D01*
X126195837Y-63214148D01*
X126195837Y-63214146D01*
X126169026Y-63149418D01*
X126134526Y-63066128D01*
X126134523Y-63066122D01*
X126068220Y-62979716D01*
X126061477Y-62970928D01*
X126061476Y-62970927D01*
X126059006Y-62967708D01*
X126036986Y-62939012D01*
X126024027Y-62929068D01*
X126008293Y-62916995D01*
X126002203Y-62911654D01*
X125395857Y-62305308D01*
X125362372Y-62243985D01*
X125360217Y-62230587D01*
X125360085Y-62229334D01*
X125353542Y-62167072D01*
X125294527Y-61985444D01*
X125199040Y-61820056D01*
X125071253Y-61678134D01*
X124916752Y-61565882D01*
X124742288Y-61488206D01*
X124742286Y-61488205D01*
X124555487Y-61448500D01*
X124364513Y-61448500D01*
X124177714Y-61488205D01*
X124003246Y-61565883D01*
X123848745Y-61678135D01*
X123720959Y-61820057D01*
X123625473Y-61985443D01*
X123625470Y-61985450D01*
X123566548Y-62166794D01*
X123566458Y-62167072D01*
X123546496Y-62357000D01*
X123566458Y-62546928D01*
X123566459Y-62546931D01*
X123625470Y-62728549D01*
X123625473Y-62728556D01*
X123705023Y-62866341D01*
X123720638Y-62893386D01*
X123737111Y-62961286D01*
X123714258Y-63027313D01*
X123700933Y-63043066D01*
X123694000Y-63049999D01*
X123694000Y-63174662D01*
X123693660Y-63181147D01*
X123674265Y-63365685D01*
X123673496Y-63373000D01*
X123692967Y-63558261D01*
X123693660Y-63564847D01*
X123694000Y-63571332D01*
X123694000Y-65938500D01*
X123674315Y-66005539D01*
X123621511Y-66051294D01*
X123570000Y-66062500D01*
X122506862Y-66062500D01*
X122439823Y-66042815D01*
X122431366Y-66036000D01*
X120818001Y-66036000D01*
X120818001Y-66135154D01*
X120828319Y-66236152D01*
X120882546Y-66399800D01*
X120882551Y-66399811D01*
X120973052Y-66546534D01*
X120973055Y-66546538D01*
X121094964Y-66668447D01*
X121114234Y-66680333D01*
X121160957Y-66732281D01*
X121172178Y-66801244D01*
X121167067Y-66824186D01*
X121160016Y-66845889D01*
X121153458Y-66866072D01*
X121134489Y-67046556D01*
X121133496Y-67056002D01*
X121133496Y-67057592D01*
X121133235Y-67058477D01*
X121132817Y-67062463D01*
X121132088Y-67062386D01*
X121113811Y-67124631D01*
X121097177Y-67145273D01*
X120631801Y-67610649D01*
X120625698Y-67616001D01*
X120597013Y-67638013D01*
X120576281Y-67665031D01*
X120572522Y-67669929D01*
X120499476Y-67765123D01*
X120499473Y-67765128D01*
X120438162Y-67913147D01*
X120436629Y-67924795D01*
X120421957Y-68036241D01*
X120421955Y-68036254D01*
X120417653Y-68068941D01*
X120417250Y-68072000D01*
X120421671Y-68105585D01*
X120421969Y-68107843D01*
X120422500Y-68115945D01*
X120422500Y-68944500D01*
X120402815Y-69011539D01*
X120350011Y-69057294D01*
X120298500Y-69068500D01*
X120173513Y-69068500D01*
X119986714Y-69108205D01*
X119986712Y-69108206D01*
X119863856Y-69162905D01*
X119812246Y-69185883D01*
X119657745Y-69298135D01*
X119529959Y-69440057D01*
X119434473Y-69605443D01*
X119434470Y-69605450D01*
X119383163Y-69763358D01*
X119375458Y-69787072D01*
X119369345Y-69845233D01*
X119360937Y-69925231D01*
X119334352Y-69989846D01*
X119288052Y-70025548D01*
X119177248Y-70074881D01*
X119022745Y-70187135D01*
X118894959Y-70329057D01*
X118799473Y-70494443D01*
X118799470Y-70494450D01*
X118740459Y-70676068D01*
X118740458Y-70676072D01*
X118721489Y-70856556D01*
X118720496Y-70866002D01*
X118722234Y-70882542D01*
X118709663Y-70951271D01*
X118661930Y-71002294D01*
X118598913Y-71019500D01*
X117638755Y-71019500D01*
X117571716Y-70999815D01*
X117525961Y-70947011D01*
X117516017Y-70877853D01*
X117520824Y-70857182D01*
X117539356Y-70800147D01*
X117580042Y-70674928D01*
X117600004Y-70485000D01*
X117580042Y-70295072D01*
X117521027Y-70113444D01*
X117425540Y-69948056D01*
X117297753Y-69806134D01*
X117143252Y-69693882D01*
X116968788Y-69616206D01*
X116968786Y-69616205D01*
X116781987Y-69576500D01*
X116591013Y-69576500D01*
X116404214Y-69616205D01*
X116229749Y-69693880D01*
X116217449Y-69702818D01*
X116151642Y-69726298D01*
X116144563Y-69726500D01*
X115253294Y-69726500D01*
X115235324Y-69725191D01*
X115211206Y-69721658D01*
X115165651Y-69725645D01*
X115158573Y-69726264D01*
X115153172Y-69726500D01*
X115144819Y-69726500D01*
X115111903Y-69730347D01*
X115034574Y-69737112D01*
X115027506Y-69738572D01*
X115027496Y-69738528D01*
X115019906Y-69740210D01*
X115019917Y-69740254D01*
X115012893Y-69741919D01*
X115012887Y-69741920D01*
X115012887Y-69741921D01*
X114988414Y-69750827D01*
X114939933Y-69768473D01*
X114866257Y-69792887D01*
X114859720Y-69795936D01*
X114859700Y-69795894D01*
X114852696Y-69799285D01*
X114852717Y-69799326D01*
X114846269Y-69802564D01*
X114781394Y-69845233D01*
X114715352Y-69885967D01*
X114709683Y-69890450D01*
X114709653Y-69890413D01*
X114703627Y-69895322D01*
X114703657Y-69895357D01*
X114698132Y-69899993D01*
X114698126Y-69899998D01*
X114698126Y-69899999D01*
X114668073Y-69931853D01*
X114644836Y-69956482D01*
X112088136Y-72513181D01*
X112026813Y-72546666D01*
X112000456Y-72549500D01*
X111764795Y-72549500D01*
X111764778Y-72549501D01*
X111662617Y-72559938D01*
X111497082Y-72614790D01*
X111497071Y-72614795D01*
X111348657Y-72706339D01*
X111348653Y-72706342D01*
X111339681Y-72715315D01*
X111278358Y-72748800D01*
X111208666Y-72743816D01*
X111164319Y-72715315D01*
X111155346Y-72706342D01*
X111155342Y-72706339D01*
X111006928Y-72614795D01*
X111006922Y-72614792D01*
X111006920Y-72614791D01*
X110957705Y-72598483D01*
X110841382Y-72559938D01*
X110739214Y-72549500D01*
X110039794Y-72549500D01*
X110039778Y-72549501D01*
X109937617Y-72559938D01*
X109772082Y-72614790D01*
X109772071Y-72614795D01*
X109623657Y-72706339D01*
X109623653Y-72706342D01*
X109500342Y-72829653D01*
X109500339Y-72829657D01*
X109408795Y-72978071D01*
X109408790Y-72978082D01*
X109353938Y-73143617D01*
X109343500Y-73245779D01*
X109343500Y-73820205D01*
X109343501Y-73820221D01*
X109353938Y-73922382D01*
X109408790Y-74087917D01*
X109408795Y-74087928D01*
X109500339Y-74236342D01*
X109500342Y-74236346D01*
X109623653Y-74359657D01*
X109623657Y-74359660D01*
X109772071Y-74451204D01*
X109772074Y-74451205D01*
X109772080Y-74451209D01*
X109937619Y-74506062D01*
X110039787Y-74516500D01*
X110496500Y-74516499D01*
X110563539Y-74536183D01*
X110609294Y-74588987D01*
X110620500Y-74640499D01*
X110620500Y-76977456D01*
X110600815Y-77044495D01*
X110584181Y-77065137D01*
X110015103Y-77634214D01*
X109953780Y-77667699D01*
X109884088Y-77662715D01*
X109876988Y-77659813D01*
X109781289Y-77617206D01*
X109781286Y-77617205D01*
X109594487Y-77577500D01*
X109403513Y-77577500D01*
X109216714Y-77617205D01*
X109042246Y-77694883D01*
X108887745Y-77807135D01*
X108759959Y-77949057D01*
X108664473Y-78114443D01*
X108664470Y-78114450D01*
X108611733Y-78276760D01*
X108605458Y-78296072D01*
X108585496Y-78486000D01*
X108605458Y-78675928D01*
X108605459Y-78675931D01*
X108664470Y-78857549D01*
X108664473Y-78857556D01*
X108686636Y-78895944D01*
X108723887Y-78960463D01*
X108740500Y-79022463D01*
X108740500Y-79238457D01*
X108720815Y-79305496D01*
X108704181Y-79326138D01*
X107556071Y-80474247D01*
X107494748Y-80507732D01*
X107425056Y-80502748D01*
X107403297Y-80492107D01*
X107397927Y-80488795D01*
X107397924Y-80488793D01*
X107397920Y-80488791D01*
X107390360Y-80486286D01*
X107232381Y-80433937D01*
X107132656Y-80423749D01*
X107094825Y-80413671D01*
X107089290Y-80411206D01*
X107089284Y-80411205D01*
X107029700Y-80398540D01*
X106968218Y-80365348D01*
X106934442Y-80304185D01*
X106939094Y-80234470D01*
X106980699Y-80178338D01*
X107029700Y-80155960D01*
X107038389Y-80154112D01*
X107089288Y-80143294D01*
X107263752Y-80065618D01*
X107418253Y-79953366D01*
X107546040Y-79811444D01*
X107641527Y-79646056D01*
X107700542Y-79464428D01*
X107708341Y-79390223D01*
X107709555Y-79382938D01*
X107710618Y-79378278D01*
X107711374Y-79374984D01*
X107713287Y-79368355D01*
X107727217Y-79328547D01*
X107731942Y-79286606D01*
X107733108Y-79279744D01*
X107735902Y-79267500D01*
X107742500Y-79238597D01*
X107742500Y-79056404D01*
X107742500Y-75659853D01*
X107742501Y-75659836D01*
X107742501Y-75473904D01*
X107742500Y-75473901D01*
X107740912Y-75466944D01*
X107733102Y-75432728D01*
X107731943Y-75425903D01*
X107727217Y-75383953D01*
X107713273Y-75344105D01*
X107711355Y-75337450D01*
X107701959Y-75296280D01*
X107683642Y-75258244D01*
X107680983Y-75251824D01*
X107667044Y-75211989D01*
X107667043Y-75211985D01*
X107644574Y-75176227D01*
X107641220Y-75170156D01*
X107622910Y-75132134D01*
X107622909Y-75132131D01*
X107596590Y-75099128D01*
X107592564Y-75093453D01*
X107570112Y-75057721D01*
X107570110Y-75057718D01*
X107184750Y-74672358D01*
X107154500Y-74622994D01*
X107150713Y-74611339D01*
X107133527Y-74558444D01*
X107038040Y-74393056D01*
X106910253Y-74251134D01*
X106755752Y-74138882D01*
X106581288Y-74061206D01*
X106581286Y-74061205D01*
X106394487Y-74021500D01*
X106203513Y-74021500D01*
X106083044Y-74047106D01*
X106013376Y-74041790D01*
X105957643Y-73999653D01*
X105939557Y-73964819D01*
X105920359Y-73906882D01*
X105920356Y-73906875D01*
X105828315Y-73757654D01*
X105703809Y-73633148D01*
X105670324Y-73571825D01*
X105675308Y-73502133D01*
X105717180Y-73446200D01*
X105765707Y-73424177D01*
X105946288Y-73385794D01*
X106120752Y-73308118D01*
X106275253Y-73195866D01*
X106403040Y-73053944D01*
X106498527Y-72888556D01*
X106557542Y-72706928D01*
X106577504Y-72517000D01*
X106557542Y-72327072D01*
X106498527Y-72145444D01*
X106403040Y-71980056D01*
X106275253Y-71838134D01*
X106120752Y-71725882D01*
X105946288Y-71648206D01*
X105946286Y-71648205D01*
X105759487Y-71608500D01*
X105568513Y-71608500D01*
X105381713Y-71648205D01*
X105381710Y-71648206D01*
X105297682Y-71685617D01*
X105228432Y-71694901D01*
X105165156Y-71665272D01*
X105159567Y-71660018D01*
X104861295Y-71361746D01*
X104827810Y-71300423D01*
X104832793Y-71230735D01*
X104879989Y-71104201D01*
X104884976Y-71057815D01*
X104886499Y-71043654D01*
X104886500Y-71043637D01*
X104886500Y-69446362D01*
X104886499Y-69446345D01*
X104881624Y-69401011D01*
X104879989Y-69385799D01*
X104874547Y-69371209D01*
X104852785Y-69312862D01*
X104828889Y-69248796D01*
X104764077Y-69162218D01*
X104739661Y-69096754D01*
X104754513Y-69028481D01*
X104764079Y-69013596D01*
X104821352Y-68937089D01*
X104821354Y-68937086D01*
X104871596Y-68802379D01*
X104871598Y-68802372D01*
X104877999Y-68742844D01*
X104878000Y-68742827D01*
X104878000Y-68195000D01*
X108178000Y-68195000D01*
X108178000Y-69892844D01*
X108184401Y-69952372D01*
X108184403Y-69952379D01*
X108234645Y-70087086D01*
X108234649Y-70087093D01*
X108320809Y-70202187D01*
X108320812Y-70202190D01*
X108435906Y-70288350D01*
X108435913Y-70288354D01*
X108570620Y-70338596D01*
X108570627Y-70338598D01*
X108630155Y-70344999D01*
X108630172Y-70345000D01*
X109428000Y-70345000D01*
X109428000Y-68195000D01*
X109928000Y-68195000D01*
X109928000Y-70345000D01*
X110725828Y-70345000D01*
X110725844Y-70344999D01*
X110785372Y-70338598D01*
X110785379Y-70338596D01*
X110920086Y-70288354D01*
X110920093Y-70288350D01*
X111035187Y-70202190D01*
X111035190Y-70202187D01*
X111121350Y-70087093D01*
X111121354Y-70087086D01*
X111171596Y-69952379D01*
X111171598Y-69952372D01*
X111177999Y-69892844D01*
X111178000Y-69892827D01*
X111178000Y-68195000D01*
X109928000Y-68195000D01*
X109428000Y-68195000D01*
X108178000Y-68195000D01*
X104878000Y-68195000D01*
X101840780Y-68195000D01*
X101773741Y-68175315D01*
X101727986Y-68122511D01*
X101722849Y-68109318D01*
X101672529Y-67954450D01*
X101672528Y-67954449D01*
X101672527Y-67954444D01*
X101577040Y-67789056D01*
X101449253Y-67647134D01*
X101298102Y-67537316D01*
X101255439Y-67481988D01*
X101249460Y-67412375D01*
X101282066Y-67350580D01*
X101298099Y-67336685D01*
X101449253Y-67226866D01*
X101577040Y-67084944D01*
X101672527Y-66919556D01*
X101672528Y-66919552D01*
X101673111Y-66918543D01*
X101692813Y-66892866D01*
X101711156Y-66874523D01*
X101772477Y-66841040D01*
X101842169Y-66846024D01*
X101898102Y-66887896D01*
X101922519Y-66953360D01*
X101915017Y-67005538D01*
X101884403Y-67087617D01*
X101884401Y-67087627D01*
X101878000Y-67147155D01*
X101878000Y-67695000D01*
X104878000Y-67695000D01*
X104878000Y-67147172D01*
X104877999Y-67147155D01*
X104871598Y-67087627D01*
X104871596Y-67087620D01*
X104821354Y-66952913D01*
X104821350Y-66952906D01*
X104764079Y-66876402D01*
X104739661Y-66810938D01*
X104754512Y-66742665D01*
X104764072Y-66727788D01*
X104828889Y-66641204D01*
X104879989Y-66504201D01*
X104884303Y-66464078D01*
X104886499Y-66443654D01*
X104886500Y-66443637D01*
X104886500Y-64846362D01*
X104886499Y-64846345D01*
X104882578Y-64809885D01*
X104879989Y-64785799D01*
X104874096Y-64770000D01*
X104853251Y-64714112D01*
X104828889Y-64648796D01*
X104741261Y-64531739D01*
X104624204Y-64444111D01*
X104618212Y-64441876D01*
X104487203Y-64393011D01*
X104426654Y-64386500D01*
X104426638Y-64386500D01*
X102329362Y-64386500D01*
X102329345Y-64386500D01*
X102268797Y-64393011D01*
X102268795Y-64393011D01*
X102131795Y-64444111D01*
X102014739Y-64531739D01*
X101927111Y-64648795D01*
X101876011Y-64785795D01*
X101874229Y-64793341D01*
X101872069Y-64792830D01*
X101849629Y-64846995D01*
X101792233Y-64886839D01*
X101763892Y-64892710D01*
X101713574Y-64897112D01*
X101706506Y-64898572D01*
X101706496Y-64898528D01*
X101698906Y-64900210D01*
X101698917Y-64900254D01*
X101691893Y-64901919D01*
X101691887Y-64901920D01*
X101691887Y-64901921D01*
X101667414Y-64910827D01*
X101618933Y-64928473D01*
X101545257Y-64952887D01*
X101538720Y-64955936D01*
X101538700Y-64955894D01*
X101531696Y-64959285D01*
X101531717Y-64959326D01*
X101525269Y-64962564D01*
X101460394Y-65005233D01*
X101394352Y-65045967D01*
X101388683Y-65050450D01*
X101388653Y-65050413D01*
X101382627Y-65055322D01*
X101382657Y-65055357D01*
X101377132Y-65059993D01*
X101377126Y-65059998D01*
X101377126Y-65059999D01*
X101323836Y-65116482D01*
X101079823Y-65360496D01*
X100837138Y-65603181D01*
X100775815Y-65636666D01*
X100749457Y-65639500D01*
X100742513Y-65639500D01*
X100555714Y-65679205D01*
X100381249Y-65756880D01*
X100368949Y-65765818D01*
X100303142Y-65789298D01*
X100296063Y-65789500D01*
X99632294Y-65789500D01*
X99614324Y-65788191D01*
X99590206Y-65784658D01*
X99544651Y-65788645D01*
X99537573Y-65789264D01*
X99532172Y-65789500D01*
X99523820Y-65789500D01*
X99507362Y-65791423D01*
X99490904Y-65793347D01*
X99413577Y-65800112D01*
X99406503Y-65801573D01*
X99406493Y-65801526D01*
X99398905Y-65803209D01*
X99398916Y-65803255D01*
X99391890Y-65804920D01*
X99391887Y-65804920D01*
X99391887Y-65804921D01*
X99325764Y-65828987D01*
X99318944Y-65831469D01*
X99245261Y-65855885D01*
X99238713Y-65858939D01*
X99238693Y-65858896D01*
X99231702Y-65862280D01*
X99231724Y-65862323D01*
X99225269Y-65865564D01*
X99160400Y-65908228D01*
X99094352Y-65948968D01*
X99088682Y-65953451D01*
X99088652Y-65953413D01*
X99082627Y-65958322D01*
X99082657Y-65958357D01*
X99077132Y-65962993D01*
X99077126Y-65962998D01*
X99077126Y-65962999D01*
X99023836Y-66019482D01*
X98738458Y-66304861D01*
X98488138Y-66555181D01*
X98426815Y-66588666D01*
X98400457Y-66591500D01*
X97486327Y-66591500D01*
X97419288Y-66571815D01*
X97388710Y-66543178D01*
X97388659Y-66543224D01*
X97388192Y-66542694D01*
X97386626Y-66541227D01*
X97385181Y-66539274D01*
X97385179Y-66539270D01*
X97232398Y-66365676D01*
X97232396Y-66365674D01*
X97232394Y-66365672D01*
X97052482Y-66220404D01*
X97052476Y-66220399D01*
X96850594Y-66107621D01*
X96632553Y-66030582D01*
X96632543Y-66030579D01*
X96404634Y-65991500D01*
X96404625Y-65991500D01*
X95931287Y-65991500D01*
X95931281Y-65991500D01*
X95758586Y-66006197D01*
X95534793Y-66064469D01*
X95534789Y-66064470D01*
X95324080Y-66159716D01*
X95324068Y-66159723D01*
X95132486Y-66289209D01*
X95132477Y-66289217D01*
X94965528Y-66449223D01*
X94828013Y-66635155D01*
X94723905Y-66841641D01*
X94656188Y-67062759D01*
X94626816Y-67292135D01*
X94636630Y-67523172D01*
X94636630Y-67523178D01*
X94685351Y-67749240D01*
X94771572Y-67963809D01*
X94771574Y-67963813D01*
X94816170Y-68036241D01*
X94876998Y-68135033D01*
X94892821Y-68160730D01*
X95045599Y-68334321D01*
X95045600Y-68334322D01*
X95075222Y-68358240D01*
X95115014Y-68415671D01*
X95117440Y-68485499D01*
X95081730Y-68545553D01*
X95062419Y-68560254D01*
X94915351Y-68650967D01*
X94915347Y-68650970D01*
X94789971Y-68776346D01*
X94696886Y-68927259D01*
X94696884Y-68927264D01*
X94641113Y-69095572D01*
X94630500Y-69199447D01*
X94630500Y-70500537D01*
X94630501Y-70500553D01*
X94641113Y-70604427D01*
X94670865Y-70694213D01*
X94696885Y-70772738D01*
X94789970Y-70923652D01*
X94915348Y-71049030D01*
X95066262Y-71142115D01*
X95234574Y-71197887D01*
X95338455Y-71208500D01*
X96939544Y-71208499D01*
X97043426Y-71197887D01*
X97211738Y-71142115D01*
X97362652Y-71049030D01*
X97488030Y-70923652D01*
X97581115Y-70772738D01*
X97590804Y-70743496D01*
X97630576Y-70686052D01*
X97695091Y-70659228D01*
X97708510Y-70658500D01*
X99662352Y-70658500D01*
X99729391Y-70678185D01*
X99775146Y-70730989D01*
X99785090Y-70800147D01*
X99780058Y-70821503D01*
X99737938Y-70948615D01*
X99737938Y-70948616D01*
X99727500Y-71050779D01*
X99727500Y-71725205D01*
X99727501Y-71725221D01*
X99737938Y-71827382D01*
X99792790Y-71992917D01*
X99792795Y-71992928D01*
X99884339Y-72141342D01*
X99884342Y-72141346D01*
X99918315Y-72175319D01*
X99951800Y-72236642D01*
X99946816Y-72306334D01*
X99918315Y-72350681D01*
X99884342Y-72384653D01*
X99884339Y-72384657D01*
X99792795Y-72533071D01*
X99792790Y-72533082D01*
X99737938Y-72698617D01*
X99727500Y-72800779D01*
X99727500Y-73475205D01*
X99727501Y-73475221D01*
X99737938Y-73577381D01*
X99792790Y-73742917D01*
X99792795Y-73742928D01*
X99884339Y-73891342D01*
X99884342Y-73891346D01*
X99966181Y-73973185D01*
X99999666Y-74034508D01*
X100002500Y-74060866D01*
X100002500Y-74144709D01*
X100002387Y-74148454D01*
X99998598Y-74211089D01*
X99998598Y-74211092D01*
X100009907Y-74272810D01*
X100010470Y-74276511D01*
X100018034Y-74338796D01*
X100018035Y-74338801D01*
X100021716Y-74348510D01*
X100027738Y-74370110D01*
X100029611Y-74380331D01*
X100055365Y-74437555D01*
X100056798Y-74441015D01*
X100079046Y-74499675D01*
X100079910Y-74501322D01*
X100080177Y-74502659D01*
X100081705Y-74506686D01*
X100081034Y-74506940D01*
X100093627Y-74569832D01*
X100068128Y-74634882D01*
X100011508Y-74675820D01*
X99995889Y-74680226D01*
X99920713Y-74696205D01*
X99803257Y-74748500D01*
X99753281Y-74770751D01*
X99746246Y-74773883D01*
X99591745Y-74886135D01*
X99463959Y-75028057D01*
X99368473Y-75193443D01*
X99368470Y-75193450D01*
X99309538Y-75374825D01*
X99309458Y-75375072D01*
X99289496Y-75565000D01*
X99309458Y-75754928D01*
X99309459Y-75754931D01*
X99368470Y-75936549D01*
X99368473Y-75936556D01*
X99463960Y-76101944D01*
X99554223Y-76202191D01*
X99591235Y-76243298D01*
X99591747Y-76243866D01*
X99746248Y-76356118D01*
X99920712Y-76433794D01*
X99981283Y-76446668D01*
X100042762Y-76479860D01*
X100076539Y-76541022D01*
X100079500Y-76567958D01*
X100079500Y-78755457D01*
X100059815Y-78822496D01*
X100043181Y-78843138D01*
X98964138Y-79922181D01*
X98902815Y-79955666D01*
X98876457Y-79958500D01*
X98794500Y-79958500D01*
X98727461Y-79938815D01*
X98681706Y-79886011D01*
X98670500Y-79834500D01*
X98670500Y-78793362D01*
X98670499Y-78793345D01*
X98664500Y-78737556D01*
X98663989Y-78732799D01*
X98663152Y-78730556D01*
X98628368Y-78637296D01*
X98612889Y-78595796D01*
X98525261Y-78478739D01*
X98408204Y-78391111D01*
X98396496Y-78386744D01*
X98271203Y-78340011D01*
X98210654Y-78333500D01*
X98210638Y-78333500D01*
X96563362Y-78333500D01*
X96563345Y-78333500D01*
X96502797Y-78340011D01*
X96502795Y-78340011D01*
X96365795Y-78391111D01*
X96248736Y-78478741D01*
X96242468Y-78485010D01*
X96241344Y-78483886D01*
X96193465Y-78519724D01*
X96123773Y-78524705D01*
X96062456Y-78491221D01*
X96006819Y-78435584D01*
X95973334Y-78374261D01*
X95970500Y-78347903D01*
X95970500Y-77793362D01*
X95970499Y-77793345D01*
X95966306Y-77754353D01*
X95963989Y-77732799D01*
X95961821Y-77726987D01*
X95931031Y-77644436D01*
X95912889Y-77595796D01*
X95825261Y-77478739D01*
X95708204Y-77391111D01*
X95571203Y-77340011D01*
X95510654Y-77333500D01*
X95510638Y-77333500D01*
X94113362Y-77333500D01*
X94113345Y-77333500D01*
X94052797Y-77340011D01*
X94052795Y-77340011D01*
X93915795Y-77391111D01*
X93798739Y-77478739D01*
X93711111Y-77595795D01*
X93660011Y-77732795D01*
X93660011Y-77732797D01*
X93653500Y-77793345D01*
X93653500Y-79450816D01*
X93633815Y-79517855D01*
X93603811Y-79550082D01*
X93539787Y-79598011D01*
X93498739Y-79628739D01*
X93411111Y-79745795D01*
X93360011Y-79882795D01*
X93360011Y-79882797D01*
X93353500Y-79943345D01*
X93353500Y-81840654D01*
X93360011Y-81901202D01*
X93360011Y-81901204D01*
X93405953Y-82024375D01*
X93411111Y-82038204D01*
X93498739Y-82155261D01*
X93615796Y-82242889D01*
X93722835Y-82282813D01*
X93778768Y-82324684D01*
X93803184Y-82390149D01*
X93803500Y-82398994D01*
X93803500Y-82485006D01*
X93783815Y-82552045D01*
X93731011Y-82597800D01*
X93722846Y-82601182D01*
X93637778Y-82632912D01*
X93615793Y-82641112D01*
X93498739Y-82728739D01*
X93411111Y-82845795D01*
X93360011Y-82982795D01*
X93360011Y-82982797D01*
X93353500Y-83043345D01*
X93353500Y-84140654D01*
X93360011Y-84201202D01*
X93360011Y-84201204D01*
X93403274Y-84317193D01*
X93411111Y-84338204D01*
X93498739Y-84455261D01*
X93600916Y-84531750D01*
X93603811Y-84533917D01*
X93645682Y-84589851D01*
X93653500Y-84633184D01*
X93653500Y-86290654D01*
X93660011Y-86351202D01*
X93660011Y-86351204D01*
X93711111Y-86488206D01*
X93711112Y-86488207D01*
X93778766Y-86578580D01*
X93803184Y-86644044D01*
X93803500Y-86652891D01*
X93803500Y-91940015D01*
X93785617Y-92004165D01*
X93737361Y-92083990D01*
X93737358Y-92083996D01*
X93603094Y-92382321D01*
X93602878Y-92382800D01*
X93602872Y-92382815D01*
X93505399Y-92695620D01*
X93505397Y-92695626D01*
X93505397Y-92695629D01*
X93465018Y-92915970D01*
X93446332Y-93017935D01*
X93426549Y-93345000D01*
X93446332Y-93672064D01*
X93446332Y-93672069D01*
X93446333Y-93672070D01*
X93505397Y-93994371D01*
X93505398Y-93994375D01*
X93505399Y-93994379D01*
X93602872Y-94307184D01*
X93602876Y-94307196D01*
X93602879Y-94307203D01*
X93725890Y-94580522D01*
X93737358Y-94606004D01*
X93906873Y-94886415D01*
X94108955Y-95144354D01*
X94340645Y-95376044D01*
X94341993Y-95377100D01*
X94598584Y-95578126D01*
X94878996Y-95747642D01*
X95177797Y-95882121D01*
X95177810Y-95882125D01*
X95177815Y-95882127D01*
X95370980Y-95942319D01*
X95490629Y-95979603D01*
X95812930Y-96038667D01*
X96140000Y-96058451D01*
X96467070Y-96038667D01*
X96789371Y-95979603D01*
X97102203Y-95882121D01*
X97401004Y-95747642D01*
X97681416Y-95578126D01*
X97939351Y-95376047D01*
X98171047Y-95144351D01*
X98373126Y-94886416D01*
X98542642Y-94606004D01*
X98677121Y-94307203D01*
X98774603Y-93994371D01*
X98833667Y-93672070D01*
X98853451Y-93345000D01*
X98833667Y-93017930D01*
X98774603Y-92695629D01*
X98723178Y-92530599D01*
X98677127Y-92382815D01*
X98677125Y-92382810D01*
X98677121Y-92382797D01*
X98542642Y-92083996D01*
X98373126Y-91803584D01*
X98329537Y-91747947D01*
X98171044Y-91545645D01*
X97939354Y-91313955D01*
X97681415Y-91111873D01*
X97401004Y-90942358D01*
X97293505Y-90893977D01*
X97102203Y-90807879D01*
X97102196Y-90807876D01*
X97102184Y-90807872D01*
X96789379Y-90710399D01*
X96789375Y-90710398D01*
X96789371Y-90710397D01*
X96467070Y-90651333D01*
X96467069Y-90651332D01*
X96467064Y-90651332D01*
X96168360Y-90633264D01*
X96140000Y-90631549D01*
X96139999Y-90631549D01*
X95951986Y-90642921D01*
X95883881Y-90627320D01*
X95835021Y-90577374D01*
X95820500Y-90519147D01*
X95820500Y-86652891D01*
X95840185Y-86585852D01*
X95845234Y-86578580D01*
X95912887Y-86488207D01*
X95912888Y-86488206D01*
X95963988Y-86351204D01*
X95963988Y-86351203D01*
X95963989Y-86351201D01*
X95968335Y-86310775D01*
X95970499Y-86290654D01*
X95970500Y-86290637D01*
X95970500Y-85736097D01*
X95990185Y-85669058D01*
X96006819Y-85648416D01*
X96062456Y-85592779D01*
X96123779Y-85559294D01*
X96193471Y-85564278D01*
X96241344Y-85600113D01*
X96242468Y-85598990D01*
X96248736Y-85605258D01*
X96248737Y-85605259D01*
X96248739Y-85605261D01*
X96365796Y-85692889D01*
X96502799Y-85743989D01*
X96530050Y-85746918D01*
X96563345Y-85750499D01*
X96563362Y-85750500D01*
X98210638Y-85750500D01*
X98210654Y-85750499D01*
X98237692Y-85747591D01*
X98271201Y-85743989D01*
X98408204Y-85692889D01*
X98525261Y-85605261D01*
X98612889Y-85488204D01*
X98662070Y-85356345D01*
X98663988Y-85351204D01*
X98663988Y-85351203D01*
X98663989Y-85351201D01*
X98667622Y-85317410D01*
X98670499Y-85290654D01*
X98670500Y-85290637D01*
X98670500Y-83768362D01*
X98670499Y-83768348D01*
X98667107Y-83736798D01*
X98663989Y-83707799D01*
X98663988Y-83707796D01*
X98663715Y-83705257D01*
X98663715Y-83678743D01*
X98663988Y-83676203D01*
X98663989Y-83676201D01*
X98670500Y-83615638D01*
X98670500Y-83068362D01*
X98668370Y-83048549D01*
X98666404Y-83030255D01*
X98666404Y-83003745D01*
X98670498Y-82965656D01*
X98670500Y-82965637D01*
X98670500Y-82715766D01*
X98690185Y-82648727D01*
X98742989Y-82602972D01*
X98746994Y-82601227D01*
X98813877Y-82573524D01*
X98813881Y-82573521D01*
X98820916Y-82569460D01*
X98822158Y-82571611D01*
X98875664Y-82550929D01*
X98885975Y-82550500D01*
X101386389Y-82550500D01*
X101453428Y-82570185D01*
X101474070Y-82586819D01*
X103204455Y-84317204D01*
X103209796Y-84323294D01*
X103217822Y-84333754D01*
X103231812Y-84351987D01*
X103263721Y-84376472D01*
X103263725Y-84376474D01*
X103263728Y-84376477D01*
X103317630Y-84417838D01*
X103358922Y-84449523D01*
X103358928Y-84449526D01*
X103395818Y-84464806D01*
X103506949Y-84510838D01*
X103522464Y-84512880D01*
X103526342Y-84513391D01*
X103573809Y-84519640D01*
X103625915Y-84526500D01*
X103625916Y-84526500D01*
X103627929Y-84526765D01*
X103627948Y-84526766D01*
X103665800Y-84531750D01*
X103665801Y-84531750D01*
X103676272Y-84530371D01*
X103701648Y-84527030D01*
X103709746Y-84526500D01*
X110412254Y-84526500D01*
X110420351Y-84527030D01*
X110445727Y-84530371D01*
X110456199Y-84531750D01*
X110456200Y-84531750D01*
X110456201Y-84531750D01*
X110492046Y-84527031D01*
X110494161Y-84526752D01*
X110494174Y-84526751D01*
X110496081Y-84526500D01*
X110496085Y-84526500D01*
X110577202Y-84515820D01*
X110595657Y-84513391D01*
X110615051Y-84510838D01*
X110630012Y-84504641D01*
X110763076Y-84449524D01*
X110858272Y-84376477D01*
X110858273Y-84376475D01*
X110866364Y-84370267D01*
X110866371Y-84370261D01*
X110890183Y-84351990D01*
X110890182Y-84351990D01*
X110890187Y-84351987D01*
X110912210Y-84323285D01*
X110917538Y-84317209D01*
X113019202Y-82215545D01*
X113025293Y-82210203D01*
X113053987Y-82188187D01*
X113072267Y-82164364D01*
X113078475Y-82156273D01*
X113078477Y-82156272D01*
X113149726Y-82063417D01*
X113153544Y-82058905D01*
X113157996Y-82054125D01*
X113161462Y-82048122D01*
X113164614Y-82044013D01*
X113164375Y-82042637D01*
X113173020Y-82009178D01*
X113212838Y-81913050D01*
X113228500Y-81794085D01*
X113228500Y-81794084D01*
X113228723Y-81792391D01*
X113228726Y-81792360D01*
X113229430Y-81787011D01*
X113233750Y-81754200D01*
X113229030Y-81718351D01*
X113228500Y-81710254D01*
X113228500Y-76088611D01*
X113248185Y-76021572D01*
X113264819Y-76000930D01*
X114548750Y-74716999D01*
X115834904Y-73430844D01*
X115896225Y-73397361D01*
X115965917Y-73402345D01*
X116021850Y-73444217D01*
X116046267Y-73509681D01*
X116031415Y-73577954D01*
X116029971Y-73580526D01*
X115941972Y-73732946D01*
X115941970Y-73732950D01*
X115884899Y-73908597D01*
X115882958Y-73914572D01*
X115866800Y-74068306D01*
X115862996Y-74104502D01*
X115862996Y-74106092D01*
X115862735Y-74106977D01*
X115862317Y-74110963D01*
X115861588Y-74110886D01*
X115843311Y-74173131D01*
X115826677Y-74193773D01*
X115043801Y-74976649D01*
X115037698Y-74982000D01*
X115009013Y-75004012D01*
X114984522Y-75035929D01*
X114911476Y-75131123D01*
X114850359Y-75278675D01*
X114850161Y-75279152D01*
X114842490Y-75337425D01*
X114835947Y-75387128D01*
X114833957Y-75402241D01*
X114833955Y-75402254D01*
X114830845Y-75425883D01*
X114829250Y-75438000D01*
X114833060Y-75466944D01*
X114833969Y-75473843D01*
X114834500Y-75481945D01*
X114834500Y-77629477D01*
X114814815Y-77696516D01*
X114802650Y-77712449D01*
X114703959Y-77822057D01*
X114608473Y-77987443D01*
X114608470Y-77987450D01*
X114552815Y-78158740D01*
X114549458Y-78169072D01*
X114529496Y-78359000D01*
X114549458Y-78548928D01*
X114549459Y-78548931D01*
X114608470Y-78730549D01*
X114608473Y-78730556D01*
X114703960Y-78895944D01*
X114831747Y-79037866D01*
X114986248Y-79150118D01*
X115160712Y-79227794D01*
X115347513Y-79267500D01*
X115538487Y-79267500D01*
X115725288Y-79227794D01*
X115899752Y-79150118D01*
X116054253Y-79037866D01*
X116182040Y-78895944D01*
X116277527Y-78730556D01*
X116336542Y-78548928D01*
X116356504Y-78359000D01*
X116351805Y-78314294D01*
X116364374Y-78245567D01*
X116412106Y-78194543D01*
X116479846Y-78177425D01*
X116540224Y-78195797D01*
X116633692Y-78253450D01*
X116633699Y-78253453D01*
X116797347Y-78307680D01*
X116898351Y-78317999D01*
X116997500Y-78317998D01*
X116997500Y-77093000D01*
X117497500Y-77093000D01*
X118722500Y-77093000D01*
X118722500Y-76405862D01*
X118742185Y-76338823D01*
X118749000Y-76330365D01*
X118749000Y-75942000D01*
X117524000Y-75942000D01*
X117524000Y-76629138D01*
X117504315Y-76696177D01*
X117497500Y-76704634D01*
X117497500Y-77093000D01*
X116997500Y-77093000D01*
X116997500Y-76405862D01*
X117017185Y-76338823D01*
X117024000Y-76330365D01*
X117024000Y-75566000D01*
X117043685Y-75498961D01*
X117096489Y-75453206D01*
X117148000Y-75442000D01*
X118749000Y-75442000D01*
X118749000Y-74716999D01*
X118649860Y-74717000D01*
X118649844Y-74717001D01*
X118548847Y-74727319D01*
X118385199Y-74781546D01*
X118385188Y-74781551D01*
X118238465Y-74872052D01*
X118238461Y-74872055D01*
X118224181Y-74886336D01*
X118162858Y-74919821D01*
X118093166Y-74914837D01*
X118048819Y-74886336D01*
X118034538Y-74872055D01*
X118034534Y-74872052D01*
X117887811Y-74781551D01*
X117887800Y-74781546D01*
X117724152Y-74727319D01*
X117670900Y-74721878D01*
X117606208Y-74695481D01*
X117566058Y-74638300D01*
X117563196Y-74568489D01*
X117576113Y-74536528D01*
X117611027Y-74476056D01*
X117637254Y-74395340D01*
X117642179Y-74380182D01*
X117681617Y-74322506D01*
X117745975Y-74295308D01*
X117760110Y-74294500D01*
X121055457Y-74294500D01*
X121122496Y-74314185D01*
X121168251Y-74366989D01*
X121174229Y-74387799D01*
X121175375Y-74387492D01*
X121177478Y-74395342D01*
X121234156Y-74532175D01*
X121324320Y-74649679D01*
X121441824Y-74739843D01*
X121578658Y-74796521D01*
X121688622Y-74810999D01*
X121688637Y-74811000D01*
X121895088Y-74811000D01*
X121962127Y-74830685D01*
X122007882Y-74883489D01*
X122017826Y-74952647D01*
X121988801Y-75016203D01*
X121982769Y-75022681D01*
X121450270Y-75555181D01*
X121388947Y-75588666D01*
X121362589Y-75591500D01*
X121311965Y-75591500D01*
X121244926Y-75571815D01*
X121204579Y-75529501D01*
X121135040Y-75409056D01*
X121007253Y-75267134D01*
X120852752Y-75154882D01*
X120678288Y-75077206D01*
X120678286Y-75077205D01*
X120491487Y-75037500D01*
X120300513Y-75037500D01*
X120113713Y-75077205D01*
X120113712Y-75077205D01*
X120070820Y-75096302D01*
X120001570Y-75105585D01*
X119938294Y-75075955D01*
X119914848Y-75048118D01*
X119881443Y-74993960D01*
X119759538Y-74872055D01*
X119759534Y-74872052D01*
X119612811Y-74781551D01*
X119612800Y-74781546D01*
X119449152Y-74727319D01*
X119348154Y-74717000D01*
X119249000Y-74717000D01*
X119249000Y-76629138D01*
X119229315Y-76696177D01*
X119222500Y-76704634D01*
X119222500Y-77093000D01*
X120009999Y-77093000D01*
X120009999Y-77056360D01*
X120009998Y-77056345D01*
X119999764Y-76956166D01*
X120012533Y-76887473D01*
X120060414Y-76836589D01*
X120128204Y-76819668D01*
X120148901Y-76822273D01*
X120300513Y-76854500D01*
X120491487Y-76854500D01*
X120678288Y-76814794D01*
X120678293Y-76814791D01*
X120678983Y-76814568D01*
X120680427Y-76814339D01*
X120684644Y-76813443D01*
X120684690Y-76813664D01*
X120717298Y-76808500D01*
X120744813Y-76808500D01*
X120811852Y-76828185D01*
X120857607Y-76880989D01*
X120867551Y-76950147D01*
X120838526Y-77013703D01*
X120817701Y-77032816D01*
X120813305Y-77036010D01*
X120800745Y-77045135D01*
X120672959Y-77187057D01*
X120577473Y-77352443D01*
X120577470Y-77352450D01*
X120518459Y-77534068D01*
X120518458Y-77534072D01*
X120502943Y-77681691D01*
X120498496Y-77724000D01*
X120518304Y-77912462D01*
X120505734Y-77981192D01*
X120458002Y-78032215D01*
X120390262Y-78049333D01*
X120381728Y-78048713D01*
X120375202Y-78048011D01*
X120375201Y-78048011D01*
X120314638Y-78041500D01*
X120068396Y-78041500D01*
X120001357Y-78021815D01*
X119955602Y-77969011D01*
X119945658Y-77899853D01*
X119950690Y-77878496D01*
X119999680Y-77730651D01*
X120009999Y-77629654D01*
X120010000Y-77629641D01*
X120010000Y-77593000D01*
X117497500Y-77593000D01*
X117497500Y-78317999D01*
X117596640Y-78317999D01*
X117596654Y-78317998D01*
X117697652Y-78307680D01*
X117861300Y-78253453D01*
X117861311Y-78253448D01*
X118008034Y-78162947D01*
X118008038Y-78162944D01*
X118022319Y-78148664D01*
X118083642Y-78115179D01*
X118153334Y-78120163D01*
X118197681Y-78148664D01*
X118211961Y-78162944D01*
X118211965Y-78162947D01*
X118358688Y-78253448D01*
X118358699Y-78253453D01*
X118522347Y-78307680D01*
X118623350Y-78317999D01*
X118639160Y-78317999D01*
X118706201Y-78337680D01*
X118751959Y-78390482D01*
X118762457Y-78455254D01*
X118757500Y-78501361D01*
X118757500Y-79365723D01*
X118737815Y-79432762D01*
X118685011Y-79478517D01*
X118615853Y-79488461D01*
X118607719Y-79487013D01*
X118586487Y-79482500D01*
X118395513Y-79482500D01*
X118208714Y-79522205D01*
X118146099Y-79550083D01*
X118038451Y-79598011D01*
X118034246Y-79599883D01*
X117879745Y-79712135D01*
X117751959Y-79854057D01*
X117656473Y-80019443D01*
X117656470Y-80019450D01*
X117604495Y-80179414D01*
X117597458Y-80201072D01*
X117585137Y-80318302D01*
X117579056Y-80376162D01*
X117577496Y-80391000D01*
X117588382Y-80494580D01*
X117575814Y-80563308D01*
X117528082Y-80614332D01*
X117490844Y-80628830D01*
X117319713Y-80665205D01*
X117145246Y-80742883D01*
X116990745Y-80855135D01*
X116862959Y-80997057D01*
X116767473Y-81162443D01*
X116767470Y-81162450D01*
X116708459Y-81344068D01*
X116708458Y-81344072D01*
X116688496Y-81534000D01*
X116708458Y-81723928D01*
X116708459Y-81723931D01*
X116767470Y-81905549D01*
X116767473Y-81905556D01*
X116853249Y-82054125D01*
X116862960Y-82070944D01*
X116953629Y-82171642D01*
X116983857Y-82234630D01*
X116975232Y-82303965D01*
X116949158Y-82342292D01*
X115304801Y-83986649D01*
X115298698Y-83992000D01*
X115270013Y-84014012D01*
X115256730Y-84031323D01*
X115247404Y-84043477D01*
X115245522Y-84045929D01*
X115172476Y-84141123D01*
X115172475Y-84141125D01*
X115137786Y-84224875D01*
X115111162Y-84289148D01*
X115111162Y-84289150D01*
X115096686Y-84399111D01*
X115094957Y-84412241D01*
X115094955Y-84412254D01*
X115091968Y-84434949D01*
X115090250Y-84448000D01*
X115092462Y-84464806D01*
X115094969Y-84483843D01*
X115095500Y-84491945D01*
X115095500Y-89436587D01*
X115075815Y-89503626D01*
X115059181Y-89524269D01*
X114904800Y-89678648D01*
X114898698Y-89684000D01*
X114870013Y-89706012D01*
X114845522Y-89737928D01*
X114772476Y-89833122D01*
X114772473Y-89833127D01*
X114711163Y-89981144D01*
X114711161Y-89981151D01*
X114708865Y-89998595D01*
X114694957Y-90104240D01*
X114694955Y-90104253D01*
X114690250Y-90139999D01*
X114694969Y-90175842D01*
X114695500Y-90183944D01*
X114695500Y-90190877D01*
X114675815Y-90257916D01*
X114659181Y-90278558D01*
X114629551Y-90308187D01*
X114629544Y-90308196D01*
X114544855Y-90451398D01*
X114544853Y-90451403D01*
X114498438Y-90611164D01*
X114498437Y-90611170D01*
X114495500Y-90648495D01*
X114495500Y-91787457D01*
X114475815Y-91854496D01*
X114423011Y-91900251D01*
X114353853Y-91910195D01*
X114290297Y-91881170D01*
X114283819Y-91875138D01*
X113103804Y-90695123D01*
X113092022Y-90681490D01*
X113077472Y-90661946D01*
X113077471Y-90661945D01*
X113077469Y-90661942D01*
X113064826Y-90651333D01*
X113036987Y-90627972D01*
X113032998Y-90624317D01*
X113027102Y-90618421D01*
X113027101Y-90618420D01*
X113005069Y-90600999D01*
X113001102Y-90597862D01*
X112941642Y-90547970D01*
X112941640Y-90547968D01*
X112941635Y-90547965D01*
X112935605Y-90543999D01*
X112935630Y-90543959D01*
X112929069Y-90539779D01*
X112929045Y-90539820D01*
X112922904Y-90536031D01*
X112852540Y-90503220D01*
X112783185Y-90468389D01*
X112776401Y-90465920D01*
X112776416Y-90465876D01*
X112769071Y-90463322D01*
X112769057Y-90463367D01*
X112762205Y-90461096D01*
X112724177Y-90453244D01*
X112686149Y-90445392D01*
X112610656Y-90427500D01*
X112610654Y-90427500D01*
X112610646Y-90427498D01*
X112603482Y-90426661D01*
X112603487Y-90426612D01*
X112595757Y-90425822D01*
X112595753Y-90425870D01*
X112588562Y-90425240D01*
X112510920Y-90427500D01*
X104077294Y-90427500D01*
X104059324Y-90426191D01*
X104035206Y-90422658D01*
X103990029Y-90426612D01*
X103982573Y-90427264D01*
X103977172Y-90427500D01*
X103968820Y-90427500D01*
X103952362Y-90429423D01*
X103935904Y-90431347D01*
X103858577Y-90438112D01*
X103851503Y-90439573D01*
X103851493Y-90439526D01*
X103843905Y-90441209D01*
X103843916Y-90441255D01*
X103836890Y-90442920D01*
X103836887Y-90442920D01*
X103836887Y-90442921D01*
X103780833Y-90463322D01*
X103763938Y-90469471D01*
X103690261Y-90493886D01*
X103683717Y-90496938D01*
X103683697Y-90496896D01*
X103676696Y-90500285D01*
X103676717Y-90500326D01*
X103670269Y-90503564D01*
X103605394Y-90546233D01*
X103539352Y-90586967D01*
X103533683Y-90591450D01*
X103533653Y-90591413D01*
X103527627Y-90596322D01*
X103527657Y-90596357D01*
X103522132Y-90600993D01*
X103468836Y-90657482D01*
X102332122Y-91794195D01*
X102318495Y-91805973D01*
X102298941Y-91820531D01*
X102264977Y-91861006D01*
X102261330Y-91864987D01*
X102255418Y-91870900D01*
X102234863Y-91896896D01*
X102184967Y-91956360D01*
X102181001Y-91962391D01*
X102180963Y-91962366D01*
X102176782Y-91968928D01*
X102176821Y-91968952D01*
X102173032Y-91975094D01*
X102140219Y-92045461D01*
X102128982Y-92067836D01*
X102081303Y-92118909D01*
X102057176Y-92129889D01*
X101900264Y-92181884D01*
X101900259Y-92181886D01*
X101749346Y-92274971D01*
X101623971Y-92400346D01*
X101530886Y-92551259D01*
X101530884Y-92551264D01*
X101475113Y-92719572D01*
X101464500Y-92823447D01*
X101464500Y-94374537D01*
X101464501Y-94374553D01*
X101475113Y-94478427D01*
X101530884Y-94646735D01*
X101530886Y-94646740D01*
X101550823Y-94679063D01*
X101623970Y-94797652D01*
X101749348Y-94923030D01*
X101900262Y-95016115D01*
X102068574Y-95071887D01*
X102172455Y-95082500D01*
X103473544Y-95082499D01*
X103577426Y-95071887D01*
X103745738Y-95016115D01*
X103896652Y-94923030D01*
X104022030Y-94797652D01*
X104115115Y-94646738D01*
X104115116Y-94646733D01*
X104117262Y-94643255D01*
X104169210Y-94596530D01*
X104238172Y-94585307D01*
X104302254Y-94613150D01*
X104310482Y-94620670D01*
X104451917Y-94762105D01*
X104645421Y-94897600D01*
X104859507Y-94997429D01*
X104859516Y-94997433D01*
X105073000Y-95054634D01*
X105073000Y-94007018D01*
X105187801Y-94059446D01*
X105289025Y-94074000D01*
X105356975Y-94074000D01*
X105458199Y-94059446D01*
X105573000Y-94007018D01*
X105573000Y-95054633D01*
X105786483Y-94997433D01*
X105786492Y-94997429D01*
X106000577Y-94897600D01*
X106000579Y-94897599D01*
X106194073Y-94762113D01*
X106194079Y-94762108D01*
X106361108Y-94595079D01*
X106361113Y-94595073D01*
X106466833Y-94444089D01*
X106521410Y-94400464D01*
X106590908Y-94393270D01*
X106653263Y-94424793D01*
X106671143Y-94445775D01*
X106762209Y-94580513D01*
X106762214Y-94580518D01*
X106762217Y-94580523D01*
X106922228Y-94747476D01*
X107108153Y-94884985D01*
X107314643Y-94989095D01*
X107535757Y-95056811D01*
X107765135Y-95086184D01*
X107996178Y-95076369D01*
X108222238Y-95027649D01*
X108436813Y-94941426D01*
X108633730Y-94820179D01*
X108807324Y-94667398D01*
X108952600Y-94487476D01*
X109065380Y-94285591D01*
X109142419Y-94067550D01*
X109181248Y-93841095D01*
X109181499Y-93839634D01*
X109181500Y-93839623D01*
X109181500Y-93416281D01*
X109166802Y-93243586D01*
X109140063Y-93140897D01*
X109108530Y-93019793D01*
X109108529Y-93019789D01*
X109013283Y-92809080D01*
X109013276Y-92809068D01*
X108883790Y-92617486D01*
X108883786Y-92617481D01*
X108883783Y-92617477D01*
X108723772Y-92450524D01*
X108537847Y-92313015D01*
X108537846Y-92313014D01*
X108537844Y-92313013D01*
X108331358Y-92208905D01*
X108303315Y-92200317D01*
X108260039Y-92187064D01*
X108201704Y-92148612D01*
X108173417Y-92084725D01*
X108184161Y-92015686D01*
X108230524Y-91963415D01*
X108296351Y-91944500D01*
X112156457Y-91944500D01*
X112223496Y-91964185D01*
X112244138Y-91980819D01*
X112897128Y-92633809D01*
X112930613Y-92695132D01*
X112925629Y-92764824D01*
X112883757Y-92820757D01*
X112874544Y-92827028D01*
X112730351Y-92915967D01*
X112730347Y-92915970D01*
X112604971Y-93041346D01*
X112511886Y-93192259D01*
X112511884Y-93192264D01*
X112456113Y-93360572D01*
X112445500Y-93464447D01*
X112445500Y-95765537D01*
X112445501Y-95765553D01*
X112456113Y-95869427D01*
X112463591Y-95891994D01*
X112511885Y-96037738D01*
X112604134Y-96187297D01*
X112604974Y-96188658D01*
X112607294Y-96191592D01*
X112608258Y-96193982D01*
X112608762Y-96194799D01*
X112608622Y-96194885D01*
X112633433Y-96256388D01*
X112620391Y-96325030D01*
X112572309Y-96375724D01*
X112510026Y-96392500D01*
X94022043Y-96392500D01*
X94008230Y-96388444D01*
X93988725Y-96391243D01*
X93985289Y-96391488D01*
X93984010Y-96391728D01*
X93975620Y-96392716D01*
X93969063Y-96393039D01*
X93931699Y-96394877D01*
X93817883Y-96399302D01*
X93796218Y-96398246D01*
X93732437Y-96389500D01*
X93730916Y-96389291D01*
X93706769Y-96385216D01*
X93643007Y-96374454D01*
X93624433Y-96369820D01*
X93557533Y-96347521D01*
X93554551Y-96346441D01*
X93472511Y-96314311D01*
X93465014Y-96310779D01*
X93419396Y-96285429D01*
X93397616Y-96273326D01*
X93393788Y-96271015D01*
X93321498Y-96223722D01*
X93315849Y-96219551D01*
X93278614Y-96188652D01*
X93255991Y-96169878D01*
X93251741Y-96166005D01*
X93190993Y-96105257D01*
X93187120Y-96101007D01*
X93169895Y-96080250D01*
X93137443Y-96041144D01*
X93133281Y-96035507D01*
X93085983Y-95963210D01*
X93083672Y-95959382D01*
X93046213Y-95891972D01*
X93042693Y-95884502D01*
X93010541Y-95802404D01*
X93009493Y-95799511D01*
X92987177Y-95732561D01*
X92982546Y-95714000D01*
X92967709Y-95626087D01*
X92958751Y-95560772D01*
X92957696Y-95539122D01*
X92962124Y-95425231D01*
X92963969Y-95387737D01*
X92964812Y-95381514D01*
X92965757Y-95368275D01*
X92968006Y-95352594D01*
X92964784Y-95343855D01*
X92964500Y-95335467D01*
X92964500Y-60016840D01*
X92984185Y-59949801D01*
X93036989Y-59904046D01*
X93106147Y-59894102D01*
X93169703Y-59923127D01*
X93207477Y-59981905D01*
X93210466Y-59994476D01*
X93250397Y-60212371D01*
X93250398Y-60212375D01*
X93250399Y-60212379D01*
X93347872Y-60525184D01*
X93347876Y-60525196D01*
X93347879Y-60525203D01*
X93429474Y-60706500D01*
X93482358Y-60824004D01*
X93651873Y-61104415D01*
X93853955Y-61362354D01*
X94085645Y-61594044D01*
X94085649Y-61594047D01*
X94343584Y-61796126D01*
X94623996Y-61965642D01*
X94922797Y-62100121D01*
X94922810Y-62100125D01*
X94922815Y-62100127D01*
X95131351Y-62165109D01*
X95235629Y-62197603D01*
X95557930Y-62256667D01*
X95885000Y-62276451D01*
X96212070Y-62256667D01*
X96534371Y-62197603D01*
X96847203Y-62100121D01*
X97146004Y-61965642D01*
X97426416Y-61796126D01*
X97684351Y-61594047D01*
X97916047Y-61362351D01*
X98118126Y-61104416D01*
X98287642Y-60824004D01*
X98422121Y-60525203D01*
X98519603Y-60212371D01*
X98578667Y-59890070D01*
X98598451Y-59563000D01*
X98578667Y-59235930D01*
X98519603Y-58913629D01*
X98424946Y-58609862D01*
X98422127Y-58600815D01*
X98422125Y-58600810D01*
X98422121Y-58600797D01*
X98287642Y-58301996D01*
X98118126Y-58021584D01*
X98044561Y-57927685D01*
X97916044Y-57763645D01*
X97684354Y-57531955D01*
X97426415Y-57329873D01*
X97146004Y-57160358D01*
X97125798Y-57151264D01*
X96847203Y-57025879D01*
X96802294Y-57011885D01*
X96744148Y-56973148D01*
X96716174Y-56909123D01*
X96727255Y-56840138D01*
X96773874Y-56788094D01*
X96839186Y-56769500D01*
X112661202Y-56769500D01*
X112728241Y-56789185D01*
G37*
%TD.AperFunction*%
%TA.AperFunction,Conductor*%
G36*
X151948772Y-56763751D02*
G01*
X152014091Y-56772709D01*
X152102000Y-56787546D01*
X152120561Y-56792177D01*
X152187511Y-56814493D01*
X152190404Y-56815541D01*
X152272502Y-56847693D01*
X152279972Y-56851213D01*
X152347391Y-56888677D01*
X152351211Y-56890983D01*
X152423507Y-56938281D01*
X152429144Y-56942443D01*
X152466145Y-56973148D01*
X152489007Y-56992120D01*
X152493257Y-56995993D01*
X152554005Y-57056741D01*
X152557878Y-57060991D01*
X152607551Y-57120849D01*
X152611722Y-57126498D01*
X152659015Y-57198788D01*
X152661326Y-57202616D01*
X152664701Y-57208689D01*
X152698779Y-57270014D01*
X152702311Y-57277511D01*
X152734441Y-57359551D01*
X152735521Y-57362533D01*
X152757820Y-57429433D01*
X152762454Y-57448007D01*
X152777291Y-57535912D01*
X152786246Y-57601218D01*
X152787302Y-57622883D01*
X152782877Y-57736699D01*
X152781991Y-57754724D01*
X152780845Y-57778024D01*
X152780717Y-57780618D01*
X152779728Y-57789010D01*
X152779493Y-57790261D01*
X152779248Y-57793706D01*
X152777003Y-57809386D01*
X152780148Y-57817718D01*
X152780500Y-57827053D01*
X152780500Y-93018159D01*
X152760815Y-93085198D01*
X152708011Y-93130953D01*
X152638853Y-93140897D01*
X152575297Y-93111872D01*
X152537523Y-93053094D01*
X152534531Y-93040511D01*
X152533686Y-93035900D01*
X152494603Y-92822629D01*
X152455026Y-92695620D01*
X152397127Y-92509815D01*
X152397125Y-92509810D01*
X152397121Y-92509797D01*
X152262642Y-92210996D01*
X152093126Y-91930584D01*
X152041734Y-91864987D01*
X151891044Y-91672645D01*
X151659354Y-91440955D01*
X151401415Y-91238873D01*
X151121004Y-91069358D01*
X151090508Y-91055633D01*
X150822203Y-90934879D01*
X150822196Y-90934876D01*
X150822184Y-90934872D01*
X150509379Y-90837399D01*
X150509375Y-90837398D01*
X150509371Y-90837397D01*
X150187070Y-90778333D01*
X150187069Y-90778332D01*
X150187064Y-90778332D01*
X149860000Y-90758549D01*
X149532935Y-90778332D01*
X149532930Y-90778333D01*
X149210629Y-90837397D01*
X149210626Y-90837397D01*
X149210620Y-90837399D01*
X148897815Y-90934872D01*
X148897799Y-90934878D01*
X148897797Y-90934879D01*
X148833497Y-90963818D01*
X148629491Y-91055633D01*
X148560279Y-91065196D01*
X148496883Y-91035822D01*
X148490919Y-91030238D01*
X147012804Y-89552123D01*
X147001022Y-89538490D01*
X146986472Y-89518946D01*
X146986471Y-89518945D01*
X146986469Y-89518942D01*
X146981154Y-89514482D01*
X146945987Y-89484972D01*
X146941998Y-89481317D01*
X146936102Y-89475421D01*
X146936101Y-89475420D01*
X146914069Y-89457999D01*
X146910102Y-89454862D01*
X146850642Y-89404970D01*
X146850640Y-89404968D01*
X146850635Y-89404965D01*
X146844605Y-89400999D01*
X146844630Y-89400959D01*
X146838069Y-89396779D01*
X146838045Y-89396820D01*
X146831904Y-89393031D01*
X146761540Y-89360220D01*
X146692185Y-89325389D01*
X146685401Y-89322920D01*
X146685416Y-89322876D01*
X146678071Y-89320322D01*
X146678057Y-89320367D01*
X146671205Y-89318096D01*
X146633177Y-89310244D01*
X146595149Y-89302392D01*
X146519656Y-89284500D01*
X146519654Y-89284500D01*
X146519646Y-89284498D01*
X146512482Y-89283661D01*
X146512487Y-89283612D01*
X146504757Y-89282822D01*
X146504753Y-89282870D01*
X146497562Y-89282240D01*
X146419920Y-89284500D01*
X138367294Y-89284500D01*
X138349324Y-89283191D01*
X138325206Y-89279658D01*
X138280029Y-89283612D01*
X138272573Y-89284264D01*
X138267172Y-89284500D01*
X138258819Y-89284500D01*
X138225903Y-89288347D01*
X138148574Y-89295112D01*
X138141506Y-89296572D01*
X138141496Y-89296528D01*
X138133906Y-89298210D01*
X138133917Y-89298254D01*
X138126893Y-89299919D01*
X138126887Y-89299920D01*
X138126887Y-89299921D01*
X138120098Y-89302392D01*
X138053933Y-89326473D01*
X137980257Y-89350887D01*
X137973720Y-89353936D01*
X137973700Y-89353894D01*
X137966696Y-89357285D01*
X137966717Y-89357326D01*
X137960269Y-89360564D01*
X137895394Y-89403233D01*
X137829352Y-89443967D01*
X137823683Y-89448450D01*
X137823653Y-89448413D01*
X137817627Y-89453322D01*
X137817657Y-89453357D01*
X137812132Y-89457993D01*
X137812126Y-89457998D01*
X137812126Y-89457999D01*
X137758836Y-89514482D01*
X137494346Y-89778973D01*
X137263138Y-90010181D01*
X137201815Y-90043666D01*
X137175457Y-90046500D01*
X128127543Y-90046500D01*
X128060504Y-90026815D01*
X128039862Y-90010181D01*
X127200804Y-89171123D01*
X127189022Y-89157490D01*
X127174472Y-89137946D01*
X127174471Y-89137945D01*
X127174469Y-89137942D01*
X127169526Y-89133794D01*
X127133987Y-89103972D01*
X127129998Y-89100317D01*
X127124102Y-89094421D01*
X127124101Y-89094420D01*
X127098103Y-89073863D01*
X127038640Y-89023968D01*
X127038635Y-89023965D01*
X127032605Y-89019999D01*
X127032630Y-89019959D01*
X127026069Y-89015779D01*
X127026045Y-89015820D01*
X127019904Y-89012031D01*
X126949540Y-88979220D01*
X126880185Y-88944389D01*
X126873401Y-88941920D01*
X126873416Y-88941876D01*
X126866071Y-88939322D01*
X126866057Y-88939367D01*
X126859205Y-88937096D01*
X126821177Y-88929244D01*
X126783149Y-88921392D01*
X126707656Y-88903500D01*
X126707654Y-88903500D01*
X126707646Y-88903498D01*
X126700482Y-88902661D01*
X126700487Y-88902612D01*
X126692757Y-88901822D01*
X126692753Y-88901870D01*
X126685562Y-88901240D01*
X126607920Y-88903500D01*
X120079294Y-88903500D01*
X120061324Y-88902191D01*
X120037206Y-88898658D01*
X119992029Y-88902612D01*
X119984573Y-88903264D01*
X119979172Y-88903500D01*
X119970820Y-88903500D01*
X119954362Y-88905423D01*
X119937904Y-88907347D01*
X119860577Y-88914112D01*
X119853503Y-88915573D01*
X119853493Y-88915526D01*
X119845905Y-88917209D01*
X119845916Y-88917255D01*
X119838884Y-88918921D01*
X119831799Y-88921500D01*
X119762070Y-88925928D01*
X119701016Y-88891954D01*
X119682008Y-88866976D01*
X119611040Y-88744056D01*
X119483253Y-88602134D01*
X119328752Y-88489882D01*
X119154288Y-88412206D01*
X119154286Y-88412205D01*
X118967487Y-88372500D01*
X118776513Y-88372500D01*
X118589714Y-88412205D01*
X118415246Y-88489883D01*
X118260745Y-88602135D01*
X118132959Y-88744057D01*
X118037473Y-88909443D01*
X118037470Y-88909450D01*
X117982465Y-89078739D01*
X117952215Y-89128102D01*
X117313122Y-89767195D01*
X117299495Y-89778973D01*
X117279940Y-89793532D01*
X117261826Y-89815118D01*
X117203652Y-89853817D01*
X117133791Y-89854922D01*
X117074423Y-89818081D01*
X117068474Y-89810904D01*
X117049442Y-89786101D01*
X117012477Y-89737927D01*
X117011525Y-89736686D01*
X117011521Y-89736681D01*
X116987985Y-89706010D01*
X116974837Y-89695921D01*
X116959293Y-89683994D01*
X116953203Y-89678653D01*
X116798819Y-89524269D01*
X116765334Y-89462946D01*
X116762500Y-89436588D01*
X116762500Y-87544000D01*
X126966501Y-87544000D01*
X126966501Y-87580654D01*
X126976819Y-87681652D01*
X127031046Y-87845300D01*
X127031051Y-87845311D01*
X127121552Y-87992034D01*
X127121555Y-87992038D01*
X127243461Y-88113944D01*
X127243465Y-88113947D01*
X127390188Y-88204448D01*
X127390199Y-88204453D01*
X127553847Y-88258680D01*
X127654851Y-88268999D01*
X127754000Y-88268998D01*
X127754000Y-87544000D01*
X126966501Y-87544000D01*
X116762500Y-87544000D01*
X116762500Y-85317410D01*
X116782185Y-85250371D01*
X116798814Y-85229734D01*
X118890202Y-83138345D01*
X118896293Y-83133003D01*
X118924987Y-83110987D01*
X118943267Y-83087164D01*
X118949475Y-83079073D01*
X118949477Y-83079072D01*
X119022524Y-82983876D01*
X119083838Y-82835851D01*
X119087148Y-82810709D01*
X119099500Y-82716885D01*
X119099500Y-82716879D01*
X119104750Y-82677000D01*
X119100030Y-82641151D01*
X119099500Y-82633054D01*
X119099500Y-81120522D01*
X119119185Y-81053483D01*
X119131350Y-81037550D01*
X119230040Y-80927944D01*
X119292073Y-80820500D01*
X119342640Y-80772284D01*
X119399460Y-80758500D01*
X120314638Y-80758500D01*
X120314654Y-80758499D01*
X120341692Y-80755591D01*
X120375201Y-80751989D01*
X120512204Y-80700889D01*
X120629261Y-80613261D01*
X120653541Y-80580826D01*
X120709470Y-80538957D01*
X120779162Y-80533971D01*
X120840483Y-80567453D01*
X120840487Y-80567457D01*
X121937181Y-81664151D01*
X121970666Y-81725474D01*
X121973500Y-81751832D01*
X121973500Y-82058538D01*
X121953815Y-82125577D01*
X121946775Y-82134797D01*
X121946779Y-82134800D01*
X121942957Y-82140059D01*
X121847473Y-82305443D01*
X121847470Y-82305450D01*
X121788459Y-82487067D01*
X121788457Y-82487078D01*
X121783547Y-82533781D01*
X121762276Y-82591258D01*
X121731138Y-82636366D01*
X121728920Y-82639381D01*
X121690223Y-82688776D01*
X121690223Y-82688777D01*
X121685962Y-82698243D01*
X121674947Y-82717774D01*
X121669048Y-82726320D01*
X121669044Y-82726328D01*
X121646794Y-82784995D01*
X121645361Y-82788454D01*
X121619610Y-82845670D01*
X121619609Y-82845673D01*
X121617737Y-82855889D01*
X121611715Y-82877494D01*
X121608035Y-82887198D01*
X121600470Y-82949490D01*
X121599907Y-82953191D01*
X121588598Y-83014903D01*
X121588598Y-83014908D01*
X121592387Y-83077544D01*
X121592500Y-83081289D01*
X121592500Y-84364168D01*
X121572815Y-84431207D01*
X121556181Y-84451849D01*
X121052849Y-84955181D01*
X120991526Y-84988666D01*
X120965168Y-84991500D01*
X120898500Y-84991500D01*
X120831461Y-84971815D01*
X120785706Y-84919011D01*
X120774500Y-84867500D01*
X120774500Y-84801362D01*
X120774499Y-84801345D01*
X120771157Y-84770270D01*
X120767989Y-84740799D01*
X120762018Y-84724791D01*
X120731808Y-84643795D01*
X120716889Y-84603796D01*
X120629261Y-84486739D01*
X120512204Y-84399111D01*
X120451521Y-84376477D01*
X120375203Y-84348011D01*
X120314654Y-84341500D01*
X120314638Y-84341500D01*
X119217362Y-84341500D01*
X119217345Y-84341500D01*
X119156797Y-84348011D01*
X119156795Y-84348011D01*
X119019795Y-84399111D01*
X118902739Y-84486739D01*
X118815111Y-84603795D01*
X118764011Y-84740795D01*
X118764011Y-84740797D01*
X118757500Y-84801345D01*
X118757500Y-86598654D01*
X118764011Y-86659202D01*
X118764011Y-86659204D01*
X118795150Y-86742688D01*
X118815111Y-86796204D01*
X118902739Y-86913261D01*
X119019796Y-87000889D01*
X119156799Y-87051989D01*
X119184050Y-87054918D01*
X119217345Y-87058499D01*
X119217362Y-87058500D01*
X120314638Y-87058500D01*
X120314654Y-87058499D01*
X120341692Y-87055591D01*
X120375201Y-87051989D01*
X120512204Y-87000889D01*
X120629261Y-86913261D01*
X120716889Y-86796204D01*
X120767989Y-86659201D01*
X120771591Y-86625692D01*
X120774499Y-86598654D01*
X120774500Y-86598637D01*
X120774500Y-86532500D01*
X120794185Y-86465461D01*
X120846989Y-86419706D01*
X120898500Y-86408500D01*
X121286710Y-86408500D01*
X121290455Y-86408613D01*
X121294612Y-86408864D01*
X121353093Y-86412402D01*
X121414818Y-86401090D01*
X121418514Y-86400527D01*
X121480801Y-86392965D01*
X121490499Y-86389286D01*
X121512116Y-86383260D01*
X121522329Y-86381389D01*
X121579577Y-86355622D01*
X121582978Y-86354213D01*
X121641675Y-86331954D01*
X121650213Y-86326060D01*
X121669764Y-86315033D01*
X121679226Y-86310775D01*
X121728640Y-86272060D01*
X121731615Y-86269870D01*
X121783273Y-86234215D01*
X121824916Y-86187208D01*
X121827435Y-86184533D01*
X122345820Y-85666149D01*
X122407142Y-85632665D01*
X122476834Y-85637649D01*
X122532767Y-85679521D01*
X122557184Y-85744985D01*
X122557500Y-85753831D01*
X122557500Y-86598654D01*
X122564011Y-86659202D01*
X122564011Y-86659204D01*
X122595150Y-86742688D01*
X122615111Y-86796204D01*
X122702739Y-86913261D01*
X122819796Y-87000889D01*
X122956799Y-87051989D01*
X122984050Y-87054918D01*
X123017345Y-87058499D01*
X123017362Y-87058500D01*
X124114638Y-87058500D01*
X124114654Y-87058499D01*
X124141692Y-87055591D01*
X124175201Y-87051989D01*
X124196620Y-87044000D01*
X126966500Y-87044000D01*
X127754000Y-87044000D01*
X127754000Y-85893000D01*
X126966501Y-85893000D01*
X126966501Y-85929654D01*
X126976819Y-86030652D01*
X127031046Y-86194300D01*
X127031051Y-86194311D01*
X127121552Y-86341034D01*
X127121555Y-86341038D01*
X127161336Y-86380820D01*
X127194821Y-86442143D01*
X127189835Y-86511835D01*
X127161336Y-86556180D01*
X127121555Y-86595961D01*
X127121552Y-86595965D01*
X127031051Y-86742688D01*
X127031046Y-86742699D01*
X126976819Y-86906347D01*
X126966500Y-87007345D01*
X126966500Y-87044000D01*
X124196620Y-87044000D01*
X124312204Y-87000889D01*
X124429261Y-86913261D01*
X124516889Y-86796204D01*
X124567989Y-86659201D01*
X124571591Y-86625692D01*
X124574499Y-86598654D01*
X124574500Y-86598637D01*
X124574500Y-85393000D01*
X126966500Y-85393000D01*
X127754000Y-85393000D01*
X127754000Y-84667999D01*
X127654860Y-84668000D01*
X127654844Y-84668001D01*
X127553847Y-84678319D01*
X127390199Y-84732546D01*
X127390188Y-84732551D01*
X127243465Y-84823052D01*
X127243461Y-84823055D01*
X127121555Y-84944961D01*
X127121552Y-84944965D01*
X127031051Y-85091688D01*
X127031046Y-85091699D01*
X126976819Y-85255347D01*
X126966500Y-85356345D01*
X126966500Y-85393000D01*
X124574500Y-85393000D01*
X124574500Y-84801362D01*
X124574499Y-84801353D01*
X124571727Y-84775573D01*
X124584130Y-84706813D01*
X124607332Y-84674636D01*
X125198533Y-84083435D01*
X125201208Y-84080916D01*
X125248215Y-84039273D01*
X125283870Y-83987615D01*
X125286067Y-83984631D01*
X125298183Y-83969167D01*
X125324775Y-83935226D01*
X125329029Y-83925772D01*
X125340064Y-83906207D01*
X125345952Y-83897678D01*
X125345952Y-83897677D01*
X125345954Y-83897675D01*
X125368211Y-83838983D01*
X125369631Y-83835554D01*
X125395388Y-83778329D01*
X125397258Y-83768120D01*
X125403284Y-83746505D01*
X125406965Y-83736801D01*
X125414529Y-83674498D01*
X125415093Y-83670799D01*
X125426401Y-83609093D01*
X125426225Y-83606191D01*
X125422613Y-83546465D01*
X125422500Y-83542721D01*
X125422500Y-81557278D01*
X125422613Y-81553534D01*
X125426401Y-81490907D01*
X125415092Y-81429196D01*
X125414529Y-81425496D01*
X125414366Y-81424151D01*
X125406965Y-81363199D01*
X125403286Y-81353498D01*
X125397258Y-81331877D01*
X125395388Y-81321671D01*
X125369641Y-81264465D01*
X125368209Y-81261008D01*
X125358151Y-81234488D01*
X125345954Y-81202325D01*
X125340670Y-81194671D01*
X125340063Y-81193791D01*
X125329031Y-81174231D01*
X125324776Y-81164777D01*
X125324775Y-81164774D01*
X125311133Y-81147362D01*
X125286078Y-81115381D01*
X125283867Y-81112377D01*
X125251510Y-81065500D01*
X125248216Y-81060728D01*
X125248210Y-81060722D01*
X125201245Y-81019115D01*
X125198533Y-81016563D01*
X124607335Y-80425365D01*
X124573850Y-80364042D01*
X124571727Y-80324428D01*
X124574500Y-80298638D01*
X124574500Y-78964500D01*
X124594185Y-78897461D01*
X124646989Y-78851706D01*
X124698500Y-78840500D01*
X125305054Y-78840500D01*
X125313151Y-78841030D01*
X125338527Y-78844371D01*
X125348999Y-78845750D01*
X125349000Y-78845750D01*
X125349001Y-78845750D01*
X125384846Y-78841031D01*
X125386961Y-78840752D01*
X125386974Y-78840751D01*
X125388881Y-78840500D01*
X125388885Y-78840500D01*
X125475650Y-78829077D01*
X125488457Y-78827391D01*
X125507851Y-78824838D01*
X125535805Y-78813259D01*
X125655876Y-78763524D01*
X125751072Y-78690477D01*
X125751073Y-78690475D01*
X125759164Y-78684267D01*
X125759166Y-78684264D01*
X125782987Y-78665987D01*
X125805010Y-78637286D01*
X125810340Y-78631208D01*
X126687202Y-77754345D01*
X126693293Y-77749003D01*
X126721987Y-77726987D01*
X126741318Y-77701792D01*
X126741325Y-77701786D01*
X126742335Y-77700469D01*
X126743573Y-77699563D01*
X126765290Y-77678083D01*
X126765298Y-77678077D01*
X126768008Y-77681691D01*
X126798730Y-77659222D01*
X126868473Y-77655013D01*
X126928450Y-77688198D01*
X127109456Y-77869204D01*
X127114797Y-77875294D01*
X127117254Y-77878496D01*
X127136813Y-77903987D01*
X127168726Y-77928475D01*
X127232944Y-77977751D01*
X127249463Y-77990426D01*
X127263926Y-78001524D01*
X127263928Y-78001524D01*
X127263930Y-78001526D01*
X127336007Y-78031381D01*
X127411951Y-78062838D01*
X127424559Y-78064497D01*
X127488453Y-78092761D01*
X127526926Y-78151084D01*
X127527760Y-78220948D01*
X127526305Y-78225753D01*
X127503459Y-78296066D01*
X127503459Y-78296068D01*
X127503458Y-78296072D01*
X127483496Y-78486000D01*
X127503458Y-78675928D01*
X127503459Y-78675931D01*
X127562470Y-78857549D01*
X127562473Y-78857556D01*
X127657960Y-79022944D01*
X127785747Y-79164866D01*
X127940248Y-79277118D01*
X128114712Y-79354794D01*
X128156283Y-79363630D01*
X128217761Y-79396820D01*
X128251539Y-79457982D01*
X128254500Y-79484919D01*
X128254500Y-79546500D01*
X128234815Y-79613539D01*
X128182011Y-79659294D01*
X128130500Y-79670500D01*
X127824748Y-79670500D01*
X127710676Y-79685519D01*
X127710675Y-79685519D01*
X127568733Y-79744313D01*
X127446843Y-79837843D01*
X127353313Y-79959733D01*
X127294519Y-80101675D01*
X127294519Y-80101676D01*
X127279500Y-80215748D01*
X127279500Y-80442237D01*
X127279501Y-80442254D01*
X127295373Y-80562815D01*
X127295373Y-80595185D01*
X127279501Y-80715745D01*
X127279500Y-80715762D01*
X127279500Y-80942237D01*
X127279501Y-80942254D01*
X127295373Y-81062815D01*
X127295373Y-81095185D01*
X127279501Y-81215745D01*
X127279500Y-81215762D01*
X127279500Y-81442237D01*
X127279501Y-81442254D01*
X127295373Y-81562815D01*
X127295373Y-81595185D01*
X127279501Y-81715745D01*
X127279500Y-81715762D01*
X127279500Y-81942237D01*
X127279501Y-81942254D01*
X127295373Y-82062815D01*
X127295373Y-82095185D01*
X127279501Y-82215745D01*
X127279500Y-82215762D01*
X127279500Y-82442237D01*
X127279501Y-82442254D01*
X127295373Y-82562815D01*
X127295373Y-82595185D01*
X127279501Y-82715745D01*
X127279500Y-82715762D01*
X127279500Y-82942251D01*
X127294519Y-83056323D01*
X127294519Y-83056324D01*
X127303941Y-83079072D01*
X127353314Y-83198268D01*
X127446843Y-83320157D01*
X127568732Y-83413686D01*
X127710676Y-83472481D01*
X127824756Y-83487500D01*
X128130500Y-83487500D01*
X128197539Y-83507185D01*
X128243294Y-83559989D01*
X128254500Y-83611500D01*
X128254500Y-83917251D01*
X128269519Y-84031323D01*
X128269519Y-84031324D01*
X128314999Y-84141124D01*
X128328314Y-84173268D01*
X128421843Y-84295157D01*
X128543732Y-84388686D01*
X128685676Y-84447481D01*
X128799756Y-84462500D01*
X128799763Y-84462500D01*
X129026237Y-84462500D01*
X129026244Y-84462500D01*
X129140324Y-84447481D01*
X129140330Y-84447478D01*
X129148176Y-84445377D01*
X129148963Y-84448316D01*
X129204023Y-84442381D01*
X129266512Y-84473638D01*
X129302181Y-84533716D01*
X129304980Y-84548225D01*
X129305787Y-84554352D01*
X129295026Y-84623387D01*
X129248649Y-84675646D01*
X129221853Y-84688250D01*
X129111582Y-84724790D01*
X129111571Y-84724795D01*
X128963157Y-84816339D01*
X128963152Y-84816343D01*
X128948168Y-84831327D01*
X128886844Y-84864811D01*
X128817153Y-84859825D01*
X128772808Y-84831325D01*
X128764538Y-84823055D01*
X128764534Y-84823052D01*
X128617811Y-84732551D01*
X128617800Y-84732546D01*
X128454152Y-84678319D01*
X128353154Y-84668000D01*
X128254000Y-84668000D01*
X128254000Y-88268999D01*
X128353140Y-88268999D01*
X128353154Y-88268998D01*
X128454152Y-88258680D01*
X128617800Y-88204453D01*
X128617811Y-88204448D01*
X128764534Y-88113947D01*
X128772801Y-88105680D01*
X128834122Y-88072191D01*
X128903814Y-88077170D01*
X128948170Y-88105674D01*
X128963153Y-88120657D01*
X128963157Y-88120660D01*
X129111571Y-88212204D01*
X129111574Y-88212205D01*
X129111580Y-88212209D01*
X129277119Y-88267062D01*
X129277118Y-88267062D01*
X129281392Y-88267498D01*
X129289728Y-88268350D01*
X129354421Y-88294743D01*
X129394574Y-88351922D01*
X129400450Y-88378741D01*
X129408458Y-88454928D01*
X129408459Y-88454930D01*
X129408459Y-88454932D01*
X129467470Y-88636549D01*
X129467473Y-88636556D01*
X129562960Y-88801944D01*
X129652934Y-88901870D01*
X129686655Y-88939322D01*
X129690747Y-88943866D01*
X129845248Y-89056118D01*
X130019712Y-89133794D01*
X130206513Y-89173500D01*
X130397487Y-89173500D01*
X130584288Y-89133794D01*
X130758752Y-89056118D01*
X130913253Y-88943866D01*
X131041040Y-88801944D01*
X131136527Y-88636556D01*
X131195542Y-88454928D01*
X131215504Y-88265000D01*
X131215019Y-88260387D01*
X131227588Y-88191659D01*
X131275320Y-88140635D01*
X131339567Y-88123433D01*
X131586737Y-88125880D01*
X131653577Y-88146227D01*
X131673189Y-88162193D01*
X131749653Y-88238657D01*
X131749657Y-88238660D01*
X131898071Y-88330204D01*
X131898074Y-88330205D01*
X131898080Y-88330209D01*
X132063619Y-88385062D01*
X132165787Y-88395500D01*
X132740212Y-88395499D01*
X132842381Y-88385062D01*
X133007920Y-88330209D01*
X133156346Y-88238658D01*
X133279658Y-88115346D01*
X133371209Y-87966920D01*
X133426062Y-87801381D01*
X133436500Y-87699213D01*
X133436499Y-86999788D01*
X133426062Y-86897619D01*
X133371209Y-86732080D01*
X133371205Y-86732074D01*
X133371204Y-86732071D01*
X133279660Y-86583657D01*
X133279657Y-86583653D01*
X133270685Y-86574681D01*
X133237200Y-86513358D01*
X133242184Y-86443666D01*
X133270685Y-86399319D01*
X133279658Y-86390346D01*
X133371209Y-86241920D01*
X133426062Y-86076381D01*
X133436500Y-85974213D01*
X133436499Y-85274788D01*
X133426062Y-85172619D01*
X133371209Y-85007080D01*
X133371205Y-85007074D01*
X133371204Y-85007071D01*
X133279660Y-84858657D01*
X133279657Y-84858653D01*
X133156346Y-84735342D01*
X133156342Y-84735339D01*
X133007928Y-84643795D01*
X133007922Y-84643792D01*
X133007920Y-84643791D01*
X133007917Y-84643790D01*
X132842382Y-84588938D01*
X132740214Y-84578500D01*
X132165794Y-84578500D01*
X132165778Y-84578501D01*
X132063616Y-84588938D01*
X131941583Y-84629375D01*
X131871755Y-84631776D01*
X131814899Y-84599350D01*
X131781513Y-84565964D01*
X131748028Y-84504641D01*
X131753012Y-84434949D01*
X131793706Y-84379908D01*
X131904157Y-84295157D01*
X131997686Y-84173268D01*
X132056481Y-84031324D01*
X132071500Y-83917244D01*
X132071500Y-83586862D01*
X132091185Y-83519823D01*
X132143989Y-83474068D01*
X132213147Y-83464124D01*
X132245721Y-83479000D01*
X132500683Y-83479000D01*
X132500697Y-83478999D01*
X132613104Y-83464199D01*
X132613108Y-83464198D01*
X132752978Y-83406263D01*
X132873094Y-83314094D01*
X132965263Y-83193978D01*
X133023198Y-83054108D01*
X133023199Y-83054103D01*
X133033088Y-82979000D01*
X133008719Y-82979000D01*
X132941680Y-82959315D01*
X132895925Y-82906511D01*
X132885981Y-82837353D01*
X132910342Y-82779515D01*
X132950246Y-82727511D01*
X133006674Y-82686310D01*
X133030285Y-82682195D01*
X133033087Y-82679000D01*
X133024781Y-82615911D01*
X133031521Y-82564750D01*
X133029377Y-82564176D01*
X133031478Y-82556330D01*
X133031481Y-82556324D01*
X133046500Y-82442244D01*
X133046500Y-82215756D01*
X133031481Y-82101676D01*
X133031480Y-82101674D01*
X133030626Y-82095186D01*
X133030626Y-82062814D01*
X133031480Y-82056325D01*
X133031481Y-82056324D01*
X133046500Y-81942244D01*
X133046500Y-81715756D01*
X133031481Y-81601676D01*
X133031480Y-81601674D01*
X133030626Y-81595186D01*
X133030626Y-81562814D01*
X133031480Y-81556325D01*
X133031481Y-81556324D01*
X133046500Y-81442244D01*
X133046500Y-81215756D01*
X133031481Y-81101676D01*
X133031480Y-81101674D01*
X133030626Y-81095186D01*
X133030626Y-81062814D01*
X133031480Y-81056325D01*
X133031481Y-81056324D01*
X133046500Y-80942244D01*
X133046500Y-80717410D01*
X133066185Y-80650371D01*
X133082819Y-80629729D01*
X133209800Y-80502748D01*
X133341702Y-80370845D01*
X133347793Y-80365503D01*
X133376487Y-80343487D01*
X133395818Y-80318292D01*
X133395824Y-80318287D01*
X133400976Y-80311572D01*
X133400978Y-80311571D01*
X133474024Y-80216376D01*
X133535338Y-80068351D01*
X133556251Y-79909500D01*
X133551530Y-79873644D01*
X133551000Y-79865546D01*
X133551000Y-78634917D01*
X133570685Y-78567878D01*
X133609900Y-78529380D01*
X133708346Y-78468658D01*
X133740185Y-78436819D01*
X133801508Y-78403334D01*
X133827866Y-78400500D01*
X133875706Y-78400500D01*
X133893676Y-78401809D01*
X133896174Y-78402174D01*
X133917789Y-78405341D01*
X133970426Y-78400735D01*
X133975828Y-78400500D01*
X133984175Y-78400500D01*
X133984180Y-78400500D01*
X134007835Y-78397734D01*
X134017096Y-78396652D01*
X134094419Y-78389888D01*
X134094422Y-78389887D01*
X134094426Y-78389887D01*
X134094429Y-78389885D01*
X134101493Y-78388427D01*
X134101502Y-78388474D01*
X134109097Y-78386790D01*
X134109087Y-78386744D01*
X134116107Y-78385079D01*
X134116113Y-78385079D01*
X134189065Y-78358526D01*
X134262738Y-78334114D01*
X134262746Y-78334108D01*
X134269284Y-78331061D01*
X134269305Y-78331106D01*
X134276302Y-78327719D01*
X134276280Y-78327675D01*
X134282729Y-78324436D01*
X134282728Y-78324436D01*
X134282732Y-78324435D01*
X134347605Y-78281766D01*
X134413651Y-78241030D01*
X134413655Y-78241025D01*
X134419319Y-78236548D01*
X134419350Y-78236587D01*
X134425374Y-78231680D01*
X134425342Y-78231642D01*
X134430864Y-78227007D01*
X134430874Y-78227001D01*
X134452823Y-78203735D01*
X134484163Y-78170518D01*
X134897862Y-77756819D01*
X134959185Y-77723334D01*
X134985543Y-77720500D01*
X137688206Y-77720500D01*
X137706176Y-77721809D01*
X137708674Y-77722174D01*
X137730289Y-77725341D01*
X137782926Y-77720735D01*
X137788328Y-77720500D01*
X137796675Y-77720500D01*
X137796680Y-77720500D01*
X137820335Y-77717734D01*
X137829596Y-77716652D01*
X137906919Y-77709888D01*
X137906922Y-77709887D01*
X137906926Y-77709887D01*
X137906929Y-77709885D01*
X137913993Y-77708427D01*
X137914002Y-77708474D01*
X137921597Y-77706790D01*
X137921587Y-77706744D01*
X137928607Y-77705079D01*
X137928613Y-77705079D01*
X138001565Y-77678526D01*
X138075238Y-77654114D01*
X138075246Y-77654108D01*
X138081784Y-77651061D01*
X138081805Y-77651106D01*
X138088802Y-77647719D01*
X138088780Y-77647675D01*
X138095229Y-77644436D01*
X138095228Y-77644436D01*
X138095232Y-77644435D01*
X138160105Y-77601766D01*
X138226151Y-77561030D01*
X138226155Y-77561025D01*
X138231819Y-77556548D01*
X138231850Y-77556587D01*
X138237874Y-77551680D01*
X138237842Y-77551642D01*
X138243364Y-77547007D01*
X138243374Y-77547001D01*
X138265323Y-77523735D01*
X138296663Y-77490518D01*
X139329362Y-76457818D01*
X139390685Y-76424333D01*
X139417043Y-76421499D01*
X139626205Y-76421499D01*
X139626212Y-76421499D01*
X139728381Y-76411062D01*
X139893920Y-76356209D01*
X140042346Y-76264658D01*
X140165658Y-76141346D01*
X140170147Y-76134067D01*
X140207545Y-76095563D01*
X140234605Y-76077766D01*
X140300651Y-76037030D01*
X140300656Y-76037024D01*
X140306319Y-76032548D01*
X140306350Y-76032587D01*
X140312374Y-76027680D01*
X140312342Y-76027642D01*
X140317864Y-76023007D01*
X140317874Y-76023001D01*
X140339823Y-75999735D01*
X140371163Y-75966518D01*
X141085856Y-75251824D01*
X141358880Y-74978799D01*
X141372506Y-74967023D01*
X141392058Y-74952469D01*
X141392060Y-74952467D01*
X141426015Y-74912000D01*
X141429675Y-74908005D01*
X141435580Y-74902101D01*
X141456136Y-74876103D01*
X141506032Y-74816640D01*
X141506033Y-74816639D01*
X141510003Y-74810603D01*
X141510044Y-74810630D01*
X141514219Y-74804076D01*
X141514177Y-74804050D01*
X141517963Y-74797910D01*
X141517967Y-74797906D01*
X141550775Y-74727546D01*
X141585609Y-74658188D01*
X141585611Y-74658179D01*
X141588080Y-74651399D01*
X141588126Y-74651416D01*
X141590678Y-74644075D01*
X141590631Y-74644060D01*
X141592901Y-74637210D01*
X141593382Y-74634882D01*
X141608600Y-74561177D01*
X141626500Y-74485656D01*
X141626500Y-74485654D01*
X141626501Y-74485650D01*
X141627339Y-74478483D01*
X141627386Y-74478488D01*
X141628176Y-74470757D01*
X141628129Y-74470753D01*
X141628757Y-74463563D01*
X141628756Y-74463562D01*
X141628758Y-74463558D01*
X141627435Y-74418106D01*
X141645161Y-74350524D01*
X141696612Y-74303252D01*
X141751383Y-74290500D01*
X141816638Y-74290500D01*
X141816654Y-74290499D01*
X141843692Y-74287591D01*
X141877201Y-74283989D01*
X142014204Y-74232889D01*
X142131261Y-74145261D01*
X142218889Y-74028204D01*
X142269935Y-73891346D01*
X142269988Y-73891204D01*
X142269988Y-73891203D01*
X142269989Y-73891201D01*
X142273591Y-73857692D01*
X142276499Y-73830654D01*
X142276500Y-73830637D01*
X142276500Y-72333362D01*
X142276499Y-72333345D01*
X142271769Y-72289358D01*
X142269989Y-72272799D01*
X142266467Y-72263357D01*
X142225768Y-72154240D01*
X142218889Y-72135796D01*
X142131261Y-72018739D01*
X142131259Y-72018738D01*
X142131259Y-72018737D01*
X142081204Y-71981267D01*
X142039332Y-71925334D01*
X142034348Y-71855642D01*
X142067833Y-71794319D01*
X142081204Y-71782733D01*
X142131261Y-71745261D01*
X142218889Y-71628204D01*
X142269989Y-71491201D01*
X142273591Y-71457692D01*
X142276499Y-71430654D01*
X142276500Y-71430637D01*
X142276500Y-69933362D01*
X142276499Y-69933345D01*
X142272142Y-69892827D01*
X142269989Y-69872799D01*
X142268502Y-69868813D01*
X142241320Y-69795936D01*
X142218889Y-69735796D01*
X142131261Y-69618739D01*
X142014204Y-69531111D01*
X141877203Y-69480011D01*
X141816654Y-69473500D01*
X141816638Y-69473500D01*
X141750500Y-69473500D01*
X141683461Y-69453815D01*
X141637706Y-69401011D01*
X141626500Y-69349500D01*
X141626500Y-69304293D01*
X141627809Y-69286322D01*
X141627831Y-69286171D01*
X141631341Y-69262211D01*
X141630167Y-69248796D01*
X141626736Y-69209578D01*
X141626500Y-69204171D01*
X141626500Y-69195824D01*
X141626499Y-69195813D01*
X141622652Y-69162904D01*
X141619926Y-69131739D01*
X141615887Y-69085573D01*
X141615885Y-69085568D01*
X141614427Y-69078504D01*
X141614475Y-69078493D01*
X141612794Y-69070909D01*
X141612746Y-69070921D01*
X141611079Y-69063893D01*
X141611079Y-69063887D01*
X141584528Y-68990938D01*
X141560114Y-68917262D01*
X141560111Y-68917258D01*
X141557061Y-68910715D01*
X141557105Y-68910694D01*
X141553717Y-68903695D01*
X141553674Y-68903717D01*
X141550436Y-68897269D01*
X141507766Y-68832394D01*
X141467030Y-68766349D01*
X141462553Y-68760687D01*
X141462590Y-68760656D01*
X141457681Y-68754629D01*
X141457645Y-68754660D01*
X141453005Y-68749131D01*
X141453003Y-68749129D01*
X141453001Y-68749126D01*
X141421891Y-68719775D01*
X141396517Y-68695835D01*
X141386534Y-68685852D01*
X141353049Y-68624529D01*
X141358033Y-68554837D01*
X141399905Y-68498904D01*
X141465369Y-68474487D01*
X141533642Y-68489339D01*
X141539305Y-68492628D01*
X141558080Y-68504209D01*
X141723619Y-68559062D01*
X141825787Y-68569500D01*
X142400212Y-68569499D01*
X142502381Y-68559062D01*
X142667920Y-68504209D01*
X142816346Y-68412658D01*
X142898185Y-68330819D01*
X142959508Y-68297334D01*
X142985866Y-68294500D01*
X143981706Y-68294500D01*
X143999676Y-68295809D01*
X144002174Y-68296174D01*
X144023789Y-68299341D01*
X144076426Y-68294735D01*
X144081828Y-68294500D01*
X144090175Y-68294500D01*
X144090180Y-68294500D01*
X144113835Y-68291734D01*
X144123096Y-68290652D01*
X144200419Y-68283888D01*
X144200422Y-68283887D01*
X144200426Y-68283887D01*
X144200429Y-68283885D01*
X144207493Y-68282427D01*
X144207502Y-68282474D01*
X144215097Y-68280790D01*
X144215087Y-68280744D01*
X144222107Y-68279079D01*
X144222113Y-68279079D01*
X144295065Y-68252526D01*
X144368738Y-68228114D01*
X144368746Y-68228108D01*
X144375284Y-68225061D01*
X144375305Y-68225106D01*
X144382302Y-68221719D01*
X144382280Y-68221675D01*
X144388729Y-68218436D01*
X144388728Y-68218436D01*
X144388732Y-68218435D01*
X144453605Y-68175766D01*
X144519651Y-68135030D01*
X144519655Y-68135025D01*
X144525319Y-68130548D01*
X144525350Y-68130587D01*
X144531374Y-68125680D01*
X144531342Y-68125642D01*
X144536864Y-68121007D01*
X144536874Y-68121001D01*
X144563217Y-68093079D01*
X144590163Y-68064518D01*
X146349819Y-66304861D01*
X146411142Y-66271376D01*
X146480834Y-66276360D01*
X146536767Y-66318232D01*
X146561184Y-66383696D01*
X146561500Y-66392542D01*
X146561500Y-71951391D01*
X146541815Y-72018430D01*
X146510387Y-72051708D01*
X146454746Y-72092134D01*
X146326959Y-72234057D01*
X146231473Y-72399443D01*
X146231470Y-72399450D01*
X146188051Y-72533082D01*
X146172458Y-72581072D01*
X146152496Y-72771000D01*
X146172458Y-72960928D01*
X146172459Y-72960931D01*
X146231470Y-73142549D01*
X146231473Y-73142556D01*
X146326960Y-73307944D01*
X146411959Y-73402345D01*
X146449660Y-73444217D01*
X146454747Y-73449866D01*
X146609248Y-73562118D01*
X146783712Y-73639794D01*
X146970513Y-73679500D01*
X147161487Y-73679500D01*
X147348288Y-73639794D01*
X147522752Y-73562118D01*
X147677253Y-73449866D01*
X147805040Y-73307944D01*
X147900527Y-73142556D01*
X147959542Y-72960928D01*
X147960176Y-72954891D01*
X147971113Y-72915447D01*
X148002773Y-72847552D01*
X148037609Y-72778188D01*
X148037610Y-72778180D01*
X148040079Y-72771400D01*
X148040126Y-72771417D01*
X148042678Y-72764075D01*
X148042631Y-72764060D01*
X148044900Y-72757211D01*
X148044900Y-72757209D01*
X148044902Y-72757206D01*
X148060599Y-72681181D01*
X148078500Y-72605656D01*
X148078500Y-72605654D01*
X148078501Y-72605650D01*
X148079339Y-72598483D01*
X148079386Y-72598488D01*
X148080176Y-72590757D01*
X148080129Y-72590753D01*
X148080758Y-72583562D01*
X148080685Y-72581068D01*
X148078500Y-72505954D01*
X148078500Y-71697135D01*
X148626816Y-71697135D01*
X148636630Y-71928172D01*
X148636630Y-71928178D01*
X148685351Y-72154240D01*
X148763813Y-72349500D01*
X148771574Y-72368813D01*
X148790438Y-72399450D01*
X148892820Y-72565729D01*
X148908515Y-72583562D01*
X149045602Y-72739324D01*
X149045605Y-72739327D01*
X149225517Y-72884595D01*
X149225523Y-72884600D01*
X149392844Y-72978071D01*
X149427409Y-72997380D01*
X149645450Y-73074419D01*
X149645456Y-73074420D01*
X149873365Y-73113499D01*
X149873373Y-73113499D01*
X149873375Y-73113500D01*
X149873376Y-73113500D01*
X150296719Y-73113500D01*
X150469413Y-73098802D01*
X150469416Y-73098801D01*
X150469418Y-73098801D01*
X150693207Y-73040530D01*
X150693208Y-73040529D01*
X150693210Y-73040529D01*
X150903919Y-72945283D01*
X150903922Y-72945280D01*
X150903929Y-72945278D01*
X151095523Y-72815783D01*
X151262476Y-72655772D01*
X151399985Y-72469847D01*
X151504095Y-72263357D01*
X151571811Y-72042243D01*
X151601184Y-71812865D01*
X151591369Y-71581822D01*
X151542649Y-71355762D01*
X151517563Y-71293334D01*
X151456427Y-71141190D01*
X151456426Y-71141187D01*
X151335179Y-70944270D01*
X151182398Y-70770676D01*
X151182396Y-70770674D01*
X151182394Y-70770672D01*
X151002482Y-70625404D01*
X151002476Y-70625400D01*
X150978431Y-70611967D01*
X150929506Y-70562086D01*
X150915314Y-70493673D01*
X150940363Y-70428448D01*
X150969466Y-70400982D01*
X151095523Y-70315783D01*
X151262476Y-70155772D01*
X151399985Y-69969847D01*
X151504095Y-69763357D01*
X151571811Y-69542243D01*
X151601184Y-69312865D01*
X151600056Y-69286322D01*
X151595667Y-69183004D01*
X151591369Y-69081822D01*
X151591155Y-69080831D01*
X151558059Y-68927264D01*
X151542649Y-68855762D01*
X151456426Y-68641187D01*
X151335179Y-68444270D01*
X151182398Y-68270676D01*
X151152775Y-68246757D01*
X151112984Y-68189329D01*
X151110557Y-68119501D01*
X151146267Y-68059447D01*
X151165571Y-68044750D01*
X151312652Y-67954030D01*
X151438030Y-67828652D01*
X151531115Y-67677738D01*
X151586887Y-67509426D01*
X151597500Y-67405545D01*
X151597499Y-66104456D01*
X151586887Y-66000574D01*
X151531115Y-65832262D01*
X151438030Y-65681348D01*
X151312652Y-65555970D01*
X151210262Y-65492815D01*
X151161740Y-65462886D01*
X151161735Y-65462884D01*
X150993427Y-65407113D01*
X150889545Y-65396500D01*
X149338462Y-65396500D01*
X149338446Y-65396501D01*
X149234572Y-65407113D01*
X149066264Y-65462884D01*
X149066259Y-65462886D01*
X148915346Y-65555971D01*
X148789971Y-65681346D01*
X148696886Y-65832259D01*
X148696884Y-65832264D01*
X148641113Y-66000572D01*
X148630500Y-66104447D01*
X148630500Y-67405537D01*
X148630501Y-67405553D01*
X148641113Y-67509427D01*
X148696884Y-67677735D01*
X148696886Y-67677740D01*
X148732142Y-67734898D01*
X148787386Y-67824463D01*
X148789971Y-67828653D01*
X148915347Y-67954029D01*
X148915351Y-67954032D01*
X149063506Y-68045416D01*
X149110231Y-68097364D01*
X149121452Y-68166326D01*
X149093609Y-68230408D01*
X149084210Y-68240476D01*
X148965529Y-68354223D01*
X148965524Y-68354228D01*
X148872800Y-68479600D01*
X148828013Y-68540155D01*
X148723905Y-68746641D01*
X148656188Y-68967759D01*
X148626816Y-69197135D01*
X148636630Y-69428172D01*
X148636630Y-69428178D01*
X148685351Y-69654240D01*
X148771572Y-69868809D01*
X148771574Y-69868813D01*
X148823028Y-69952379D01*
X148892820Y-70065729D01*
X148911623Y-70087093D01*
X149045602Y-70239324D01*
X149045605Y-70239327D01*
X149225517Y-70384595D01*
X149225521Y-70384598D01*
X149225524Y-70384600D01*
X149249565Y-70398030D01*
X149298491Y-70447908D01*
X149312685Y-70516320D01*
X149287639Y-70581547D01*
X149258530Y-70609019D01*
X149132482Y-70694213D01*
X149132477Y-70694217D01*
X148965528Y-70854223D01*
X148965525Y-70854227D01*
X148965524Y-70854228D01*
X148956818Y-70866000D01*
X148828013Y-71040155D01*
X148723905Y-71246641D01*
X148656188Y-71467759D01*
X148626816Y-71697135D01*
X148078500Y-71697135D01*
X148078500Y-63945293D01*
X148079809Y-63927322D01*
X148083341Y-63903211D01*
X148081568Y-63882951D01*
X148078736Y-63850578D01*
X148078500Y-63845171D01*
X148078500Y-63836824D01*
X148078499Y-63836813D01*
X148074652Y-63803904D01*
X148067887Y-63726576D01*
X148067887Y-63726573D01*
X148067885Y-63726568D01*
X148066427Y-63719504D01*
X148066475Y-63719493D01*
X148064794Y-63711909D01*
X148064746Y-63711921D01*
X148063079Y-63704893D01*
X148063079Y-63704887D01*
X148036530Y-63631944D01*
X148012114Y-63558261D01*
X148012112Y-63558257D01*
X148009060Y-63551712D01*
X148009104Y-63551691D01*
X148005717Y-63544694D01*
X148005673Y-63544717D01*
X148002434Y-63538267D01*
X147974171Y-63495295D01*
X147959762Y-63473386D01*
X147919029Y-63407349D01*
X147919028Y-63407348D01*
X147914551Y-63401685D01*
X147914589Y-63401654D01*
X147909680Y-63395629D01*
X147909644Y-63395660D01*
X147905004Y-63390130D01*
X147905001Y-63390126D01*
X147875953Y-63362720D01*
X147840701Y-63302399D01*
X147837729Y-63259572D01*
X147852504Y-63119000D01*
X147832542Y-62929072D01*
X147773527Y-62747444D01*
X147678040Y-62582056D01*
X147550253Y-62440134D01*
X147545905Y-62435305D01*
X147547237Y-62434105D01*
X147515177Y-62382059D01*
X147516510Y-62312202D01*
X147555400Y-62254155D01*
X147619498Y-62226349D01*
X147620182Y-62226265D01*
X147645273Y-62223332D01*
X147651097Y-62222652D01*
X147728419Y-62215888D01*
X147728422Y-62215887D01*
X147728426Y-62215887D01*
X147728429Y-62215885D01*
X147735493Y-62214427D01*
X147735502Y-62214474D01*
X147743097Y-62212790D01*
X147743087Y-62212744D01*
X147750109Y-62211079D01*
X147750113Y-62211079D01*
X147819005Y-62186003D01*
X147888730Y-62181571D01*
X147925561Y-62196407D01*
X147963996Y-62219642D01*
X148262797Y-62354121D01*
X148262810Y-62354125D01*
X148262815Y-62354127D01*
X148403610Y-62398000D01*
X148575629Y-62451603D01*
X148897930Y-62510667D01*
X149225000Y-62530451D01*
X149552070Y-62510667D01*
X149874371Y-62451603D01*
X150187203Y-62354121D01*
X150486004Y-62219642D01*
X150766416Y-62050126D01*
X151024351Y-61848047D01*
X151256047Y-61616351D01*
X151458126Y-61358416D01*
X151627642Y-61078004D01*
X151762121Y-60779203D01*
X151859603Y-60466371D01*
X151918667Y-60144070D01*
X151938451Y-59817000D01*
X151918667Y-59489930D01*
X151859603Y-59167629D01*
X151778427Y-58907125D01*
X151762127Y-58854815D01*
X151762125Y-58854810D01*
X151762121Y-58854797D01*
X151627642Y-58555996D01*
X151458126Y-58275584D01*
X151310610Y-58087293D01*
X151256044Y-58017645D01*
X151024354Y-57785955D01*
X150766415Y-57583873D01*
X150486004Y-57414358D01*
X150187203Y-57279879D01*
X150187196Y-57279876D01*
X150187184Y-57279872D01*
X149874379Y-57182399D01*
X149874375Y-57182398D01*
X149874371Y-57182397D01*
X149552070Y-57123333D01*
X149552069Y-57123332D01*
X149552064Y-57123332D01*
X149225000Y-57103549D01*
X148897935Y-57123332D01*
X148897930Y-57123333D01*
X148575629Y-57182397D01*
X148575626Y-57182397D01*
X148575620Y-57182399D01*
X148262815Y-57279872D01*
X148262799Y-57279878D01*
X148262797Y-57279879D01*
X148132043Y-57338726D01*
X147963995Y-57414358D01*
X147683584Y-57583873D01*
X147425645Y-57785955D01*
X147193955Y-58017645D01*
X146991873Y-58275584D01*
X146822358Y-58555995D01*
X146687878Y-58854800D01*
X146687872Y-58854815D01*
X146590399Y-59167620D01*
X146590397Y-59167626D01*
X146590397Y-59167629D01*
X146561104Y-59327474D01*
X146531332Y-59489935D01*
X146511549Y-59817000D01*
X146531332Y-60144064D01*
X146531332Y-60144069D01*
X146531333Y-60144070D01*
X146590397Y-60466371D01*
X146615531Y-60547030D01*
X146616024Y-60548610D01*
X146617174Y-60618470D01*
X146580373Y-60677863D01*
X146517304Y-60707931D01*
X146497638Y-60709500D01*
X146368294Y-60709500D01*
X146350324Y-60708191D01*
X146326206Y-60704658D01*
X146280651Y-60708645D01*
X146273573Y-60709264D01*
X146268172Y-60709500D01*
X142846543Y-60709500D01*
X142779504Y-60689815D01*
X142733749Y-60637011D01*
X142723805Y-60567853D01*
X142752830Y-60504297D01*
X142758862Y-60497819D01*
X143012627Y-60244053D01*
X143115721Y-60140958D01*
X143177040Y-60107475D01*
X143234238Y-60095149D01*
X143448813Y-60008926D01*
X143645730Y-59887679D01*
X143819324Y-59734898D01*
X143964600Y-59554976D01*
X144077380Y-59353091D01*
X144154419Y-59135050D01*
X144192385Y-58913629D01*
X144193499Y-58907134D01*
X144193500Y-58907123D01*
X144193500Y-58483781D01*
X144178802Y-58311086D01*
X144177867Y-58307497D01*
X144120530Y-58087293D01*
X144120529Y-58087289D01*
X144025283Y-57876580D01*
X144025276Y-57876568D01*
X143895790Y-57684986D01*
X143895786Y-57684981D01*
X143895783Y-57684977D01*
X143735772Y-57518024D01*
X143549847Y-57380515D01*
X143549846Y-57380514D01*
X143549844Y-57380513D01*
X143343358Y-57276405D01*
X143158135Y-57219681D01*
X143122243Y-57208689D01*
X143122241Y-57208688D01*
X143122242Y-57208688D01*
X142892859Y-57179315D01*
X142661827Y-57189130D01*
X142661821Y-57189130D01*
X142435759Y-57237851D01*
X142221190Y-57324072D01*
X142024270Y-57445320D01*
X141850679Y-57598099D01*
X141850672Y-57598105D01*
X141705404Y-57778017D01*
X141705397Y-57778027D01*
X141691968Y-57802067D01*
X141642089Y-57850993D01*
X141573675Y-57865185D01*
X141508450Y-57840137D01*
X141480980Y-57811029D01*
X141395790Y-57684987D01*
X141395788Y-57684985D01*
X141395783Y-57684977D01*
X141235772Y-57518024D01*
X141049847Y-57380515D01*
X141049846Y-57380514D01*
X141049844Y-57380513D01*
X140843358Y-57276405D01*
X140658135Y-57219681D01*
X140622243Y-57208689D01*
X140622241Y-57208688D01*
X140622242Y-57208688D01*
X140392859Y-57179315D01*
X140161827Y-57189130D01*
X140161821Y-57189130D01*
X139935759Y-57237851D01*
X139721190Y-57324072D01*
X139524270Y-57445320D01*
X139350679Y-57598099D01*
X139350674Y-57598104D01*
X139326757Y-57627724D01*
X139269326Y-57667515D01*
X139199498Y-57669940D01*
X139139444Y-57634228D01*
X139124747Y-57614923D01*
X139034030Y-57467848D01*
X138908652Y-57342470D01*
X138757738Y-57249385D01*
X138668096Y-57219681D01*
X138589427Y-57193613D01*
X138485545Y-57183000D01*
X137184462Y-57183000D01*
X137184446Y-57183001D01*
X137080572Y-57193613D01*
X136912264Y-57249384D01*
X136912259Y-57249386D01*
X136761346Y-57342471D01*
X136635971Y-57467846D01*
X136542886Y-57618759D01*
X136542884Y-57618764D01*
X136487113Y-57787072D01*
X136476500Y-57890947D01*
X136476500Y-59442037D01*
X136476501Y-59442053D01*
X136487113Y-59545927D01*
X136542884Y-59714235D01*
X136542889Y-59714246D01*
X136570126Y-59758403D01*
X136588567Y-59825795D01*
X136567645Y-59892459D01*
X136514003Y-59937228D01*
X136464588Y-59947500D01*
X136128543Y-59947500D01*
X136061504Y-59927815D01*
X136040862Y-59911181D01*
X133110862Y-56981181D01*
X133077377Y-56919858D01*
X133082361Y-56850166D01*
X133124233Y-56794233D01*
X133189697Y-56769816D01*
X133198543Y-56769500D01*
X151722957Y-56769500D01*
X151736769Y-56773555D01*
X151756275Y-56770757D01*
X151769513Y-56769812D01*
X151775737Y-56768969D01*
X151813231Y-56767124D01*
X151927122Y-56762696D01*
X151948772Y-56763751D01*
G37*
%TD.AperFunction*%
%TA.AperFunction,Conductor*%
G36*
X103790628Y-72016185D02*
G01*
X103811270Y-72032819D01*
X104694655Y-72916204D01*
X104699996Y-72922294D01*
X104703236Y-72926516D01*
X104722012Y-72950987D01*
X104753921Y-72975472D01*
X104753925Y-72975474D01*
X104753928Y-72975477D01*
X104797965Y-73009268D01*
X104849122Y-73048523D01*
X104849123Y-73048523D01*
X104849124Y-73048524D01*
X104936364Y-73084660D01*
X104981056Y-73116245D01*
X105052747Y-73195866D01*
X105107580Y-73235705D01*
X105145760Y-73263444D01*
X105188426Y-73318774D01*
X105194405Y-73388387D01*
X105161799Y-73450182D01*
X105160557Y-73451443D01*
X105136000Y-73476000D01*
X105136000Y-75875999D01*
X105285972Y-75875999D01*
X105285986Y-75875998D01*
X105388697Y-75865505D01*
X105555119Y-75810358D01*
X105555130Y-75810353D01*
X105706102Y-75717232D01*
X105773494Y-75698791D01*
X105836263Y-75718490D01*
X105836622Y-75717870D01*
X105839404Y-75719476D01*
X105840158Y-75719713D01*
X105841809Y-75720865D01*
X105842247Y-75721118D01*
X105920756Y-75756072D01*
X106008071Y-75794947D01*
X106009579Y-75795618D01*
X106046825Y-75821217D01*
X106089181Y-75863573D01*
X106122666Y-75924896D01*
X106125500Y-75951254D01*
X106125500Y-78626052D01*
X106105815Y-78693091D01*
X106093650Y-78709024D01*
X106067959Y-78737556D01*
X105972473Y-78902943D01*
X105972471Y-78902947D01*
X105950799Y-78969648D01*
X105911361Y-79027323D01*
X105847002Y-79054521D01*
X105778156Y-79042606D01*
X105726680Y-78995362D01*
X105715162Y-78970332D01*
X105690570Y-78896118D01*
X105663115Y-78813262D01*
X105570030Y-78662348D01*
X105481363Y-78573681D01*
X105447878Y-78512358D01*
X105452862Y-78442666D01*
X105481363Y-78398319D01*
X105521156Y-78358526D01*
X105570030Y-78309652D01*
X105663115Y-78158738D01*
X105718887Y-77990426D01*
X105729500Y-77886545D01*
X105729499Y-77085456D01*
X105718887Y-76981574D01*
X105663115Y-76813262D01*
X105570030Y-76662348D01*
X105444652Y-76536970D01*
X105316327Y-76457818D01*
X105293740Y-76443886D01*
X105293735Y-76443884D01*
X105125427Y-76388113D01*
X105021546Y-76377500D01*
X104020462Y-76377500D01*
X104020446Y-76377501D01*
X103916572Y-76388113D01*
X103748264Y-76443884D01*
X103748259Y-76443886D01*
X103597346Y-76536971D01*
X103471971Y-76662346D01*
X103378886Y-76813259D01*
X103378884Y-76813264D01*
X103323113Y-76981572D01*
X103312500Y-77085447D01*
X103312500Y-77886537D01*
X103312501Y-77886553D01*
X103323113Y-77990427D01*
X103378884Y-78158735D01*
X103378886Y-78158740D01*
X103399472Y-78192115D01*
X103470144Y-78306692D01*
X103471971Y-78309653D01*
X103560637Y-78398319D01*
X103594122Y-78459642D01*
X103589138Y-78529334D01*
X103560637Y-78573681D01*
X103471971Y-78662346D01*
X103378886Y-78813259D01*
X103378884Y-78813264D01*
X103323113Y-78981572D01*
X103312500Y-79085447D01*
X103312500Y-79886537D01*
X103312501Y-79886553D01*
X103323113Y-79990427D01*
X103378884Y-80158735D01*
X103378886Y-80158740D01*
X103404994Y-80201068D01*
X103471970Y-80309652D01*
X103597348Y-80435030D01*
X103748262Y-80528115D01*
X103748264Y-80528115D01*
X103753597Y-80531405D01*
X103800321Y-80583353D01*
X103812500Y-80636944D01*
X103812500Y-80861709D01*
X103812387Y-80865454D01*
X103810503Y-80896608D01*
X103808598Y-80928093D01*
X103814532Y-80960476D01*
X103819907Y-80989810D01*
X103820470Y-80993511D01*
X103828034Y-81055796D01*
X103828035Y-81055801D01*
X103831716Y-81065510D01*
X103837738Y-81087110D01*
X103839611Y-81097331D01*
X103865365Y-81154555D01*
X103866798Y-81158015D01*
X103889044Y-81216672D01*
X103889046Y-81216675D01*
X103894941Y-81225216D01*
X103905966Y-81244763D01*
X103910225Y-81254227D01*
X103948916Y-81303611D01*
X103951136Y-81306628D01*
X103961517Y-81321667D01*
X103986785Y-81358273D01*
X103986786Y-81358274D01*
X103987549Y-81359379D01*
X104009433Y-81425733D01*
X104009500Y-81429821D01*
X104009500Y-81694204D01*
X104009501Y-81694221D01*
X104019938Y-81796382D01*
X104074790Y-81961917D01*
X104074795Y-81961928D01*
X104166339Y-82110342D01*
X104166342Y-82110346D01*
X104198955Y-82142959D01*
X104232440Y-82204282D01*
X104227456Y-82273974D01*
X104214378Y-82299528D01*
X104188897Y-82337663D01*
X104120413Y-82502999D01*
X104120411Y-82503007D01*
X104103842Y-82586305D01*
X104071457Y-82648216D01*
X104010741Y-82682790D01*
X103940972Y-82679051D01*
X103894544Y-82649795D01*
X102337554Y-81092805D01*
X102332201Y-81086702D01*
X102324016Y-81076035D01*
X102310187Y-81058013D01*
X102310185Y-81058011D01*
X102310184Y-81058010D01*
X102278275Y-81033526D01*
X102278274Y-81033525D01*
X102278272Y-81033523D01*
X102226128Y-80993511D01*
X102183077Y-80960476D01*
X102183073Y-80960474D01*
X102035050Y-80899161D01*
X102015657Y-80896608D01*
X101913904Y-80883212D01*
X101913878Y-80883210D01*
X101876201Y-80878250D01*
X101876199Y-80878250D01*
X101865727Y-80879628D01*
X101840351Y-80882969D01*
X101832254Y-80883500D01*
X100447543Y-80883500D01*
X100380504Y-80863815D01*
X100334749Y-80811011D01*
X100324805Y-80741853D01*
X100353830Y-80678297D01*
X100359862Y-80671819D01*
X100601140Y-80430541D01*
X101328880Y-79702799D01*
X101342506Y-79691023D01*
X101362058Y-79676469D01*
X101362060Y-79676467D01*
X101396015Y-79636000D01*
X101399675Y-79632005D01*
X101405581Y-79626100D01*
X101426135Y-79600104D01*
X101476032Y-79540640D01*
X101476033Y-79540637D01*
X101480004Y-79534601D01*
X101480045Y-79534628D01*
X101484219Y-79528076D01*
X101484176Y-79528050D01*
X101487962Y-79521911D01*
X101487967Y-79521905D01*
X101520775Y-79451547D01*
X101555609Y-79382188D01*
X101555610Y-79382182D01*
X101558077Y-79375405D01*
X101558124Y-79375422D01*
X101560675Y-79368083D01*
X101560629Y-79368068D01*
X101562900Y-79361210D01*
X101562903Y-79361206D01*
X101578607Y-79285149D01*
X101596500Y-79209656D01*
X101596500Y-79209653D01*
X101597339Y-79202483D01*
X101597386Y-79202488D01*
X101598177Y-79194757D01*
X101598130Y-79194753D01*
X101598759Y-79187562D01*
X101598202Y-79168435D01*
X101596500Y-79109920D01*
X101596500Y-76264294D01*
X101597809Y-76246324D01*
X101601341Y-76222208D01*
X101596736Y-76169579D01*
X101596500Y-76164172D01*
X101596500Y-76155824D01*
X101596499Y-76155813D01*
X101592652Y-76122903D01*
X101589652Y-76088611D01*
X101585887Y-76045574D01*
X101585885Y-76045570D01*
X101584427Y-76038503D01*
X101584473Y-76038493D01*
X101582790Y-76030902D01*
X101582744Y-76030914D01*
X101581080Y-76023895D01*
X101581079Y-76023887D01*
X101554526Y-75950934D01*
X101530114Y-75877262D01*
X101530113Y-75877260D01*
X101527061Y-75870715D01*
X101527105Y-75870694D01*
X101523717Y-75863695D01*
X101523674Y-75863717D01*
X101520436Y-75857269D01*
X101477766Y-75792394D01*
X101437030Y-75726349D01*
X101432553Y-75720687D01*
X101432590Y-75720656D01*
X101427681Y-75714629D01*
X101427645Y-75714660D01*
X101423005Y-75709131D01*
X101423003Y-75709129D01*
X101423001Y-75709126D01*
X101391891Y-75679775D01*
X101366517Y-75655835D01*
X101306863Y-75596181D01*
X101273378Y-75534858D01*
X101278362Y-75465166D01*
X101320234Y-75409233D01*
X101385698Y-75384816D01*
X101394544Y-75384500D01*
X101735056Y-75384500D01*
X101802095Y-75404185D01*
X101840595Y-75443403D01*
X101843884Y-75448735D01*
X101843885Y-75448738D01*
X101936970Y-75599652D01*
X102062348Y-75725030D01*
X102213262Y-75818115D01*
X102381574Y-75873887D01*
X102485455Y-75884500D01*
X103286544Y-75884499D01*
X103390426Y-75873887D01*
X103558738Y-75818115D01*
X103709652Y-75725030D01*
X103804332Y-75630349D01*
X103865651Y-75596867D01*
X103935343Y-75601851D01*
X103979691Y-75630352D01*
X104067654Y-75718315D01*
X104216875Y-75810356D01*
X104216880Y-75810358D01*
X104383302Y-75865505D01*
X104383309Y-75865506D01*
X104486019Y-75875999D01*
X104635999Y-75875999D01*
X104636000Y-75875998D01*
X104636000Y-73476000D01*
X104486027Y-73476000D01*
X104486012Y-73476001D01*
X104383302Y-73486494D01*
X104216880Y-73541641D01*
X104216875Y-73541643D01*
X104067657Y-73633682D01*
X103979691Y-73721648D01*
X103918367Y-73755132D01*
X103848676Y-73750148D01*
X103804329Y-73721647D01*
X103709653Y-73626971D01*
X103709652Y-73626970D01*
X103604511Y-73562118D01*
X103558740Y-73533886D01*
X103558735Y-73533884D01*
X103390427Y-73478113D01*
X103286546Y-73467500D01*
X102485462Y-73467500D01*
X102485446Y-73467501D01*
X102381572Y-73478113D01*
X102213264Y-73533884D01*
X102213259Y-73533886D01*
X102062346Y-73626971D01*
X101936971Y-73752346D01*
X101920900Y-73778402D01*
X101843885Y-73903262D01*
X101843884Y-73903264D01*
X101840595Y-73908597D01*
X101788647Y-73955321D01*
X101735056Y-73967500D01*
X101712861Y-73967500D01*
X101645822Y-73947815D01*
X101600067Y-73895011D01*
X101590123Y-73825853D01*
X101607323Y-73778402D01*
X101616830Y-73762989D01*
X101629209Y-73742920D01*
X101684062Y-73577381D01*
X101694500Y-73475213D01*
X101694499Y-72800788D01*
X101684062Y-72698619D01*
X101629209Y-72533080D01*
X101629205Y-72533074D01*
X101629204Y-72533071D01*
X101537660Y-72384657D01*
X101537657Y-72384653D01*
X101503685Y-72350681D01*
X101470200Y-72289358D01*
X101475184Y-72219666D01*
X101503685Y-72175319D01*
X101537658Y-72141346D01*
X101590669Y-72055403D01*
X101642617Y-72008678D01*
X101696207Y-71996500D01*
X103723589Y-71996500D01*
X103790628Y-72016185D01*
G37*
%TD.AperFunction*%
%TA.AperFunction,Conductor*%
G36*
X132147628Y-72814185D02*
G01*
X132168270Y-72830819D01*
X132818655Y-73481204D01*
X132823996Y-73487294D01*
X132832022Y-73497754D01*
X132846012Y-73515987D01*
X132877925Y-73540475D01*
X132926023Y-73577381D01*
X132973123Y-73613523D01*
X132973129Y-73613526D01*
X133036546Y-73639794D01*
X133121150Y-73674838D01*
X133240115Y-73690500D01*
X133240120Y-73690500D01*
X133241905Y-73690735D01*
X133241923Y-73690737D01*
X133265369Y-73693823D01*
X133279999Y-73695750D01*
X133280000Y-73695750D01*
X133280001Y-73695750D01*
X133290472Y-73694371D01*
X133315848Y-73691030D01*
X133323946Y-73690500D01*
X134935500Y-73690500D01*
X135002539Y-73710185D01*
X135048294Y-73762989D01*
X135059500Y-73814500D01*
X135059500Y-73830654D01*
X135066011Y-73891202D01*
X135066011Y-73891204D01*
X135117111Y-74028204D01*
X135204739Y-74145261D01*
X135321796Y-74232889D01*
X135370715Y-74251135D01*
X135459183Y-74284133D01*
X135515116Y-74326005D01*
X135537963Y-74378775D01*
X135539416Y-74387014D01*
X135539417Y-74387018D01*
X135539418Y-74387021D01*
X135543007Y-74395342D01*
X135565077Y-74446506D01*
X135566408Y-74449858D01*
X135588565Y-74510732D01*
X135594857Y-74520299D01*
X135605114Y-74539321D01*
X135609648Y-74549832D01*
X135648333Y-74601795D01*
X135650386Y-74604728D01*
X135685999Y-74658874D01*
X135694331Y-74666735D01*
X135708693Y-74682874D01*
X135715531Y-74692058D01*
X135765172Y-74733712D01*
X135767832Y-74736080D01*
X135814971Y-74780553D01*
X135815976Y-74781133D01*
X135841659Y-74800840D01*
X136469181Y-75428362D01*
X136502666Y-75489685D01*
X136505500Y-75516042D01*
X136505500Y-75725204D01*
X136505501Y-75725221D01*
X136515938Y-75827382D01*
X136562042Y-75966517D01*
X136570791Y-75992920D01*
X136584042Y-76014404D01*
X136602483Y-76081793D01*
X136581562Y-76148457D01*
X136527920Y-76193228D01*
X136478504Y-76203500D01*
X134684294Y-76203500D01*
X134666324Y-76202191D01*
X134642206Y-76198658D01*
X134596651Y-76202645D01*
X134589573Y-76203264D01*
X134584172Y-76203500D01*
X134575820Y-76203500D01*
X134559362Y-76205423D01*
X134542904Y-76207347D01*
X134465577Y-76214112D01*
X134458503Y-76215573D01*
X134458493Y-76215526D01*
X134450905Y-76217209D01*
X134450916Y-76217255D01*
X134443890Y-76218920D01*
X134443887Y-76218920D01*
X134443887Y-76218921D01*
X134376909Y-76243298D01*
X134370944Y-76245469D01*
X134297261Y-76269885D01*
X134290713Y-76272939D01*
X134290693Y-76272896D01*
X134283702Y-76276280D01*
X134283724Y-76276323D01*
X134277269Y-76279564D01*
X134212400Y-76322228D01*
X134146352Y-76362968D01*
X134140682Y-76367451D01*
X134140652Y-76367413D01*
X134134627Y-76372322D01*
X134134657Y-76372357D01*
X134129132Y-76376993D01*
X134129126Y-76376998D01*
X134129126Y-76376999D01*
X134116828Y-76390034D01*
X134075836Y-76433482D01*
X133768787Y-76740530D01*
X133707464Y-76774015D01*
X133637772Y-76769031D01*
X133616009Y-76758387D01*
X133559928Y-76723795D01*
X133559922Y-76723792D01*
X133559920Y-76723791D01*
X133476585Y-76696177D01*
X133394382Y-76668938D01*
X133292214Y-76658500D01*
X132592794Y-76658500D01*
X132592778Y-76658501D01*
X132490617Y-76668938D01*
X132325082Y-76723790D01*
X132325071Y-76723795D01*
X132176657Y-76815339D01*
X132176653Y-76815342D01*
X132167681Y-76824315D01*
X132106358Y-76857800D01*
X132036666Y-76852816D01*
X131992319Y-76824315D01*
X131983346Y-76815342D01*
X131983342Y-76815339D01*
X131834928Y-76723795D01*
X131834922Y-76723792D01*
X131834920Y-76723791D01*
X131751585Y-76696177D01*
X131669382Y-76668938D01*
X131567214Y-76658500D01*
X130867794Y-76658500D01*
X130867778Y-76658501D01*
X130765617Y-76668938D01*
X130600082Y-76723790D01*
X130600071Y-76723795D01*
X130451657Y-76815339D01*
X130451653Y-76815342D01*
X130328342Y-76938653D01*
X130328339Y-76938657D01*
X130236795Y-77087071D01*
X130236790Y-77087082D01*
X130181938Y-77252617D01*
X130171500Y-77354779D01*
X130171500Y-77855633D01*
X130151815Y-77922672D01*
X130099011Y-77968427D01*
X130029853Y-77978371D01*
X129966297Y-77949346D01*
X129949124Y-77931119D01*
X129942642Y-77922672D01*
X129925133Y-77899853D01*
X129870235Y-77828308D01*
X129870215Y-77828284D01*
X129865311Y-77821894D01*
X129846987Y-77798013D01*
X129846985Y-77798011D01*
X129846984Y-77798010D01*
X129830939Y-77785699D01*
X129818293Y-77775995D01*
X129812203Y-77770654D01*
X129112354Y-77070805D01*
X129107001Y-77064702D01*
X129100588Y-77056345D01*
X129084987Y-77036013D01*
X129084985Y-77036011D01*
X129084984Y-77036010D01*
X129053075Y-77011526D01*
X129053074Y-77011525D01*
X129053072Y-77011523D01*
X128980930Y-76956166D01*
X128957877Y-76938476D01*
X128957873Y-76938474D01*
X128809850Y-76877161D01*
X128790457Y-76874608D01*
X128688704Y-76861212D01*
X128688678Y-76861210D01*
X128651001Y-76856250D01*
X128650999Y-76856250D01*
X128640527Y-76857628D01*
X128615151Y-76860969D01*
X128607054Y-76861500D01*
X128429187Y-76861500D01*
X128362148Y-76841815D01*
X128316393Y-76789011D01*
X128306449Y-76719853D01*
X128335474Y-76656297D01*
X128356298Y-76637183D01*
X128373253Y-76624866D01*
X128501040Y-76482944D01*
X128596527Y-76317556D01*
X128655542Y-76135928D01*
X128675504Y-75946000D01*
X128659627Y-75794943D01*
X128672196Y-75726217D01*
X128707463Y-75683608D01*
X128751676Y-75649682D01*
X128841843Y-75532175D01*
X128898521Y-75395342D01*
X128898521Y-75395341D01*
X128912999Y-75285377D01*
X128913000Y-75285363D01*
X128913000Y-74998500D01*
X128545499Y-74998500D01*
X128478460Y-74978815D01*
X128432705Y-74926011D01*
X128421499Y-74874500D01*
X128421499Y-74872500D01*
X128441184Y-74805461D01*
X128493988Y-74759706D01*
X128545499Y-74748500D01*
X128850500Y-74748500D01*
X128850500Y-74443499D01*
X128870185Y-74376460D01*
X128922989Y-74330705D01*
X128974500Y-74319499D01*
X128976500Y-74319499D01*
X129043539Y-74339184D01*
X129089294Y-74391988D01*
X129100500Y-74443499D01*
X129100500Y-74811000D01*
X129387363Y-74811000D01*
X129387377Y-74810999D01*
X129497341Y-74796521D01*
X129497342Y-74796521D01*
X129634175Y-74739843D01*
X129751679Y-74649679D01*
X129841843Y-74532175D01*
X129898521Y-74395342D01*
X129898521Y-74395340D01*
X129909626Y-74311000D01*
X129890055Y-74311000D01*
X129823016Y-74291315D01*
X129777261Y-74238511D01*
X129767317Y-74169353D01*
X129791686Y-74111505D01*
X129793222Y-74109502D01*
X129849655Y-74068306D01*
X129891590Y-74061000D01*
X129909626Y-74061000D01*
X129897461Y-73968600D01*
X129900116Y-73968250D01*
X129901457Y-73911593D01*
X129905010Y-73901888D01*
X129906803Y-73897561D01*
X129921500Y-73785925D01*
X129921499Y-73586076D01*
X129920768Y-73580526D01*
X129915650Y-73541643D01*
X129906803Y-73474439D01*
X129906800Y-73474433D01*
X129905103Y-73468095D01*
X129905103Y-73403903D01*
X129906799Y-73397568D01*
X129906803Y-73397561D01*
X129921500Y-73285925D01*
X129921499Y-73086076D01*
X129919964Y-73074419D01*
X129915503Y-73040529D01*
X129906803Y-72974439D01*
X129906800Y-72974433D01*
X129905103Y-72968095D01*
X129905103Y-72903903D01*
X129908907Y-72889708D01*
X129911452Y-72890390D01*
X129934441Y-72838421D01*
X129992764Y-72799948D01*
X130029116Y-72794500D01*
X132080589Y-72794500D01*
X132147628Y-72814185D01*
G37*
%TD.AperFunction*%
%TD*%
M02*
