%TF.GenerationSoftware,KiCad,Pcbnew,7.0.9*%
%TF.CreationDate,2025-06-07T20:58:59+05:30*%
%TF.ProjectId,flight_computer_rocketry,666c6967-6874-45f6-936f-6d7075746572,rev?*%
%TF.SameCoordinates,Original*%
%TF.FileFunction,Copper,L2,Bot*%
%TF.FilePolarity,Positive*%
%FSLAX46Y46*%
G04 Gerber Fmt 4.6, Leading zero omitted, Abs format (unit mm)*
G04 Created by KiCad (PCBNEW 7.0.9) date 2025-06-07 20:58:59*
%MOMM*%
%LPD*%
G01*
G04 APERTURE LIST*
G04 Aperture macros list*
%AMRoundRect*
0 Rectangle with rounded corners*
0 $1 Rounding radius*
0 $2 $3 $4 $5 $6 $7 $8 $9 X,Y pos of 4 corners*
0 Add a 4 corners polygon primitive as box body*
4,1,4,$2,$3,$4,$5,$6,$7,$8,$9,$2,$3,0*
0 Add four circle primitives for the rounded corners*
1,1,$1+$1,$2,$3*
1,1,$1+$1,$4,$5*
1,1,$1+$1,$6,$7*
1,1,$1+$1,$8,$9*
0 Add four rect primitives between the rounded corners*
20,1,$1+$1,$2,$3,$4,$5,0*
20,1,$1+$1,$4,$5,$6,$7,0*
20,1,$1+$1,$6,$7,$8,$9,0*
20,1,$1+$1,$8,$9,$2,$3,0*%
G04 Aperture macros list end*
%TA.AperFunction,ComponentPad*%
%ADD10C,0.700000*%
%TD*%
%TA.AperFunction,ComponentPad*%
%ADD11C,4.400000*%
%TD*%
%TA.AperFunction,ComponentPad*%
%ADD12RoundRect,0.250000X-0.600000X-0.725000X0.600000X-0.725000X0.600000X0.725000X-0.600000X0.725000X0*%
%TD*%
%TA.AperFunction,ComponentPad*%
%ADD13O,1.700000X1.950000*%
%TD*%
%TA.AperFunction,ComponentPad*%
%ADD14RoundRect,0.250000X-0.725000X0.600000X-0.725000X-0.600000X0.725000X-0.600000X0.725000X0.600000X0*%
%TD*%
%TA.AperFunction,ComponentPad*%
%ADD15O,1.950000X1.700000*%
%TD*%
%TA.AperFunction,ComponentPad*%
%ADD16RoundRect,0.250000X0.750000X-0.600000X0.750000X0.600000X-0.750000X0.600000X-0.750000X-0.600000X0*%
%TD*%
%TA.AperFunction,ComponentPad*%
%ADD17O,2.000000X1.700000*%
%TD*%
%TA.AperFunction,ComponentPad*%
%ADD18RoundRect,0.250000X0.600000X0.725000X-0.600000X0.725000X-0.600000X-0.725000X0.600000X-0.725000X0*%
%TD*%
%TA.AperFunction,SMDPad,CuDef*%
%ADD19RoundRect,0.237500X0.300000X0.237500X-0.300000X0.237500X-0.300000X-0.237500X0.300000X-0.237500X0*%
%TD*%
%TA.AperFunction,ComponentPad*%
%ADD20O,2.200000X3.500000*%
%TD*%
%TA.AperFunction,ComponentPad*%
%ADD21R,1.500000X2.500000*%
%TD*%
%TA.AperFunction,ComponentPad*%
%ADD22O,1.500000X2.500000*%
%TD*%
%TA.AperFunction,SMDPad,CuDef*%
%ADD23RoundRect,0.250000X0.350000X0.450000X-0.350000X0.450000X-0.350000X-0.450000X0.350000X-0.450000X0*%
%TD*%
%TA.AperFunction,SMDPad,CuDef*%
%ADD24R,0.500000X0.350000*%
%TD*%
%TA.AperFunction,SMDPad,CuDef*%
%ADD25RoundRect,0.237500X-0.300000X-0.237500X0.300000X-0.237500X0.300000X0.237500X-0.300000X0.237500X0*%
%TD*%
%TA.AperFunction,SMDPad,CuDef*%
%ADD26RoundRect,0.237500X0.237500X-0.300000X0.237500X0.300000X-0.237500X0.300000X-0.237500X-0.300000X0*%
%TD*%
%TA.AperFunction,SMDPad,CuDef*%
%ADD27RoundRect,0.237500X-0.237500X0.300000X-0.237500X-0.300000X0.237500X-0.300000X0.237500X0.300000X0*%
%TD*%
%TA.AperFunction,SMDPad,CuDef*%
%ADD28R,2.000000X1.500000*%
%TD*%
%TA.AperFunction,SMDPad,CuDef*%
%ADD29R,2.000000X3.800000*%
%TD*%
%TA.AperFunction,ViaPad*%
%ADD30C,0.800000*%
%TD*%
%TA.AperFunction,Conductor*%
%ADD31C,1.000000*%
%TD*%
%TA.AperFunction,Conductor*%
%ADD32C,0.500000*%
%TD*%
%TA.AperFunction,Conductor*%
%ADD33C,0.400000*%
%TD*%
%TA.AperFunction,Conductor*%
%ADD34C,0.200000*%
%TD*%
%TA.AperFunction,Conductor*%
%ADD35C,0.600000*%
%TD*%
G04 APERTURE END LIST*
D10*
%TO.P,H3,1,1*%
%TO.N,GND*%
X94235000Y-59563000D03*
X94718274Y-58396274D03*
X94718274Y-60729726D03*
X95885000Y-57913000D03*
D11*
X95885000Y-59563000D03*
D10*
X95885000Y-61213000D03*
X97051726Y-58396274D03*
X97051726Y-60729726D03*
X97535000Y-59563000D03*
%TD*%
%TO.P,H4,1,1*%
%TO.N,GND*%
X147575000Y-59817000D03*
X148058274Y-58650274D03*
X148058274Y-60983726D03*
X149225000Y-58167000D03*
D11*
X149225000Y-59817000D03*
D10*
X149225000Y-61467000D03*
X150391726Y-58650274D03*
X150391726Y-60983726D03*
X150875000Y-59817000D03*
%TD*%
D12*
%TO.P,J3,1,Pin_1*%
%TO.N,PWM2*%
X126024000Y-58793500D03*
D13*
%TO.P,J3,2,Pin_2*%
%TO.N,5V*%
X128524000Y-58793500D03*
%TO.P,J3,3,Pin_3*%
%TO.N,GND*%
X131024000Y-58793500D03*
%TD*%
D14*
%TO.P,J8,1,Pin_1*%
%TO.N,PWM_E1*%
X150114000Y-66755000D03*
D15*
%TO.P,J8,2,Pin_2*%
%TO.N,PWM_E2*%
X150114000Y-69255000D03*
%TO.P,J8,3,Pin_3*%
%TO.N,PWM_E3*%
X150114000Y-71755000D03*
%TD*%
D10*
%TO.P,H2,1,1*%
%TO.N,GND*%
X148210000Y-93472000D03*
X148693274Y-92305274D03*
X148693274Y-94638726D03*
X149860000Y-91822000D03*
D11*
X149860000Y-93472000D03*
D10*
X149860000Y-95122000D03*
X151026726Y-92305274D03*
X151026726Y-94638726D03*
X151510000Y-93472000D03*
%TD*%
D12*
%TO.P,J9,1,Pin_1*%
%TO.N,5V*%
X102823000Y-93599000D03*
D13*
%TO.P,J9,2,Pin_2*%
%TO.N,3.3V*%
X105323000Y-93599000D03*
%TO.P,J9,3,Pin_3*%
%TO.N,GND*%
X107823000Y-93599000D03*
%TD*%
D16*
%TO.P,J7,1,Pin_1*%
%TO.N,12V_DC*%
X96139000Y-69850000D03*
D17*
%TO.P,J7,2,Pin_2*%
%TO.N,GND*%
X96139000Y-67350000D03*
%TD*%
D10*
%TO.P,H1,1,1*%
%TO.N,GND*%
X94490000Y-93345000D03*
X94973274Y-92178274D03*
X94973274Y-94511726D03*
X96140000Y-91695000D03*
D11*
X96140000Y-93345000D03*
D10*
X96140000Y-94995000D03*
X97306726Y-92178274D03*
X97306726Y-94511726D03*
X97790000Y-93345000D03*
%TD*%
D18*
%TO.P,J4,1,Pin_1*%
%TO.N,PWM3*%
X131572000Y-93853000D03*
D13*
%TO.P,J4,2,Pin_2*%
%TO.N,5V*%
X129072000Y-93853000D03*
%TO.P,J4,3,Pin_3*%
%TO.N,GND*%
X126572000Y-93853000D03*
%TD*%
D18*
%TO.P,J5,1,Pin_1*%
%TO.N,PWM4*%
X143343000Y-93853000D03*
D13*
%TO.P,J5,2,Pin_2*%
%TO.N,5V*%
X140843000Y-93853000D03*
%TO.P,J5,3,Pin_3*%
%TO.N,GND*%
X138343000Y-93853000D03*
%TD*%
D12*
%TO.P,J2,1,Pin_1*%
%TO.N,PWM1*%
X137835000Y-58666500D03*
D13*
%TO.P,J2,2,Pin_2*%
%TO.N,5V*%
X140335000Y-58666500D03*
%TO.P,J2,3,Pin_3*%
%TO.N,GND*%
X142835000Y-58666500D03*
%TD*%
D19*
%TO.P,C2,1*%
%TO.N,3.3V*%
X107415500Y-72517000D03*
%TO.P,C2,2*%
%TO.N,GND*%
X105690500Y-72517000D03*
%TD*%
D20*
%TO.P,SW3,*%
%TO.N,*%
X105528000Y-59690000D03*
X113728000Y-59690000D03*
D21*
%TO.P,SW3,1,A*%
%TO.N,USB_POWER*%
X107628000Y-59690000D03*
D22*
%TO.P,SW3,2,B*%
%TO.N,POWER*%
X109628000Y-59690000D03*
%TO.P,SW3,3,C*%
%TO.N,12V_DC*%
X111628000Y-59690000D03*
%TD*%
D23*
%TO.P,R5,1*%
%TO.N,Net-(R5-Pad1)*%
X122682000Y-82550000D03*
%TO.P,R5,2*%
%TO.N,3.3V*%
X120682000Y-82550000D03*
%TD*%
D24*
%TO.P,U3,1,GND*%
%TO.N,GND*%
X117551000Y-68610000D03*
%TO.P,U3,2,CSB*%
%TO.N,unconnected-(U3-CSB-Pad2)*%
X117551000Y-67960000D03*
%TO.P,U3,3,SDI*%
%TO.N,SDA_I2C2*%
X117551000Y-67310000D03*
%TO.P,U3,4,SCK*%
%TO.N,SCL_I2C2*%
X117551000Y-66660000D03*
%TO.P,U3,5,SDO*%
%TO.N,PB2*%
X115951000Y-66660000D03*
%TO.P,U3,6,VDDIO*%
%TO.N,3.3V*%
X115951000Y-67310000D03*
%TO.P,U3,7,GND*%
%TO.N,GND*%
X115951000Y-67960000D03*
%TO.P,U3,8,VDD*%
%TO.N,3.3V*%
X115951000Y-68610000D03*
%TD*%
D25*
%TO.P,C8,1*%
%TO.N,3.3V*%
X114961500Y-70485000D03*
%TO.P,C8,2*%
%TO.N,GND*%
X116686500Y-70485000D03*
%TD*%
D19*
%TO.P,C11,1*%
%TO.N,3.3V*%
X134847500Y-75819000D03*
%TO.P,C11,2*%
X133122500Y-75819000D03*
%TD*%
D26*
%TO.P,C1,1*%
%TO.N,POWER*%
X100838000Y-68299500D03*
%TO.P,C1,2*%
%TO.N,GND*%
X100838000Y-66574500D03*
%TD*%
D27*
%TO.P,C15,1*%
%TO.N,POWER*%
X106807000Y-79274500D03*
%TO.P,C15,2*%
%TO.N,GND*%
X106807000Y-80999500D03*
%TD*%
D19*
%TO.P,C18,1*%
%TO.N,3.3V*%
X134898000Y-77340500D03*
%TO.P,C18,2*%
X133173000Y-77340500D03*
%TD*%
D28*
%TO.P,U5,1,IN*%
%TO.N,POWER*%
X109499000Y-80786000D03*
%TO.P,U5,2,GND*%
%TO.N,GND*%
X109499000Y-78486000D03*
D29*
X115799000Y-78486000D03*
D28*
%TO.P,U5,3,OUT*%
%TO.N,5V*%
X109499000Y-76186000D03*
%TD*%
D26*
%TO.P,C6,1*%
%TO.N,3.3V*%
X113665000Y-68680500D03*
%TO.P,C6,2*%
%TO.N,GND*%
X113665000Y-66955500D03*
%TD*%
D30*
%TO.N,GND*%
X123952000Y-70231000D03*
X130302000Y-88265000D03*
X113665000Y-66955500D03*
X109499000Y-78486000D03*
X112141000Y-73533000D03*
X139319000Y-75438000D03*
X126746000Y-71501000D03*
X100711000Y-71374000D03*
X132461000Y-87376000D03*
X123952000Y-71628000D03*
X126746000Y-70231000D03*
X125222000Y-71501000D03*
X105664000Y-72517000D03*
X115443000Y-78359000D03*
X106807000Y-81280000D03*
X125222000Y-70231000D03*
X100838000Y-66548000D03*
X123952000Y-72898000D03*
X126746000Y-73025000D03*
X116776500Y-74104500D03*
X116686500Y-70485000D03*
X125349000Y-73025000D03*
%TO.N,PWM1*%
X122047000Y-67056000D03*
%TO.N,PWM2*%
X120269000Y-69977000D03*
%TO.N,PWM3*%
X119634000Y-70866000D03*
%TO.N,PWM4*%
X124587000Y-76073000D03*
%TO.N,SYS_JTMS_SWDIO*%
X118872000Y-72771000D03*
X119634000Y-65786000D03*
%TO.N,SYS_JTCK_SWCLK*%
X120396000Y-75946000D03*
X119018000Y-66675000D03*
%TO.N,PB1*%
X126238000Y-66421000D03*
X131064000Y-85852000D03*
%TO.N,PB2*%
X124460000Y-62357000D03*
%TO.N,POWER*%
X106299000Y-74930000D03*
X107188000Y-66802000D03*
X106807000Y-79274500D03*
X100838000Y-68326000D03*
X103251000Y-70358000D03*
%TO.N,3.3V*%
X133096000Y-75819000D03*
X109678000Y-67945000D03*
X127889000Y-87249000D03*
X133985000Y-82677000D03*
X107442000Y-72517000D03*
X117274000Y-75692000D03*
X103505000Y-81407000D03*
X134874000Y-75819000D03*
X114935000Y-65913000D03*
X128004000Y-85643000D03*
%TO.N,5V*%
X118872000Y-89281000D03*
X110363000Y-73533000D03*
X146939000Y-63119000D03*
X143256000Y-91313000D03*
X104521000Y-77597000D03*
X147066000Y-72771000D03*
%TO.N,USB_POWER*%
X100203000Y-75565000D03*
%TO.N,12V_DC*%
X100457000Y-69723000D03*
%TO.N,PWM_E1*%
X134366000Y-66929000D03*
%TO.N,PWM_E2*%
X131445000Y-67818000D03*
%TO.N,PWM_E3*%
X128651000Y-66802000D03*
%TO.N,Net-(R5-Pad1)*%
X122682000Y-82677000D03*
%TO.N,SCL_I2C2*%
X124587000Y-63373000D03*
%TO.N,SDA_I2C2*%
X122682000Y-76454000D03*
%TO.N,I2C_P*%
X128397000Y-78486000D03*
X127762000Y-75946000D03*
%TO.N,UART_N*%
X122428000Y-78105000D03*
X117602000Y-81534000D03*
%TO.N,UART_P*%
X118491000Y-80391000D03*
X121412000Y-77724000D03*
%TD*%
D31*
%TO.N,GND*%
X105918000Y-95504000D02*
X107823000Y-93599000D01*
D32*
X116686500Y-69474500D02*
X117551000Y-68610000D01*
X123143000Y-90424000D02*
X126572000Y-93853000D01*
X110109000Y-70993000D02*
X112141000Y-73025000D01*
X110998000Y-90424000D02*
X123143000Y-90424000D01*
X107188000Y-70993000D02*
X110109000Y-70993000D01*
X105690500Y-72517000D02*
X105690500Y-72490500D01*
X116686500Y-74014500D02*
X116776500Y-74104500D01*
D31*
X101219000Y-95504000D02*
X105918000Y-95504000D01*
X99060000Y-93345000D02*
X101219000Y-95504000D01*
D33*
X114199500Y-66955500D02*
X113665000Y-66955500D01*
X117551000Y-68610000D02*
X117124000Y-68610000D01*
X115204000Y-67960000D02*
X114199500Y-66955500D01*
X117124000Y-68610000D02*
X116474000Y-67960000D01*
D32*
X112141000Y-73025000D02*
X112141000Y-73533000D01*
D33*
X116474000Y-67960000D02*
X115951000Y-67960000D01*
X115951000Y-67960000D02*
X115204000Y-67960000D01*
D32*
X116686500Y-70485000D02*
X116686500Y-69474500D01*
X116686500Y-70485000D02*
X116686500Y-74014500D01*
X105690500Y-72490500D02*
X107188000Y-70993000D01*
D31*
X96140000Y-93345000D02*
X99060000Y-93345000D01*
D32*
X107823000Y-93599000D02*
X110998000Y-90424000D01*
D34*
%TO.N,PWM1*%
X123444000Y-66548000D02*
X124206000Y-66548000D01*
X124206000Y-66548000D02*
X127254000Y-63500000D01*
X127254000Y-63500000D02*
X135001000Y-63500000D01*
X122047000Y-67056000D02*
X122936000Y-67056000D01*
X137835000Y-60666000D02*
X137835000Y-58666500D01*
X135001000Y-63500000D02*
X137835000Y-60666000D01*
X122936000Y-67056000D02*
X123444000Y-66548000D01*
%TO.N,PWM2*%
X126024000Y-63714000D02*
X126024000Y-58793500D01*
X120777000Y-69469000D02*
X120777000Y-68834000D01*
X120777000Y-68834000D02*
X121285000Y-68326000D01*
X124206000Y-65532000D02*
X126024000Y-63714000D01*
X122555000Y-65532000D02*
X124206000Y-65532000D01*
X121285000Y-68326000D02*
X121285000Y-66802000D01*
X121285000Y-66802000D02*
X122555000Y-65532000D01*
X120269000Y-69977000D02*
X120777000Y-69469000D01*
%TO.N,PWM3*%
X124079000Y-76581000D02*
X124079000Y-80264000D01*
X119634000Y-70866000D02*
X120396000Y-71628000D01*
X129413000Y-89408000D02*
X131572000Y-91567000D01*
X120396000Y-73533000D02*
X122174000Y-75311000D01*
X129413000Y-85598000D02*
X129413000Y-89408000D01*
X122809000Y-75311000D02*
X124079000Y-76581000D01*
X120396000Y-71628000D02*
X120396000Y-73533000D01*
X122174000Y-75311000D02*
X122809000Y-75311000D01*
X131572000Y-91567000D02*
X131572000Y-93853000D01*
X124079000Y-80264000D02*
X129413000Y-85598000D01*
%TO.N,PWM4*%
X143343000Y-93178000D02*
X143343000Y-93853000D01*
X124587000Y-79375000D02*
X130302000Y-85090000D01*
X130302000Y-85090000D02*
X130302000Y-86868000D01*
X124587000Y-76073000D02*
X124587000Y-79375000D01*
X135001000Y-91567000D02*
X141605000Y-91567000D01*
X130302000Y-86868000D02*
X135001000Y-91567000D01*
X141605000Y-91567000D02*
X143343000Y-93305000D01*
X143343000Y-93305000D02*
X143343000Y-93853000D01*
%TO.N,SYS_JTMS_SWDIO*%
X119507000Y-69850000D02*
X118872000Y-70485000D01*
X119934000Y-67667000D02*
X120334000Y-67667000D01*
X120334000Y-67067000D02*
X119934000Y-67067000D01*
X119507000Y-68694000D02*
X119507000Y-69850000D01*
X119634000Y-65786000D02*
X119634000Y-66167000D01*
X118872000Y-70485000D02*
X118872000Y-72771000D01*
X119934000Y-66467000D02*
X120334000Y-66467000D01*
X120334000Y-68267000D02*
X119934000Y-68267000D01*
X119634000Y-68567000D02*
X119507000Y-68694000D01*
X119934000Y-68267000D02*
G75*
G03*
X119634000Y-68567000I0J-300000D01*
G01*
X119634000Y-66167000D02*
G75*
G03*
X119934000Y-66467000I300000J0D01*
G01*
X120634000Y-66767000D02*
G75*
G03*
X120334000Y-66467000I-300000J0D01*
G01*
X119934000Y-67067000D02*
G75*
G03*
X119634000Y-67367000I0J-300000D01*
G01*
X120334000Y-67067000D02*
G75*
G03*
X120634000Y-66767000I0J300000D01*
G01*
X120334000Y-68267000D02*
G75*
G03*
X120634000Y-67967000I0J300000D01*
G01*
X120634000Y-67967000D02*
G75*
G03*
X120334000Y-67667000I-300000J0D01*
G01*
X119634000Y-67367000D02*
G75*
G03*
X119934000Y-67667000I300000J0D01*
G01*
%TO.N,SYS_JTCK_SWCLK*%
X119018000Y-69450000D02*
X119018000Y-66675000D01*
X118110000Y-73660000D02*
X118110000Y-70358000D01*
X120396000Y-75946000D02*
X118110000Y-73660000D01*
X118110000Y-70358000D02*
X119018000Y-69450000D01*
%TO.N,PB1*%
X131445000Y-85471000D02*
X131064000Y-85852000D01*
X126746000Y-66421000D02*
X131445000Y-71120000D01*
X131445000Y-71120000D02*
X131445000Y-85471000D01*
X126238000Y-66421000D02*
X126746000Y-66421000D01*
%TO.N,PB2*%
X120650000Y-62357000D02*
X116347000Y-66660000D01*
X116347000Y-66660000D02*
X115951000Y-66660000D01*
X124460000Y-62357000D02*
X120650000Y-62357000D01*
D32*
%TO.N,POWER*%
X107341500Y-79274500D02*
X108853000Y-80786000D01*
D35*
X103251000Y-70358000D02*
X104648000Y-70358000D01*
X104648000Y-70358000D02*
X107188000Y-67818000D01*
X104648000Y-73279000D02*
X104648000Y-70358000D01*
X107188000Y-67818000D02*
X107188000Y-66802000D01*
D32*
X106807000Y-79274500D02*
X107341500Y-79274500D01*
D35*
X106299000Y-74930000D02*
X104648000Y-73279000D01*
D32*
X108853000Y-80786000D02*
X109499000Y-80786000D01*
D33*
%TO.N,3.3V*%
X103505000Y-86868000D02*
X103505000Y-85979000D01*
X113735500Y-68610000D02*
X113665000Y-68680500D01*
D32*
X120682000Y-83598000D02*
X122727000Y-85643000D01*
X105323000Y-88686000D02*
X103505000Y-86868000D01*
X113411000Y-76454000D02*
X115252500Y-74612500D01*
X114961500Y-69599500D02*
X115951000Y-68610000D01*
D33*
X115402528Y-67310000D02*
X115951000Y-67310000D01*
D32*
X134874000Y-75819000D02*
X134847500Y-77290000D01*
D33*
X103505000Y-85979000D02*
X103505000Y-81407000D01*
D32*
X113792000Y-82550000D02*
X113601500Y-82740500D01*
X122727000Y-85643000D02*
X128004000Y-85643000D01*
D33*
X113665000Y-68680500D02*
X110413500Y-68680500D01*
D32*
X113601500Y-82740500D02*
X110363000Y-85979000D01*
X134874000Y-81788000D02*
X134874000Y-77364500D01*
X113601500Y-82740500D02*
X113411000Y-82550000D01*
X120682000Y-82550000D02*
X113792000Y-82550000D01*
X115252500Y-74612500D02*
X116332000Y-75692000D01*
X105323000Y-93599000D02*
X105323000Y-88686000D01*
X134874000Y-77364500D02*
X134898000Y-77340500D01*
X134847500Y-75819000D02*
X134874000Y-75819000D01*
D33*
X114935000Y-66842472D02*
X115402528Y-67310000D01*
D32*
X133096000Y-75819000D02*
X133122500Y-77290000D01*
X133122500Y-77290000D02*
X133173000Y-77340500D01*
X113411000Y-82550000D02*
X113411000Y-76454000D01*
X114961500Y-74321500D02*
X115252500Y-74612500D01*
X134847500Y-77290000D02*
X134898000Y-77340500D01*
X116332000Y-75692000D02*
X117274000Y-75692000D01*
X114961500Y-70485000D02*
X114961500Y-74321500D01*
D33*
X110413500Y-68680500D02*
X109678000Y-67945000D01*
X115951000Y-68610000D02*
X113735500Y-68610000D01*
D32*
X133985000Y-82677000D02*
X134874000Y-81788000D01*
X120682000Y-82550000D02*
X120682000Y-83598000D01*
X110363000Y-85979000D02*
X103505000Y-85979000D01*
X114961500Y-70485000D02*
X114961500Y-69599500D01*
D33*
X114935000Y-65913000D02*
X114935000Y-66842472D01*
D32*
X133122500Y-75819000D02*
X133096000Y-75819000D01*
%TO.N,5V*%
X146939000Y-63119000D02*
X144787500Y-63119000D01*
X129072000Y-92242000D02*
X129072000Y-93853000D01*
D33*
X109499000Y-75667000D02*
X110363000Y-74803000D01*
D32*
X144787500Y-63119000D02*
X140335000Y-58666500D01*
D33*
X105156000Y-77597000D02*
X104521000Y-77597000D01*
D32*
X102823000Y-93599000D02*
X102362000Y-93138000D01*
X118872000Y-89281000D02*
X119126000Y-89027000D01*
X119126000Y-89027000D02*
X125857000Y-89027000D01*
D33*
X104521000Y-77597000D02*
X103632000Y-77597000D01*
D32*
X125857000Y-89027000D02*
X129072000Y-92242000D01*
D33*
X106567000Y-76186000D02*
X105156000Y-77597000D01*
X103632000Y-77597000D02*
X102362000Y-78867000D01*
X109499000Y-76186000D02*
X106567000Y-76186000D01*
D32*
X146812000Y-87757000D02*
X143256000Y-91313000D01*
X147066000Y-72771000D02*
X146812000Y-73025000D01*
D33*
X110363000Y-74803000D02*
X110363000Y-73533000D01*
D32*
X146812000Y-73025000D02*
X146812000Y-87757000D01*
D33*
X109499000Y-76186000D02*
X109499000Y-75667000D01*
D32*
X102362000Y-93138000D02*
X102362000Y-78867000D01*
%TO.N,USB_POWER*%
X99060000Y-74422000D02*
X99060000Y-64897000D01*
X100203000Y-63754000D02*
X105156000Y-63754000D01*
X107628000Y-61282000D02*
X107628000Y-59690000D01*
X100203000Y-75565000D02*
X99060000Y-74422000D01*
X99060000Y-64897000D02*
X100203000Y-63754000D01*
X105156000Y-63754000D02*
X107628000Y-61282000D01*
D35*
%TO.N,12V_DC*%
X106172000Y-65405000D02*
X108966000Y-65405000D01*
X100457000Y-69723000D02*
X101854000Y-69723000D01*
X101854000Y-69723000D02*
X106172000Y-65405000D01*
X111628000Y-62743000D02*
X111628000Y-59690000D01*
X108966000Y-65405000D02*
X111628000Y-62743000D01*
D34*
%TO.N,PWM_E1*%
X134366000Y-66929000D02*
X149940000Y-66929000D01*
X149940000Y-66929000D02*
X150114000Y-66755000D01*
%TO.N,PWM_E2*%
X131445000Y-67818000D02*
X144653000Y-67818000D01*
X144653000Y-67818000D02*
X146090000Y-69255000D01*
X146090000Y-69255000D02*
X150114000Y-69255000D01*
%TO.N,PWM_E3*%
X128651000Y-66802000D02*
X129286000Y-66802000D01*
X129286000Y-66802000D02*
X134239000Y-71755000D01*
X134239000Y-71755000D02*
X150114000Y-71755000D01*
%TO.N,SCL_I2C2*%
X117551000Y-66660000D02*
X117744000Y-66660000D01*
X124460000Y-63246000D02*
X124587000Y-63373000D01*
X121031000Y-63246000D02*
X124460000Y-63246000D01*
X117744000Y-66660000D02*
X118110000Y-66294000D01*
X118110000Y-66167000D02*
X121031000Y-63246000D01*
X118110000Y-66294000D02*
X118110000Y-66167000D01*
%TO.N,SDA_I2C2*%
X121158000Y-77024000D02*
X120331000Y-77024000D01*
X122682000Y-76454000D02*
X121728000Y-76454000D01*
X120331000Y-77024000D02*
X117602000Y-74295000D01*
X118618000Y-67691000D02*
X118237000Y-67310000D01*
X118237000Y-67310000D02*
X117551000Y-67310000D01*
X117602000Y-74295000D02*
X117602000Y-70231000D01*
X117602000Y-70231000D02*
X118618000Y-69215000D01*
X118618000Y-69215000D02*
X118618000Y-67691000D01*
X121728000Y-76454000D02*
X121158000Y-77024000D01*
%TO.N,I2C_P*%
X127762000Y-77851000D02*
X127762000Y-75946000D01*
X128397000Y-78486000D02*
X127762000Y-77851000D01*
%TO.N,UART_N*%
X120650000Y-79629000D02*
X122174000Y-78105000D01*
X118491000Y-81534000D02*
X120396000Y-79629000D01*
X117602000Y-81534000D02*
X118491000Y-81534000D01*
X122174000Y-78105000D02*
X122428000Y-78105000D01*
X120396000Y-79629000D02*
X120650000Y-79629000D01*
%TO.N,UART_P*%
X118491000Y-80391000D02*
X118491000Y-80137000D01*
X120904000Y-77724000D02*
X121412000Y-77724000D01*
X118491000Y-80137000D02*
X120904000Y-77724000D01*
%TD*%
%TA.AperFunction,Conductor*%
%TO.N,GND*%
G36*
X129237717Y-67614601D02*
G01*
X129243307Y-67619856D01*
X133777655Y-72154204D01*
X133782996Y-72160294D01*
X133792927Y-72173236D01*
X133805010Y-72188984D01*
X133805011Y-72188985D01*
X133805013Y-72188987D01*
X133828894Y-72207311D01*
X133835284Y-72212215D01*
X133835308Y-72212235D01*
X133911167Y-72270443D01*
X133932124Y-72286524D01*
X133932126Y-72286524D01*
X133932128Y-72286526D01*
X134006136Y-72317181D01*
X134080149Y-72347838D01*
X134095664Y-72349880D01*
X134099542Y-72350391D01*
X134147009Y-72356640D01*
X134199115Y-72363500D01*
X134199116Y-72363500D01*
X134201129Y-72363765D01*
X134201148Y-72363766D01*
X134239000Y-72368750D01*
X134239001Y-72368750D01*
X134249472Y-72367371D01*
X134274848Y-72364030D01*
X134282946Y-72363500D01*
X146072480Y-72363500D01*
X146139519Y-72383185D01*
X146185274Y-72435989D01*
X146195218Y-72505147D01*
X146190411Y-72525818D01*
X146172459Y-72581067D01*
X146172457Y-72581075D01*
X146171822Y-72587120D01*
X146160884Y-72626556D01*
X146129220Y-72694459D01*
X146094391Y-72763810D01*
X146091923Y-72770593D01*
X146091878Y-72770576D01*
X146089322Y-72777932D01*
X146089366Y-72777947D01*
X146087096Y-72784795D01*
X146079244Y-72822822D01*
X146071392Y-72860850D01*
X146060601Y-72906381D01*
X146053498Y-72936351D01*
X146052661Y-72943519D01*
X146052613Y-72943513D01*
X146051823Y-72951244D01*
X146051870Y-72951249D01*
X146051240Y-72958438D01*
X146053500Y-73036079D01*
X146053500Y-87391456D01*
X146033815Y-87458495D01*
X146017181Y-87479137D01*
X143099248Y-90397069D01*
X143037925Y-90430554D01*
X143037351Y-90430678D01*
X142973712Y-90444206D01*
X142799244Y-90521884D01*
X142644745Y-90634135D01*
X142516959Y-90776057D01*
X142421473Y-90941443D01*
X142421470Y-90941450D01*
X142362459Y-91123068D01*
X142362458Y-91123072D01*
X142358398Y-91161702D01*
X142357216Y-91172947D01*
X142330630Y-91237562D01*
X142273332Y-91277545D01*
X142203513Y-91280204D01*
X142146214Y-91247665D01*
X142066354Y-91167805D01*
X142061001Y-91161702D01*
X142058216Y-91158073D01*
X142038987Y-91133013D01*
X142038985Y-91133011D01*
X142038984Y-91133010D01*
X142007075Y-91108526D01*
X142007074Y-91108525D01*
X142007072Y-91108523D01*
X141961728Y-91073729D01*
X141911877Y-91035476D01*
X141911873Y-91035474D01*
X141763850Y-90974161D01*
X141744457Y-90971608D01*
X141642704Y-90958212D01*
X141642678Y-90958210D01*
X141605001Y-90953250D01*
X141604999Y-90953250D01*
X141594527Y-90954628D01*
X141569151Y-90957969D01*
X141561054Y-90958500D01*
X135304411Y-90958500D01*
X135237372Y-90938815D01*
X135216730Y-90922181D01*
X131234844Y-86940295D01*
X131201359Y-86878972D01*
X131206343Y-86809280D01*
X131248215Y-86753347D01*
X131296739Y-86731325D01*
X131346288Y-86720794D01*
X131520752Y-86643118D01*
X131675253Y-86530866D01*
X131803040Y-86388944D01*
X131898527Y-86223556D01*
X131957542Y-86041928D01*
X131977504Y-85852000D01*
X131975705Y-85834888D01*
X131988271Y-85766160D01*
X131990052Y-85763321D01*
X131989375Y-85759431D01*
X131998019Y-85725981D01*
X132037838Y-85629850D01*
X132053500Y-85510885D01*
X132053500Y-85510884D01*
X132053723Y-85509191D01*
X132053726Y-85509160D01*
X132058750Y-85470999D01*
X132054031Y-85435156D01*
X132053500Y-85427054D01*
X132053500Y-78107640D01*
X132073185Y-78040601D01*
X132125989Y-77994846D01*
X132195147Y-77984902D01*
X132258703Y-78013927D01*
X132279340Y-78038195D01*
X132279361Y-78038179D01*
X132279809Y-78038746D01*
X132283040Y-78042545D01*
X132283843Y-78043847D01*
X132407153Y-78167157D01*
X132407157Y-78167160D01*
X132555571Y-78258704D01*
X132555574Y-78258705D01*
X132555580Y-78258709D01*
X132721119Y-78313562D01*
X132823287Y-78324000D01*
X133522712Y-78323999D01*
X133624881Y-78313562D01*
X133790420Y-78258709D01*
X133926403Y-78174832D01*
X133993795Y-78156392D01*
X134060458Y-78177314D01*
X134105228Y-78230956D01*
X134115500Y-78280371D01*
X134115500Y-81422456D01*
X134095815Y-81489495D01*
X134079181Y-81510137D01*
X133828248Y-81761069D01*
X133766925Y-81794554D01*
X133766351Y-81794678D01*
X133702712Y-81808206D01*
X133537087Y-81881947D01*
X133528244Y-81885884D01*
X133373745Y-81998135D01*
X133245959Y-82140057D01*
X133150473Y-82305443D01*
X133150470Y-82305450D01*
X133129560Y-82369806D01*
X133091458Y-82487072D01*
X133071496Y-82677000D01*
X133091458Y-82866928D01*
X133091459Y-82866931D01*
X133150470Y-83048549D01*
X133150473Y-83048556D01*
X133245960Y-83213944D01*
X133373747Y-83355866D01*
X133528248Y-83468118D01*
X133702712Y-83545794D01*
X133889513Y-83585500D01*
X134080487Y-83585500D01*
X134267288Y-83545794D01*
X134441752Y-83468118D01*
X134596253Y-83355866D01*
X134724040Y-83213944D01*
X134819527Y-83048556D01*
X134874537Y-82879253D01*
X134904783Y-82829896D01*
X135364880Y-82369799D01*
X135378506Y-82358023D01*
X135398058Y-82343469D01*
X135432015Y-82303000D01*
X135435675Y-82299005D01*
X135441581Y-82293100D01*
X135462135Y-82267104D01*
X135512032Y-82207640D01*
X135512033Y-82207637D01*
X135516004Y-82201601D01*
X135516045Y-82201628D01*
X135520219Y-82195076D01*
X135520176Y-82195050D01*
X135523962Y-82188911D01*
X135523967Y-82188905D01*
X135556775Y-82118547D01*
X135591609Y-82049188D01*
X135591610Y-82049182D01*
X135594077Y-82042405D01*
X135594124Y-82042422D01*
X135596675Y-82035083D01*
X135596629Y-82035068D01*
X135598900Y-82028210D01*
X135598903Y-82028206D01*
X135614607Y-81952149D01*
X135632500Y-81876656D01*
X135632500Y-81876653D01*
X135633339Y-81869483D01*
X135633386Y-81869488D01*
X135634177Y-81861757D01*
X135634130Y-81861753D01*
X135634759Y-81854562D01*
X135632500Y-81776920D01*
X135632500Y-78249866D01*
X135652185Y-78182827D01*
X135668819Y-78162185D01*
X135726004Y-78105000D01*
X135787158Y-78043846D01*
X135878709Y-77895420D01*
X135933562Y-77729881D01*
X135944000Y-77627713D01*
X135943999Y-77053288D01*
X135933562Y-76951119D01*
X135878709Y-76785580D01*
X135878705Y-76785574D01*
X135878704Y-76785571D01*
X135787160Y-76637157D01*
X135787157Y-76637153D01*
X135781454Y-76631450D01*
X135747969Y-76570127D01*
X135752953Y-76500435D01*
X135763597Y-76478672D01*
X135828204Y-76373928D01*
X135828203Y-76373928D01*
X135828209Y-76373920D01*
X135883062Y-76208381D01*
X135893500Y-76106213D01*
X135893499Y-75531788D01*
X135883062Y-75429619D01*
X135828209Y-75264080D01*
X135828205Y-75264074D01*
X135828204Y-75264071D01*
X135736660Y-75115657D01*
X135736657Y-75115653D01*
X135613346Y-74992342D01*
X135613342Y-74992339D01*
X135464928Y-74900795D01*
X135464922Y-74900792D01*
X135464920Y-74900791D01*
X135420687Y-74886134D01*
X135299382Y-74845938D01*
X135197214Y-74835500D01*
X134497794Y-74835500D01*
X134497778Y-74835501D01*
X134395617Y-74845938D01*
X134230082Y-74900790D01*
X134230071Y-74900795D01*
X134081657Y-74992339D01*
X134081653Y-74992342D01*
X134072681Y-75001315D01*
X134011358Y-75034800D01*
X133941666Y-75029816D01*
X133897319Y-75001315D01*
X133888346Y-74992342D01*
X133888342Y-74992339D01*
X133739928Y-74900795D01*
X133739922Y-74900792D01*
X133739920Y-74900791D01*
X133695687Y-74886134D01*
X133574382Y-74845938D01*
X133472214Y-74835500D01*
X132772794Y-74835500D01*
X132772778Y-74835501D01*
X132670617Y-74845938D01*
X132505082Y-74900790D01*
X132505071Y-74900795D01*
X132356657Y-74992339D01*
X132356653Y-74992342D01*
X132265181Y-75083815D01*
X132203858Y-75117300D01*
X132134166Y-75112316D01*
X132078233Y-75070444D01*
X132053816Y-75004980D01*
X132053500Y-74996134D01*
X132053500Y-71163951D01*
X132054031Y-71155850D01*
X132054918Y-71149118D01*
X132058751Y-71120000D01*
X132037838Y-70961150D01*
X132001898Y-70874382D01*
X131976525Y-70813125D01*
X131976523Y-70813123D01*
X131902235Y-70716308D01*
X131902215Y-70716284D01*
X131885279Y-70694213D01*
X131878987Y-70686013D01*
X131878985Y-70686011D01*
X131878984Y-70686010D01*
X131862939Y-70673699D01*
X131850293Y-70663995D01*
X131844203Y-70658654D01*
X129007624Y-67822075D01*
X128974139Y-67760752D01*
X128979123Y-67691060D01*
X129020995Y-67635127D01*
X129044869Y-67621115D01*
X129047697Y-67619856D01*
X129105192Y-67594257D01*
X129174440Y-67584973D01*
X129237717Y-67614601D01*
G37*
%TD.AperFunction*%
%TA.AperFunction,Conductor*%
G36*
X125259228Y-66457832D02*
G01*
X125315162Y-66499703D01*
X125339215Y-66561050D01*
X125344458Y-66610928D01*
X125344459Y-66610931D01*
X125403470Y-66792549D01*
X125403473Y-66792556D01*
X125498960Y-66957944D01*
X125554117Y-67019202D01*
X125621453Y-67093987D01*
X125626747Y-67099866D01*
X125781248Y-67212118D01*
X125955712Y-67289794D01*
X126142513Y-67329500D01*
X126333487Y-67329500D01*
X126520288Y-67289794D01*
X126573429Y-67266134D01*
X126604315Y-67252383D01*
X126673565Y-67243098D01*
X126736842Y-67272726D01*
X126742432Y-67277981D01*
X130800181Y-71335730D01*
X130833666Y-71397053D01*
X130836500Y-71423411D01*
X130836500Y-84464589D01*
X130816815Y-84531628D01*
X130764011Y-84577383D01*
X130694853Y-84587327D01*
X130631297Y-84558302D01*
X130624819Y-84552270D01*
X125231819Y-79159270D01*
X125198334Y-79097947D01*
X125195500Y-79071589D01*
X125195500Y-76802522D01*
X125215185Y-76735483D01*
X125227350Y-76719550D01*
X125230641Y-76715895D01*
X125326040Y-76609944D01*
X125421527Y-76444556D01*
X125480542Y-76262928D01*
X125500504Y-76073000D01*
X125487156Y-75946000D01*
X126848496Y-75946000D01*
X126868458Y-76135928D01*
X126868459Y-76135931D01*
X126927470Y-76317549D01*
X126927473Y-76317556D01*
X127022960Y-76482944D01*
X127101460Y-76570127D01*
X127121650Y-76592550D01*
X127151880Y-76655541D01*
X127153500Y-76675522D01*
X127153500Y-77807054D01*
X127152969Y-77815156D01*
X127148250Y-77850998D01*
X127153021Y-77887248D01*
X127153023Y-77887263D01*
X127162352Y-77958122D01*
X127169161Y-78009849D01*
X127169163Y-78009854D01*
X127230473Y-78157871D01*
X127230476Y-78157877D01*
X127252434Y-78186492D01*
X127303523Y-78253072D01*
X127303525Y-78253074D01*
X127328013Y-78284987D01*
X127355107Y-78305777D01*
X127356698Y-78306998D01*
X127362794Y-78312343D01*
X127407654Y-78357203D01*
X127447177Y-78396726D01*
X127480662Y-78458049D01*
X127483496Y-78484407D01*
X127483496Y-78485997D01*
X127483496Y-78486000D01*
X127503458Y-78675928D01*
X127503459Y-78675931D01*
X127562470Y-78857549D01*
X127562473Y-78857556D01*
X127657960Y-79022944D01*
X127785747Y-79164866D01*
X127940248Y-79277118D01*
X128114712Y-79354794D01*
X128301513Y-79394500D01*
X128492487Y-79394500D01*
X128679288Y-79354794D01*
X128853752Y-79277118D01*
X129008253Y-79164866D01*
X129136040Y-79022944D01*
X129231527Y-78857556D01*
X129290542Y-78675928D01*
X129310504Y-78486000D01*
X129290542Y-78296072D01*
X129231527Y-78114444D01*
X129136040Y-77949056D01*
X129008253Y-77807134D01*
X128853752Y-77694882D01*
X128679288Y-77617206D01*
X128679286Y-77617205D01*
X128492486Y-77577499D01*
X128486020Y-77576820D01*
X128486204Y-77575064D01*
X128427461Y-77557815D01*
X128381706Y-77505011D01*
X128370500Y-77453500D01*
X128370500Y-76675522D01*
X128390185Y-76608483D01*
X128402350Y-76592550D01*
X128501040Y-76482944D01*
X128596527Y-76317556D01*
X128655542Y-76135928D01*
X128675504Y-75946000D01*
X128655542Y-75756072D01*
X128596527Y-75574444D01*
X128501040Y-75409056D01*
X128373253Y-75267134D01*
X128218752Y-75154882D01*
X128044288Y-75077206D01*
X128044286Y-75077205D01*
X127857487Y-75037500D01*
X127666513Y-75037500D01*
X127479714Y-75077205D01*
X127305246Y-75154883D01*
X127150745Y-75267135D01*
X127022959Y-75409057D01*
X126927473Y-75574443D01*
X126927470Y-75574450D01*
X126868459Y-75756068D01*
X126868458Y-75756072D01*
X126848496Y-75946000D01*
X125487156Y-75946000D01*
X125480542Y-75883072D01*
X125421527Y-75701444D01*
X125326040Y-75536056D01*
X125198253Y-75394134D01*
X125043752Y-75281882D01*
X124869288Y-75204206D01*
X124869286Y-75204205D01*
X124682487Y-75164500D01*
X124491513Y-75164500D01*
X124304714Y-75204205D01*
X124304712Y-75204206D01*
X124163371Y-75267135D01*
X124130246Y-75281883D01*
X123975744Y-75394136D01*
X123975741Y-75394138D01*
X123957494Y-75414405D01*
X123898007Y-75451054D01*
X123828150Y-75449723D01*
X123777663Y-75419114D01*
X123270354Y-74911805D01*
X123265001Y-74905702D01*
X123261301Y-74900880D01*
X123242987Y-74877013D01*
X123211074Y-74852525D01*
X123211072Y-74852523D01*
X123115876Y-74779476D01*
X123115873Y-74779474D01*
X122967850Y-74718161D01*
X122948457Y-74715608D01*
X122846704Y-74702212D01*
X122846678Y-74702210D01*
X122809001Y-74697250D01*
X122808999Y-74697250D01*
X122798527Y-74698628D01*
X122773151Y-74701969D01*
X122765054Y-74702500D01*
X122477411Y-74702500D01*
X122410372Y-74682815D01*
X122389730Y-74666181D01*
X121040819Y-73317270D01*
X121007334Y-73255947D01*
X121004500Y-73229589D01*
X121004500Y-71671945D01*
X121005031Y-71663843D01*
X121009750Y-71627999D01*
X121006926Y-71606551D01*
X121004500Y-71588120D01*
X121004500Y-71588115D01*
X120988838Y-71469150D01*
X120988569Y-71468499D01*
X120927524Y-71321124D01*
X120898029Y-71282685D01*
X120853235Y-71224308D01*
X120853215Y-71224284D01*
X120841103Y-71208500D01*
X120829987Y-71194013D01*
X120829985Y-71194011D01*
X120829984Y-71194010D01*
X120808102Y-71177220D01*
X120801293Y-71171995D01*
X120795203Y-71166654D01*
X120625624Y-70997075D01*
X120592139Y-70935752D01*
X120597123Y-70866060D01*
X120638995Y-70810127D01*
X120662864Y-70796117D01*
X120725752Y-70768118D01*
X120880253Y-70655866D01*
X121008040Y-70513944D01*
X121103527Y-70348556D01*
X121162542Y-70166928D01*
X121182504Y-69977000D01*
X121182503Y-69976997D01*
X121183183Y-69970536D01*
X121185846Y-69970815D01*
X121202189Y-69915160D01*
X121208126Y-69906715D01*
X121210985Y-69902988D01*
X121210987Y-69902987D01*
X121235474Y-69871074D01*
X121235477Y-69871072D01*
X121302450Y-69783791D01*
X121308524Y-69775875D01*
X121369838Y-69627850D01*
X121385500Y-69508885D01*
X121385500Y-69508884D01*
X121385723Y-69507191D01*
X121385726Y-69507160D01*
X121387944Y-69490314D01*
X121390750Y-69469000D01*
X121386030Y-69433151D01*
X121385500Y-69425054D01*
X121385500Y-69137410D01*
X121405185Y-69070371D01*
X121421815Y-69049733D01*
X121684203Y-68787344D01*
X121690292Y-68782004D01*
X121718987Y-68759987D01*
X121737302Y-68736118D01*
X121743475Y-68728073D01*
X121743477Y-68728072D01*
X121814726Y-68635217D01*
X121818544Y-68630705D01*
X121822996Y-68625925D01*
X121826462Y-68619922D01*
X121829614Y-68615813D01*
X121829375Y-68614437D01*
X121838020Y-68580978D01*
X121877838Y-68484850D01*
X121893500Y-68365885D01*
X121893500Y-68365884D01*
X121893723Y-68364191D01*
X121893726Y-68364160D01*
X121898750Y-68325999D01*
X121894031Y-68290156D01*
X121893500Y-68282054D01*
X121893500Y-68088500D01*
X121913185Y-68021461D01*
X121965989Y-67975706D01*
X122017500Y-67964500D01*
X122142487Y-67964500D01*
X122329288Y-67924794D01*
X122503752Y-67847118D01*
X122658253Y-67734866D01*
X122658258Y-67734861D01*
X122684670Y-67705528D01*
X122744157Y-67668879D01*
X122776820Y-67664500D01*
X122892054Y-67664500D01*
X122900151Y-67665030D01*
X122925527Y-67668371D01*
X122935999Y-67669750D01*
X122936000Y-67669750D01*
X122936001Y-67669750D01*
X122971846Y-67665031D01*
X122973961Y-67664752D01*
X122973974Y-67664751D01*
X122975881Y-67664500D01*
X122975885Y-67664500D01*
X123057002Y-67653820D01*
X123075457Y-67651391D01*
X123094851Y-67648838D01*
X123128259Y-67635000D01*
X123242876Y-67587524D01*
X123338072Y-67514477D01*
X123338073Y-67514475D01*
X123346164Y-67508267D01*
X123346171Y-67508261D01*
X123369984Y-67489989D01*
X123369983Y-67489989D01*
X123369987Y-67489987D01*
X123392003Y-67461294D01*
X123397338Y-67455209D01*
X123659731Y-67192816D01*
X123721053Y-67159334D01*
X123747411Y-67156500D01*
X124162054Y-67156500D01*
X124170151Y-67157030D01*
X124187648Y-67159334D01*
X124205999Y-67161750D01*
X124206000Y-67161750D01*
X124206001Y-67161750D01*
X124241846Y-67157031D01*
X124243961Y-67156752D01*
X124243974Y-67156751D01*
X124245881Y-67156500D01*
X124245885Y-67156500D01*
X124327002Y-67145820D01*
X124345457Y-67143391D01*
X124364851Y-67140838D01*
X124418842Y-67118474D01*
X124512876Y-67079524D01*
X124608072Y-67006477D01*
X124608073Y-67006475D01*
X124616164Y-67000267D01*
X124616166Y-67000264D01*
X124639987Y-66981987D01*
X124662010Y-66953286D01*
X124667340Y-66947208D01*
X125128216Y-66486331D01*
X125189537Y-66452848D01*
X125259228Y-66457832D01*
G37*
%TD.AperFunction*%
%TA.AperFunction,Conductor*%
G36*
X118317097Y-75880019D02*
G01*
X118350067Y-75903616D01*
X119869655Y-77423204D01*
X119874996Y-77429294D01*
X119881668Y-77437989D01*
X119897010Y-77457984D01*
X119897011Y-77457985D01*
X119897013Y-77457987D01*
X119920894Y-77476311D01*
X119927284Y-77481215D01*
X119927308Y-77481235D01*
X119943831Y-77493913D01*
X120018212Y-77550987D01*
X120059414Y-77607413D01*
X120063569Y-77677159D01*
X120030406Y-77737043D01*
X118281078Y-79486371D01*
X118219755Y-79519856D01*
X118219185Y-79519979D01*
X118208714Y-79522205D01*
X118208712Y-79522206D01*
X118067425Y-79585111D01*
X118034244Y-79599884D01*
X117879745Y-79712135D01*
X117751959Y-79854057D01*
X117656473Y-80019443D01*
X117656470Y-80019450D01*
X117602243Y-80186344D01*
X117597458Y-80201072D01*
X117577496Y-80391000D01*
X117588382Y-80494580D01*
X117575814Y-80563308D01*
X117528082Y-80614332D01*
X117490843Y-80628830D01*
X117439887Y-80639661D01*
X117370220Y-80634345D01*
X117314486Y-80592208D01*
X117290381Y-80526628D01*
X117292492Y-80501164D01*
X117291769Y-80501087D01*
X117298999Y-80433844D01*
X117299000Y-80433827D01*
X117299000Y-78736000D01*
X116049000Y-78736000D01*
X116049000Y-80886000D01*
X116712304Y-80886000D01*
X116779343Y-80905685D01*
X116825098Y-80958489D01*
X116835042Y-81027647D01*
X116819691Y-81072000D01*
X116767473Y-81162443D01*
X116767470Y-81162450D01*
X116709293Y-81341501D01*
X116708458Y-81344072D01*
X116691004Y-81510137D01*
X116688496Y-81534000D01*
X116701165Y-81654539D01*
X116688595Y-81723269D01*
X116640863Y-81774292D01*
X116577844Y-81791500D01*
X114293500Y-81791500D01*
X114226461Y-81771815D01*
X114180706Y-81719011D01*
X114169500Y-81667500D01*
X114169500Y-80751985D01*
X114189185Y-80684946D01*
X114241989Y-80639191D01*
X114311147Y-80629247D01*
X114374703Y-80658272D01*
X114392767Y-80677674D01*
X114441813Y-80743190D01*
X114556906Y-80829350D01*
X114556913Y-80829354D01*
X114691620Y-80879596D01*
X114691627Y-80879598D01*
X114751155Y-80885999D01*
X114751172Y-80886000D01*
X115549000Y-80886000D01*
X115549000Y-78360000D01*
X115568685Y-78292961D01*
X115621489Y-78247206D01*
X115673000Y-78236000D01*
X117299000Y-78236000D01*
X117299000Y-76715895D01*
X117318685Y-76648856D01*
X117371489Y-76603101D01*
X117397216Y-76594605D01*
X117556288Y-76560794D01*
X117730752Y-76483118D01*
X117885253Y-76370866D01*
X118013040Y-76228944D01*
X118108527Y-76063556D01*
X118144456Y-75952978D01*
X118183892Y-75895304D01*
X118248250Y-75868105D01*
X118317097Y-75880019D01*
G37*
%TD.AperFunction*%
%TA.AperFunction,Conductor*%
G36*
X116843989Y-69010951D02*
G01*
X116855574Y-69024321D01*
X116943809Y-69142187D01*
X116943812Y-69142190D01*
X117058906Y-69228350D01*
X117058913Y-69228354D01*
X117193620Y-69278596D01*
X117193627Y-69278598D01*
X117253155Y-69284999D01*
X117253172Y-69285000D01*
X117388087Y-69285000D01*
X117455126Y-69304685D01*
X117500881Y-69357489D01*
X117510825Y-69426647D01*
X117481800Y-69490203D01*
X117475766Y-69496683D01*
X117427690Y-69544757D01*
X117366367Y-69578241D01*
X117301008Y-69574780D01*
X117136653Y-69520319D01*
X117035654Y-69510000D01*
X116936500Y-69510000D01*
X116936500Y-71459999D01*
X116957181Y-71480680D01*
X116990666Y-71542003D01*
X116993500Y-71568361D01*
X116993500Y-74251054D01*
X116992969Y-74259156D01*
X116988250Y-74294998D01*
X116993021Y-74331248D01*
X116993023Y-74331263D01*
X117002045Y-74399788D01*
X117009162Y-74453852D01*
X117070473Y-74601871D01*
X117070475Y-74601875D01*
X117085810Y-74621860D01*
X117111003Y-74687029D01*
X117096964Y-74755474D01*
X117048150Y-74805463D01*
X117013216Y-74818635D01*
X116991712Y-74823205D01*
X116817249Y-74900880D01*
X116804949Y-74909818D01*
X116739142Y-74933298D01*
X116732063Y-74933500D01*
X116697543Y-74933500D01*
X116630504Y-74913815D01*
X116609862Y-74897181D01*
X116210294Y-74497613D01*
X115805706Y-74093025D01*
X115803259Y-74090431D01*
X115780076Y-74064380D01*
X115755379Y-74036627D01*
X115756695Y-74035455D01*
X115724569Y-73983974D01*
X115720000Y-73950624D01*
X115720000Y-71398216D01*
X115739685Y-71331177D01*
X115792489Y-71285422D01*
X115861647Y-71275478D01*
X115920916Y-71300954D01*
X115925968Y-71304949D01*
X116072688Y-71395448D01*
X116072699Y-71395453D01*
X116236347Y-71449680D01*
X116337351Y-71459999D01*
X116436500Y-71459998D01*
X116436500Y-69509999D01*
X116423042Y-69509999D01*
X116356003Y-69490314D01*
X116310248Y-69437510D01*
X116300304Y-69368352D01*
X116329329Y-69304796D01*
X116335347Y-69298332D01*
X116349325Y-69284354D01*
X116393667Y-69255857D01*
X116447204Y-69235889D01*
X116564261Y-69148261D01*
X116651889Y-69031204D01*
X116651889Y-69031202D01*
X116657041Y-69024321D01*
X116712975Y-68982450D01*
X116782666Y-68977466D01*
X116843989Y-69010951D01*
G37*
%TD.AperFunction*%
%TA.AperFunction,Conductor*%
G36*
X110663442Y-61027805D02*
G01*
X110713716Y-61057013D01*
X110781192Y-61121527D01*
X110816044Y-61182083D01*
X110819500Y-61211153D01*
X110819500Y-62356746D01*
X110799815Y-62423785D01*
X110783181Y-62444427D01*
X108667427Y-64560181D01*
X108606104Y-64593666D01*
X108579746Y-64596500D01*
X106263096Y-64596500D01*
X106080903Y-64596500D01*
X106080902Y-64596500D01*
X106080895Y-64596501D01*
X106039753Y-64605891D01*
X106032894Y-64607057D01*
X105990958Y-64611781D01*
X105990952Y-64611783D01*
X105951119Y-64625720D01*
X105944438Y-64627645D01*
X105903278Y-64637041D01*
X105865242Y-64655357D01*
X105858816Y-64658019D01*
X105818993Y-64671953D01*
X105818981Y-64671959D01*
X105783245Y-64694412D01*
X105777159Y-64697775D01*
X105739128Y-64716092D01*
X105706123Y-64742411D01*
X105700451Y-64746436D01*
X105664720Y-64768888D01*
X105664716Y-64768891D01*
X105632411Y-64801197D01*
X102033180Y-68400427D01*
X101971857Y-68433912D01*
X101902165Y-68428928D01*
X101846232Y-68387056D01*
X101821815Y-68321592D01*
X101821499Y-68312746D01*
X101821499Y-67949794D01*
X101821498Y-67949778D01*
X101817910Y-67914654D01*
X101811062Y-67847619D01*
X101756209Y-67682080D01*
X101756205Y-67682074D01*
X101756204Y-67682071D01*
X101664660Y-67533657D01*
X101664657Y-67533653D01*
X101649674Y-67518670D01*
X101616189Y-67457347D01*
X101621173Y-67387655D01*
X101649680Y-67343301D01*
X101657947Y-67335034D01*
X101748448Y-67188311D01*
X101748453Y-67188300D01*
X101802680Y-67024652D01*
X101812999Y-66923654D01*
X101813000Y-66923641D01*
X101813000Y-66824500D01*
X100712000Y-66824500D01*
X100644961Y-66804815D01*
X100599206Y-66752011D01*
X100588000Y-66700500D01*
X100588000Y-65537000D01*
X101088000Y-65537000D01*
X101088000Y-66324500D01*
X101812999Y-66324500D01*
X101812999Y-66225360D01*
X101812998Y-66225345D01*
X101802680Y-66124347D01*
X101748453Y-65960699D01*
X101748448Y-65960688D01*
X101657947Y-65813965D01*
X101657944Y-65813961D01*
X101536038Y-65692055D01*
X101536034Y-65692052D01*
X101389311Y-65601551D01*
X101389300Y-65601546D01*
X101225652Y-65547319D01*
X101124654Y-65537000D01*
X101088000Y-65537000D01*
X100588000Y-65537000D01*
X100551361Y-65537000D01*
X100551343Y-65537001D01*
X100450347Y-65547319D01*
X100286699Y-65601546D01*
X100286688Y-65601551D01*
X100139965Y-65692052D01*
X100139961Y-65692055D01*
X100030181Y-65801836D01*
X99968858Y-65835321D01*
X99899166Y-65830337D01*
X99843233Y-65788465D01*
X99818816Y-65723001D01*
X99818500Y-65714155D01*
X99818500Y-65262543D01*
X99838185Y-65195504D01*
X99854819Y-65174862D01*
X100480862Y-64548819D01*
X100542185Y-64515334D01*
X100568543Y-64512500D01*
X105091706Y-64512500D01*
X105109676Y-64513809D01*
X105112174Y-64514174D01*
X105133789Y-64517341D01*
X105186426Y-64512735D01*
X105191828Y-64512500D01*
X105200175Y-64512500D01*
X105200180Y-64512500D01*
X105223835Y-64509734D01*
X105233096Y-64508652D01*
X105310419Y-64501888D01*
X105310422Y-64501887D01*
X105310426Y-64501887D01*
X105310429Y-64501885D01*
X105317493Y-64500427D01*
X105317502Y-64500474D01*
X105325097Y-64498790D01*
X105325087Y-64498744D01*
X105332107Y-64497079D01*
X105332113Y-64497079D01*
X105405065Y-64470526D01*
X105478738Y-64446114D01*
X105478746Y-64446108D01*
X105485284Y-64443061D01*
X105485305Y-64443106D01*
X105492302Y-64439719D01*
X105492280Y-64439675D01*
X105498729Y-64436436D01*
X105498728Y-64436436D01*
X105498732Y-64436435D01*
X105563605Y-64393766D01*
X105629651Y-64353030D01*
X105629655Y-64353025D01*
X105635319Y-64348548D01*
X105635350Y-64348587D01*
X105641374Y-64343680D01*
X105641342Y-64343642D01*
X105646864Y-64339007D01*
X105646874Y-64339001D01*
X105697335Y-64285515D01*
X105700163Y-64282518D01*
X107480467Y-62502213D01*
X108118880Y-61863799D01*
X108132506Y-61852023D01*
X108152058Y-61837469D01*
X108162123Y-61825474D01*
X108186015Y-61797000D01*
X108189675Y-61793005D01*
X108195581Y-61787100D01*
X108216135Y-61761104D01*
X108266032Y-61701640D01*
X108266033Y-61701637D01*
X108270004Y-61695601D01*
X108270045Y-61695628D01*
X108274219Y-61689076D01*
X108274176Y-61689050D01*
X108277962Y-61682911D01*
X108277967Y-61682905D01*
X108310775Y-61612547D01*
X108345609Y-61543188D01*
X108345610Y-61543182D01*
X108348077Y-61536405D01*
X108348123Y-61536421D01*
X108353533Y-61520855D01*
X108355625Y-61516368D01*
X108401794Y-61463926D01*
X108454751Y-61445477D01*
X108487201Y-61441989D01*
X108624204Y-61390889D01*
X108741261Y-61303261D01*
X108766733Y-61269233D01*
X108822666Y-61227362D01*
X108892358Y-61222378D01*
X108934311Y-61240057D01*
X109029227Y-61302710D01*
X109237522Y-61391740D01*
X109237525Y-61391741D01*
X109237530Y-61391743D01*
X109458385Y-61442151D01*
X109684691Y-61452315D01*
X109909175Y-61421906D01*
X110124621Y-61351903D01*
X110324106Y-61244556D01*
X110501218Y-61103314D01*
X110534643Y-61065055D01*
X110593573Y-61027521D01*
X110663442Y-61027805D01*
G37*
%TD.AperFunction*%
%TA.AperFunction,Conductor*%
G36*
X151948772Y-56763751D02*
G01*
X152014091Y-56772709D01*
X152102000Y-56787546D01*
X152120561Y-56792177D01*
X152187511Y-56814493D01*
X152190404Y-56815541D01*
X152272502Y-56847693D01*
X152279972Y-56851213D01*
X152347391Y-56888677D01*
X152351211Y-56890983D01*
X152423507Y-56938281D01*
X152429144Y-56942443D01*
X152466145Y-56973148D01*
X152489007Y-56992120D01*
X152493257Y-56995993D01*
X152554005Y-57056741D01*
X152557878Y-57060991D01*
X152607551Y-57120849D01*
X152611722Y-57126498D01*
X152659015Y-57198788D01*
X152661326Y-57202616D01*
X152664701Y-57208689D01*
X152698779Y-57270014D01*
X152702311Y-57277511D01*
X152734441Y-57359551D01*
X152735521Y-57362533D01*
X152757820Y-57429433D01*
X152762454Y-57448007D01*
X152777291Y-57535912D01*
X152786246Y-57601218D01*
X152787302Y-57622883D01*
X152782877Y-57736699D01*
X152781991Y-57754724D01*
X152780845Y-57778024D01*
X152780717Y-57780618D01*
X152779728Y-57789010D01*
X152779493Y-57790261D01*
X152779248Y-57793706D01*
X152777003Y-57809386D01*
X152780148Y-57817718D01*
X152780500Y-57827053D01*
X152780500Y-93065316D01*
X152760815Y-93132355D01*
X152708011Y-93178110D01*
X152638853Y-93188054D01*
X152575297Y-93159029D01*
X152537523Y-93100251D01*
X152534531Y-93087668D01*
X152486332Y-92824658D01*
X152389164Y-92512835D01*
X152389160Y-92512824D01*
X152255102Y-92214958D01*
X152255101Y-92214956D01*
X152086118Y-91935423D01*
X152086112Y-91935414D01*
X151938521Y-91747030D01*
X150795788Y-92889763D01*
X150695106Y-92748376D01*
X150543068Y-92603408D01*
X150440777Y-92537669D01*
X150627523Y-92350923D01*
X150826726Y-92350923D01*
X150866339Y-92433179D01*
X150937718Y-92490101D01*
X151004194Y-92505274D01*
X151049258Y-92505274D01*
X151115734Y-92490101D01*
X151187113Y-92433179D01*
X151226726Y-92350923D01*
X151226726Y-92259625D01*
X151187113Y-92177369D01*
X151115734Y-92120447D01*
X151049258Y-92105274D01*
X151004194Y-92105274D01*
X150937718Y-92120447D01*
X150866339Y-92177369D01*
X150826726Y-92259625D01*
X150826726Y-92350923D01*
X150627523Y-92350923D01*
X151584968Y-91393477D01*
X151584968Y-91393476D01*
X151396586Y-91245887D01*
X151117043Y-91076898D01*
X151117041Y-91076897D01*
X150819175Y-90942839D01*
X150819164Y-90942835D01*
X150507341Y-90845667D01*
X150186038Y-90786786D01*
X149860000Y-90767065D01*
X149533961Y-90786786D01*
X149212658Y-90845667D01*
X148900835Y-90942835D01*
X148900824Y-90942839D01*
X148602958Y-91076897D01*
X148602956Y-91076898D01*
X148323423Y-91245881D01*
X148135030Y-91393476D01*
X148135030Y-91393477D01*
X149276693Y-92535140D01*
X149262590Y-92542411D01*
X149097460Y-92672271D01*
X148959890Y-92831035D01*
X148925334Y-92890887D01*
X148385370Y-92350923D01*
X148493274Y-92350923D01*
X148532887Y-92433179D01*
X148604266Y-92490101D01*
X148670742Y-92505274D01*
X148715806Y-92505274D01*
X148782282Y-92490101D01*
X148853661Y-92433179D01*
X148893274Y-92350923D01*
X148893274Y-92259625D01*
X148853661Y-92177369D01*
X148782282Y-92120447D01*
X148715806Y-92105274D01*
X148670742Y-92105274D01*
X148604266Y-92120447D01*
X148532887Y-92177369D01*
X148493274Y-92259625D01*
X148493274Y-92350923D01*
X148385370Y-92350923D01*
X147781477Y-91747030D01*
X147781476Y-91747030D01*
X147633881Y-91935423D01*
X147464898Y-92214956D01*
X147464897Y-92214958D01*
X147330839Y-92512824D01*
X147330835Y-92512835D01*
X147233667Y-92824658D01*
X147174786Y-93145961D01*
X147155065Y-93472000D01*
X147174786Y-93798038D01*
X147233667Y-94119341D01*
X147330835Y-94431164D01*
X147330839Y-94431175D01*
X147464897Y-94729041D01*
X147464898Y-94729043D01*
X147633887Y-95008586D01*
X147781477Y-95196968D01*
X148294070Y-94684375D01*
X148493274Y-94684375D01*
X148532887Y-94766631D01*
X148604266Y-94823553D01*
X148670742Y-94838726D01*
X148715806Y-94838726D01*
X148782282Y-94823553D01*
X148853661Y-94766631D01*
X148893274Y-94684375D01*
X148893274Y-94593077D01*
X148853661Y-94510821D01*
X148782282Y-94453899D01*
X148715806Y-94438726D01*
X148670742Y-94438726D01*
X148604266Y-94453899D01*
X148532887Y-94510821D01*
X148493274Y-94593077D01*
X148493274Y-94684375D01*
X148294070Y-94684375D01*
X148924211Y-94054235D01*
X149024894Y-94195624D01*
X149176932Y-94340592D01*
X149279222Y-94406330D01*
X148135030Y-95550521D01*
X148135030Y-95550522D01*
X148323414Y-95698112D01*
X148323423Y-95698118D01*
X148602956Y-95867101D01*
X148602958Y-95867102D01*
X148900824Y-96001160D01*
X148900835Y-96001164D01*
X149212658Y-96098332D01*
X149475669Y-96146531D01*
X149538062Y-96177977D01*
X149573549Y-96238164D01*
X149570863Y-96307982D01*
X149530858Y-96365265D01*
X149466233Y-96391825D01*
X149453317Y-96392500D01*
X94022043Y-96392500D01*
X94008230Y-96388444D01*
X93988725Y-96391243D01*
X93985289Y-96391488D01*
X93984010Y-96391728D01*
X93975620Y-96392716D01*
X93969063Y-96393039D01*
X93931699Y-96394877D01*
X93817883Y-96399302D01*
X93796218Y-96398246D01*
X93736506Y-96390058D01*
X93730916Y-96389291D01*
X93706769Y-96385216D01*
X93643007Y-96374454D01*
X93624433Y-96369820D01*
X93557533Y-96347521D01*
X93554551Y-96346441D01*
X93472511Y-96314311D01*
X93465014Y-96310779D01*
X93419396Y-96285429D01*
X93397616Y-96273326D01*
X93393788Y-96271015D01*
X93321498Y-96223722D01*
X93315849Y-96219551D01*
X93283105Y-96192378D01*
X93255991Y-96169878D01*
X93251741Y-96166005D01*
X93190993Y-96105257D01*
X93187120Y-96101007D01*
X93169895Y-96080250D01*
X93137443Y-96041144D01*
X93133281Y-96035507D01*
X93085983Y-95963210D01*
X93083672Y-95959382D01*
X93046213Y-95891972D01*
X93042693Y-95884502D01*
X93010541Y-95802404D01*
X93009493Y-95799511D01*
X92987177Y-95732561D01*
X92982546Y-95714000D01*
X92967709Y-95626087D01*
X92958751Y-95560772D01*
X92957696Y-95539122D01*
X92962124Y-95425231D01*
X92963969Y-95387737D01*
X92964812Y-95381514D01*
X92965757Y-95368275D01*
X92968006Y-95352594D01*
X92964784Y-95343855D01*
X92964500Y-95335467D01*
X92964500Y-93345000D01*
X93435065Y-93345000D01*
X93454786Y-93671038D01*
X93513667Y-93992341D01*
X93610835Y-94304164D01*
X93610839Y-94304175D01*
X93744897Y-94602041D01*
X93744898Y-94602043D01*
X93913887Y-94881586D01*
X94061477Y-95069968D01*
X94574070Y-94557375D01*
X94773274Y-94557375D01*
X94812887Y-94639631D01*
X94884266Y-94696553D01*
X94950742Y-94711726D01*
X94995806Y-94711726D01*
X95062282Y-94696553D01*
X95133661Y-94639631D01*
X95173274Y-94557375D01*
X95173274Y-94466077D01*
X95133661Y-94383821D01*
X95062282Y-94326899D01*
X94995806Y-94311726D01*
X94950742Y-94311726D01*
X94884266Y-94326899D01*
X94812887Y-94383821D01*
X94773274Y-94466077D01*
X94773274Y-94557375D01*
X94574070Y-94557375D01*
X95204210Y-93927234D01*
X95304894Y-94068624D01*
X95456932Y-94213592D01*
X95559222Y-94279330D01*
X94415030Y-95423521D01*
X94415030Y-95423522D01*
X94603414Y-95571112D01*
X94603423Y-95571118D01*
X94882956Y-95740101D01*
X94882958Y-95740102D01*
X95180824Y-95874160D01*
X95180835Y-95874164D01*
X95492658Y-95971332D01*
X95813961Y-96030213D01*
X96140000Y-96049934D01*
X96466038Y-96030213D01*
X96787341Y-95971332D01*
X97099164Y-95874164D01*
X97099175Y-95874160D01*
X97397041Y-95740102D01*
X97397043Y-95740101D01*
X97676576Y-95571118D01*
X97676584Y-95571112D01*
X97864968Y-95423522D01*
X97864968Y-95423521D01*
X96998822Y-94557375D01*
X97106726Y-94557375D01*
X97146339Y-94639631D01*
X97217718Y-94696553D01*
X97284194Y-94711726D01*
X97329258Y-94711726D01*
X97395734Y-94696553D01*
X97467113Y-94639631D01*
X97506726Y-94557375D01*
X97506726Y-94466077D01*
X97467113Y-94383821D01*
X97395734Y-94326899D01*
X97329258Y-94311726D01*
X97284194Y-94311726D01*
X97217718Y-94326899D01*
X97146339Y-94383821D01*
X97106726Y-94466077D01*
X97106726Y-94557375D01*
X96998822Y-94557375D01*
X96723306Y-94281859D01*
X96737410Y-94274589D01*
X96902540Y-94144729D01*
X97040110Y-93985965D01*
X97074665Y-93926112D01*
X98218521Y-95069968D01*
X98218522Y-95069968D01*
X98366112Y-94881584D01*
X98366118Y-94881576D01*
X98535101Y-94602043D01*
X98535102Y-94602041D01*
X98669160Y-94304175D01*
X98669164Y-94304164D01*
X98766332Y-93992341D01*
X98825213Y-93671038D01*
X98844934Y-93345000D01*
X98825213Y-93018961D01*
X98766332Y-92697658D01*
X98669164Y-92385835D01*
X98669160Y-92385824D01*
X98535102Y-92087958D01*
X98535101Y-92087956D01*
X98366118Y-91808423D01*
X98366112Y-91808414D01*
X98218521Y-91620030D01*
X97075788Y-92762763D01*
X96975106Y-92621376D01*
X96823068Y-92476408D01*
X96720777Y-92410669D01*
X96907523Y-92223923D01*
X97106726Y-92223923D01*
X97146339Y-92306179D01*
X97217718Y-92363101D01*
X97284194Y-92378274D01*
X97329258Y-92378274D01*
X97395734Y-92363101D01*
X97467113Y-92306179D01*
X97506726Y-92223923D01*
X97506726Y-92132625D01*
X97467113Y-92050369D01*
X97395734Y-91993447D01*
X97329258Y-91978274D01*
X97284194Y-91978274D01*
X97217718Y-91993447D01*
X97146339Y-92050369D01*
X97106726Y-92132625D01*
X97106726Y-92223923D01*
X96907523Y-92223923D01*
X97864968Y-91266477D01*
X97864968Y-91266476D01*
X97676586Y-91118887D01*
X97397043Y-90949898D01*
X97397041Y-90949897D01*
X97099175Y-90815839D01*
X97099164Y-90815835D01*
X96787341Y-90718667D01*
X96466038Y-90659786D01*
X96140000Y-90640065D01*
X95813961Y-90659786D01*
X95492658Y-90718667D01*
X95180835Y-90815835D01*
X95180824Y-90815839D01*
X94882958Y-90949897D01*
X94882956Y-90949898D01*
X94603423Y-91118881D01*
X94415030Y-91266476D01*
X94415030Y-91266477D01*
X95556693Y-92408140D01*
X95542590Y-92415411D01*
X95377460Y-92545271D01*
X95239890Y-92704035D01*
X95205334Y-92763887D01*
X94665370Y-92223923D01*
X94773274Y-92223923D01*
X94812887Y-92306179D01*
X94884266Y-92363101D01*
X94950742Y-92378274D01*
X94995806Y-92378274D01*
X95062282Y-92363101D01*
X95133661Y-92306179D01*
X95173274Y-92223923D01*
X95173274Y-92132625D01*
X95133661Y-92050369D01*
X95062282Y-91993447D01*
X94995806Y-91978274D01*
X94950742Y-91978274D01*
X94884266Y-91993447D01*
X94812887Y-92050369D01*
X94773274Y-92132625D01*
X94773274Y-92223923D01*
X94665370Y-92223923D01*
X94061477Y-91620030D01*
X94061476Y-91620030D01*
X93913881Y-91808423D01*
X93744898Y-92087956D01*
X93744897Y-92087958D01*
X93610839Y-92385824D01*
X93610835Y-92385835D01*
X93513667Y-92697658D01*
X93454786Y-93018961D01*
X93435065Y-93345000D01*
X92964500Y-93345000D01*
X92964500Y-74399788D01*
X98296659Y-74399788D01*
X98301264Y-74452420D01*
X98301500Y-74457827D01*
X98301500Y-74466178D01*
X98305347Y-74499096D01*
X98312112Y-74576427D01*
X98313572Y-74583494D01*
X98313526Y-74583503D01*
X98315209Y-74591094D01*
X98315254Y-74591084D01*
X98316919Y-74598110D01*
X98343473Y-74671065D01*
X98367886Y-74744737D01*
X98370940Y-74751286D01*
X98370896Y-74751306D01*
X98374284Y-74758304D01*
X98374327Y-74758283D01*
X98377568Y-74764737D01*
X98420232Y-74829604D01*
X98430307Y-74845938D01*
X98460970Y-74895651D01*
X98460972Y-74895653D01*
X98465451Y-74901318D01*
X98465413Y-74901347D01*
X98470320Y-74907372D01*
X98470357Y-74907342D01*
X98475002Y-74912878D01*
X98531482Y-74966163D01*
X99283213Y-75717894D01*
X99313463Y-75767256D01*
X99368471Y-75936552D01*
X99368473Y-75936556D01*
X99463960Y-76101944D01*
X99591747Y-76243866D01*
X99746248Y-76356118D01*
X99920712Y-76433794D01*
X100107513Y-76473500D01*
X100298487Y-76473500D01*
X100485288Y-76433794D01*
X100659752Y-76356118D01*
X100814253Y-76243866D01*
X100942040Y-76101944D01*
X101037527Y-75936556D01*
X101096542Y-75754928D01*
X101116504Y-75565000D01*
X101096542Y-75375072D01*
X101037527Y-75193444D01*
X100942040Y-75028056D01*
X100814253Y-74886134D01*
X100667764Y-74779703D01*
X100659755Y-74773884D01*
X100659754Y-74773883D01*
X100659752Y-74773882D01*
X100485288Y-74696206D01*
X100485286Y-74696205D01*
X100421648Y-74682678D01*
X100360167Y-74649484D01*
X100359750Y-74649069D01*
X99854819Y-74144138D01*
X99821334Y-74082815D01*
X99818500Y-74056457D01*
X99818500Y-70623959D01*
X99838185Y-70556920D01*
X99890989Y-70511165D01*
X99960147Y-70501221D01*
X99993702Y-70512840D01*
X99994311Y-70511474D01*
X100000245Y-70514116D01*
X100000248Y-70514118D01*
X100174712Y-70591794D01*
X100361513Y-70631500D01*
X100552487Y-70631500D01*
X100739288Y-70591794D01*
X100850633Y-70542219D01*
X100901068Y-70531500D01*
X101945093Y-70531500D01*
X101945097Y-70531500D01*
X101978081Y-70523970D01*
X101986244Y-70522108D01*
X101993106Y-70520942D01*
X102000928Y-70520060D01*
X102035047Y-70516217D01*
X102074906Y-70502269D01*
X102081542Y-70500357D01*
X102122720Y-70490959D01*
X102160758Y-70472639D01*
X102167169Y-70469984D01*
X102195912Y-70459927D01*
X102265686Y-70456367D01*
X102326313Y-70491096D01*
X102353486Y-70542385D01*
X102355450Y-70541748D01*
X102416470Y-70729549D01*
X102416473Y-70729556D01*
X102511960Y-70894944D01*
X102639747Y-71036866D01*
X102794248Y-71149118D01*
X102968712Y-71226794D01*
X103155513Y-71266500D01*
X103346487Y-71266500D01*
X103533288Y-71226794D01*
X103644633Y-71177219D01*
X103695068Y-71166500D01*
X103715500Y-71166500D01*
X103782539Y-71186185D01*
X103828294Y-71238989D01*
X103839500Y-71290500D01*
X103839500Y-73370102D01*
X103848891Y-73411244D01*
X103850057Y-73418104D01*
X103854781Y-73460041D01*
X103854783Y-73460047D01*
X103868721Y-73499884D01*
X103870646Y-73506566D01*
X103880038Y-73547711D01*
X103880043Y-73547724D01*
X103898353Y-73585746D01*
X103901015Y-73592174D01*
X103914955Y-73632011D01*
X103914957Y-73632015D01*
X103937411Y-73667751D01*
X103940777Y-73673841D01*
X103959090Y-73711869D01*
X103959091Y-73711871D01*
X103985407Y-73744869D01*
X103989435Y-73750545D01*
X104011889Y-73786281D01*
X105413248Y-75187640D01*
X105443498Y-75237003D01*
X105464470Y-75301549D01*
X105464472Y-75301554D01*
X105464473Y-75301556D01*
X105559960Y-75466944D01*
X105687747Y-75608866D01*
X105743130Y-75649104D01*
X105833483Y-75714750D01*
X105876148Y-75770080D01*
X105882127Y-75839694D01*
X105849521Y-75901489D01*
X105848278Y-75902749D01*
X105015453Y-76735575D01*
X104954130Y-76769060D01*
X104884439Y-76764076D01*
X104877338Y-76761174D01*
X104803289Y-76728206D01*
X104803286Y-76728205D01*
X104616487Y-76688500D01*
X104425513Y-76688500D01*
X104238714Y-76728205D01*
X104064243Y-76805884D01*
X103983129Y-76864818D01*
X103917323Y-76888298D01*
X103910244Y-76888500D01*
X103655279Y-76888500D01*
X103651535Y-76888387D01*
X103588910Y-76884599D01*
X103588908Y-76884599D01*
X103588907Y-76884599D01*
X103575296Y-76887093D01*
X103527207Y-76895904D01*
X103523508Y-76896467D01*
X103461205Y-76904033D01*
X103461194Y-76904035D01*
X103451483Y-76907718D01*
X103429885Y-76913739D01*
X103419671Y-76915611D01*
X103419668Y-76915612D01*
X103362458Y-76941360D01*
X103358998Y-76942793D01*
X103300326Y-76965045D01*
X103300318Y-76965049D01*
X103291778Y-76970944D01*
X103272240Y-76981964D01*
X103262775Y-76986224D01*
X103262771Y-76986226D01*
X103213382Y-77024920D01*
X103210367Y-77027138D01*
X103158731Y-77062780D01*
X103158728Y-77062782D01*
X103117115Y-77109753D01*
X103114548Y-77112480D01*
X102069424Y-78157604D01*
X102030859Y-78183781D01*
X101980167Y-78205647D01*
X101837945Y-78311528D01*
X101837941Y-78311531D01*
X101723970Y-78447357D01*
X101723969Y-78447358D01*
X101723968Y-78447360D01*
X101684534Y-78525878D01*
X101644391Y-78605811D01*
X101632242Y-78657071D01*
X101603764Y-78777233D01*
X101603500Y-78778345D01*
X101603500Y-92398367D01*
X101585039Y-92463463D01*
X101530883Y-92551263D01*
X101530883Y-92551264D01*
X101475113Y-92719570D01*
X101475113Y-92719571D01*
X101464500Y-92823447D01*
X101464500Y-94374537D01*
X101464501Y-94374553D01*
X101475113Y-94478427D01*
X101530884Y-94646735D01*
X101530886Y-94646740D01*
X101535650Y-94654464D01*
X101623970Y-94797652D01*
X101749348Y-94923030D01*
X101900262Y-95016115D01*
X102068574Y-95071887D01*
X102172455Y-95082500D01*
X103473544Y-95082499D01*
X103577426Y-95071887D01*
X103745738Y-95016115D01*
X103896652Y-94923030D01*
X104022030Y-94797652D01*
X104113417Y-94649489D01*
X104165363Y-94602768D01*
X104234326Y-94591545D01*
X104298408Y-94619389D01*
X104308468Y-94628780D01*
X104422228Y-94747476D01*
X104608153Y-94884985D01*
X104814643Y-94989095D01*
X105035757Y-95056811D01*
X105265135Y-95086184D01*
X105496178Y-95076369D01*
X105722238Y-95027649D01*
X105936813Y-94941426D01*
X106133730Y-94820179D01*
X106307324Y-94667398D01*
X106452600Y-94487476D01*
X106470200Y-94455971D01*
X106520079Y-94407044D01*
X106588492Y-94392851D01*
X106653718Y-94417898D01*
X106680029Y-94445321D01*
X106784886Y-94595073D01*
X106784891Y-94595079D01*
X106951917Y-94762105D01*
X107145421Y-94897600D01*
X107359507Y-94997429D01*
X107359516Y-94997433D01*
X107573000Y-95054634D01*
X107573000Y-94007018D01*
X107687801Y-94059446D01*
X107789025Y-94074000D01*
X107856975Y-94074000D01*
X107958199Y-94059446D01*
X108073000Y-94007018D01*
X108073000Y-95054633D01*
X108286483Y-94997433D01*
X108286492Y-94997429D01*
X108500577Y-94897600D01*
X108500579Y-94897599D01*
X108694073Y-94762113D01*
X108694079Y-94762108D01*
X108861108Y-94595079D01*
X108861113Y-94595073D01*
X108996599Y-94401579D01*
X108996600Y-94401577D01*
X109096429Y-94187492D01*
X109096433Y-94187483D01*
X109157567Y-93959326D01*
X109157569Y-93959316D01*
X109167221Y-93849000D01*
X108226969Y-93849000D01*
X108259519Y-93798351D01*
X108298000Y-93667295D01*
X108298000Y-93530705D01*
X108259519Y-93399649D01*
X108226969Y-93349000D01*
X109167221Y-93349000D01*
X109157569Y-93238683D01*
X109157567Y-93238673D01*
X109096433Y-93010516D01*
X109096429Y-93010507D01*
X108996600Y-92796422D01*
X108996599Y-92796420D01*
X108861113Y-92602926D01*
X108861108Y-92602920D01*
X108694082Y-92435894D01*
X108500578Y-92300399D01*
X108286492Y-92200570D01*
X108286486Y-92200567D01*
X108073000Y-92143364D01*
X108073000Y-93190981D01*
X107958199Y-93138554D01*
X107856975Y-93124000D01*
X107789025Y-93124000D01*
X107687801Y-93138554D01*
X107573000Y-93190981D01*
X107573000Y-92143364D01*
X107572999Y-92143364D01*
X107359513Y-92200567D01*
X107359507Y-92200570D01*
X107145422Y-92300399D01*
X107145420Y-92300400D01*
X106951926Y-92435886D01*
X106951920Y-92435891D01*
X106784891Y-92602920D01*
X106784890Y-92602922D01*
X106679166Y-92753911D01*
X106624589Y-92797536D01*
X106555090Y-92804728D01*
X106492736Y-92773206D01*
X106474856Y-92752224D01*
X106383790Y-92617486D01*
X106383786Y-92617481D01*
X106383783Y-92617477D01*
X106223772Y-92450524D01*
X106223771Y-92450523D01*
X106223770Y-92450522D01*
X106131765Y-92382475D01*
X106089571Y-92326785D01*
X106081500Y-92282780D01*
X106081500Y-88750293D01*
X106082809Y-88732322D01*
X106086341Y-88708211D01*
X106081735Y-88655573D01*
X106081500Y-88650171D01*
X106081500Y-88641824D01*
X106081499Y-88641813D01*
X106077652Y-88608904D01*
X106070887Y-88531576D01*
X106070887Y-88531573D01*
X106070885Y-88531568D01*
X106069427Y-88524504D01*
X106069475Y-88524493D01*
X106067794Y-88516909D01*
X106067746Y-88516921D01*
X106066079Y-88509893D01*
X106066079Y-88509887D01*
X106047710Y-88459419D01*
X106039530Y-88436943D01*
X106020919Y-88380779D01*
X106015114Y-88363261D01*
X106015112Y-88363257D01*
X106012060Y-88356712D01*
X106012104Y-88356691D01*
X106008720Y-88349701D01*
X106008676Y-88349724D01*
X106005438Y-88343278D01*
X106005435Y-88343268D01*
X105962771Y-88278400D01*
X105922030Y-88212349D01*
X105922025Y-88212344D01*
X105917552Y-88206686D01*
X105917590Y-88206655D01*
X105912681Y-88200629D01*
X105912645Y-88200660D01*
X105908005Y-88195131D01*
X105908003Y-88195129D01*
X105908001Y-88195126D01*
X105875062Y-88164050D01*
X105851517Y-88141835D01*
X104658862Y-86949181D01*
X104625377Y-86887858D01*
X104630361Y-86818166D01*
X104672233Y-86762233D01*
X104737697Y-86737816D01*
X104746543Y-86737500D01*
X110298706Y-86737500D01*
X110316676Y-86738809D01*
X110319174Y-86739174D01*
X110340789Y-86742341D01*
X110393426Y-86737735D01*
X110398828Y-86737500D01*
X110407175Y-86737500D01*
X110407180Y-86737500D01*
X110430835Y-86734734D01*
X110440096Y-86733652D01*
X110517419Y-86726888D01*
X110517422Y-86726887D01*
X110517426Y-86726887D01*
X110517429Y-86726885D01*
X110524493Y-86725427D01*
X110524502Y-86725474D01*
X110532097Y-86723790D01*
X110532087Y-86723744D01*
X110539107Y-86722079D01*
X110539113Y-86722079D01*
X110612065Y-86695526D01*
X110685738Y-86671114D01*
X110685746Y-86671108D01*
X110692284Y-86668061D01*
X110692305Y-86668106D01*
X110699302Y-86664719D01*
X110699280Y-86664675D01*
X110705729Y-86661436D01*
X110705728Y-86661436D01*
X110705732Y-86661435D01*
X110770605Y-86618766D01*
X110836651Y-86578030D01*
X110836655Y-86578025D01*
X110842319Y-86573548D01*
X110842350Y-86573587D01*
X110848374Y-86568680D01*
X110848342Y-86568642D01*
X110853864Y-86564007D01*
X110853874Y-86564001D01*
X110885137Y-86530864D01*
X110907163Y-86507518D01*
X114069862Y-83344819D01*
X114131185Y-83311334D01*
X114157543Y-83308500D01*
X119561896Y-83308500D01*
X119628935Y-83328185D01*
X119667434Y-83367403D01*
X119732967Y-83473648D01*
X119732970Y-83473652D01*
X119858348Y-83599030D01*
X119871245Y-83606985D01*
X119917969Y-83658933D01*
X119929675Y-83701713D01*
X119934112Y-83752427D01*
X119935572Y-83759494D01*
X119935526Y-83759503D01*
X119937209Y-83767094D01*
X119937254Y-83767084D01*
X119938919Y-83774110D01*
X119965473Y-83847065D01*
X119989886Y-83920737D01*
X119992940Y-83927286D01*
X119992896Y-83927306D01*
X119996284Y-83934304D01*
X119996327Y-83934283D01*
X119999563Y-83940728D01*
X119999565Y-83940732D01*
X120042233Y-84005605D01*
X120082970Y-84071651D01*
X120082972Y-84071653D01*
X120087451Y-84077318D01*
X120087413Y-84077347D01*
X120092320Y-84083372D01*
X120092357Y-84083342D01*
X120097002Y-84088878D01*
X120153482Y-84142163D01*
X122145196Y-86133877D01*
X122156977Y-86147509D01*
X122171531Y-86167058D01*
X122212012Y-86201025D01*
X122215986Y-86204667D01*
X122221900Y-86210581D01*
X122247895Y-86231135D01*
X122307360Y-86281032D01*
X122307361Y-86281032D01*
X122307363Y-86281034D01*
X122313396Y-86285002D01*
X122313370Y-86285041D01*
X122319927Y-86289218D01*
X122319953Y-86289178D01*
X122326091Y-86292964D01*
X122326095Y-86292967D01*
X122396452Y-86325775D01*
X122465812Y-86360609D01*
X122465818Y-86360610D01*
X122472606Y-86363082D01*
X122472589Y-86363128D01*
X122479924Y-86365677D01*
X122479940Y-86365632D01*
X122486789Y-86367902D01*
X122486794Y-86367903D01*
X122562850Y-86383607D01*
X122623603Y-86398006D01*
X122638339Y-86401499D01*
X122638340Y-86401499D01*
X122638344Y-86401500D01*
X122638348Y-86401500D01*
X122645517Y-86402338D01*
X122645511Y-86402386D01*
X122653242Y-86403177D01*
X122653247Y-86403130D01*
X122660437Y-86403759D01*
X122660441Y-86403758D01*
X122660442Y-86403759D01*
X122738080Y-86401500D01*
X127151077Y-86401500D01*
X127218116Y-86421185D01*
X127263871Y-86473989D01*
X127273815Y-86543147D01*
X127244790Y-86606703D01*
X127243227Y-86608472D01*
X127149959Y-86712057D01*
X127054473Y-86877443D01*
X127054470Y-86877450D01*
X126995459Y-87059068D01*
X126995458Y-87059072D01*
X126975496Y-87249000D01*
X126995458Y-87438928D01*
X126995459Y-87438931D01*
X127054470Y-87620549D01*
X127054473Y-87620556D01*
X127149960Y-87785944D01*
X127277747Y-87927866D01*
X127432248Y-88040118D01*
X127606712Y-88117794D01*
X127793513Y-88157500D01*
X127984487Y-88157500D01*
X128171288Y-88117794D01*
X128345752Y-88040118D01*
X128500253Y-87927866D01*
X128588350Y-87830023D01*
X128647836Y-87793375D01*
X128717693Y-87794705D01*
X128775742Y-87833592D01*
X128803552Y-87897689D01*
X128804500Y-87912996D01*
X128804500Y-89364054D01*
X128803969Y-89372156D01*
X128799250Y-89407999D01*
X128799250Y-89408002D01*
X128804260Y-89446061D01*
X128804261Y-89446072D01*
X128804500Y-89447885D01*
X128805016Y-89451801D01*
X128807534Y-89470931D01*
X128820162Y-89566849D01*
X128820163Y-89566854D01*
X128881473Y-89714871D01*
X128881476Y-89714877D01*
X128919729Y-89764728D01*
X128954523Y-89810072D01*
X128954525Y-89810074D01*
X128960564Y-89817944D01*
X128979012Y-89841986D01*
X129007698Y-89863998D01*
X129013794Y-89869343D01*
X129990118Y-90845667D01*
X130927181Y-91782730D01*
X130960666Y-91844053D01*
X130963500Y-91870411D01*
X130963500Y-92253227D01*
X130943815Y-92320266D01*
X130891011Y-92366021D01*
X130852104Y-92376585D01*
X130817572Y-92380113D01*
X130649264Y-92435884D01*
X130649259Y-92435886D01*
X130498346Y-92528971D01*
X130372970Y-92654347D01*
X130372967Y-92654351D01*
X130281583Y-92802507D01*
X130229635Y-92849232D01*
X130160672Y-92860453D01*
X130096591Y-92832610D01*
X130086531Y-92823218D01*
X129972772Y-92704524D01*
X129972770Y-92704522D01*
X129880765Y-92636475D01*
X129838571Y-92580785D01*
X129830500Y-92536780D01*
X129830500Y-92306294D01*
X129831809Y-92288324D01*
X129835341Y-92264208D01*
X129831032Y-92214958D01*
X129830735Y-92211573D01*
X129830500Y-92206172D01*
X129830500Y-92197824D01*
X129830499Y-92197813D01*
X129828626Y-92181794D01*
X129826652Y-92164904D01*
X129819887Y-92087574D01*
X129819885Y-92087570D01*
X129818427Y-92080503D01*
X129818473Y-92080493D01*
X129816790Y-92072902D01*
X129816744Y-92072914D01*
X129815080Y-92065895D01*
X129815079Y-92065887D01*
X129788526Y-91992934D01*
X129764114Y-91919262D01*
X129764113Y-91919260D01*
X129761061Y-91912715D01*
X129761105Y-91912694D01*
X129757717Y-91905695D01*
X129757674Y-91905717D01*
X129754436Y-91899269D01*
X129711766Y-91834394D01*
X129671030Y-91768349D01*
X129666553Y-91762687D01*
X129666590Y-91762656D01*
X129661681Y-91756629D01*
X129661645Y-91756660D01*
X129657005Y-91751131D01*
X129657003Y-91751129D01*
X129657001Y-91751126D01*
X129625891Y-91721775D01*
X129600517Y-91697835D01*
X126438804Y-88536123D01*
X126427022Y-88522490D01*
X126412472Y-88502946D01*
X126412471Y-88502945D01*
X126412469Y-88502942D01*
X126411595Y-88502208D01*
X126371987Y-88468972D01*
X126367998Y-88465317D01*
X126362102Y-88459421D01*
X126362101Y-88459420D01*
X126336103Y-88438863D01*
X126276640Y-88388968D01*
X126276635Y-88388965D01*
X126270605Y-88384999D01*
X126270630Y-88384959D01*
X126264069Y-88380779D01*
X126264045Y-88380820D01*
X126257904Y-88377031D01*
X126187540Y-88344220D01*
X126118185Y-88309389D01*
X126111401Y-88306920D01*
X126111416Y-88306876D01*
X126104071Y-88304322D01*
X126104057Y-88304367D01*
X126097205Y-88302096D01*
X126059177Y-88294244D01*
X126021149Y-88286392D01*
X125945656Y-88268500D01*
X125945654Y-88268500D01*
X125945646Y-88268498D01*
X125938482Y-88267661D01*
X125938487Y-88267612D01*
X125930757Y-88266822D01*
X125930753Y-88266870D01*
X125923562Y-88266240D01*
X125845920Y-88268500D01*
X119190294Y-88268500D01*
X119172324Y-88267191D01*
X119148206Y-88263658D01*
X119103029Y-88267612D01*
X119095573Y-88268264D01*
X119090172Y-88268500D01*
X119081820Y-88268500D01*
X119069662Y-88269921D01*
X119048904Y-88272347D01*
X118971577Y-88279112D01*
X118964503Y-88280573D01*
X118964493Y-88280526D01*
X118956905Y-88282209D01*
X118956916Y-88282255D01*
X118949890Y-88283920D01*
X118876944Y-88310469D01*
X118803261Y-88334885D01*
X118796713Y-88337939D01*
X118796693Y-88337896D01*
X118789698Y-88341282D01*
X118789720Y-88341325D01*
X118783267Y-88344565D01*
X118743250Y-88370884D01*
X118700895Y-88388572D01*
X118589713Y-88412205D01*
X118415244Y-88489884D01*
X118260745Y-88602135D01*
X118132959Y-88744057D01*
X118037473Y-88909443D01*
X118037470Y-88909450D01*
X117978459Y-89091068D01*
X117978458Y-89091072D01*
X117958496Y-89281000D01*
X117978458Y-89470928D01*
X117978459Y-89470931D01*
X118037470Y-89652549D01*
X118037473Y-89652556D01*
X118132960Y-89817944D01*
X118260747Y-89959866D01*
X118415248Y-90072118D01*
X118589712Y-90149794D01*
X118776513Y-90189500D01*
X118967487Y-90189500D01*
X119154288Y-90149794D01*
X119328752Y-90072118D01*
X119483253Y-89959866D01*
X119603311Y-89826528D01*
X119662798Y-89789879D01*
X119695461Y-89785500D01*
X125491457Y-89785500D01*
X125558496Y-89805185D01*
X125579138Y-89821819D01*
X128235831Y-92478512D01*
X128269316Y-92539835D01*
X128264332Y-92609527D01*
X128230074Y-92659276D01*
X128087680Y-92784598D01*
X128087672Y-92784605D01*
X127942404Y-92964517D01*
X127942397Y-92964527D01*
X127924797Y-92996032D01*
X127874917Y-93044957D01*
X127806503Y-93059148D01*
X127741278Y-93034099D01*
X127714970Y-93006678D01*
X127610113Y-92856926D01*
X127610108Y-92856920D01*
X127443082Y-92689894D01*
X127249578Y-92554399D01*
X127035492Y-92454570D01*
X127035486Y-92454567D01*
X126822000Y-92397364D01*
X126822000Y-93444981D01*
X126707199Y-93392554D01*
X126605975Y-93378000D01*
X126538025Y-93378000D01*
X126436801Y-93392554D01*
X126322000Y-93444981D01*
X126322000Y-92397364D01*
X126321999Y-92397364D01*
X126108513Y-92454567D01*
X126108507Y-92454570D01*
X125894422Y-92554399D01*
X125894420Y-92554400D01*
X125700926Y-92689886D01*
X125700920Y-92689891D01*
X125533891Y-92856920D01*
X125533886Y-92856926D01*
X125398400Y-93050420D01*
X125398399Y-93050422D01*
X125298570Y-93264507D01*
X125298566Y-93264516D01*
X125237432Y-93492673D01*
X125237430Y-93492683D01*
X125227779Y-93603000D01*
X126168031Y-93603000D01*
X126135481Y-93653649D01*
X126097000Y-93784705D01*
X126097000Y-93921295D01*
X126135481Y-94052351D01*
X126168031Y-94103000D01*
X125227779Y-94103000D01*
X125237430Y-94213316D01*
X125237432Y-94213326D01*
X125298566Y-94441483D01*
X125298570Y-94441492D01*
X125398399Y-94655577D01*
X125398400Y-94655579D01*
X125533886Y-94849073D01*
X125533891Y-94849079D01*
X125700917Y-95016105D01*
X125894421Y-95151600D01*
X126108507Y-95251429D01*
X126108516Y-95251433D01*
X126322000Y-95308634D01*
X126322000Y-94261018D01*
X126436801Y-94313446D01*
X126538025Y-94328000D01*
X126605975Y-94328000D01*
X126707199Y-94313446D01*
X126822000Y-94261018D01*
X126822000Y-95308633D01*
X127035483Y-95251433D01*
X127035492Y-95251429D01*
X127249577Y-95151600D01*
X127249579Y-95151599D01*
X127443073Y-95016113D01*
X127443079Y-95016108D01*
X127610108Y-94849079D01*
X127610113Y-94849073D01*
X127715833Y-94698089D01*
X127770410Y-94654464D01*
X127839908Y-94647270D01*
X127902263Y-94678793D01*
X127920143Y-94699775D01*
X128011209Y-94834513D01*
X128011214Y-94834518D01*
X128011217Y-94834523D01*
X128171228Y-95001476D01*
X128357153Y-95138985D01*
X128563643Y-95243095D01*
X128784757Y-95310811D01*
X129014135Y-95340184D01*
X129245178Y-95330369D01*
X129471238Y-95281649D01*
X129685813Y-95195426D01*
X129882730Y-95074179D01*
X130056324Y-94921398D01*
X130080242Y-94891775D01*
X130137670Y-94851985D01*
X130207497Y-94849558D01*
X130267552Y-94885268D01*
X130282254Y-94904580D01*
X130372967Y-95051648D01*
X130372970Y-95051652D01*
X130498348Y-95177030D01*
X130649262Y-95270115D01*
X130817574Y-95325887D01*
X130921455Y-95336500D01*
X132222544Y-95336499D01*
X132326426Y-95325887D01*
X132494738Y-95270115D01*
X132645652Y-95177030D01*
X132771030Y-95051652D01*
X132864115Y-94900738D01*
X132919887Y-94732426D01*
X132930500Y-94628545D01*
X132930499Y-93077456D01*
X132919887Y-92973574D01*
X132864115Y-92805262D01*
X132771030Y-92654348D01*
X132645652Y-92528970D01*
X132525025Y-92454566D01*
X132494740Y-92435886D01*
X132494735Y-92435884D01*
X132326427Y-92380113D01*
X132291896Y-92376585D01*
X132227205Y-92350188D01*
X132187054Y-92293007D01*
X132180500Y-92253227D01*
X132180500Y-91610945D01*
X132181031Y-91602843D01*
X132185750Y-91566999D01*
X132185041Y-91561617D01*
X132180766Y-91529148D01*
X132180765Y-91529129D01*
X132178939Y-91515257D01*
X132164838Y-91408150D01*
X132104300Y-91261999D01*
X132103662Y-91260303D01*
X132036630Y-91172947D01*
X132030477Y-91164928D01*
X132030476Y-91164927D01*
X132028006Y-91161708D01*
X132005986Y-91133012D01*
X131987570Y-91118881D01*
X131977293Y-91110995D01*
X131971203Y-91105654D01*
X130057819Y-89192270D01*
X130024334Y-89130947D01*
X130021500Y-89104589D01*
X130021500Y-87747411D01*
X130041185Y-87680372D01*
X130093989Y-87634617D01*
X130163147Y-87624673D01*
X130226703Y-87653698D01*
X130233181Y-87659730D01*
X134539655Y-91966204D01*
X134544996Y-91972294D01*
X134554927Y-91985236D01*
X134567010Y-92000984D01*
X134567011Y-92000985D01*
X134567013Y-92000987D01*
X134574624Y-92006827D01*
X134597284Y-92024215D01*
X134597308Y-92024235D01*
X134694123Y-92098523D01*
X134694125Y-92098525D01*
X134787466Y-92137187D01*
X134842150Y-92159838D01*
X134982519Y-92178317D01*
X135000999Y-92180751D01*
X135001000Y-92180751D01*
X135001001Y-92180751D01*
X135036853Y-92176031D01*
X135044954Y-92175500D01*
X137979135Y-92175500D01*
X138046174Y-92195185D01*
X138091929Y-92247989D01*
X138101873Y-92317147D01*
X138072848Y-92380703D01*
X138014070Y-92418477D01*
X138011228Y-92419275D01*
X137879516Y-92454566D01*
X137879507Y-92454570D01*
X137665422Y-92554399D01*
X137665420Y-92554400D01*
X137471926Y-92689886D01*
X137471920Y-92689891D01*
X137304891Y-92856920D01*
X137304886Y-92856926D01*
X137169400Y-93050420D01*
X137169399Y-93050422D01*
X137069570Y-93264507D01*
X137069566Y-93264516D01*
X137008432Y-93492673D01*
X137008430Y-93492683D01*
X136998779Y-93603000D01*
X137939031Y-93603000D01*
X137906481Y-93653649D01*
X137868000Y-93784705D01*
X137868000Y-93921295D01*
X137906481Y-94052351D01*
X137939031Y-94103000D01*
X136998779Y-94103000D01*
X137008430Y-94213316D01*
X137008432Y-94213326D01*
X137069566Y-94441483D01*
X137069570Y-94441492D01*
X137169399Y-94655577D01*
X137169400Y-94655579D01*
X137304886Y-94849073D01*
X137304891Y-94849079D01*
X137471917Y-95016105D01*
X137665421Y-95151600D01*
X137879507Y-95251429D01*
X137879516Y-95251433D01*
X138093000Y-95308634D01*
X138093000Y-94261018D01*
X138207801Y-94313446D01*
X138309025Y-94328000D01*
X138376975Y-94328000D01*
X138478199Y-94313446D01*
X138593000Y-94261018D01*
X138593000Y-95308633D01*
X138806483Y-95251433D01*
X138806492Y-95251429D01*
X139020577Y-95151600D01*
X139020579Y-95151599D01*
X139214073Y-95016113D01*
X139214079Y-95016108D01*
X139381108Y-94849079D01*
X139381113Y-94849073D01*
X139486833Y-94698089D01*
X139541410Y-94654464D01*
X139610908Y-94647270D01*
X139673263Y-94678793D01*
X139691143Y-94699775D01*
X139782209Y-94834513D01*
X139782214Y-94834518D01*
X139782217Y-94834523D01*
X139942228Y-95001476D01*
X140128153Y-95138985D01*
X140334643Y-95243095D01*
X140555757Y-95310811D01*
X140785135Y-95340184D01*
X141016178Y-95330369D01*
X141242238Y-95281649D01*
X141456813Y-95195426D01*
X141653730Y-95074179D01*
X141827324Y-94921398D01*
X141851242Y-94891775D01*
X141908670Y-94851985D01*
X141978497Y-94849558D01*
X142038552Y-94885268D01*
X142053254Y-94904580D01*
X142143967Y-95051648D01*
X142143970Y-95051652D01*
X142269348Y-95177030D01*
X142420262Y-95270115D01*
X142588574Y-95325887D01*
X142692455Y-95336500D01*
X143993544Y-95336499D01*
X144097426Y-95325887D01*
X144265738Y-95270115D01*
X144416652Y-95177030D01*
X144542030Y-95051652D01*
X144635115Y-94900738D01*
X144690887Y-94732426D01*
X144701500Y-94628545D01*
X144701499Y-93077456D01*
X144690887Y-92973574D01*
X144635115Y-92805262D01*
X144542030Y-92654348D01*
X144416652Y-92528970D01*
X144296025Y-92454566D01*
X144265740Y-92435886D01*
X144265735Y-92435884D01*
X144097427Y-92380113D01*
X143993552Y-92369500D01*
X143993545Y-92369500D01*
X143700067Y-92369500D01*
X143633028Y-92349815D01*
X143587273Y-92297011D01*
X143577329Y-92227853D01*
X143606354Y-92164297D01*
X143649629Y-92132221D01*
X143712752Y-92104118D01*
X143867253Y-91991866D01*
X143995040Y-91849944D01*
X144090527Y-91684556D01*
X144145537Y-91515253D01*
X144175783Y-91465896D01*
X147302880Y-88338799D01*
X147316506Y-88327023D01*
X147336058Y-88312469D01*
X147338641Y-88309391D01*
X147370015Y-88272000D01*
X147373675Y-88268005D01*
X147375440Y-88266240D01*
X147379580Y-88262101D01*
X147400136Y-88236103D01*
X147424846Y-88206655D01*
X147450033Y-88176639D01*
X147454003Y-88170603D01*
X147454044Y-88170630D01*
X147458219Y-88164076D01*
X147458177Y-88164050D01*
X147461963Y-88157910D01*
X147461967Y-88157906D01*
X147494775Y-88087546D01*
X147529609Y-88018188D01*
X147529611Y-88018179D01*
X147532080Y-88011399D01*
X147532126Y-88011416D01*
X147534678Y-88004075D01*
X147534631Y-88004060D01*
X147536901Y-87997210D01*
X147536902Y-87997207D01*
X147552600Y-87921177D01*
X147570500Y-87845656D01*
X147570500Y-87845654D01*
X147570501Y-87845650D01*
X147571339Y-87838483D01*
X147571386Y-87838488D01*
X147572176Y-87830757D01*
X147572129Y-87830753D01*
X147572758Y-87823562D01*
X147571663Y-87785942D01*
X147570500Y-87745954D01*
X147570500Y-73590607D01*
X147590185Y-73523568D01*
X147621616Y-73490288D01*
X147621928Y-73490062D01*
X147677253Y-73449866D01*
X147805040Y-73307944D01*
X147900527Y-73142556D01*
X147959542Y-72960928D01*
X147979504Y-72771000D01*
X147959542Y-72581072D01*
X147941589Y-72525818D01*
X147939594Y-72455977D01*
X147975674Y-72396144D01*
X148038375Y-72365316D01*
X148059520Y-72363500D01*
X148699032Y-72363500D01*
X148766071Y-72383185D01*
X148804621Y-72422485D01*
X148892821Y-72565730D01*
X149045602Y-72739324D01*
X149045605Y-72739327D01*
X149225517Y-72884595D01*
X149225523Y-72884600D01*
X149427405Y-72997378D01*
X149427409Y-72997380D01*
X149645450Y-73074419D01*
X149645456Y-73074420D01*
X149873365Y-73113499D01*
X149873373Y-73113499D01*
X149873375Y-73113500D01*
X149873376Y-73113500D01*
X150296719Y-73113500D01*
X150469413Y-73098802D01*
X150469416Y-73098801D01*
X150469418Y-73098801D01*
X150693207Y-73040530D01*
X150693208Y-73040529D01*
X150693210Y-73040529D01*
X150903919Y-72945283D01*
X150903922Y-72945280D01*
X150903929Y-72945278D01*
X151095523Y-72815783D01*
X151262476Y-72655772D01*
X151399985Y-72469847D01*
X151504095Y-72263357D01*
X151571811Y-72042243D01*
X151601184Y-71812865D01*
X151600390Y-71794185D01*
X151595979Y-71690339D01*
X151591369Y-71581822D01*
X151542649Y-71355762D01*
X151520625Y-71300954D01*
X151475374Y-71188342D01*
X151456426Y-71141187D01*
X151335179Y-70944270D01*
X151182398Y-70770676D01*
X151182396Y-70770674D01*
X151182394Y-70770672D01*
X151002482Y-70625404D01*
X151002476Y-70625400D01*
X150978431Y-70611967D01*
X150929506Y-70562086D01*
X150915314Y-70493673D01*
X150940363Y-70428448D01*
X150969466Y-70400982D01*
X151095523Y-70315783D01*
X151262476Y-70155772D01*
X151399985Y-69969847D01*
X151504095Y-69763357D01*
X151571811Y-69542243D01*
X151601184Y-69312865D01*
X151591369Y-69081822D01*
X151591155Y-69080831D01*
X151558059Y-68927264D01*
X151542649Y-68855762D01*
X151456426Y-68641187D01*
X151335179Y-68444270D01*
X151182398Y-68270676D01*
X151152775Y-68246757D01*
X151112984Y-68189329D01*
X151110557Y-68119501D01*
X151146267Y-68059447D01*
X151165571Y-68044750D01*
X151312652Y-67954030D01*
X151438030Y-67828652D01*
X151531115Y-67677738D01*
X151586887Y-67509426D01*
X151597500Y-67405545D01*
X151597499Y-66104456D01*
X151586887Y-66000574D01*
X151531115Y-65832262D01*
X151438030Y-65681348D01*
X151312652Y-65555970D01*
X151161738Y-65462885D01*
X151161735Y-65462884D01*
X150993427Y-65407113D01*
X150889545Y-65396500D01*
X149338462Y-65396500D01*
X149338446Y-65396501D01*
X149234572Y-65407113D01*
X149066264Y-65462884D01*
X149066259Y-65462886D01*
X148915346Y-65555971D01*
X148789971Y-65681346D01*
X148696886Y-65832259D01*
X148696884Y-65832264D01*
X148641113Y-66000572D01*
X148630500Y-66104447D01*
X148630500Y-66196500D01*
X148610815Y-66263539D01*
X148558011Y-66309294D01*
X148506500Y-66320500D01*
X135095820Y-66320500D01*
X135028781Y-66300815D01*
X135003670Y-66279472D01*
X134977258Y-66250138D01*
X134977255Y-66250136D01*
X134977254Y-66250135D01*
X134977253Y-66250134D01*
X134822752Y-66137882D01*
X134648288Y-66060206D01*
X134648286Y-66060205D01*
X134461487Y-66020500D01*
X134270513Y-66020500D01*
X134083714Y-66060205D01*
X134046967Y-66076566D01*
X133931134Y-66128138D01*
X133909246Y-66137883D01*
X133754745Y-66250135D01*
X133626959Y-66392057D01*
X133531473Y-66557443D01*
X133531470Y-66557450D01*
X133483366Y-66705500D01*
X133472458Y-66739072D01*
X133460799Y-66850000D01*
X133454546Y-66909500D01*
X133452496Y-66929000D01*
X133467582Y-67072540D01*
X133455014Y-67141268D01*
X133407282Y-67192292D01*
X133344262Y-67209500D01*
X132174820Y-67209500D01*
X132107781Y-67189815D01*
X132082670Y-67168472D01*
X132056258Y-67139138D01*
X132056255Y-67139136D01*
X132056254Y-67139135D01*
X132056253Y-67139134D01*
X131901752Y-67026882D01*
X131727288Y-66949206D01*
X131727286Y-66949205D01*
X131540487Y-66909500D01*
X131349513Y-66909500D01*
X131162714Y-66949205D01*
X131143086Y-66957944D01*
X131018815Y-67013273D01*
X130988246Y-67026883D01*
X130833747Y-67139133D01*
X130755322Y-67226234D01*
X130695835Y-67262882D01*
X130625978Y-67261551D01*
X130575491Y-67230942D01*
X129747354Y-66402805D01*
X129742001Y-66396702D01*
X129738436Y-66392056D01*
X129719987Y-66368013D01*
X129688074Y-66343525D01*
X129688072Y-66343523D01*
X129592876Y-66270476D01*
X129592873Y-66270474D01*
X129444850Y-66209161D01*
X129444851Y-66209161D01*
X129425456Y-66206608D01*
X129370928Y-66199429D01*
X129307031Y-66171163D01*
X129294962Y-66159461D01*
X129262257Y-66123137D01*
X129262255Y-66123136D01*
X129262254Y-66123135D01*
X129262253Y-66123134D01*
X129107752Y-66010882D01*
X128933288Y-65933206D01*
X128933286Y-65933205D01*
X128746487Y-65893500D01*
X128555513Y-65893500D01*
X128368714Y-65933205D01*
X128194246Y-66010883D01*
X128039745Y-66123135D01*
X127911959Y-66265057D01*
X127823892Y-66417594D01*
X127773325Y-66465810D01*
X127704718Y-66479033D01*
X127639853Y-66453065D01*
X127628824Y-66443275D01*
X127207354Y-66021805D01*
X127202001Y-66015702D01*
X127192707Y-66003590D01*
X127179987Y-65987013D01*
X127179985Y-65987011D01*
X127179984Y-65987010D01*
X127148075Y-65962526D01*
X127148074Y-65962525D01*
X127148072Y-65962523D01*
X127081658Y-65911561D01*
X127052877Y-65889476D01*
X127052873Y-65889474D01*
X126965637Y-65853340D01*
X126920941Y-65821752D01*
X126849253Y-65742134D01*
X126694752Y-65629882D01*
X126520288Y-65552206D01*
X126520286Y-65552205D01*
X126520285Y-65552205D01*
X126366006Y-65519412D01*
X126304524Y-65486220D01*
X126270748Y-65425056D01*
X126275400Y-65355342D01*
X126304106Y-65310441D01*
X126799029Y-64815519D01*
X127469729Y-64144819D01*
X127531052Y-64111334D01*
X127557410Y-64108500D01*
X134957054Y-64108500D01*
X134965151Y-64109030D01*
X134982648Y-64111334D01*
X135000999Y-64113750D01*
X135001000Y-64113750D01*
X135001001Y-64113750D01*
X135036846Y-64109031D01*
X135038961Y-64108752D01*
X135038974Y-64108751D01*
X135040881Y-64108500D01*
X135040885Y-64108500D01*
X135122002Y-64097820D01*
X135140457Y-64095391D01*
X135159851Y-64092838D01*
X135307876Y-64031524D01*
X135403072Y-63958477D01*
X135403073Y-63958475D01*
X135411164Y-63952267D01*
X135411171Y-63952261D01*
X135434983Y-63933990D01*
X135434982Y-63933990D01*
X135434987Y-63933987D01*
X135457010Y-63905285D01*
X135462338Y-63899209D01*
X138234202Y-61127345D01*
X138240293Y-61122003D01*
X138268987Y-61099987D01*
X138287267Y-61076164D01*
X138293475Y-61068073D01*
X138293477Y-61068072D01*
X138366524Y-60972876D01*
X138407888Y-60873014D01*
X138427838Y-60824850D01*
X138443500Y-60705885D01*
X138443500Y-60705884D01*
X138443723Y-60704191D01*
X138443726Y-60704160D01*
X138448750Y-60665999D01*
X138444031Y-60630156D01*
X138443500Y-60622054D01*
X138443500Y-60266272D01*
X138463185Y-60199233D01*
X138515989Y-60153478D01*
X138554898Y-60142914D01*
X138589426Y-60139387D01*
X138757738Y-60083615D01*
X138908652Y-59990530D01*
X139034030Y-59865152D01*
X139125417Y-59716989D01*
X139177363Y-59670268D01*
X139246326Y-59659045D01*
X139310408Y-59686889D01*
X139320468Y-59696280D01*
X139434228Y-59814976D01*
X139620153Y-59952485D01*
X139826643Y-60056595D01*
X140047757Y-60124311D01*
X140277135Y-60153684D01*
X140508178Y-60143869D01*
X140632603Y-60117053D01*
X140702284Y-60122172D01*
X140746408Y-60150589D01*
X144205696Y-63609877D01*
X144217477Y-63623509D01*
X144232031Y-63643058D01*
X144272512Y-63677025D01*
X144276486Y-63680667D01*
X144282400Y-63686581D01*
X144308395Y-63707135D01*
X144367860Y-63757032D01*
X144367861Y-63757032D01*
X144367863Y-63757034D01*
X144373896Y-63761002D01*
X144373870Y-63761041D01*
X144380427Y-63765218D01*
X144380453Y-63765178D01*
X144386591Y-63768964D01*
X144386595Y-63768967D01*
X144456952Y-63801775D01*
X144526312Y-63836609D01*
X144526318Y-63836610D01*
X144533106Y-63839082D01*
X144533089Y-63839128D01*
X144540424Y-63841677D01*
X144540440Y-63841632D01*
X144547289Y-63843902D01*
X144547294Y-63843903D01*
X144623350Y-63859607D01*
X144684103Y-63874006D01*
X144698839Y-63877499D01*
X144698840Y-63877499D01*
X144698844Y-63877500D01*
X144698848Y-63877500D01*
X144706017Y-63878338D01*
X144706011Y-63878386D01*
X144713742Y-63879177D01*
X144713747Y-63879130D01*
X144720937Y-63879759D01*
X144720941Y-63879758D01*
X144720942Y-63879759D01*
X144798580Y-63877500D01*
X146397063Y-63877500D01*
X146464102Y-63897185D01*
X146469949Y-63901182D01*
X146482249Y-63910119D01*
X146549220Y-63939935D01*
X146656712Y-63987794D01*
X146843513Y-64027500D01*
X147034487Y-64027500D01*
X147221288Y-63987794D01*
X147395752Y-63910118D01*
X147550253Y-63797866D01*
X147678040Y-63655944D01*
X147773527Y-63490556D01*
X147832542Y-63308928D01*
X147852504Y-63119000D01*
X147832542Y-62929072D01*
X147773527Y-62747444D01*
X147678040Y-62582056D01*
X147554118Y-62444427D01*
X147550254Y-62440135D01*
X147527751Y-62423785D01*
X147395752Y-62327882D01*
X147221288Y-62250206D01*
X147221286Y-62250205D01*
X147034487Y-62210500D01*
X146843513Y-62210500D01*
X146656714Y-62250205D01*
X146482249Y-62327880D01*
X146469949Y-62336818D01*
X146404142Y-62360298D01*
X146397063Y-62360500D01*
X145153043Y-62360500D01*
X145086004Y-62340815D01*
X145065362Y-62324181D01*
X143062032Y-60320851D01*
X143028547Y-60259528D01*
X143033531Y-60189836D01*
X143075403Y-60133903D01*
X143117620Y-60113395D01*
X143298483Y-60064933D01*
X143298492Y-60064929D01*
X143512577Y-59965100D01*
X143512579Y-59965099D01*
X143706073Y-59829613D01*
X143706079Y-59829608D01*
X143718687Y-59817000D01*
X146520065Y-59817000D01*
X146539786Y-60143038D01*
X146598667Y-60464341D01*
X146695835Y-60776164D01*
X146695839Y-60776175D01*
X146829897Y-61074041D01*
X146829898Y-61074043D01*
X146998887Y-61353586D01*
X147146477Y-61541968D01*
X147659070Y-61029375D01*
X147858274Y-61029375D01*
X147897887Y-61111631D01*
X147969266Y-61168553D01*
X148035742Y-61183726D01*
X148080806Y-61183726D01*
X148147282Y-61168553D01*
X148218661Y-61111631D01*
X148258274Y-61029375D01*
X148258274Y-60938077D01*
X148218661Y-60855821D01*
X148147282Y-60798899D01*
X148080806Y-60783726D01*
X148035742Y-60783726D01*
X147969266Y-60798899D01*
X147897887Y-60855821D01*
X147858274Y-60938077D01*
X147858274Y-61029375D01*
X147659070Y-61029375D01*
X148289211Y-60399235D01*
X148389894Y-60540624D01*
X148541932Y-60685592D01*
X148644222Y-60751330D01*
X147500030Y-61895521D01*
X147500030Y-61895522D01*
X147688414Y-62043112D01*
X147688423Y-62043118D01*
X147967956Y-62212101D01*
X147967958Y-62212102D01*
X148265824Y-62346160D01*
X148265835Y-62346164D01*
X148577658Y-62443332D01*
X148898961Y-62502213D01*
X149225000Y-62521934D01*
X149551038Y-62502213D01*
X149872341Y-62443332D01*
X150184164Y-62346164D01*
X150184175Y-62346160D01*
X150482041Y-62212102D01*
X150482043Y-62212101D01*
X150761576Y-62043118D01*
X150761584Y-62043112D01*
X150949968Y-61895522D01*
X150949968Y-61895521D01*
X150083822Y-61029375D01*
X150191726Y-61029375D01*
X150231339Y-61111631D01*
X150302718Y-61168553D01*
X150369194Y-61183726D01*
X150414258Y-61183726D01*
X150480734Y-61168553D01*
X150552113Y-61111631D01*
X150591726Y-61029375D01*
X150591726Y-60938077D01*
X150552113Y-60855821D01*
X150480734Y-60798899D01*
X150414258Y-60783726D01*
X150369194Y-60783726D01*
X150302718Y-60798899D01*
X150231339Y-60855821D01*
X150191726Y-60938077D01*
X150191726Y-61029375D01*
X150083822Y-61029375D01*
X149808306Y-60753859D01*
X149822410Y-60746589D01*
X149987540Y-60616729D01*
X150125110Y-60457965D01*
X150159665Y-60398112D01*
X151303521Y-61541968D01*
X151303522Y-61541968D01*
X151451112Y-61353584D01*
X151451118Y-61353576D01*
X151620101Y-61074043D01*
X151620102Y-61074041D01*
X151754160Y-60776175D01*
X151754164Y-60776164D01*
X151851332Y-60464341D01*
X151910213Y-60143038D01*
X151929934Y-59817000D01*
X151910213Y-59490961D01*
X151851332Y-59169658D01*
X151754164Y-58857835D01*
X151754160Y-58857824D01*
X151620102Y-58559958D01*
X151620101Y-58559956D01*
X151451118Y-58280423D01*
X151451112Y-58280414D01*
X151303521Y-58092030D01*
X150160788Y-59234763D01*
X150060106Y-59093376D01*
X149908068Y-58948408D01*
X149805777Y-58882669D01*
X149992523Y-58695923D01*
X150191726Y-58695923D01*
X150231339Y-58778179D01*
X150302718Y-58835101D01*
X150369194Y-58850274D01*
X150414258Y-58850274D01*
X150480734Y-58835101D01*
X150552113Y-58778179D01*
X150591726Y-58695923D01*
X150591726Y-58604625D01*
X150552113Y-58522369D01*
X150480734Y-58465447D01*
X150414258Y-58450274D01*
X150369194Y-58450274D01*
X150302718Y-58465447D01*
X150231339Y-58522369D01*
X150191726Y-58604625D01*
X150191726Y-58695923D01*
X149992523Y-58695923D01*
X150949968Y-57738477D01*
X150949968Y-57738476D01*
X150761586Y-57590887D01*
X150482043Y-57421898D01*
X150482041Y-57421897D01*
X150184175Y-57287839D01*
X150184164Y-57287835D01*
X149872341Y-57190667D01*
X149551038Y-57131786D01*
X149225000Y-57112065D01*
X148898961Y-57131786D01*
X148577658Y-57190667D01*
X148265835Y-57287835D01*
X148265824Y-57287839D01*
X147967958Y-57421897D01*
X147967956Y-57421898D01*
X147688423Y-57590881D01*
X147500030Y-57738476D01*
X147500030Y-57738477D01*
X148641693Y-58880140D01*
X148627590Y-58887411D01*
X148462460Y-59017271D01*
X148324890Y-59176035D01*
X148290334Y-59235887D01*
X147750370Y-58695923D01*
X147858274Y-58695923D01*
X147897887Y-58778179D01*
X147969266Y-58835101D01*
X148035742Y-58850274D01*
X148080806Y-58850274D01*
X148147282Y-58835101D01*
X148218661Y-58778179D01*
X148258274Y-58695923D01*
X148258274Y-58604625D01*
X148218661Y-58522369D01*
X148147282Y-58465447D01*
X148080806Y-58450274D01*
X148035742Y-58450274D01*
X147969266Y-58465447D01*
X147897887Y-58522369D01*
X147858274Y-58604625D01*
X147858274Y-58695923D01*
X147750370Y-58695923D01*
X147146477Y-58092030D01*
X147146476Y-58092030D01*
X146998881Y-58280423D01*
X146829898Y-58559956D01*
X146829897Y-58559958D01*
X146695839Y-58857824D01*
X146695835Y-58857835D01*
X146598667Y-59169658D01*
X146539786Y-59490961D01*
X146520065Y-59817000D01*
X143718687Y-59817000D01*
X143873108Y-59662579D01*
X143873113Y-59662573D01*
X144008599Y-59469079D01*
X144008600Y-59469077D01*
X144108429Y-59254992D01*
X144108433Y-59254983D01*
X144169567Y-59026826D01*
X144169569Y-59026816D01*
X144179221Y-58916500D01*
X143238969Y-58916500D01*
X143271519Y-58865851D01*
X143310000Y-58734795D01*
X143310000Y-58598205D01*
X143271519Y-58467149D01*
X143238969Y-58416500D01*
X144179221Y-58416500D01*
X144169569Y-58306183D01*
X144169567Y-58306173D01*
X144108433Y-58078016D01*
X144108429Y-58078007D01*
X144008600Y-57863922D01*
X144008599Y-57863920D01*
X143873113Y-57670426D01*
X143873108Y-57670420D01*
X143706082Y-57503394D01*
X143512578Y-57367899D01*
X143298492Y-57268070D01*
X143298486Y-57268067D01*
X143085000Y-57210864D01*
X143085000Y-58258481D01*
X142970199Y-58206054D01*
X142868975Y-58191500D01*
X142801025Y-58191500D01*
X142699801Y-58206054D01*
X142585000Y-58258481D01*
X142585000Y-57210864D01*
X142584999Y-57210864D01*
X142371513Y-57268067D01*
X142371507Y-57268070D01*
X142157422Y-57367899D01*
X142157420Y-57367900D01*
X141963926Y-57503386D01*
X141963920Y-57503391D01*
X141796891Y-57670420D01*
X141796890Y-57670422D01*
X141691166Y-57821411D01*
X141636589Y-57865036D01*
X141567090Y-57872228D01*
X141504736Y-57840706D01*
X141486856Y-57819724D01*
X141482484Y-57813256D01*
X141436867Y-57745762D01*
X141395790Y-57684986D01*
X141395786Y-57684981D01*
X141395783Y-57684977D01*
X141235772Y-57518024D01*
X141049847Y-57380515D01*
X141049846Y-57380514D01*
X141049844Y-57380513D01*
X140843358Y-57276405D01*
X140658135Y-57219681D01*
X140622243Y-57208689D01*
X140622241Y-57208688D01*
X140622242Y-57208688D01*
X140392859Y-57179315D01*
X140161827Y-57189130D01*
X140161821Y-57189130D01*
X139935759Y-57237851D01*
X139721190Y-57324072D01*
X139524270Y-57445320D01*
X139350679Y-57598099D01*
X139350674Y-57598104D01*
X139326757Y-57627724D01*
X139269326Y-57667515D01*
X139199498Y-57669940D01*
X139139444Y-57634228D01*
X139124747Y-57614923D01*
X139034030Y-57467848D01*
X138908652Y-57342470D01*
X138757738Y-57249385D01*
X138668096Y-57219681D01*
X138589427Y-57193613D01*
X138485545Y-57183000D01*
X137184462Y-57183000D01*
X137184446Y-57183001D01*
X137080572Y-57193613D01*
X136912264Y-57249384D01*
X136912259Y-57249386D01*
X136761346Y-57342471D01*
X136635971Y-57467846D01*
X136542886Y-57618759D01*
X136542884Y-57618764D01*
X136487113Y-57787072D01*
X136476500Y-57890947D01*
X136476500Y-59442037D01*
X136476501Y-59442053D01*
X136487113Y-59545927D01*
X136542884Y-59714235D01*
X136542886Y-59714240D01*
X136546598Y-59720258D01*
X136635970Y-59865152D01*
X136761348Y-59990530D01*
X136912262Y-60083615D01*
X137080574Y-60139387D01*
X137080572Y-60139387D01*
X137091351Y-60140488D01*
X137115102Y-60142914D01*
X137179793Y-60169309D01*
X137219945Y-60226489D01*
X137226500Y-60266272D01*
X137226500Y-60362589D01*
X137206815Y-60429628D01*
X137190181Y-60450270D01*
X134785270Y-62855181D01*
X134723947Y-62888666D01*
X134697589Y-62891500D01*
X127297946Y-62891500D01*
X127289848Y-62890969D01*
X127264472Y-62887628D01*
X127254001Y-62886250D01*
X127253999Y-62886250D01*
X127216489Y-62891188D01*
X127216460Y-62891190D01*
X127114542Y-62904608D01*
X127095148Y-62907161D01*
X126947126Y-62968474D01*
X126947122Y-62968476D01*
X126866767Y-63030137D01*
X126831986Y-63056825D01*
X126766816Y-63082019D01*
X126698372Y-63067980D01*
X126648382Y-63019166D01*
X126632500Y-62958449D01*
X126632500Y-60393272D01*
X126652185Y-60326233D01*
X126704989Y-60280478D01*
X126743898Y-60269914D01*
X126778426Y-60266387D01*
X126946738Y-60210615D01*
X127097652Y-60117530D01*
X127223030Y-59992152D01*
X127314417Y-59843989D01*
X127366363Y-59797268D01*
X127435326Y-59786045D01*
X127499408Y-59813889D01*
X127509468Y-59823280D01*
X127598862Y-59916553D01*
X127616300Y-59934748D01*
X127623228Y-59941976D01*
X127809153Y-60079485D01*
X128015643Y-60183595D01*
X128236757Y-60251311D01*
X128466135Y-60280684D01*
X128697178Y-60270869D01*
X128923238Y-60222149D01*
X129137813Y-60135926D01*
X129334730Y-60014679D01*
X129508324Y-59861898D01*
X129653600Y-59681976D01*
X129671200Y-59650471D01*
X129721079Y-59601544D01*
X129789492Y-59587351D01*
X129854718Y-59612398D01*
X129881029Y-59639821D01*
X129985886Y-59789573D01*
X129985891Y-59789579D01*
X130152917Y-59956605D01*
X130346421Y-60092100D01*
X130560507Y-60191929D01*
X130560516Y-60191933D01*
X130774000Y-60249134D01*
X130774000Y-59201518D01*
X130888801Y-59253946D01*
X130990025Y-59268500D01*
X131057975Y-59268500D01*
X131159199Y-59253946D01*
X131274000Y-59201518D01*
X131274000Y-60249133D01*
X131487483Y-60191933D01*
X131487492Y-60191929D01*
X131701577Y-60092100D01*
X131701579Y-60092099D01*
X131895073Y-59956613D01*
X131895079Y-59956608D01*
X132062108Y-59789579D01*
X132062113Y-59789573D01*
X132197599Y-59596079D01*
X132197600Y-59596077D01*
X132297429Y-59381992D01*
X132297433Y-59381983D01*
X132358567Y-59153826D01*
X132358569Y-59153816D01*
X132368221Y-59043500D01*
X131427969Y-59043500D01*
X131460519Y-58992851D01*
X131499000Y-58861795D01*
X131499000Y-58725205D01*
X131460519Y-58594149D01*
X131427969Y-58543500D01*
X132368221Y-58543500D01*
X132358569Y-58433183D01*
X132358567Y-58433173D01*
X132297433Y-58205016D01*
X132297429Y-58205007D01*
X132197600Y-57990922D01*
X132197599Y-57990920D01*
X132062113Y-57797426D01*
X132062108Y-57797420D01*
X131895082Y-57630394D01*
X131701578Y-57494899D01*
X131487492Y-57395070D01*
X131487486Y-57395067D01*
X131274000Y-57337864D01*
X131274000Y-58385481D01*
X131159199Y-58333054D01*
X131057975Y-58318500D01*
X130990025Y-58318500D01*
X130888801Y-58333054D01*
X130774000Y-58385481D01*
X130774000Y-57337864D01*
X130773999Y-57337864D01*
X130560513Y-57395067D01*
X130560507Y-57395070D01*
X130346422Y-57494899D01*
X130346420Y-57494900D01*
X130152926Y-57630386D01*
X130152920Y-57630391D01*
X129985891Y-57797420D01*
X129985890Y-57797422D01*
X129880166Y-57948411D01*
X129825589Y-57992036D01*
X129756090Y-57999228D01*
X129693736Y-57967706D01*
X129675856Y-57946724D01*
X129584790Y-57811986D01*
X129584786Y-57811981D01*
X129584783Y-57811977D01*
X129424772Y-57645024D01*
X129238847Y-57507515D01*
X129238846Y-57507514D01*
X129238844Y-57507513D01*
X129032358Y-57403405D01*
X128833385Y-57342470D01*
X128811243Y-57335689D01*
X128811241Y-57335688D01*
X128811242Y-57335688D01*
X128581859Y-57306315D01*
X128350827Y-57316130D01*
X128350821Y-57316130D01*
X128124759Y-57364851D01*
X127910190Y-57451072D01*
X127713270Y-57572320D01*
X127539679Y-57725099D01*
X127539674Y-57725104D01*
X127515757Y-57754724D01*
X127458326Y-57794515D01*
X127388498Y-57796940D01*
X127328444Y-57761228D01*
X127313747Y-57741923D01*
X127223030Y-57594848D01*
X127097652Y-57469470D01*
X126946738Y-57376385D01*
X126935448Y-57372644D01*
X126778427Y-57320613D01*
X126674545Y-57310000D01*
X125373462Y-57310000D01*
X125373446Y-57310001D01*
X125269572Y-57320613D01*
X125101264Y-57376384D01*
X125101259Y-57376386D01*
X124950346Y-57469471D01*
X124824971Y-57594846D01*
X124731886Y-57745759D01*
X124731884Y-57745764D01*
X124676113Y-57914072D01*
X124665500Y-58017947D01*
X124665500Y-59569037D01*
X124665501Y-59569053D01*
X124676113Y-59672927D01*
X124731884Y-59841235D01*
X124731886Y-59841240D01*
X124744626Y-59861894D01*
X124824970Y-59992152D01*
X124950348Y-60117530D01*
X125101262Y-60210615D01*
X125269574Y-60266387D01*
X125269572Y-60266387D01*
X125280351Y-60267488D01*
X125304102Y-60269914D01*
X125368793Y-60296309D01*
X125408945Y-60353489D01*
X125415500Y-60393272D01*
X125415500Y-61737428D01*
X125395815Y-61804467D01*
X125343011Y-61850222D01*
X125273853Y-61860166D01*
X125210297Y-61831141D01*
X125199350Y-61820400D01*
X125071254Y-61678135D01*
X125035045Y-61651827D01*
X124916752Y-61565882D01*
X124742288Y-61488206D01*
X124742286Y-61488205D01*
X124555487Y-61448500D01*
X124364513Y-61448500D01*
X124177714Y-61488205D01*
X124003246Y-61565883D01*
X123848744Y-61678136D01*
X123848741Y-61678138D01*
X123822330Y-61707472D01*
X123762843Y-61744121D01*
X123730180Y-61748500D01*
X120693946Y-61748500D01*
X120685848Y-61747969D01*
X120660472Y-61744628D01*
X120650001Y-61743250D01*
X120649999Y-61743250D01*
X120612489Y-61748188D01*
X120612460Y-61748190D01*
X120510542Y-61761608D01*
X120491148Y-61764161D01*
X120343126Y-61825474D01*
X120343122Y-61825476D01*
X120267211Y-61883727D01*
X120216011Y-61923014D01*
X120193993Y-61951707D01*
X120188642Y-61957809D01*
X116206270Y-65940181D01*
X116144947Y-65973666D01*
X116118589Y-65976500D01*
X115966828Y-65976500D01*
X115899789Y-65956815D01*
X115854034Y-65904011D01*
X115843507Y-65865465D01*
X115828542Y-65723072D01*
X115769527Y-65541444D01*
X115674040Y-65376056D01*
X115546253Y-65234134D01*
X115391752Y-65121882D01*
X115217288Y-65044206D01*
X115217286Y-65044205D01*
X115030487Y-65004500D01*
X114839513Y-65004500D01*
X114652714Y-65044205D01*
X114652712Y-65044206D01*
X114522763Y-65102063D01*
X114478246Y-65121883D01*
X114323745Y-65234135D01*
X114195959Y-65376057D01*
X114100473Y-65541443D01*
X114100470Y-65541450D01*
X114055015Y-65681348D01*
X114041458Y-65723072D01*
X114034844Y-65786000D01*
X114032641Y-65806962D01*
X114006056Y-65871577D01*
X113948758Y-65911561D01*
X113916108Y-65916891D01*
X113915000Y-65918000D01*
X113915000Y-67081500D01*
X113895315Y-67148539D01*
X113842511Y-67194294D01*
X113791000Y-67205500D01*
X112690001Y-67205500D01*
X112690001Y-67304654D01*
X112700319Y-67405652D01*
X112754546Y-67569300D01*
X112754551Y-67569311D01*
X112845052Y-67716034D01*
X112845055Y-67716038D01*
X112853325Y-67724308D01*
X112886810Y-67785631D01*
X112881826Y-67855323D01*
X112853327Y-67899668D01*
X112838343Y-67914652D01*
X112833861Y-67920321D01*
X112832482Y-67919230D01*
X112787357Y-67959820D01*
X112733764Y-67972000D01*
X110758332Y-67972000D01*
X110691293Y-67952315D01*
X110670651Y-67935681D01*
X110612163Y-67877193D01*
X110578678Y-67815870D01*
X110576523Y-67802471D01*
X110575827Y-67795850D01*
X110571542Y-67755072D01*
X110512527Y-67573444D01*
X110417040Y-67408056D01*
X110299920Y-67277981D01*
X110289254Y-67266135D01*
X110284341Y-67262565D01*
X110134752Y-67153882D01*
X109960288Y-67076206D01*
X109960286Y-67076205D01*
X109773487Y-67036500D01*
X109582513Y-67036500D01*
X109395714Y-67076205D01*
X109311429Y-67113731D01*
X109232571Y-67148841D01*
X109221246Y-67153883D01*
X109066745Y-67266135D01*
X108938959Y-67408057D01*
X108843473Y-67573443D01*
X108843470Y-67573450D01*
X108793610Y-67726904D01*
X108784458Y-67755072D01*
X108764496Y-67945000D01*
X108784458Y-68134928D01*
X108784459Y-68134931D01*
X108843470Y-68316549D01*
X108843473Y-68316556D01*
X108938960Y-68481944D01*
X109066747Y-68623866D01*
X109221248Y-68736118D01*
X109395712Y-68813794D01*
X109549147Y-68846407D01*
X109610628Y-68879599D01*
X109611046Y-68880016D01*
X109896063Y-69165033D01*
X109898615Y-69167745D01*
X109940222Y-69214710D01*
X109940227Y-69214715D01*
X109991877Y-69250367D01*
X109994868Y-69252567D01*
X110044274Y-69291275D01*
X110053739Y-69295535D01*
X110073283Y-69306558D01*
X110081825Y-69312454D01*
X110140484Y-69334700D01*
X110143939Y-69336130D01*
X110191395Y-69357489D01*
X110201167Y-69361887D01*
X110201171Y-69361889D01*
X110211381Y-69363760D01*
X110233000Y-69369786D01*
X110242699Y-69373465D01*
X110304988Y-69381028D01*
X110308680Y-69381590D01*
X110370407Y-69392902D01*
X110428887Y-69389364D01*
X110433045Y-69389113D01*
X110436790Y-69389000D01*
X112733764Y-69389000D01*
X112800803Y-69408685D01*
X112832935Y-69441417D01*
X112833864Y-69440683D01*
X112838339Y-69446343D01*
X112838341Y-69446345D01*
X112838342Y-69446346D01*
X112961654Y-69569658D01*
X112961656Y-69569659D01*
X112961657Y-69569660D01*
X113110071Y-69661204D01*
X113110074Y-69661205D01*
X113110080Y-69661209D01*
X113275619Y-69716062D01*
X113377787Y-69726500D01*
X113884186Y-69726499D01*
X113951225Y-69746183D01*
X113996980Y-69798987D01*
X114006924Y-69868146D01*
X113989725Y-69915595D01*
X113980795Y-69930073D01*
X113980790Y-69930082D01*
X113925938Y-70095617D01*
X113915500Y-70197779D01*
X113915500Y-70772205D01*
X113915501Y-70772221D01*
X113925938Y-70874382D01*
X113980790Y-71039917D01*
X113980795Y-71039928D01*
X114072339Y-71188342D01*
X114072342Y-71188346D01*
X114166681Y-71282685D01*
X114200166Y-71344008D01*
X114203000Y-71370366D01*
X114203000Y-74257206D01*
X114201691Y-74275176D01*
X114198158Y-74299291D01*
X114202764Y-74351920D01*
X114203000Y-74357327D01*
X114203000Y-74365678D01*
X114206847Y-74398596D01*
X114213612Y-74475927D01*
X114215072Y-74482994D01*
X114215026Y-74483003D01*
X114216720Y-74490643D01*
X114216766Y-74490633D01*
X114217085Y-74491981D01*
X114217071Y-74492228D01*
X114218595Y-74499100D01*
X114219260Y-74504787D01*
X114216384Y-74505123D01*
X114213368Y-74561752D01*
X114184099Y-74608218D01*
X112920122Y-75872195D01*
X112906495Y-75883973D01*
X112886941Y-75898531D01*
X112852977Y-75939006D01*
X112849330Y-75942987D01*
X112843418Y-75948900D01*
X112822863Y-75974896D01*
X112772967Y-76034360D01*
X112769001Y-76040391D01*
X112768963Y-76040366D01*
X112764782Y-76046928D01*
X112764821Y-76046952D01*
X112761032Y-76053094D01*
X112728220Y-76123459D01*
X112693391Y-76192810D01*
X112690923Y-76199593D01*
X112690878Y-76199576D01*
X112688322Y-76206932D01*
X112688366Y-76206947D01*
X112686096Y-76213795D01*
X112679888Y-76243864D01*
X112670392Y-76289850D01*
X112663826Y-76317556D01*
X112652498Y-76365351D01*
X112651661Y-76372519D01*
X112651613Y-76372513D01*
X112650823Y-76380244D01*
X112650870Y-76380249D01*
X112650240Y-76387438D01*
X112652500Y-76465079D01*
X112652500Y-82485706D01*
X112651191Y-82503676D01*
X112647658Y-82527792D01*
X112650171Y-82556504D01*
X112636405Y-82625004D01*
X112614324Y-82654993D01*
X110085138Y-85184181D01*
X110023815Y-85217666D01*
X109997457Y-85220500D01*
X104337500Y-85220500D01*
X104270461Y-85200815D01*
X104224706Y-85148011D01*
X104213500Y-85096500D01*
X104213500Y-82025461D01*
X104233185Y-81958422D01*
X104240225Y-81949201D01*
X104240222Y-81949199D01*
X104244036Y-81943948D01*
X104244040Y-81943944D01*
X104339527Y-81778556D01*
X104398542Y-81596928D01*
X104418504Y-81407000D01*
X104401950Y-81249500D01*
X105832001Y-81249500D01*
X105832001Y-81348654D01*
X105842319Y-81449652D01*
X105896546Y-81613300D01*
X105896551Y-81613311D01*
X105987052Y-81760034D01*
X105987055Y-81760038D01*
X106108961Y-81881944D01*
X106108965Y-81881947D01*
X106255688Y-81972448D01*
X106255699Y-81972453D01*
X106419347Y-82026680D01*
X106520352Y-82036999D01*
X106557000Y-82036999D01*
X106557000Y-81249500D01*
X105832001Y-81249500D01*
X104401950Y-81249500D01*
X104398542Y-81217072D01*
X104339527Y-81035444D01*
X104244040Y-80870056D01*
X104116253Y-80728134D01*
X103961752Y-80615882D01*
X103787288Y-80538206D01*
X103787286Y-80538205D01*
X103600487Y-80498500D01*
X103409513Y-80498500D01*
X103270281Y-80528094D01*
X103200613Y-80522778D01*
X103144880Y-80480641D01*
X103120775Y-80415061D01*
X103120500Y-80406804D01*
X103120500Y-79624205D01*
X105823500Y-79624205D01*
X105823501Y-79624221D01*
X105833938Y-79726382D01*
X105888790Y-79891917D01*
X105888795Y-79891928D01*
X105980339Y-80040342D01*
X105980342Y-80040346D01*
X105995325Y-80055329D01*
X106028810Y-80116652D01*
X106023826Y-80186344D01*
X105995329Y-80230688D01*
X105987052Y-80238965D01*
X105896551Y-80385688D01*
X105896546Y-80385699D01*
X105842319Y-80549347D01*
X105832000Y-80650345D01*
X105832000Y-80749500D01*
X106933000Y-80749500D01*
X107000039Y-80769185D01*
X107045794Y-80821989D01*
X107057000Y-80873500D01*
X107057000Y-82036999D01*
X107093640Y-82036999D01*
X107093654Y-82036998D01*
X107194652Y-82026680D01*
X107358300Y-81972453D01*
X107358311Y-81972448D01*
X107505034Y-81881947D01*
X107505038Y-81881944D01*
X107626944Y-81760038D01*
X107626947Y-81760034D01*
X107717448Y-81613311D01*
X107717453Y-81613300D01*
X107748794Y-81518720D01*
X107788566Y-81461275D01*
X107853082Y-81434452D01*
X107921858Y-81446767D01*
X107973058Y-81494310D01*
X107990500Y-81557724D01*
X107990500Y-81584654D01*
X107997011Y-81645202D01*
X107997011Y-81645204D01*
X108029608Y-81732597D01*
X108048111Y-81782204D01*
X108135739Y-81899261D01*
X108252796Y-81986889D01*
X108359479Y-82026680D01*
X108387144Y-82036999D01*
X108389799Y-82037989D01*
X108417050Y-82040918D01*
X108450345Y-82044499D01*
X108450362Y-82044500D01*
X110547638Y-82044500D01*
X110547654Y-82044499D01*
X110574692Y-82041591D01*
X110608201Y-82037989D01*
X110610856Y-82036999D01*
X110638521Y-82026680D01*
X110745204Y-81986889D01*
X110862261Y-81899261D01*
X110949889Y-81782204D01*
X111000989Y-81645201D01*
X111004591Y-81611692D01*
X111007499Y-81584654D01*
X111007500Y-81584637D01*
X111007500Y-79987362D01*
X111007499Y-79987345D01*
X111004157Y-79956270D01*
X111000989Y-79926799D01*
X110949889Y-79789796D01*
X110885077Y-79703218D01*
X110860661Y-79637754D01*
X110875513Y-79569481D01*
X110885079Y-79554596D01*
X110942352Y-79478089D01*
X110942354Y-79478086D01*
X110992596Y-79343379D01*
X110992598Y-79343372D01*
X110998999Y-79283844D01*
X110999000Y-79283827D01*
X110999000Y-78736000D01*
X107977363Y-78736000D01*
X107963692Y-78743464D01*
X107894001Y-78738477D01*
X107849659Y-78709978D01*
X107846602Y-78706921D01*
X107846601Y-78706920D01*
X107820603Y-78686363D01*
X107761140Y-78636468D01*
X107761135Y-78636465D01*
X107755105Y-78632499D01*
X107755131Y-78632459D01*
X107748579Y-78628284D01*
X107748555Y-78628325D01*
X107742413Y-78624537D01*
X107742408Y-78624534D01*
X107742406Y-78624533D01*
X107723728Y-78615823D01*
X107671290Y-78569653D01*
X107670595Y-78568539D01*
X107652099Y-78538552D01*
X107633658Y-78508654D01*
X107510346Y-78385342D01*
X107510342Y-78385339D01*
X107361928Y-78293795D01*
X107361922Y-78293792D01*
X107361920Y-78293791D01*
X107315436Y-78278388D01*
X107196382Y-78238938D01*
X107094214Y-78228500D01*
X106519794Y-78228500D01*
X106519778Y-78228501D01*
X106417617Y-78238938D01*
X106252082Y-78293790D01*
X106252071Y-78293795D01*
X106103657Y-78385339D01*
X106103653Y-78385342D01*
X105980342Y-78508653D01*
X105980339Y-78508657D01*
X105888795Y-78657071D01*
X105888790Y-78657082D01*
X105833938Y-78822617D01*
X105823500Y-78924779D01*
X105823500Y-79624205D01*
X103120500Y-79624205D01*
X103120500Y-79161832D01*
X103140185Y-79094793D01*
X103156819Y-79074151D01*
X103494970Y-78736000D01*
X103861132Y-78369837D01*
X103922453Y-78336354D01*
X103992144Y-78341338D01*
X104021697Y-78357203D01*
X104064242Y-78388114D01*
X104064243Y-78388115D01*
X104064245Y-78388116D01*
X104064248Y-78388118D01*
X104238712Y-78465794D01*
X104425513Y-78505500D01*
X104616487Y-78505500D01*
X104803288Y-78465794D01*
X104977752Y-78388118D01*
X105058800Y-78329232D01*
X105124605Y-78305753D01*
X105139166Y-78305776D01*
X105199093Y-78309402D01*
X105260818Y-78298090D01*
X105264514Y-78297527D01*
X105326801Y-78289965D01*
X105336499Y-78286286D01*
X105358116Y-78280260D01*
X105368329Y-78278389D01*
X105425577Y-78252622D01*
X105428978Y-78251213D01*
X105487675Y-78228954D01*
X105496213Y-78223060D01*
X105515764Y-78212033D01*
X105525226Y-78207775D01*
X105574640Y-78169060D01*
X105577615Y-78166870D01*
X105629273Y-78131215D01*
X105670915Y-78084209D01*
X105673434Y-78081534D01*
X106824152Y-76930819D01*
X106885475Y-76897334D01*
X106911833Y-76894500D01*
X107869426Y-76894500D01*
X107936465Y-76914185D01*
X107982220Y-76966989D01*
X107992715Y-77005245D01*
X107997010Y-77045201D01*
X107997011Y-77045204D01*
X108048112Y-77182206D01*
X108112921Y-77268781D01*
X108137338Y-77334245D01*
X108122486Y-77402518D01*
X108112921Y-77417401D01*
X108055649Y-77493907D01*
X108055645Y-77493913D01*
X108005403Y-77628620D01*
X108005401Y-77628627D01*
X107999000Y-77688155D01*
X107999000Y-78236000D01*
X110999000Y-78236000D01*
X110999000Y-77688172D01*
X110998999Y-77688155D01*
X110992598Y-77628627D01*
X110992596Y-77628620D01*
X110942354Y-77493913D01*
X110942350Y-77493906D01*
X110885079Y-77417402D01*
X110860661Y-77351938D01*
X110875512Y-77283665D01*
X110885072Y-77268788D01*
X110949889Y-77182204D01*
X111000989Y-77045201D01*
X111005285Y-77005245D01*
X111007499Y-76984654D01*
X111007500Y-76984637D01*
X111007500Y-75387362D01*
X111007499Y-75387345D01*
X111001962Y-75335853D01*
X111000989Y-75326799D01*
X110992135Y-75303061D01*
X110974943Y-75256967D01*
X110969958Y-75187275D01*
X110989078Y-75143186D01*
X110994954Y-75134675D01*
X111017204Y-75076003D01*
X111018628Y-75072563D01*
X111044389Y-75015329D01*
X111046260Y-75005116D01*
X111052288Y-74983495D01*
X111055965Y-74973801D01*
X111063363Y-74912874D01*
X111063527Y-74911521D01*
X111064090Y-74907817D01*
X111064478Y-74905702D01*
X111075402Y-74846092D01*
X111074761Y-74835501D01*
X111071613Y-74783447D01*
X111071500Y-74779703D01*
X111071500Y-74151461D01*
X111091185Y-74084422D01*
X111098225Y-74075201D01*
X111098222Y-74075199D01*
X111102036Y-74069948D01*
X111102040Y-74069944D01*
X111197527Y-73904556D01*
X111256542Y-73722928D01*
X111276504Y-73533000D01*
X111256542Y-73343072D01*
X111197527Y-73161444D01*
X111102040Y-72996056D01*
X110974253Y-72854134D01*
X110819752Y-72741882D01*
X110645288Y-72664206D01*
X110645286Y-72664205D01*
X110458487Y-72624500D01*
X110267513Y-72624500D01*
X110080714Y-72664205D01*
X109993480Y-72703044D01*
X109911994Y-72739324D01*
X109906246Y-72741883D01*
X109751745Y-72854135D01*
X109623959Y-72996057D01*
X109528473Y-73161443D01*
X109528470Y-73161450D01*
X109474136Y-73328674D01*
X109469458Y-73343072D01*
X109449496Y-73533000D01*
X109469458Y-73722928D01*
X109469459Y-73722931D01*
X109528470Y-73904549D01*
X109528473Y-73904556D01*
X109623959Y-74069943D01*
X109627778Y-74075199D01*
X109626363Y-74076227D01*
X109652880Y-74131480D01*
X109654500Y-74151461D01*
X109654500Y-74458168D01*
X109634815Y-74525207D01*
X109618181Y-74545849D01*
X109272849Y-74891181D01*
X109211526Y-74924666D01*
X109185168Y-74927500D01*
X108450345Y-74927500D01*
X108389797Y-74934011D01*
X108389795Y-74934011D01*
X108252795Y-74985111D01*
X108135739Y-75072739D01*
X108048111Y-75189795D01*
X107997011Y-75326795D01*
X107997010Y-75326798D01*
X107992715Y-75366755D01*
X107965977Y-75431306D01*
X107908585Y-75471155D01*
X107869426Y-75477500D01*
X107246135Y-75477500D01*
X107179096Y-75457815D01*
X107133341Y-75405011D01*
X107123397Y-75335853D01*
X107132857Y-75303061D01*
X107133523Y-75301562D01*
X107133527Y-75301556D01*
X107192542Y-75119928D01*
X107212504Y-74930000D01*
X107192542Y-74740072D01*
X107133527Y-74558444D01*
X107038040Y-74393056D01*
X106910253Y-74251134D01*
X106833002Y-74195008D01*
X106755751Y-74138881D01*
X106588419Y-74064380D01*
X106551174Y-74038782D01*
X106172707Y-73660315D01*
X106139222Y-73598992D01*
X106144206Y-73529300D01*
X106186078Y-73473367D01*
X106221385Y-73454928D01*
X106304298Y-73427454D01*
X106304311Y-73427448D01*
X106451034Y-73336947D01*
X106459301Y-73328680D01*
X106520622Y-73295191D01*
X106590314Y-73300170D01*
X106634670Y-73328674D01*
X106649653Y-73343657D01*
X106649657Y-73343660D01*
X106798071Y-73435204D01*
X106798074Y-73435205D01*
X106798080Y-73435209D01*
X106963619Y-73490062D01*
X107065787Y-73500500D01*
X107765212Y-73500499D01*
X107867381Y-73490062D01*
X108032920Y-73435209D01*
X108181346Y-73343658D01*
X108304658Y-73220346D01*
X108396209Y-73071920D01*
X108451062Y-72906381D01*
X108461500Y-72804213D01*
X108461499Y-72229788D01*
X108451062Y-72127619D01*
X108396209Y-71962080D01*
X108396205Y-71962074D01*
X108396204Y-71962071D01*
X108304660Y-71813657D01*
X108304657Y-71813653D01*
X108181346Y-71690342D01*
X108181342Y-71690339D01*
X108032928Y-71598795D01*
X108032922Y-71598792D01*
X108032920Y-71598791D01*
X108006764Y-71590124D01*
X107867382Y-71543938D01*
X107765214Y-71533500D01*
X107065794Y-71533500D01*
X107065778Y-71533501D01*
X106963617Y-71543938D01*
X106798082Y-71598790D01*
X106798071Y-71598795D01*
X106649657Y-71690339D01*
X106649652Y-71690343D01*
X106634668Y-71705327D01*
X106573344Y-71738811D01*
X106503653Y-71733825D01*
X106459308Y-71705325D01*
X106451038Y-71697055D01*
X106451034Y-71697052D01*
X106304311Y-71606551D01*
X106304300Y-71606546D01*
X106140652Y-71552319D01*
X106039654Y-71542000D01*
X105940500Y-71542000D01*
X105940500Y-72643000D01*
X105920815Y-72710039D01*
X105868011Y-72755794D01*
X105816500Y-72767000D01*
X105580500Y-72767000D01*
X105513461Y-72747315D01*
X105467706Y-72694511D01*
X105456500Y-72643000D01*
X105456500Y-70744252D01*
X105476185Y-70677213D01*
X105492814Y-70656576D01*
X107695278Y-68454112D01*
X107695281Y-68454111D01*
X107824111Y-68325281D01*
X107846574Y-68289529D01*
X107850589Y-68283870D01*
X107876908Y-68250870D01*
X107895226Y-68212828D01*
X107898575Y-68206770D01*
X107921043Y-68171015D01*
X107934984Y-68131171D01*
X107937640Y-68124757D01*
X107955959Y-68086721D01*
X107965351Y-68045570D01*
X107967278Y-68038882D01*
X107974829Y-68017301D01*
X107981217Y-67999047D01*
X107985942Y-67957105D01*
X107987108Y-67950243D01*
X107996500Y-67909097D01*
X107996500Y-67726904D01*
X107996500Y-67251861D01*
X108013114Y-67189859D01*
X108022527Y-67173556D01*
X108081542Y-66991928D01*
X108101504Y-66802000D01*
X108091362Y-66705500D01*
X112690000Y-66705500D01*
X113415000Y-66705500D01*
X113415000Y-65918000D01*
X113378361Y-65918000D01*
X113378343Y-65918001D01*
X113277347Y-65928319D01*
X113113699Y-65982546D01*
X113113688Y-65982551D01*
X112966965Y-66073052D01*
X112966961Y-66073055D01*
X112845055Y-66194961D01*
X112845052Y-66194965D01*
X112754551Y-66341688D01*
X112754546Y-66341699D01*
X112700319Y-66505347D01*
X112690000Y-66606345D01*
X112690000Y-66705500D01*
X108091362Y-66705500D01*
X108081542Y-66612072D01*
X108022527Y-66430444D01*
X108004660Y-66399498D01*
X107988188Y-66331600D01*
X108011040Y-66265573D01*
X108065962Y-66222383D01*
X108112048Y-66213500D01*
X109057093Y-66213500D01*
X109057097Y-66213500D01*
X109090081Y-66205970D01*
X109098244Y-66204108D01*
X109105106Y-66202942D01*
X109112928Y-66202060D01*
X109147047Y-66198217D01*
X109186906Y-66184269D01*
X109193542Y-66182357D01*
X109234720Y-66172959D01*
X109272758Y-66154639D01*
X109279173Y-66151983D01*
X109319015Y-66138043D01*
X109354752Y-66115586D01*
X109360830Y-66112226D01*
X109398870Y-66093909D01*
X109431885Y-66067579D01*
X109437535Y-66063570D01*
X109473281Y-66041111D01*
X109602111Y-65912281D01*
X112231803Y-63282589D01*
X112264111Y-63250281D01*
X112286572Y-63214532D01*
X112290594Y-63208866D01*
X112291154Y-63208162D01*
X112316909Y-63175869D01*
X112335226Y-63137830D01*
X112338578Y-63131765D01*
X112361043Y-63096015D01*
X112374983Y-63056173D01*
X112377644Y-63049751D01*
X112380012Y-63044832D01*
X112395959Y-63011720D01*
X112405351Y-62970568D01*
X112407274Y-62963889D01*
X112421217Y-62924047D01*
X112425943Y-62882095D01*
X112427103Y-62875267D01*
X112436501Y-62834096D01*
X112436501Y-62651903D01*
X112436501Y-62648601D01*
X112436500Y-62648579D01*
X112436500Y-61621248D01*
X112456185Y-61554209D01*
X112508989Y-61508454D01*
X112578147Y-61498510D01*
X112641030Y-61526957D01*
X112779624Y-61645328D01*
X112779626Y-61645329D01*
X112779627Y-61645330D01*
X112779629Y-61645331D01*
X112995497Y-61777616D01*
X113229406Y-61874504D01*
X113229407Y-61874504D01*
X113229409Y-61874505D01*
X113475597Y-61933609D01*
X113728000Y-61953474D01*
X113980403Y-61933609D01*
X114226591Y-61874505D01*
X114460502Y-61777616D01*
X114676376Y-61645328D01*
X114868898Y-61480898D01*
X115033328Y-61288376D01*
X115165616Y-61072502D01*
X115262505Y-60838591D01*
X115321609Y-60592403D01*
X115336500Y-60403199D01*
X115336500Y-58976801D01*
X115321609Y-58787597D01*
X115262505Y-58541409D01*
X115255368Y-58524179D01*
X115165616Y-58307497D01*
X115033331Y-58091629D01*
X115033330Y-58091627D01*
X115033329Y-58091626D01*
X115033328Y-58091624D01*
X114868898Y-57899102D01*
X114676376Y-57734672D01*
X114676374Y-57734670D01*
X114676372Y-57734669D01*
X114676370Y-57734668D01*
X114460502Y-57602383D01*
X114226593Y-57505495D01*
X113980406Y-57446391D01*
X113728000Y-57426526D01*
X113475593Y-57446391D01*
X113229406Y-57505495D01*
X112995497Y-57602383D01*
X112779629Y-57734668D01*
X112779627Y-57734669D01*
X112587102Y-57899102D01*
X112431033Y-58081834D01*
X112372526Y-58120027D01*
X112302658Y-58120525D01*
X112268433Y-58104790D01*
X112226774Y-58077291D01*
X112226772Y-58077290D01*
X112226769Y-58077288D01*
X112018477Y-57988259D01*
X112018464Y-57988255D01*
X111797620Y-57937850D01*
X111797616Y-57937849D01*
X111797615Y-57937849D01*
X111797614Y-57937848D01*
X111797609Y-57937848D01*
X111571312Y-57927685D01*
X111571311Y-57927685D01*
X111571309Y-57927685D01*
X111402946Y-57950491D01*
X111346824Y-57958094D01*
X111346819Y-57958095D01*
X111131377Y-58028097D01*
X110931892Y-58135445D01*
X110754781Y-58276686D01*
X110721355Y-58314945D01*
X110662423Y-58352479D01*
X110592554Y-58352193D01*
X110542283Y-58322986D01*
X110524708Y-58306183D01*
X110415834Y-58202088D01*
X110346569Y-58156367D01*
X110226772Y-58077289D01*
X110018477Y-57988259D01*
X110018464Y-57988255D01*
X109797620Y-57937850D01*
X109797616Y-57937849D01*
X109797615Y-57937849D01*
X109797614Y-57937848D01*
X109797609Y-57937848D01*
X109571312Y-57927685D01*
X109571311Y-57927685D01*
X109571309Y-57927685D01*
X109402946Y-57950491D01*
X109346824Y-57958094D01*
X109346819Y-57958095D01*
X109131377Y-58028097D01*
X108931874Y-58135455D01*
X108931235Y-58135877D01*
X108930898Y-58135980D01*
X108926991Y-58138083D01*
X108926573Y-58137306D01*
X108864438Y-58156367D01*
X108797166Y-58137490D01*
X108763679Y-58106686D01*
X108741262Y-58076740D01*
X108693392Y-58040905D01*
X108624204Y-57989111D01*
X108566816Y-57967706D01*
X108487203Y-57938011D01*
X108426654Y-57931500D01*
X108426638Y-57931500D01*
X106829362Y-57931500D01*
X106829359Y-57931500D01*
X106772712Y-57937590D01*
X106703953Y-57925184D01*
X106671777Y-57901981D01*
X106668901Y-57899105D01*
X106668899Y-57899103D01*
X106668898Y-57899102D01*
X106476376Y-57734672D01*
X106476374Y-57734670D01*
X106476372Y-57734669D01*
X106476370Y-57734668D01*
X106260502Y-57602383D01*
X106026593Y-57505495D01*
X105780406Y-57446391D01*
X105528000Y-57426526D01*
X105275593Y-57446391D01*
X105029406Y-57505495D01*
X104795497Y-57602383D01*
X104579629Y-57734668D01*
X104579627Y-57734669D01*
X104387102Y-57899102D01*
X104222669Y-58091627D01*
X104222668Y-58091629D01*
X104090383Y-58307497D01*
X103993495Y-58541406D01*
X103941795Y-58756756D01*
X103934391Y-58787597D01*
X103919500Y-58976801D01*
X103919500Y-60403199D01*
X103934391Y-60592403D01*
X103934392Y-60592406D01*
X103993495Y-60838593D01*
X104090383Y-61072502D01*
X104222668Y-61288370D01*
X104222669Y-61288372D01*
X104222670Y-61288374D01*
X104222672Y-61288376D01*
X104387102Y-61480898D01*
X104579624Y-61645328D01*
X104579626Y-61645329D01*
X104579627Y-61645330D01*
X104579629Y-61645331D01*
X104795497Y-61777616D01*
X105029406Y-61874504D01*
X105029407Y-61874504D01*
X105029409Y-61874505D01*
X105275597Y-61933609D01*
X105528000Y-61953474D01*
X105579164Y-61949447D01*
X105647537Y-61963809D01*
X105697295Y-62012859D01*
X105712635Y-62081024D01*
X105688688Y-62146662D01*
X105676572Y-62160745D01*
X104878138Y-62959181D01*
X104816815Y-62992666D01*
X104790457Y-62995500D01*
X100267294Y-62995500D01*
X100249324Y-62994191D01*
X100225206Y-62990658D01*
X100179651Y-62994645D01*
X100172573Y-62995264D01*
X100167172Y-62995500D01*
X100158820Y-62995500D01*
X100142362Y-62997423D01*
X100125904Y-62999347D01*
X100048577Y-63006112D01*
X100041503Y-63007573D01*
X100041493Y-63007526D01*
X100033905Y-63009209D01*
X100033916Y-63009255D01*
X100026890Y-63010920D01*
X99953938Y-63037471D01*
X99880261Y-63061886D01*
X99873717Y-63064938D01*
X99873697Y-63064896D01*
X99866696Y-63068285D01*
X99866717Y-63068326D01*
X99860269Y-63071564D01*
X99795394Y-63114233D01*
X99729352Y-63154967D01*
X99723683Y-63159450D01*
X99723653Y-63159413D01*
X99717627Y-63164322D01*
X99717657Y-63164357D01*
X99712132Y-63168993D01*
X99712126Y-63168998D01*
X99712126Y-63168999D01*
X99705642Y-63175872D01*
X99658836Y-63225482D01*
X98569122Y-64315195D01*
X98555495Y-64326973D01*
X98535941Y-64341531D01*
X98501977Y-64382006D01*
X98498330Y-64385987D01*
X98492418Y-64391900D01*
X98471863Y-64417896D01*
X98421967Y-64477360D01*
X98418001Y-64483391D01*
X98417963Y-64483366D01*
X98413782Y-64489928D01*
X98413821Y-64489952D01*
X98410032Y-64496094D01*
X98377220Y-64566459D01*
X98342391Y-64635810D01*
X98339923Y-64642593D01*
X98339878Y-64642576D01*
X98337322Y-64649932D01*
X98337366Y-64649947D01*
X98335096Y-64656795D01*
X98327329Y-64694412D01*
X98319392Y-64732850D01*
X98307025Y-64785029D01*
X98301498Y-64808351D01*
X98300661Y-64815519D01*
X98300613Y-64815513D01*
X98299823Y-64823244D01*
X98299870Y-64823249D01*
X98299240Y-64830438D01*
X98301500Y-64908079D01*
X98301500Y-74357706D01*
X98300191Y-74375676D01*
X98296659Y-74399788D01*
X92964500Y-74399788D01*
X92964500Y-70500537D01*
X94630500Y-70500537D01*
X94630501Y-70500553D01*
X94641113Y-70604427D01*
X94696884Y-70772735D01*
X94696886Y-70772740D01*
X94719947Y-70810127D01*
X94789970Y-70923652D01*
X94915348Y-71049030D01*
X95066262Y-71142115D01*
X95234574Y-71197887D01*
X95338455Y-71208500D01*
X96939544Y-71208499D01*
X97043426Y-71197887D01*
X97211738Y-71142115D01*
X97362652Y-71049030D01*
X97488030Y-70923652D01*
X97581115Y-70772738D01*
X97636887Y-70604426D01*
X97647500Y-70500545D01*
X97647499Y-69199456D01*
X97636887Y-69095574D01*
X97581115Y-68927262D01*
X97488030Y-68776348D01*
X97362652Y-68650970D01*
X97362648Y-68650967D01*
X97208255Y-68555736D01*
X97161530Y-68503788D01*
X97150309Y-68434826D01*
X97178152Y-68370744D01*
X97185671Y-68362517D01*
X97327105Y-68221082D01*
X97462600Y-68027578D01*
X97562429Y-67813492D01*
X97562432Y-67813486D01*
X97619636Y-67600000D01*
X96572686Y-67600000D01*
X96598493Y-67559844D01*
X96639000Y-67421889D01*
X96639000Y-67278111D01*
X96598493Y-67140156D01*
X96572686Y-67100000D01*
X97619636Y-67100000D01*
X97619635Y-67099999D01*
X97562432Y-66886513D01*
X97562429Y-66886507D01*
X97462600Y-66672422D01*
X97462599Y-66672420D01*
X97327113Y-66478926D01*
X97327108Y-66478920D01*
X97160079Y-66311891D01*
X97160073Y-66311886D01*
X96966579Y-66176400D01*
X96966577Y-66176399D01*
X96752492Y-66076570D01*
X96752483Y-66076566D01*
X96524326Y-66015432D01*
X96524316Y-66015430D01*
X96389000Y-66003590D01*
X96389000Y-66914498D01*
X96281315Y-66865320D01*
X96174763Y-66850000D01*
X96103237Y-66850000D01*
X95996685Y-66865320D01*
X95889000Y-66914498D01*
X95889000Y-66003591D01*
X95888999Y-66003590D01*
X95753683Y-66015430D01*
X95753673Y-66015432D01*
X95525516Y-66076566D01*
X95525507Y-66076570D01*
X95311422Y-66176399D01*
X95311420Y-66176400D01*
X95117926Y-66311886D01*
X95117920Y-66311891D01*
X94950894Y-66478917D01*
X94815399Y-66672421D01*
X94715570Y-66886507D01*
X94715567Y-66886513D01*
X94658364Y-67099999D01*
X94658364Y-67100000D01*
X95705314Y-67100000D01*
X95679507Y-67140156D01*
X95639000Y-67278111D01*
X95639000Y-67421889D01*
X95679507Y-67559844D01*
X95705314Y-67600000D01*
X94658364Y-67600000D01*
X94715567Y-67813486D01*
X94715570Y-67813492D01*
X94815399Y-68027577D01*
X94815400Y-68027579D01*
X94950886Y-68221073D01*
X95092329Y-68362517D01*
X95125813Y-68423840D01*
X95120829Y-68493532D01*
X95078957Y-68549465D01*
X95069744Y-68555736D01*
X94915351Y-68650967D01*
X94915347Y-68650970D01*
X94789971Y-68776346D01*
X94696886Y-68927259D01*
X94696884Y-68927264D01*
X94641113Y-69095572D01*
X94630500Y-69199447D01*
X94630500Y-70500537D01*
X92964500Y-70500537D01*
X92964500Y-59969683D01*
X92984185Y-59902644D01*
X93036989Y-59856889D01*
X93106147Y-59846945D01*
X93169703Y-59875970D01*
X93207477Y-59934748D01*
X93210469Y-59947331D01*
X93258667Y-60210341D01*
X93355835Y-60522164D01*
X93355839Y-60522175D01*
X93489897Y-60820041D01*
X93489898Y-60820043D01*
X93658887Y-61099586D01*
X93806477Y-61287968D01*
X94319070Y-60775375D01*
X94518274Y-60775375D01*
X94557887Y-60857631D01*
X94629266Y-60914553D01*
X94695742Y-60929726D01*
X94740806Y-60929726D01*
X94807282Y-60914553D01*
X94878661Y-60857631D01*
X94918274Y-60775375D01*
X94918274Y-60684077D01*
X94878661Y-60601821D01*
X94807282Y-60544899D01*
X94740806Y-60529726D01*
X94695742Y-60529726D01*
X94629266Y-60544899D01*
X94557887Y-60601821D01*
X94518274Y-60684077D01*
X94518274Y-60775375D01*
X94319070Y-60775375D01*
X94949210Y-60145234D01*
X95049894Y-60286624D01*
X95201932Y-60431592D01*
X95304222Y-60497330D01*
X94160030Y-61641521D01*
X94160030Y-61641522D01*
X94348414Y-61789112D01*
X94348423Y-61789118D01*
X94627956Y-61958101D01*
X94627958Y-61958102D01*
X94925824Y-62092160D01*
X94925835Y-62092164D01*
X95237658Y-62189332D01*
X95558961Y-62248213D01*
X95885000Y-62267934D01*
X96211038Y-62248213D01*
X96532341Y-62189332D01*
X96844164Y-62092164D01*
X96844175Y-62092160D01*
X97142041Y-61958102D01*
X97142043Y-61958101D01*
X97421576Y-61789118D01*
X97421584Y-61789112D01*
X97609968Y-61641522D01*
X97609968Y-61641521D01*
X96743822Y-60775375D01*
X96851726Y-60775375D01*
X96891339Y-60857631D01*
X96962718Y-60914553D01*
X97029194Y-60929726D01*
X97074258Y-60929726D01*
X97140734Y-60914553D01*
X97212113Y-60857631D01*
X97251726Y-60775375D01*
X97251726Y-60684077D01*
X97212113Y-60601821D01*
X97140734Y-60544899D01*
X97074258Y-60529726D01*
X97029194Y-60529726D01*
X96962718Y-60544899D01*
X96891339Y-60601821D01*
X96851726Y-60684077D01*
X96851726Y-60775375D01*
X96743822Y-60775375D01*
X96468306Y-60499859D01*
X96482410Y-60492589D01*
X96647540Y-60362729D01*
X96785110Y-60203965D01*
X96819665Y-60144112D01*
X97963521Y-61287968D01*
X97963522Y-61287968D01*
X98111112Y-61099584D01*
X98111118Y-61099576D01*
X98280101Y-60820043D01*
X98280102Y-60820041D01*
X98414160Y-60522175D01*
X98414164Y-60522164D01*
X98511332Y-60210341D01*
X98570213Y-59889038D01*
X98589934Y-59563000D01*
X98570213Y-59236961D01*
X98511332Y-58915658D01*
X98414164Y-58603835D01*
X98414160Y-58603824D01*
X98280102Y-58305958D01*
X98280101Y-58305956D01*
X98111118Y-58026423D01*
X98111112Y-58026414D01*
X97963521Y-57838030D01*
X96820788Y-58980763D01*
X96720106Y-58839376D01*
X96568068Y-58694408D01*
X96465777Y-58628669D01*
X96652523Y-58441923D01*
X96851726Y-58441923D01*
X96891339Y-58524179D01*
X96962718Y-58581101D01*
X97029194Y-58596274D01*
X97074258Y-58596274D01*
X97140734Y-58581101D01*
X97212113Y-58524179D01*
X97251726Y-58441923D01*
X97251726Y-58350625D01*
X97212113Y-58268369D01*
X97140734Y-58211447D01*
X97074258Y-58196274D01*
X97029194Y-58196274D01*
X96962718Y-58211447D01*
X96891339Y-58268369D01*
X96851726Y-58350625D01*
X96851726Y-58441923D01*
X96652523Y-58441923D01*
X97609968Y-57484477D01*
X97609968Y-57484476D01*
X97421586Y-57336887D01*
X97142043Y-57167898D01*
X97142041Y-57167897D01*
X96844175Y-57033839D01*
X96844168Y-57033836D01*
X96773723Y-57011885D01*
X96715576Y-56973148D01*
X96687602Y-56909122D01*
X96698684Y-56840137D01*
X96745303Y-56788094D01*
X96810614Y-56769500D01*
X151722957Y-56769500D01*
X151736769Y-56773555D01*
X151756275Y-56770757D01*
X151769513Y-56769812D01*
X151775737Y-56768969D01*
X151813231Y-56767124D01*
X151927122Y-56762696D01*
X151948772Y-56763751D01*
G37*
%TD.AperFunction*%
%TA.AperFunction,Conductor*%
G36*
X152695982Y-93761137D02*
G01*
X152753265Y-93801142D01*
X152779825Y-93865767D01*
X152780500Y-93878683D01*
X152780500Y-95335467D01*
X152776493Y-95349111D01*
X152779243Y-95368275D01*
X152779925Y-95377835D01*
X152780954Y-95386209D01*
X152782877Y-95425296D01*
X152787302Y-95539115D01*
X152786246Y-95560779D01*
X152777291Y-95626087D01*
X152762454Y-95713992D01*
X152757820Y-95732565D01*
X152735521Y-95799465D01*
X152734433Y-95802469D01*
X152702316Y-95884478D01*
X152698775Y-95891994D01*
X152661326Y-95959382D01*
X152659015Y-95963210D01*
X152611722Y-96035500D01*
X152607547Y-96041154D01*
X152557878Y-96101007D01*
X152554005Y-96105257D01*
X152493257Y-96166005D01*
X152489007Y-96169878D01*
X152429154Y-96219547D01*
X152423500Y-96223722D01*
X152351210Y-96271015D01*
X152347382Y-96273326D01*
X152279994Y-96310775D01*
X152272478Y-96314316D01*
X152190469Y-96346433D01*
X152187465Y-96347521D01*
X152120565Y-96369820D01*
X152101992Y-96374454D01*
X152022258Y-96387911D01*
X152014084Y-96389291D01*
X151948779Y-96398246D01*
X151927115Y-96399302D01*
X151813296Y-96394877D01*
X151774209Y-96392954D01*
X151765835Y-96391925D01*
X151756275Y-96391243D01*
X151740624Y-96388997D01*
X151732269Y-96392150D01*
X151722957Y-96392500D01*
X150266683Y-96392500D01*
X150199644Y-96372815D01*
X150153889Y-96320011D01*
X150143945Y-96250853D01*
X150172970Y-96187297D01*
X150231748Y-96149523D01*
X150244331Y-96146531D01*
X150507341Y-96098332D01*
X150819164Y-96001164D01*
X150819175Y-96001160D01*
X151117041Y-95867102D01*
X151117043Y-95867101D01*
X151396576Y-95698118D01*
X151396584Y-95698112D01*
X151584968Y-95550522D01*
X151584968Y-95550521D01*
X150718822Y-94684375D01*
X150826726Y-94684375D01*
X150866339Y-94766631D01*
X150937718Y-94823553D01*
X151004194Y-94838726D01*
X151049258Y-94838726D01*
X151115734Y-94823553D01*
X151187113Y-94766631D01*
X151226726Y-94684375D01*
X151226726Y-94593077D01*
X151187113Y-94510821D01*
X151115734Y-94453899D01*
X151049258Y-94438726D01*
X151004194Y-94438726D01*
X150937718Y-94453899D01*
X150866339Y-94510821D01*
X150826726Y-94593077D01*
X150826726Y-94684375D01*
X150718822Y-94684375D01*
X150443306Y-94408859D01*
X150457410Y-94401589D01*
X150622540Y-94271729D01*
X150760110Y-94112965D01*
X150794665Y-94053112D01*
X151938521Y-95196968D01*
X151938522Y-95196968D01*
X152086112Y-95008584D01*
X152086118Y-95008576D01*
X152255101Y-94729043D01*
X152255102Y-94729041D01*
X152389160Y-94431175D01*
X152389164Y-94431164D01*
X152486332Y-94119341D01*
X152534531Y-93856331D01*
X152565977Y-93793938D01*
X152626164Y-93758451D01*
X152695982Y-93761137D01*
G37*
%TD.AperFunction*%
%TA.AperFunction,Conductor*%
G36*
X93931758Y-56767124D02*
G01*
X93969932Y-56769002D01*
X93976993Y-56769919D01*
X93988725Y-56770757D01*
X94004375Y-56773002D01*
X94012731Y-56769850D01*
X94022043Y-56769500D01*
X94959386Y-56769500D01*
X95026425Y-56789185D01*
X95072180Y-56841989D01*
X95082124Y-56911147D01*
X95053099Y-56974703D01*
X94996277Y-57011885D01*
X94925831Y-57033836D01*
X94925824Y-57033839D01*
X94627958Y-57167897D01*
X94627956Y-57167898D01*
X94348423Y-57336881D01*
X94160030Y-57484476D01*
X94160030Y-57484477D01*
X95301693Y-58626140D01*
X95287590Y-58633411D01*
X95122460Y-58763271D01*
X94984890Y-58922035D01*
X94950334Y-58981887D01*
X94410370Y-58441923D01*
X94518274Y-58441923D01*
X94557887Y-58524179D01*
X94629266Y-58581101D01*
X94695742Y-58596274D01*
X94740806Y-58596274D01*
X94807282Y-58581101D01*
X94878661Y-58524179D01*
X94918274Y-58441923D01*
X94918274Y-58350625D01*
X94878661Y-58268369D01*
X94807282Y-58211447D01*
X94740806Y-58196274D01*
X94695742Y-58196274D01*
X94629266Y-58211447D01*
X94557887Y-58268369D01*
X94518274Y-58350625D01*
X94518274Y-58441923D01*
X94410370Y-58441923D01*
X93806477Y-57838030D01*
X93806476Y-57838030D01*
X93658881Y-58026423D01*
X93489898Y-58305956D01*
X93489897Y-58305958D01*
X93355839Y-58603824D01*
X93355835Y-58603835D01*
X93258667Y-58915658D01*
X93210469Y-59178668D01*
X93179023Y-59241061D01*
X93118836Y-59276548D01*
X93049018Y-59273862D01*
X92991735Y-59233857D01*
X92965175Y-59169232D01*
X92964500Y-59156316D01*
X92964500Y-57827053D01*
X92968551Y-57813256D01*
X92965752Y-57793706D01*
X92964915Y-57781957D01*
X92964002Y-57774929D01*
X92962567Y-57745762D01*
X92962124Y-57736758D01*
X92957696Y-57622876D01*
X92958751Y-57601229D01*
X92967711Y-57535892D01*
X92982547Y-57447993D01*
X92987175Y-57429444D01*
X93009502Y-57362463D01*
X93010532Y-57359619D01*
X93042698Y-57277485D01*
X93046206Y-57270038D01*
X93083691Y-57202583D01*
X93085968Y-57198812D01*
X93133293Y-57126474D01*
X93137430Y-57120871D01*
X93187137Y-57060971D01*
X93190972Y-57056763D01*
X93251763Y-56995972D01*
X93255971Y-56992137D01*
X93315871Y-56942430D01*
X93321474Y-56938293D01*
X93393812Y-56890968D01*
X93397583Y-56888691D01*
X93465038Y-56851206D01*
X93472485Y-56847698D01*
X93554619Y-56815532D01*
X93557463Y-56814502D01*
X93624444Y-56792175D01*
X93642993Y-56787547D01*
X93730892Y-56772711D01*
X93796229Y-56763751D01*
X93817876Y-56762696D01*
X93931758Y-56767124D01*
G37*
%TD.AperFunction*%
%TD*%
M02*
