%TF.GenerationSoftware,KiCad,Pcbnew,7.0.9*%
%TF.CreationDate,2025-06-07T20:59:00+05:30*%
%TF.ProjectId,flight_computer_rocketry,666c6967-6874-45f6-936f-6d7075746572,rev?*%
%TF.SameCoordinates,Original*%
%TF.FileFunction,Soldermask,Bot*%
%TF.FilePolarity,Negative*%
%FSLAX46Y46*%
G04 Gerber Fmt 4.6, Leading zero omitted, Abs format (unit mm)*
G04 Created by KiCad (PCBNEW 7.0.9) date 2025-06-07 20:59:00*
%MOMM*%
%LPD*%
G01*
G04 APERTURE LIST*
G04 Aperture macros list*
%AMRoundRect*
0 Rectangle with rounded corners*
0 $1 Rounding radius*
0 $2 $3 $4 $5 $6 $7 $8 $9 X,Y pos of 4 corners*
0 Add a 4 corners polygon primitive as box body*
4,1,4,$2,$3,$4,$5,$6,$7,$8,$9,$2,$3,0*
0 Add four circle primitives for the rounded corners*
1,1,$1+$1,$2,$3*
1,1,$1+$1,$4,$5*
1,1,$1+$1,$6,$7*
1,1,$1+$1,$8,$9*
0 Add four rect primitives between the rounded corners*
20,1,$1+$1,$2,$3,$4,$5,0*
20,1,$1+$1,$4,$5,$6,$7,0*
20,1,$1+$1,$6,$7,$8,$9,0*
20,1,$1+$1,$8,$9,$2,$3,0*%
G04 Aperture macros list end*
%ADD10C,0.700000*%
%ADD11C,4.400000*%
%ADD12RoundRect,0.250000X-0.600000X-0.725000X0.600000X-0.725000X0.600000X0.725000X-0.600000X0.725000X0*%
%ADD13O,1.700000X1.950000*%
%ADD14RoundRect,0.250000X-0.725000X0.600000X-0.725000X-0.600000X0.725000X-0.600000X0.725000X0.600000X0*%
%ADD15O,1.950000X1.700000*%
%ADD16RoundRect,0.250000X0.750000X-0.600000X0.750000X0.600000X-0.750000X0.600000X-0.750000X-0.600000X0*%
%ADD17O,2.000000X1.700000*%
%ADD18RoundRect,0.250000X0.600000X0.725000X-0.600000X0.725000X-0.600000X-0.725000X0.600000X-0.725000X0*%
%ADD19RoundRect,0.237500X0.300000X0.237500X-0.300000X0.237500X-0.300000X-0.237500X0.300000X-0.237500X0*%
%ADD20O,2.200000X3.500000*%
%ADD21R,1.500000X2.500000*%
%ADD22O,1.500000X2.500000*%
%ADD23RoundRect,0.250000X0.350000X0.450000X-0.350000X0.450000X-0.350000X-0.450000X0.350000X-0.450000X0*%
%ADD24R,0.500000X0.350000*%
%ADD25RoundRect,0.237500X-0.300000X-0.237500X0.300000X-0.237500X0.300000X0.237500X-0.300000X0.237500X0*%
%ADD26RoundRect,0.237500X0.237500X-0.300000X0.237500X0.300000X-0.237500X0.300000X-0.237500X-0.300000X0*%
%ADD27RoundRect,0.237500X-0.237500X0.300000X-0.237500X-0.300000X0.237500X-0.300000X0.237500X0.300000X0*%
%ADD28R,2.000000X1.500000*%
%ADD29R,2.000000X3.800000*%
G04 APERTURE END LIST*
D10*
%TO.C,H3*%
X94235000Y-59563000D03*
X94718274Y-58396274D03*
X94718274Y-60729726D03*
X95885000Y-57913000D03*
D11*
X95885000Y-59563000D03*
D10*
X95885000Y-61213000D03*
X97051726Y-58396274D03*
X97051726Y-60729726D03*
X97535000Y-59563000D03*
%TD*%
%TO.C,H4*%
X147575000Y-59817000D03*
X148058274Y-58650274D03*
X148058274Y-60983726D03*
X149225000Y-58167000D03*
D11*
X149225000Y-59817000D03*
D10*
X149225000Y-61467000D03*
X150391726Y-58650274D03*
X150391726Y-60983726D03*
X150875000Y-59817000D03*
%TD*%
D12*
%TO.C,J3*%
X126024000Y-58793500D03*
D13*
X128524000Y-58793500D03*
X131024000Y-58793500D03*
%TD*%
D14*
%TO.C,J8*%
X150114000Y-66755000D03*
D15*
X150114000Y-69255000D03*
X150114000Y-71755000D03*
%TD*%
D10*
%TO.C,H2*%
X148210000Y-93472000D03*
X148693274Y-92305274D03*
X148693274Y-94638726D03*
X149860000Y-91822000D03*
D11*
X149860000Y-93472000D03*
D10*
X149860000Y-95122000D03*
X151026726Y-92305274D03*
X151026726Y-94638726D03*
X151510000Y-93472000D03*
%TD*%
D12*
%TO.C,J9*%
X102823000Y-93599000D03*
D13*
X105323000Y-93599000D03*
X107823000Y-93599000D03*
%TD*%
D16*
%TO.C,J7*%
X96139000Y-69850000D03*
D17*
X96139000Y-67350000D03*
%TD*%
D10*
%TO.C,H1*%
X94490000Y-93345000D03*
X94973274Y-92178274D03*
X94973274Y-94511726D03*
X96140000Y-91695000D03*
D11*
X96140000Y-93345000D03*
D10*
X96140000Y-94995000D03*
X97306726Y-92178274D03*
X97306726Y-94511726D03*
X97790000Y-93345000D03*
%TD*%
D18*
%TO.C,J4*%
X131572000Y-93853000D03*
D13*
X129072000Y-93853000D03*
X126572000Y-93853000D03*
%TD*%
D18*
%TO.C,J5*%
X143343000Y-93853000D03*
D13*
X140843000Y-93853000D03*
X138343000Y-93853000D03*
%TD*%
D12*
%TO.C,J2*%
X137835000Y-58666500D03*
D13*
X140335000Y-58666500D03*
X142835000Y-58666500D03*
%TD*%
D19*
%TO.C,C2*%
X107415500Y-72517000D03*
X105690500Y-72517000D03*
%TD*%
D20*
%TO.C,SW3*%
X105528000Y-59690000D03*
X113728000Y-59690000D03*
D21*
X107628000Y-59690000D03*
D22*
X109628000Y-59690000D03*
X111628000Y-59690000D03*
%TD*%
D23*
%TO.C,R5*%
X122682000Y-82550000D03*
X120682000Y-82550000D03*
%TD*%
D24*
%TO.C,U3*%
X117551000Y-68610000D03*
X117551000Y-67960000D03*
X117551000Y-67310000D03*
X117551000Y-66660000D03*
X115951000Y-66660000D03*
X115951000Y-67310000D03*
X115951000Y-67960000D03*
X115951000Y-68610000D03*
%TD*%
D25*
%TO.C,C8*%
X114961500Y-70485000D03*
X116686500Y-70485000D03*
%TD*%
D19*
%TO.C,C11*%
X134847500Y-75819000D03*
X133122500Y-75819000D03*
%TD*%
D26*
%TO.C,C1*%
X100838000Y-68299500D03*
X100838000Y-66574500D03*
%TD*%
D27*
%TO.C,C15*%
X106807000Y-79274500D03*
X106807000Y-80999500D03*
%TD*%
D19*
%TO.C,C18*%
X134898000Y-77340500D03*
X133173000Y-77340500D03*
%TD*%
D28*
%TO.C,U5*%
X109499000Y-80786000D03*
X109499000Y-78486000D03*
D29*
X115799000Y-78486000D03*
D28*
X109499000Y-76186000D03*
%TD*%
D26*
%TO.C,C6*%
X113665000Y-68680500D03*
X113665000Y-66955500D03*
%TD*%
M02*
